<?xml version="1.0" encoding="UTF-8"?>
<svg width="71px" height="97px" viewBox="0 0 71 97" version="1.1" xmlns="http://www.w3.org/2000/svg" xmlns:xlink="http://www.w3.org/1999/xlink">
    <!-- Generator: Sketch 52.2 (67145) - http://www.bohemiancoding.com/sketch -->
    <title>投融资方_slice</title>
    <desc>Created with Sketch.</desc>
    <defs>
        <polygon id="path-1" points="0 0.0756098413 53.302284 0.0756098413 53.302284 63.6565008 0 63.6565008"></polygon>
        <polygon id="path-3" points="0.0489564233 0.117751662 25.5556576 0.117751662 25.5556576 25.6245742 0.0489564233 25.6245742"></polygon>
    </defs>
    <g id="Page-1" stroke="none" stroke-width="1" fill="none" fill-rule="evenodd">
        <g id="画板" transform="translate(-100.000000, -51.000000)">
            <g id="投融资方" transform="translate(100.000000, 51.000000)">
                <g id="Group-3">
                    <mask id="mask-2" fill="white">
                        <use xlink:href="#path-1"></use>
                    </mask>
                    <g id="Clip-2"></g>
                    <path d="M47.9239109,0.0755830767 L5.37837314,0.0755830767 C2.41278761,0.0755830767 0,2.46043791 0,5.39169094 L0,58.3405268 C0,61.2717798 2.41278761,63.6565008 5.37837314,63.6565008 L8.01022198,63.6565008 L8.01022198,61.3815144 L5.37837314,61.3815144 C3.68193474,61.3815144 2.30163231,60.0174594 2.30163231,58.3405268 L2.30163231,5.39169094 C2.30163231,3.71475834 3.68193474,2.35056945 5.37837314,2.35056945 L47.9239109,2.35056945 C49.6203493,2.35056945 51.0006517,3.71475834 51.0006517,5.39169094 L51.0006517,35.0414545 L53.302284,35.0414545 L53.302284,5.39169094 C53.302284,2.46043791 50.8894964,0.0755830767 47.9239109,0.0755830767" id="Fill-1" fill="#009CD0" mask="url(#mask-2)"></path>
                </g>
                <path d="M39.5685745,14.9837398 L11.6915881,14.9837398 C11.3320794,14.9837398 11.0406504,14.6686715 11.0406504,14.280001 L11.0406504,11.7443892 C11.0406504,11.3557188 11.3320794,11.0406504 11.6915881,11.0406504 L39.5685745,11.0406504 C39.9280832,11.0406504 40.2195122,11.3557188 40.2195122,11.7443892 L40.2195122,14.280001 C40.2195122,14.6686715 39.9280832,14.9837398 39.5685745,14.9837398" id="Fill-4" fill="#009CD0"></path>
                <path d="M39.5685745,22.0813008 L11.6915881,22.0813008 C11.3320794,22.0813008 11.0406504,21.7662439 11.0406504,21.3775876 L11.0406504,18.8419246 C11.0406504,18.4532683 11.3320794,18.1382114 11.6915881,18.1382114 L39.5685745,18.1382114 C39.9280832,18.1382114 40.2195122,18.4532683 40.2195122,18.8419246 L40.2195122,21.3775876 C40.2195122,21.7662439 39.9280832,22.0813008 39.5685745,22.0813008" id="Fill-6" fill="#009CD0"></path>
                <path d="M39.5685745,29.9674797 L11.6915881,29.9674797 C11.3320794,29.9674797 11.0406504,29.6524113 11.0406504,29.2637409 L11.0406504,26.7281291 C11.0406504,26.3394586 11.3320794,26.0243902 11.6915881,26.0243902 L39.5685745,26.0243902 C39.9280832,26.0243902 40.2195122,26.3394586 40.2195122,26.7281291 L40.2195122,29.2637409 C40.2195122,29.6524113 39.9280832,29.9674797 39.5685745,29.9674797" id="Fill-8" fill="#009CD0"></path>
                <path d="M24.6114725,33.1219512 L11.697491,33.1219512 C11.3347222,33.1219512 11.0406504,33.4370196 11.0406504,33.82569 L11.0406504,36.3613018 C11.0406504,36.7499723 11.3347222,37.0650407 11.697491,37.0650407 L24.6114725,37.0650407 C24.9561632,37.0650407 25.2357724,36.7656109 25.2357724,36.396166 L25.2357724,33.7908259 C25.2357724,33.421381 24.9561632,33.1219512 24.6114725,33.1219512" id="Fill-10" fill="#009CD0"></path>
                <path d="M20.0878278,41.0081301 L11.4785174,41.0081301 C11.2366699,41.0081301 11.0406504,41.3231985 11.0406504,41.7118689 L11.0406504,44.2474807 C11.0406504,44.6361511 11.2366699,44.9512195 11.4785174,44.9512195 L20.0878278,44.9512195 C20.3176438,44.9512195 20.504065,44.6517898 20.504065,44.2823448 L20.504065,41.6770048 C20.504065,41.3077033 20.3176438,41.0081301 20.0878278,41.0081301" id="Fill-12" fill="#009CD0"></path>
                <path d="M25.9089976,58.6205317 C22.2646968,58.6205317 18.6202608,59.1441334 16.0129408,59.9299446 C16.0021277,59.9333499 15.9911794,59.9359379 15.9799607,59.9382535 C14.715228,60.1936524 13.6975757,60.450141 13.1665151,60.9485433 C13.1400229,60.9731978 13.1110977,60.994447 13.0791989,61.0114736 C12.5740898,61.2814472 12.0841191,61.7832549 12.0841191,62.0378364 C12.0841191,62.2895575 12.3229545,62.5410062 12.8006252,63.0229268 C12.8437426,63.0665149 12.8960512,63.0992059 12.9534961,63.1193654 C13.7229866,63.3894753 14.7325291,63.8839274 15.9825288,64.1379642 C15.9919903,64.1400074 16.0013167,64.142323 16.0107782,64.1451834 C18.6182334,64.9304498 22.2636155,65.1923868 25.9089976,65.1923868 C29.82187,65.1923868 33.2128728,64.6666057 35.8215445,64.1408246 C37.12561,63.8780703 38.1690787,63.3522892 38.6905427,63.0895348 C39.2124122,62.8265081 39.4732793,62.3008632 39.4732793,62.0378364 C39.4732793,61.7802582 39.2226847,61.5226799 38.721225,61.0171945 C38.7013558,60.997035 38.6786482,60.9783739 38.6551296,60.9625732 C37.8876665,60.4549084 37.1127694,60.195968 35.8383049,59.9382535 C35.8273565,59.9359379 35.8162731,59.9333499 35.8055951,59.9299446 C33.199086,59.1441334 29.8138953,58.6205317 25.9089976,58.6205317 M25.9089976,66.5067034 C18.6052576,66.5067034 11.0406504,64.9294963 11.0406504,62.0378364 C11.0406504,60.7235199 12.6055831,59.4092033 15.7358539,58.6205317 C18.6052576,57.8319962 22.2571276,57.5691057 26.17,57.5691057 C33.7346071,57.5691057 41.2992143,59.1461766 41.2992143,62.0378364 C41.2992143,63.3522892 39.7340113,64.6666057 36.6040108,65.4554136 C33.47374,66.243949 29.82187,66.5067034 25.9089976,66.5067034 M41.7007876,86.4850232 L44.5496463,86.4850232 C44.7714509,86.4850232 44.9512195,86.6661861 44.9512195,86.8897112 L44.9512195,87.1320336 C44.9512195,87.3555587 44.7714509,87.5365854 44.5496463,87.5365854 L41.7007876,87.5365854 C41.4789829,87.5365854 41.2992143,87.3555587 41.2992143,87.1320336 L41.2992143,86.8897112 C41.2992143,86.6661861 41.4789829,86.4850232 41.7007876,86.4850232 M41.7007876,83.8565263 L44.5496463,83.8565263 C44.7714509,83.8565263 44.9512195,84.037553 44.9512195,84.2609419 L44.9512195,84.5034005 C44.9512195,84.7267894 44.7714509,84.9078161 44.5496463,84.9078161 L41.7007876,84.9078161 C41.4789829,84.9078161 41.2992143,84.7267894 41.2992143,84.5034005 L41.2992143,84.2609419 C41.2992143,84.037553 41.4789829,83.8565263 41.7007876,83.8565263 M41.7007876,80.9648664 L44.5496463,80.9648664 C44.7714509,80.9648664 44.9512195,81.1458931 44.9512195,81.3694182 L44.9512195,81.6117406 C44.9512195,81.8352657 44.7714509,82.0162924 44.5496463,82.0162924 L41.7007876,82.0162924 C41.4789829,82.0162924 41.2992143,81.8352657 41.2992143,81.6117406 L41.2992143,81.3694182 C41.2992143,81.1458931 41.4789829,80.9648664 41.7007876,80.9648664 M24.7456382,86.4850232 L27.5944969,86.4850232 C27.8160312,86.4850232 27.9957998,86.6661861 27.9957998,86.8897112 L27.9957998,87.1320336 C27.9957998,87.3555587 27.8160312,87.5365854 27.5944969,87.5365854 L24.7456382,87.5365854 C24.5238335,87.5365854 24.3440649,87.3555587 24.3440649,87.1320336 L24.3440649,86.8897112 C24.3440649,86.6661861 24.5238335,86.4850232 24.7456382,86.4850232 M24.7456382,83.8565263 L27.5944969,83.8565263 C27.8160312,83.8565263 27.9957998,84.037553 27.9957998,84.2609419 L27.9957998,84.5034005 C27.9957998,84.7267894 27.8160312,84.9078161 27.5944969,84.9078161 L24.7456382,84.9078161 C24.5238335,84.9078161 24.3440649,84.7267894 24.3440649,84.5034005 L24.3440649,84.2609419 C24.3440649,84.037553 24.5238335,83.8565263 24.7456382,83.8565263 M24.7456382,80.9648664 L27.5944969,80.9648664 C27.8160312,80.9648664 27.9957998,81.1458931 27.9957998,81.3694182 L27.9957998,81.6117406 C27.9957998,81.8352657 27.8160312,82.0162924 27.5944969,82.0162924 L24.7456382,82.0162924 C24.5238335,82.0162924 24.3440649,81.8352657 24.3440649,81.6117406 L24.3440649,81.3694182 C24.3440649,81.1458931 24.5238335,80.9648664 24.7456382,80.9648664" id="Fill-14" fill="#009CD0"></path>
                <path d="M22.2360725,85.9593496 C18.5848767,85.9593496 15.1946253,85.4374734 12.8473411,84.6542533 C9.9787084,83.8708979 8.67479675,82.8268749 8.67479675,81.5213727 L9.9787084,81.5213727 C9.9787084,82.0435195 10.7611365,82.8268749 13.3689598,83.6099597 C15.716244,84.3930446 18.8455509,84.6542533 22.4968819,84.9150561 L22.2360725,85.9593496 Z M25.1048403,75.5170909 C21.4536445,75.5170909 17.8025837,74.9950794 15.1946253,74.2118593 C12.0650481,73.4287744 10.7611365,72.3844809 10.7611365,71.079114 L10.7611365,61.6810136 L12.0650481,63.0549629 L12.0650481,71.079114 C12.0650481,71.6013961 13.1082856,72.3844809 15.716244,73.167701 C18.3240673,73.9509212 21.7143187,74.2118593 25.3653794,74.4730679 L25.1048403,75.5170909 Z M39.9698926,72.645419 L39.1874646,71.6013961 C39.1874646,71.3403227 39.4481388,71.3403227 39.4481388,71.079114 L39.4481388,61.6810136 L41.0081301,61.5121951 L41.0081301,70.9102956 C40.7523207,71.6013961 40.4913762,72.1234075 39.9698926,72.645419 Z" id="Fill-16" fill="#009CD0"></path>
                <path d="M20.7668923,75.970183 C13.1435406,75.970183 5.5203252,74.3929793 5.5203252,71.5013256 C5.5203252,69.3983419 8.67498463,68.346782 11.3034588,67.8211382 L11.5664833,69.1353157 C9.98915363,69.3983419 8.93760049,69.6613681 7.88618356,70.1868757 C7.36040699,70.7125195 6.83490284,70.9754094 6.83490284,71.5013256 C6.83490284,71.7640794 7.0975187,72.0269694 7.62343149,72.5526132 C8.41196013,73.0785294 9.20062498,73.3414193 10.5149302,73.6041731 C13.1435406,74.3929793 16.8238404,74.6557331 20.504004,74.6557331 C22.0810613,74.6557331 23.3956389,74.6557331 24.9728324,74.3929793 L24.9728324,75.7071568 C23.6585272,75.970183 22.0810613,75.970183 20.7668923,75.970183 M23.9211431,94.6341463 C16.2980638,94.6341463 8.67498463,93.0568064 8.67498463,90.165289 L8.67498463,81.4903279 L9.98915363,81.4903279 L9.98915363,90.165289 C9.98915363,90.4280427 10.2520419,90.6909327 10.7776823,91.2168489 C11.5664833,91.7424927 12.355012,92.0053827 13.6693172,92.2680002 C16.2980638,93.0568064 19.9783636,93.3196964 23.6585272,93.3196964 C25.2357207,93.3196964 26.8129142,93.3196964 28.3902439,93.0568064 L28.3902439,94.3711201 C27.3386908,94.6341463 25.498609,94.6341463 23.9211431,94.6341463" id="Fill-18" fill="#009CD0"></path>
                <path d="M20.7671128,83.5934959 C16.8240039,83.5934959 13.1436509,83.0791394 10.2521104,82.5647828 C7.09754152,81.7933812 5.5203252,80.507623 5.5203252,79.2215984 L5.5203252,71.7642276 L6.83492186,72.9067388 L6.83492186,79.2215984 C6.83492186,79.4787766 7.09754152,79.7360882 7.62346191,80.2503115 C8.41200196,80.7646681 9.20067822,81.0219796 10.5150024,81.2790246 C13.1436509,82.0504262 16.8240039,82.3077378 20.5042207,82.3077378 L22.0813008,82.3077378 L22.0813008,83.5934959 L20.7671128,83.5934959 Z" id="Fill-20" fill="#009CD0"></path>
                <g id="Group-24" transform="translate(21.292683, 70.975610)">
                    <mask id="mask-4" fill="white">
                        <use xlink:href="#path-3"></use>
                    </mask>
                    <g id="Clip-23"></g>
                    <path d="M12.802307,1.15891857 C6.55584501,1.15891857 1.35014533,6.36434852 1.35014533,12.6108105 C1.35014533,18.8575422 6.55584501,24.0629722 12.802307,24.0629722 C19.048769,24.0629722 24.2544687,18.8575422 24.2544687,12.6108105 C24.2544687,6.36434852 19.048769,1.15891857 12.802307,1.15891857 M12.802307,25.6245877 C5.77483496,25.6245877 0.0489564233,19.8984394 0.0489564233,12.8712371 C0.0489564233,5.84376506 5.77483496,0.117751662 12.802307,0.117751662 C19.8296442,0.117751662 25.5556576,5.5836082 25.5556576,12.6108105 C25.5556576,19.6384174 19.8296442,25.6245877 12.802307,25.6245877" id="Fill-22" fill="#009CD0" mask="url(#mask-4)"></path>
                </g>
                <path d="M34.0215264,82.7923585 L29.2331319,77.3645612 C29.1486659,77.2687336 29.1646643,77.1227359 29.2681114,77.0468171 L29.9588886,76.5396741 C30.0518961,76.4714533 30.1827303,76.4843277 30.259875,76.5692718 L34.2822456,80.9991082 C34.2968882,81.015168 34.3227839,81.015168 34.3374265,80.9991082 L38.3596615,76.5692718 C38.4368062,76.4843277 38.5676404,76.4714533 38.6606479,76.5396741 L39.3415278,77.0395172 C39.4486355,77.1180905 39.4615156,77.2705918 39.3690504,77.3653576 L34.0761649,82.7936857 C34.0611156,82.8090818 34.0357622,82.8085509 34.0215264,82.7923585" id="Fill-25" fill="#009CD0"></path>
                <path d="M29.4592774,84.7140955 L38.3619898,84.7140955 C38.5167153,84.7140955 38.6422764,84.8397823 38.6422764,84.9945035 L38.6422764,85.6790707 C38.6422764,85.8339209 38.5167153,85.9593496 38.3619898,85.9593496 L29.4592774,85.9593496 C29.304423,85.9593496 29.1788618,85.8339209 29.1788618,85.6790707 L29.1788618,84.9945035 C29.1788618,84.8397823 29.304423,84.7140955 29.4592774,84.7140955 M29.4592774,81.2276423 L38.3619898,81.2276423 C38.5167153,81.2276423 38.6422764,81.3532 38.6422764,81.5080503 L38.6422764,82.1926174 C38.6422764,82.3473386 38.5167153,82.4728963 38.3619898,82.4728963 L29.4592774,82.4728963 C29.304423,82.4728963 29.1788618,82.3473386 29.1788618,82.1926174 L29.1788618,81.5080503 C29.1788618,81.3532 29.304423,81.2276423 29.4592774,81.2276423" id="Fill-27" fill="#009CD0"></path>
                <path d="M7.39224384,74.7715741 L8.11333416,74.7715741 C8.27602083,74.7715741 8.40788122,74.9019131 8.40788122,75.0626914 L8.40788122,79.3974023 C8.40788122,79.5581806 8.27602083,79.6885196 8.11333416,79.6885196 L7.39224384,79.6885196 C7.22955717,79.6885196 7.09756098,79.5581806 7.09756098,79.3974023 L7.09756098,75.0626914 C7.09756098,74.9019131 7.22955717,74.7715741 7.39224384,74.7715741 M10.2751113,84.6054651 L10.9960659,84.6054651 C11.1587525,84.6054651 11.2908845,84.7358041 11.2908845,84.8965824 L11.2908845,90.0074273 C11.2908845,90.1682055 11.1587525,90.2985445 10.9960659,90.2985445 L10.2751113,90.2985445 C10.1122889,90.2985445 9.98042847,90.1682055 9.98042847,90.0074273 L9.98042847,84.8965824 C9.98042847,84.7358041 10.1122889,84.6054651 10.2751113,84.6054651 M12.3717052,65.4552846 L13.0925239,65.4552846 C13.2553464,65.4552846 13.3872068,65.5856236 13.3872068,65.7464018 L13.3872068,70.0812469 C13.3872068,70.2420251 13.2553464,70.37223 13.0925239,70.37223 L12.3717052,70.37223 C12.2090185,70.37223 12.0770223,70.2420251 12.0770223,70.0812469 L12.0770223,65.7464018 C12.0770223,65.5856236 12.2090185,65.4552846 12.3717052,65.4552846 M33.5698594,81.6336819 L34.290814,81.6250999 C34.4533648,81.6233567 34.5869906,81.7518184 34.5888918,81.9124626 L34.6991602,90.3878509 C34.701333,90.5486292 34.5709664,90.6807114 34.4078723,90.6825887 L33.6871894,90.6910366 C33.5245027,90.6929139 33.3910128,90.5643181 33.3889758,90.403808 L33.2785716,81.9284197 C33.2763988,81.7675073 33.4067654,81.6355592 33.5698594,81.6336819" id="Fill-29" fill="#009CD0"></path>
                <path d="M70.3416599,37.8536585 L32.9675535,37.8536585 C32.617252,37.8536585 32.3333333,38.1335219 32.3333333,38.4786868 L32.3333333,39.5945422 C32.3333333,39.9397071 32.617252,40.2195705 32.9675535,40.2195705 L34.7336628,40.2195705 L34.7336628,55.0142165 C35.5412086,55.2082551 36.3329361,55.4785232 37.1337219,55.6993488 L37.1337219,40.2195705 L66.0552993,40.2195705 L66.0552993,62.8134767 C66.0552993,64.3513928 65.0953838,65.1793887 63.6552402,65.1793887 L43.2217493,65.1793887 L43.2217493,67.4268251 L46.7343639,67.4268251 L44.5737429,71.1538061 C45.5765166,71.5408172 46.4488229,72.3409601 47.1803866,73.0632742 C47.1817386,73.0646069 47.1830906,73.0662061 47.1844426,73.0674055 L50.4542392,67.4268251 L52.8545687,67.4268251 L57.5474738,75.5220741 C57.6139919,75.6366849 57.7374289,75.7073171 57.8714115,75.7073171 L60.7325004,75.7073171 C61.0188526,75.7073171 61.1983974,75.4023992 61.0563029,75.1573188 L56.5747144,67.4268251 L63.7751621,67.4268251 C66.4262864,67.4268251 68.5755507,65.3083924 68.5755507,62.6950012 L68.5755507,40.101095 L70.3416599,40.101095 C70.6918263,40.101095 70.9756098,39.8213648 70.9756098,39.4760667 L70.9756098,38.4786868 C70.9756098,38.1335219 70.6918263,37.8536585 70.3416599,37.8536585" id="Fill-31" fill="#009CD0"></path>
                <path d="M44.5710483,61.5121951 C45.2801744,61.5121951 45.7528364,60.9248195 45.7528364,60.3375762 L45.7528364,55.6393652 C45.7528364,54.9344879 45.2801744,54.4647462 44.5710483,54.4647462 C43.8619221,54.4647462 43.389127,54.9344879 43.389127,55.6393652 L43.389127,60.3375762 C43.2708949,60.9248195 43.8619221,61.5121951 44.5710483,61.5121951 M58.7530381,61.5121951 C59.4620311,61.5121951 59.9349593,60.9248195 59.9349593,60.3375762 L59.9349593,49.7667998 C59.9349593,49.0620549 59.343799,48.5921809 58.7530381,48.5921809 C58.1620109,48.5921809 57.57125,49.1794242 57.57125,49.7667998 L57.57125,60.4549455 C57.57125,60.9248195 58.0437788,61.5121951 58.7530381,61.5121951 M51.66191,61.5121951 C52.3710362,61.5121951 52.8438313,60.9248195 52.8438313,60.3375762 L52.8438313,46.1258384 C52.8438313,45.4209612 52.3710362,44.9512195 51.66191,44.9512195 C50.9529171,44.9512195 50.4799888,45.5383305 50.4799888,46.1258384 L50.4799888,60.3375762 C50.3618899,60.9248195 50.9529171,61.5121951 51.66191,61.5121951" id="Fill-33" fill="#009CD0"></path>
            </g>
        </g>
    </g>
</svg>