<?xml version="1.0" encoding="UTF-8"?>
<svg width="108px" height="141px" viewBox="0 0 108 141" version="1.1" xmlns="http://www.w3.org/2000/svg" xmlns:xlink="http://www.w3.org/1999/xlink">
    <!-- Generator: Sketch 51 (57462) - http://www.bohemiancoding.com/sketch -->
    <title>生产icon_slice</title>
    <desc>Created with Sketch.</desc>
    <defs>
        <polygon id="path-1" points="0 0.107439769 78.6839444 0.107439769 78.6839444 74.8414167 0 74.8414167"></polygon>
        <polygon id="path-3" points="0 140.020599 107.996576 140.020599 107.996576 -1.13686838e-13 0 -1.13686838e-13"></polygon>
    </defs>
    <g id="Page-1" stroke="none" stroke-width="1" fill="none" fill-rule="evenodd">
        <g id="Artboard" transform="translate(-99.000000, -47.000000)">
            <g id="生产icon" transform="translate(99.000000, 47.000000)">
                <g id="Group-3" transform="translate(0.000000, 19.571032)">
                    <mask id="mask-2" fill="white">
                        <use xlink:href="#path-1"></use>
                    </mask>
                    <g id="Clip-2"></g>
                    <path d="M6.87897752,3.0642121 L19.4315654,3.0642121 C19.6209545,3.0642121 19.7845107,3.19928991 19.8204588,3.38541095 L20.2691101,5.4202928 L6.38068357,5.4202928 L6.48339251,3.43832161 C6.4952196,3.2285464 6.66889107,3.0642121 6.87897752,3.0642121 M5.58655677,71.8846444 L3.35279308,71.8846444 C3.21195735,71.8846444 3.11842997,71.8174167 3.06505245,71.7607712 C3.01151931,71.7042813 2.94958271,71.6073303 2.95767493,71.4610478 L6.22739827,8.37706513 L20.9211562,8.37706513 L21.7286663,12.0392611 C22.0408392,13.6029268 23.4200957,14.7356818 25.0167527,14.7356818 L57.9408795,14.7356818 C58.0744012,14.7356818 58.1979631,14.802287 58.2715712,14.9138663 L62.0842513,20.6977798 C62.704551,21.6389671 63.7563839,22.2054225 64.8835366,22.2054225 L74.6930179,22.2054225 C74.8659112,22.2054225 75.0188853,22.3176242 75.0708622,22.4827366 L75.8296634,24.8954628 C75.950113,25.2785983 76.3584588,25.4914859 76.7415942,25.3708807 L78.1748507,24.9202063 C78.5578305,24.7997568 78.7707182,24.391411 78.6502686,24.0082755 L77.8914674,21.5957049 C77.4521533,20.1988634 76.1572427,19.2486501 74.6930179,19.2486501 L64.8835366,19.2486501 C64.7503262,19.2486501 64.6261418,19.1817337 64.552845,19.0704657 L60.7401648,13.2863965 C60.1178421,12.3424081 59.0713003,11.7789095 57.9408795,11.7789095 L25.0167527,11.7789095 C24.8272081,11.7789095 24.6636519,11.6438317 24.6277037,11.4578663 L22.7194963,2.80417176 C22.407479,1.24019481 21.0282225,0.107439769 19.4315654,0.107439769 L6.87897752,0.107439769 C5.10071239,0.107439769 3.63026282,1.49836772 3.53097752,3.27958963 L0.00510432277,71.3021602 C-0.0459389049,72.2184484 0.286464553,73.1260219 0.917035159,73.7925406 C1.54745014,74.4590594 2.43525994,74.8414167 3.35279308,74.8414167 L5.58655677,74.8414167 C6.14849914,74.8414167 6.60399769,74.3860738 6.60399769,73.8239758 L6.60399769,72.9020853 C6.60399769,72.3401429 6.14849914,71.8846444 5.58655677,71.8846444" id="Fill-1" fill="#009CD0" mask="url(#mask-2)"></path>
                </g>
                <path d="M21.469902,7.4637804 C22.0550317,6.91148646 22.8335965,6.61316369 23.6541787,6.62327896 C23.9470548,6.62701383 24.2383746,6.6712098 24.5200461,6.7546219 L25.4809971,7.03925014 L26.1012968,6.25181499 C27.0652046,5.02802248 28.5314524,4.34065072 30.1295101,4.3579245 C30.559487,4.3635268 30.986196,4.42188415 31.3979654,4.53159597 L32.11117,4.72160749 L32.6916311,4.26579769 C33.7889049,3.40413199 35.1711182,2.93960749 36.5942594,2.95734813 C38.0194236,2.9754 39.397902,3.47914063 40.4755677,4.37566513 L41.2043343,4.98180346 L42.0591527,4.57267954 C42.700928,4.26564207 43.386121,4.11422421 44.1105303,4.123717 C45.3142478,4.13896772 46.4379769,4.6048928 47.2744323,5.43574582 C48.0982824,6.25414928 48.5439769,7.33025879 48.5296599,8.46597061 C48.5151873,9.60183804 48.0422594,10.6664317 47.1981787,11.4636709 C46.3407147,12.2730484 45.2082709,12.708472 44.0020634,12.6952444 C43.4766916,12.6885527 42.9626801,12.595181 42.4746571,12.4179303 L41.5829568,12.0939303 L40.9169049,12.7696305 C39.7411988,13.9624548 38.1532565,14.602985 36.4470432,14.5860225 C35.3097752,14.5715499 34.2047205,14.2519072 33.2515504,13.6613308 L32.6245591,13.2730599 L31.9371873,13.5402588 C31.3242017,13.778668 30.6774467,13.894449 30.0089049,13.8868236 C28.6918963,13.8701723 27.4568991,13.3640974 26.5312738,12.461815 L25.815268,11.7638611 L24.9008473,12.168472 C24.4858098,12.3522588 24.0427608,12.4420513 23.5805706,12.4367602 C22.7570317,12.4261781 21.989049,12.1082473 21.4182363,11.5411695 C20.8601844,10.9868524 20.5581268,10.258864 20.5677752,9.49134813 C20.5775793,8.7239879 20.8978444,8.00393602 21.469902,7.4637804 M23.5430663,15.3932213 C24.1025187,15.4006911 24.6485879,15.333619 25.1781614,15.1946507 C26.5415447,16.2415037 28.2122767,16.8210311 29.9715562,16.8432847 C30.7736196,16.8530888 31.5605879,16.7478899 32.3200115,16.5287775 C33.5774179,17.1758438 34.9773718,17.5244317 36.4095389,17.5424836 C36.4481326,17.5431061 36.486415,17.5432617 36.524853,17.5432617 C38.6587089,17.5432617 40.7324957,16.794887 42.3520288,15.4590484 C42.8786455,15.5802761 43.4181787,15.6447026 43.9645591,15.6517055 C45.9357925,15.6806507 47.8094524,14.9528179 49.2280807,13.6134 C50.6596254,12.2616882 51.4615331,10.4468524 51.486121,8.50347493 C51.5108646,6.55994179 50.7550202,4.72549798 49.3581787,3.33799366 C47.9739424,1.96309452 46.1236254,1.19215504 44.147879,1.16725591 C43.2827896,1.1552732 42.442755,1.28739424 41.6392911,1.55770548 C40.172732,0.571077233 38.4254352,0.0234518732 36.6316081,0.0008870317 C34.7840922,-0.0240121037 32.9684784,0.512719885 31.4490086,1.51911182 C31.0265014,1.44643746 30.5974582,1.40691009 30.1670144,1.4014634 C28.0063919,1.37329625 25.9115965,2.22702536 24.4073775,3.71770548 C24.1702133,3.6868928 23.9310259,3.66977464 23.6915274,3.66681787 C22.0922248,3.64222997 20.5862939,4.23140576 19.44,5.31389568 C18.280634,6.40852392 17.6312334,7.87881787 17.6113141,9.45399942 C17.5913948,11.0290254 18.2032911,12.5151925 19.3344899,13.6389216 C20.4530836,14.7500455 21.9476542,15.3729908 23.5430663,15.3932213" id="Fill-4" fill="#009CD0"></path>
                <mask id="mask-4" fill="white">
                    <use xlink:href="#path-3"></use>
                </mask>
                <g id="Clip-7"></g>
                <path d="M47.9966628,112.407925 L49.9540461,112.407925 L49.9540461,110.450542 L47.9966628,110.450542 L47.9966628,112.407925 Z M24.419049,101.973009 L26.3764323,101.973009 L26.3764323,100.015625 L24.419049,100.015625 L24.419049,101.973009 Z M50.2285591,124.128104 L52.1859424,124.128104 L52.1859424,122.17072 L50.2285591,122.17072 L50.2285591,124.128104 Z M58.7680288,129.91264 C58.7680288,133.855885 55.5599308,137.063827 51.6166859,137.063827 L45.6279769,137.063827 L45.6279769,124.320916 L47.8794813,124.320916 L47.8794813,124.978876 C47.8805706,125.805372 48.5503573,126.475159 49.376853,126.476403 L53.0376484,126.476403 C53.863366,126.476403 54.5353314,125.804594 54.5353314,124.978876 L54.5353314,121.319014 C54.5353314,120.492363 53.863366,119.820553 53.0376484,119.820553 L49.376853,119.820553 C48.5511354,119.820553 47.8794813,120.492363 47.8794813,121.319014 L47.8794813,121.971683 L44.7764265,121.971683 C43.9505533,121.971683 43.2788991,122.643493 43.2788991,123.469366 L43.2788991,137.063827 L40.7864957,137.063827 L40.7864957,110.352346 C40.7864957,109.11128 39.7763689,108.101153 38.535147,108.101153 L13.0208473,108.101153 L13.0208473,98.4679885 C13.0208473,94.5247435 16.2289452,91.3166455 20.1721902,91.3166455 L32.6080634,91.3166455 L32.6080634,99.8195447 L28.7256657,99.8195447 L28.7256657,99.1639193 C28.7256657,98.3380461 28.0538559,97.6662363 27.2281383,97.6662363 L23.5674986,97.6662363 C22.7416254,97.6662363 22.0698156,98.3380461 22.0698156,99.1639193 L22.0698156,102.824559 C22.0712161,103.651055 22.7408473,104.320997 23.5674986,104.322086 L27.2281383,104.322086 C28.0538559,104.322086 28.7256657,103.651366 28.7256657,102.824559 L28.7256657,102.168934 L33.4597695,102.168934 C34.2864207,102.167689 34.9563631,101.497902 34.9572968,100.671251 L34.9572968,91.3166455 L47.8007378,91.3166455 L47.8007378,108.101153 L47.1449568,108.101153 C46.3192392,108.101153 45.6474294,108.773118 45.6474294,109.598836 L45.6474294,113.259476 C45.6486744,114.086127 46.3184611,114.755758 47.1449568,114.757003 L50.8055965,114.757003 C51.6314697,114.757003 52.3034352,114.085349 52.3034352,113.259476 L52.3034352,109.598836 C52.3034352,108.773118 51.6314697,108.101153 50.8055965,108.101153 L50.1498156,108.101153 L50.1498156,91.3166455 L51.6166859,91.3166455 C55.5599308,91.3166455 58.7680288,94.5247435 58.7680288,98.4679885 L58.7680288,129.91264 Z M19.4459135,127.288115 L21.4032968,127.288115 L21.4032968,125.331043 L19.4459135,125.331043 L19.4459135,127.288115 Z M24.422317,117.373435 L26.3797003,117.373435 L26.3797003,115.414807 L24.422317,115.414807 L24.422317,117.373435 Z M13.0208473,129.91264 L13.0208473,110.450386 L38.4371066,110.450386 L38.4371066,137.063827 L35.8628473,137.063827 L35.8628473,116.717654 C35.8628473,115.891781 35.1911931,115.220127 34.3651643,115.220127 L28.7289337,115.220127 L28.7289337,114.564346 C28.7289337,113.738473 28.0571239,113.066663 27.2312507,113.066663 L23.5707666,113.066663 C22.7448934,113.066663 22.0730836,113.738473 22.0730836,114.564346 L22.0730836,118.223896 C22.0735504,119.050703 22.7436484,119.721424 23.5707666,119.722513 L27.2312507,119.722513 C28.0571239,119.722513 28.7289337,119.050703 28.7289337,118.223896 L28.7289337,117.569205 L33.5147032,117.569205 L33.5147032,137.063827 L30.4774755,137.063827 L30.4774755,126.632646 C30.4774755,125.806772 29.8055101,125.134807 28.9797925,125.134807 L23.7526859,125.134807 L23.7526859,124.479337 C23.7526859,123.653464 23.0808761,122.981499 22.2550029,122.981499 L18.5943631,122.981499 C17.7684899,122.981499 17.0966801,123.653464 17.0966801,124.479337 L17.0966801,128.138732 C17.0973026,128.965695 17.7674006,129.636259 18.5943631,129.637504 L22.2550029,129.637504 C23.0819654,129.637504 23.7526859,128.965539 23.7526859,128.138732 L23.7526859,127.484196 L28.1291758,127.484196 L28.1291758,137.063827 L20.1721902,137.063827 C16.2289452,137.063827 13.0208473,133.855885 13.0208473,129.91264 Z M51.6166859,88.3598732 L20.1721902,88.3598732 C14.5985187,88.3598732 10.0640749,92.8944726 10.0640749,98.4679885 L10.0640749,129.91264 C10.0640749,135.486156 14.5985187,140.020599 20.1721902,140.020599 L51.6166859,140.020599 C57.1903573,140.020599 61.7248012,135.486156 61.7248012,129.91264 L61.7248012,98.4679885 C61.7248012,92.8944726 57.1903573,88.3598732 51.6166859,88.3598732 Z" id="Fill-6" fill="#009CD0" mask="url(#mask-4)"></path>
                <path d="M104.806328,101.61387 L101.988991,101.61387 L87.4746622,101.61387 C87.1792963,101.61387 86.9299937,101.364412 86.9299937,101.069201 L86.9299937,96.9619331 L105.350997,96.9619331 L105.350997,101.069201 C105.350997,101.364412 105.101538,101.61387 104.806328,101.61387 Z M86.9299937,66.4600254 L89.2053078,66.4720081 L89.2929216,50.3507516 L86.9299937,50.2967516 L86.9299937,45.7039504 L105.350997,45.7039504 L105.350997,94.3164 L86.9299937,94.3164 L86.9299937,84.0901695 L86.9299937,66.4600254 Z M40.5439937,81.4446363 C36.4108928,81.4446363 33.0484202,78.0820081 33.0484202,73.9489072 C33.0484202,69.8158063 36.4108928,66.4533337 40.5439937,66.4533337 L84.2844605,66.4533337 L84.2844605,81.4446363 L40.5439937,81.4446363 Z M105.350997,43.0584173 L86.9299937,43.0584173 L86.9299937,37.9097429 C86.9299937,37.6145326 87.1792963,37.3650744 87.4746622,37.3650744 L104.806328,37.3650744 C105.101538,37.3650744 105.350997,37.6145326 105.350997,37.9097429 L105.350997,43.0584173 Z M30.2295268,58.4907458 L35.4633251,53.2569476 L40.6969677,58.4907458 L35.4631695,63.7242329 L30.2295268,58.4907458 Z M53.3038669,63.6520254 L60.7054461,63.6520254 L60.7054461,56.7529418 L53.3038669,56.7529418 L53.3038669,63.6520254 Z M71.0617746,63.6520254 L78.4633539,63.6520254 L78.4633539,56.7529418 L71.0617746,56.7529418 L71.0617746,63.6520254 Z M104.806328,34.7195412 L87.4746622,34.7195412 C85.7155383,34.7195412 84.2844605,36.150619 84.2844605,37.9097429 L84.2844605,52.8823712 L86.6333827,52.9360599 L86.5740916,63.8078006 L85.6053597,63.8078006 L84.2844605,63.8009533 L84.2844605,63.8078006 L81.108887,63.8078006 L81.108887,56.7093683 C81.108887,55.2747112 79.9417401,54.1074086 78.5069274,54.1074086 L71.0182012,54.1074086 C69.5833885,54.1074086 68.4162415,55.2747112 68.4162415,56.7093683 L68.4162415,63.8078006 L63.3509793,63.8078006 L63.3509793,56.7093683 C63.3509793,55.2747112 62.1836767,54.1074086 60.7490196,54.1074086 L53.2602934,54.1074086 C51.8254807,54.1074086 50.6583337,55.2747112 50.6583337,56.7093683 L50.6583337,63.8078006 L40.5439937,63.8078006 C40.0208006,63.8078006 39.5066334,63.8476392 39.0046046,63.9245153 L42.5984836,60.3304807 C43.0899303,59.8391896 43.3605527,59.1857429 43.3605527,58.4907458 C43.3605527,57.7957487 43.0899303,57.142302 42.5984836,56.6508553 L37.3030599,51.3554317 C36.8116133,50.863985 36.1583222,50.5933625 35.4633251,50.5933625 C34.7681723,50.5933625 34.1148813,50.863985 33.6234346,51.3554317 L28.328011,56.6508553 C27.8365643,57.142302 27.5659418,57.7957487 27.5659418,58.4907458 C27.5659418,59.1857429 27.8365643,59.8391896 28.328011,60.3304807 L33.6234346,65.6259043 C33.7939937,65.7964634 33.9849389,65.9383885 34.1894231,66.0537026 C31.8823625,67.9141349 30.402887,70.761351 30.402887,73.9490628 C30.402887,78.5533798 33.4885124,82.4485383 37.6998899,83.6813568 L37.6998899,85.3467977 C37.6998899,85.9043827 38.1519648,86.3564576 38.7097055,86.3564576 L39.6470023,86.3564576 C40.2047429,86.3564576 40.6566622,85.9043827 40.6566622,85.3467977 L40.6566622,84.0901695 L84.2844605,84.0901695 L84.2844605,101.069201 C84.2844605,101.255167 84.3037573,101.436463 84.3344144,101.61387 L65.6981896,101.61387 C65.2914,101.61387 64.9616421,101.943628 64.9616421,102.350262 L64.9616421,103.523011 C64.9616421,103.929645 65.2914,104.259403 65.6981896,104.259403 L87.4746622,104.259403 L101.988991,104.259403 L104.806328,104.259403 C106.565452,104.259403 107.99653,102.828325 107.99653,101.069201 L107.99653,37.9097429 C107.99653,36.150619 106.565452,34.7195412 104.806328,34.7195412 Z" id="Fill-8" fill="#009CD0" mask="url(#mask-4)"></path>
                <path d="M96.3449637,51.583679 C97.722664,51.583679 98.8434363,52.7044513 98.8434363,54.081996 C98.8434363,55.4596963 97.722664,56.5804686 96.3449637,56.5804686 C94.9672634,56.5804686 93.8466467,55.4596963 93.8466467,54.081996 C93.8466467,52.7044513 94.9672634,51.583679 96.3449637,51.583679 M96.3449637,59.2260017 C99.1814421,59.2260017 101.488969,56.9184744 101.488969,54.081996 C101.488969,51.2456732 99.1814421,48.9381458 96.3449637,48.9381458 C93.5086409,48.9381458 91.2011135,51.2456732 91.2011135,54.081996 C91.2011135,56.9184744 93.5086409,59.2260017 96.3449637,59.2260017" id="Fill-9" fill="#009CD0" mask="url(#mask-4)"></path>
                <path d="M91.7801741,79.2918726 L100.498295,79.2918726 C101.439794,79.2918726 102.210111,78.5215556 102.210111,77.5800571 C102.210111,76.6385585 101.439794,75.8682415 100.498295,75.8682415 L91.7801741,75.8682415 C90.8386755,75.8682415 90.0683585,76.6385585 90.0683585,77.5800571 C90.0683585,78.5215556 90.8386755,79.2918726 91.7801741,79.2918726" id="Fill-10" fill="#009CD0" mask="url(#mask-4)"></path>
                <path d="M91.7801741,84.9984277 L100.498295,84.9984277 C101.439794,84.9984277 102.210111,84.2282663 102.210111,83.2867677 L102.210111,83.2866121 C102.210111,82.3451135 101.439794,81.5747965 100.498295,81.5747965 L91.7801741,81.5747965 C90.8386755,81.5747965 90.0683585,82.3451135 90.0683585,83.2866121 L90.0683585,83.2867677 C90.0683585,84.2282663 90.8386755,84.9984277 91.7801741,84.9984277" id="Fill-11" fill="#009CD0" mask="url(#mask-4)"></path>
                <path d="M91.7801741,90.4840184 L100.498295,90.4840184 C101.439794,90.4840184 102.210111,89.7137014 102.210111,88.7722029 C102.210111,87.8307043 101.439794,87.0603873 100.498295,87.0603873 L91.7801741,87.0603873 C90.8386755,87.0603873 90.0683585,87.8307043 90.0683585,88.7722029 C90.0683585,89.7137014 90.8386755,90.4840184 91.7801741,90.4840184" id="Fill-12" fill="#009CD0" mask="url(#mask-4)"></path>
                <path d="M40.9115671,75.7386104 C39.6536939,75.7386104 38.6304951,74.7154115 38.6304951,73.4575383 C38.6304951,72.1998207 39.6536939,71.1766219 40.9115671,71.1766219 C42.1694403,71.1766219 43.1926392,72.1998207 43.1926392,73.4575383 C43.1926392,74.7154115 42.1694403,75.7386104 40.9115671,75.7386104 M40.9115671,68.5310888 C38.1950715,68.5310888 35.984962,70.7410427 35.984962,73.4575383 C35.984962,76.174034 38.1950715,78.3841435 40.9115671,78.3841435 C43.6280628,78.3841435 45.8381723,76.174034 45.8381723,73.4575383 C45.8381723,70.7410427 43.6280628,68.5310888 40.9115671,68.5310888" id="Fill-13" fill="#009CD0" mask="url(#mask-4)"></path>
                <path d="M53.4008646,75.7386104 C52.1429914,75.7386104 51.1197925,74.7154115 51.1197925,73.4575383 C51.1197925,72.1998207 52.1429914,71.1766219 53.4008646,71.1766219 C54.6587378,71.1766219 55.6819366,72.1998207 55.6819366,73.4575383 C55.6819366,74.7154115 54.6587378,75.7386104 53.4008646,75.7386104 M53.4008646,68.5310888 C50.6843689,68.5310888 48.4742594,70.7410427 48.4742594,73.4575383 C48.4742594,76.174034 50.6843689,78.3841435 53.4008646,78.3841435 C56.1173602,78.3841435 58.3274697,76.174034 58.3274697,73.4575383 C58.3274697,70.7410427 56.1173602,68.5310888 53.4008646,68.5310888" id="Fill-14" fill="#009CD0" mask="url(#mask-4)"></path>
                <path d="M65.6015032,75.7386104 C64.34363,75.7386104 63.3204311,74.7154115 63.3204311,73.4575383 C63.3204311,72.1998207 64.34363,71.1766219 65.6015032,71.1766219 C66.8593764,71.1766219 67.8825752,72.1998207 67.8825752,73.4575383 C67.8825752,74.7154115 66.8593764,75.7386104 65.6015032,75.7386104 M65.6015032,68.5310888 C62.8850075,68.5310888 60.674898,70.7410427 60.674898,73.4575383 C60.674898,76.174034 62.8850075,78.3841435 65.6015032,78.3841435 C68.3179988,78.3841435 70.5281084,76.174034 70.5281084,73.4575383 C70.5281084,70.7410427 68.3179988,68.5310888 65.6015032,68.5310888" id="Fill-15" fill="#009CD0" mask="url(#mask-4)"></path>
                <path d="M78.3663406,75.7386104 C77.1084674,75.7386104 76.0852686,74.7154115 76.0852686,73.4575383 C76.0852686,72.1998207 77.1084674,71.1766219 78.3663406,71.1766219 C79.6240582,71.1766219 80.6472571,72.1998207 80.6472571,73.4575383 C80.6472571,74.7154115 79.6240582,75.7386104 78.3663406,75.7386104 M78.3663406,68.5310888 C75.649845,68.5310888 73.4397354,70.7410427 73.4397354,73.4575383 C73.4397354,76.174034 75.649845,78.3841435 78.3663406,78.3841435 C81.0828363,78.3841435 83.2927902,76.174034 83.2927902,73.4575383 C83.2927902,70.7410427 81.0828363,68.5310888 78.3663406,68.5310888" id="Fill-16" fill="#009CD0" mask="url(#mask-4)"></path>
            </g>
        </g>
    </g>
</svg>