<?xml version="1.0" encoding="UTF-8"?>
<svg width="98px" height="119px" viewBox="0 0 98 119" version="1.1" xmlns="http://www.w3.org/2000/svg" xmlns:xlink="http://www.w3.org/1999/xlink">
    <!-- Generator: Sketch 51 (57462) - http://www.bohemiancoding.com/sketch -->
    <title>供应链_copy_slice</title>
    <desc>Created with Sketch.</desc>
    <defs>
        <polygon id="path-1" points="1.48688986e-05 0.0129359418 79.9578145 0.0129359418 79.9578145 75.6844335 1.48688986e-05 75.6844335"></polygon>
    </defs>
    <g id="Page-1" stroke="none" stroke-width="1" fill="none" fill-rule="evenodd">
        <g id="Artboard" transform="translate(-90.000000, -44.000000)">
            <g id="供应链-copy" transform="translate(90.000000, 44.000000)">
                <path d="M24.8691102,50.8870509 L30.7061937,50.8870509 C31.1431906,50.8870509 31.4975165,51.2413768 31.4975165,51.6783737 L31.4975165,57.5615508 C31.4975165,57.9985478 31.1431906,58.3528736 30.7061937,58.3528736 L24.8691102,58.3528736 C24.4321132,58.3528736 24.0777874,57.9985478 24.0777874,57.5615508 L24.0777874,51.6783737 C24.0777874,51.2413768 24.4321132,50.8870509 24.8691102,50.8870509 M12.9067839,50.8870509 L18.7438674,50.8870509 C19.1808643,50.8870509 19.5351902,51.2413768 19.5351902,51.6783737 L19.5351902,57.5615508 C19.5351902,57.9985478 19.1808643,58.3528736 18.7438674,58.3528736 L12.9067839,58.3528736 C12.4696383,58.3528736 12.1154611,57.9985478 12.1154611,57.5615508 L12.1154611,51.6783737 C12.1154611,51.2413768 12.4696383,50.8870509 12.9067839,50.8870509 M12.9067839,37.5370103 L18.7438674,37.5370103 C19.1808643,37.5370103 19.5351902,37.8913362 19.5351902,38.3283331 L19.5351902,44.2118076 C19.5351902,44.6488045 19.1808643,45.0031304 18.7438674,45.0031304 L12.9067839,45.0031304 C12.4696383,45.0031304 12.1154611,44.6488045 12.1154611,44.2118076 L12.1154611,38.3283331 C12.1154611,37.8913362 12.4696383,37.5370103 12.9067839,37.5370103 M24.8691102,64.2556777 L30.7061937,64.2556777 C31.1431906,64.2556777 31.4975165,64.6100035 31.4975165,65.0470004 L31.4975165,70.9300289 C31.4975165,71.3670258 31.1431906,71.7215003 30.7061937,71.7215003 L24.8691102,71.7215003 C24.4321132,71.7215003 24.0777874,71.3670258 24.0777874,70.9300289 L24.0777874,65.0470004 C24.0777874,64.6100035 24.4321132,64.2556777 24.8691102,64.2556777 M12.9067839,64.2556777 L18.7438674,64.2556777 C19.1808643,64.2556777 19.5351902,64.6100035 19.5351902,65.0470004 L19.5351902,70.9300289 C19.5351902,71.3670258 19.1808643,71.7215003 18.7438674,71.7215003 L12.9067839,71.7215003 C12.4696383,71.7215003 12.1154611,71.3670258 12.1154611,70.9300289 L12.1154611,65.0470004 C12.1154611,64.6100035 12.4696383,64.2556777 12.9067839,64.2556777" id="Fill-1" fill="#0054D3"></path>
                <path d="M24.8691102,37.5369806 L30.7061937,37.5369806 C31.1431906,37.5369806 31.4975165,37.8913064 31.4975165,38.3283034 L31.4975165,44.2117779 C31.4975165,44.6489235 31.1431906,45.0031006 30.7061937,45.0031006 L24.8691102,45.0031006 C24.4321132,45.0031006 24.0777874,44.6489235 24.0777874,44.2117779 L24.0777874,38.3283034 C24.0777874,37.8913064 24.4321132,37.5369806 24.8691102,37.5369806 M36.8590926,50.8870212 L42.6961762,50.8870212 C43.1331731,50.8870212 43.4874989,51.241347 43.4874989,51.678344 L43.4874989,57.5615211 C43.4874989,57.998518 43.1331731,58.3528439 42.6961762,58.3528439 L36.8590926,58.3528439 C36.421947,58.3528439 36.0676212,57.998518 36.0676212,57.5615211 L36.0676212,51.678344 C36.0676212,51.241347 36.421947,50.8870212 36.8590926,50.8870212 M36.8590926,64.2556479 L42.6961762,64.2556479 C43.1331731,64.2556479 43.4874989,64.6099738 43.4874989,65.0471194 L43.4874989,70.9299991 C43.4874989,71.3669961 43.1331731,71.7214706 42.6961762,71.7214706 L36.8590926,71.7214706 C36.421947,71.7214706 36.0676212,71.3669961 36.0676212,70.9299991 L36.0676212,65.0471194 C36.0676212,64.6099738 36.421947,64.2556479 36.8590926,64.2556479" id="Fill-3" fill="#0054D3"></path>
                <g id="Group-7" transform="translate(0.000000, 0.135753)">
                    <mask id="mask-2" fill="white">
                        <use xlink:href="#path-1"></use>
                    </mask>
                    <g id="Clip-6"></g>
                    <path d="M1.86412869,75.6844335 L0.960991785,75.6844335 C0.430172105,75.6844335 1.48688986e-05,75.2541276 1.48688986e-05,74.7236053 L1.48688986e-05,26.8696907 C1.48688986e-05,25.9509415 0.632389126,25.4394514 0.870291504,25.2468992 C0.883673513,25.2360449 0.896758144,25.2257853 0.90895064,25.2155258 L0.99548763,25.1289888 L1.11577702,25.0498862 C4.71033326,22.6827576 8.18489748,20.3875944 11.6050415,18.1282653 C19.9964532,12.5852885 36.3085271,1.92889761 38.8933364,0.240682862 C39.1209792,0.0919938756 39.3868351,0.0128913351 39.658936,0.0128913351 C40.152286,0.0128913351 47.5064433,4.63949782 50.0439695,6.33113242 L50.1080545,6.37648256 C51.2758578,7.25240937 52.3783866,7.94098807 53.5457438,8.67030755 C54.2230222,9.09332771 54.9231986,9.53062202 55.6447862,10.0117796 L55.6883521,10.0419634 C57.3341905,11.2305832 58.9043462,12.1912627 60.5666891,13.2082954 C61.7200695,13.9138246 62.9125552,14.6434415 64.1263034,15.4527556 C67.2871338,17.5598273 70.3291618,19.5293616 73.2708247,21.4340675 C75.2361957,22.7063991 77.2684768,24.022148 79.3202361,25.3686754 L79.9578145,25.7870862 L79.9578145,27.8608515 C79.9578145,28.3915225 79.5275085,28.8216798 78.9968376,28.8216798 L78.0937007,28.8216798 C77.562881,28.8216798 77.1327237,28.3915225 77.1327237,27.8608515 L77.1327237,27.3127839 C75.304444,26.116135 73.4931147,24.9434249 71.7356109,23.8055081 C68.7859188,21.8957468 65.735713,19.9210084 62.5592702,17.8032311 C61.3913182,17.0245469 60.222474,16.3096503 59.0924378,15.6180978 C57.4647394,14.6224763 55.7820262,13.5928051 54.0564905,12.3481296 C53.3768331,11.895669 52.7019338,11.4741358 52.0491892,11.0662819 C50.8926862,10.3439508 49.6975242,9.59738337 48.4448195,8.66034538 C46.5280697,7.38340437 42.4483414,4.82714332 40.6396885,3.65592018 C40.0832943,3.29564677 39.3673569,3.29609284 38.8109627,3.65651494 C29.9232272,9.41390116 21.7679337,14.8009031 13.1621126,20.4855804 C10.0760727,22.5241064 6.94616954,24.5916268 3.72348446,26.7150542 C3.16307567,27.084249 2.8251056,27.7106756 2.8251056,28.381709 L2.8251056,74.7236053 C2.8251056,75.2541276 2.39479968,75.6844335 1.86412869,75.6844335" id="Fill-5" fill="#0054D3" mask="url(#mask-2)"></path>
                </g>
                <path d="M31.4975314,92.7371868 L11.5236938,92.7371868 L11.5236938,88.0377227 C11.5236938,86.7451693 12.5808725,85.6876932 13.8735745,85.6876932 L46.7716074,85.6876932 C48.0640121,85.6876932 49.1213395,86.7451693 49.1213395,88.0377227 L49.1213395,92.7371868 L31.4975314,92.7371868 Z M47.9465478,113.885965 C47.9465478,115.178518 46.8890717,116.235994 45.5965184,116.235994 L45.5965184,95.0872162 L47.9465478,95.0872162 L47.9465478,113.885965 Z M17.3982469,116.235994 L17.3982469,95.0872162 L29.1475019,95.0872162 L29.1475019,97.4369482 L31.4975314,97.4369482 L31.4975314,95.0872162 L43.246935,95.0872162 L43.246935,116.235994 L17.3982469,116.235994 Z M12.6984855,113.885965 L12.6984855,95.0872162 L15.0482175,95.0872162 L15.0482175,116.235994 C13.7559615,116.235994 12.6984855,115.178518 12.6984855,113.885965 Z M22.0980084,80.9880805 C22.0980084,79.6955271 23.1554845,78.6381997 24.4477405,78.6381997 L36.1969954,78.6381997 C37.4895488,78.6381997 38.5470249,79.6955271 38.5470249,80.9880805 L38.5470249,83.3378125 L22.0980084,83.3378125 L22.0980084,80.9880805 Z M51.4713689,88.0377227 C51.4713689,85.452616 49.3562681,83.3378125 46.7716074,83.3378125 L40.8970543,83.3378125 L40.8970543,80.9880805 C40.8970543,78.4031224 38.7821022,76.2881703 36.1969954,76.2881703 L24.4477405,76.2881703 C21.8629311,76.2881703 19.7481277,78.4031224 19.7481277,80.9880805 L19.7481277,83.3378125 L13.8735745,83.3378125 C11.2886165,83.3378125 9.17366437,85.452616 9.17366437,88.0377227 L9.17366437,92.7371868 C9.17366437,93.9121271 9.64352157,94.9697519 10.3487534,95.7921507 L10.3487534,113.885965 C10.3487534,116.470774 12.4635569,118.585875 15.0482175,118.585875 L45.5965184,118.585875 C48.1816251,118.585875 50.2964285,116.470774 50.2964285,113.885965 L50.2964285,95.7921507 C51.0015117,94.9697519 51.4713689,93.9121271 51.4713689,92.7371868 L51.4713689,88.0377227 Z" id="Fill-8" fill="#0054D3"></path>
                <path d="M68.5623203,33.7398951 C59.9399947,33.7398951 52.9251457,40.7547441 52.9251457,49.3770697 C52.9251457,57.9993953 59.9399947,65.0142443 68.5623203,65.0142443 C77.1844972,65.0142443 84.1993462,57.9993953 84.1993462,49.3770697 C84.1993462,40.7547441 77.1844972,33.7398951 68.5623203,33.7398951 M68.5623203,67.541957 C58.5461842,67.541957 50.397433,59.3932058 50.397433,49.3770697 C50.397433,39.3609335 58.5461842,31.2121823 68.5623203,31.2121823 C78.5783078,31.2121823 86.727059,39.3609335 86.727059,49.3770697 C86.727059,59.3932058 78.5783078,67.541957 68.5623203,67.541957" id="Fill-10" fill="#0054D3"></path>
                <path d="M45.1822857,80.8355256 C47.3855591,77.0216531 50.5075818,73.8020905 54.2447307,71.4832857 C54.8356208,71.1167674 55.0149397,70.3354067 54.6372697,69.7515051 C54.632809,69.744368 54.628051,69.7373796 54.6235903,69.7303913 C54.250827,69.153478 53.4882012,68.9807014 52.9048943,69.3430565 C48.8140142,71.8840025 45.3962492,75.4103105 42.985406,79.5872815 C42.505884,80.4180069 43.1131298,81.4567481 44.0721738,81.4567481 L44.1033985,81.4567481 C44.5479785,81.4567481 44.959847,81.22063 45.1822857,80.8355256" id="Fill-12" fill="#0054D3"></path>
                <path d="M68.2234135,64.977072 C66.3710461,64.977072 67.2300224,67.5047848 68.2234135,67.5047848 C81.9920136,67.5047848 93.3497705,78.0224489 94.6832133,91.4459419 C94.7569631,92.1881973 94.169939,92.8314258 93.4239663,92.8314258 L55.0644383,92.8314258 C54.3664922,92.8314258 53.8005819,93.3973361 53.8005819,94.0952822 C53.8005819,94.7932283 54.3664922,95.3591386 55.0644383,95.3591386 L96.077916,95.3591386 C96.7758621,95.3591386 97.3417724,94.7932283 97.3417724,94.0952822 C97.3417724,78.0395481 84.2792963,64.977072 68.2234135,64.977072" id="Fill-14" fill="#0054D3"></path>
                <path d="M64.3230932,83.8733456 L67.9167574,87.4670097 C68.1338433,87.6840956 68.4857901,87.6840956 68.702876,87.4670097 L72.0345501,84.1353356 C72.1590028,84.0108829 72.2172889,83.8345378 72.1912683,83.660423 L70.6737485,73.4594664 C70.6331564,73.1870682 70.3992687,72.9852972 70.1238967,72.9852972 L66.477894,72.9852972 C66.2083209,72.9852972 65.9775556,73.1787416 65.9305699,73.4441515 L64.1687541,83.383118 C64.1370833,83.5619909 64.1947747,83.745027 64.3230932,83.8733456 M67.9167574,91.0416416 L61.6043151,84.7291994 C61.4759965,84.6008808 61.4183052,84.4178447 61.449976,84.2389718 L63.8114544,70.9164387 C63.8584402,70.6510289 64.0892055,70.4575845 64.3587786,70.4575845 L72.3033798,70.4575845 C72.5787518,70.4575845 72.8127883,70.6593554 72.8532317,70.9317537 L74.8786731,84.5476502 C74.9046936,84.721765 74.8464075,84.8981101 74.7221036,85.0225628 L68.702876,91.0416416 C68.4857901,91.2587276 68.1338433,91.2587276 67.9167574,91.0416416" id="Fill-16" fill="#0054D3"></path>
            </g>
        </g>
    </g>
</svg>