<?xml version="1.0" encoding="UTF-8"?>
<svg width="72px" height="97px" viewBox="0 0 72 97" version="1.1" xmlns="http://www.w3.org/2000/svg" xmlns:xlink="http://www.w3.org/1999/xlink">
    <!-- Generator: Sketch 52.2 (67145) - http://www.bohemiancoding.com/sketch -->
    <title>市场渠道_copy_slice</title>
    <desc>Created with Sketch.</desc>
    <defs>
        <polygon id="path-1" points="0 97 72.1487603 97 72.1487603 0 0 0"></polygon>
    </defs>
    <g id="Page-1" stroke="none" stroke-width="1" fill="none" fill-rule="evenodd">
        <g id="画板" transform="translate(-99.000000, -51.000000)">
            <g id="市场渠道-copy" transform="translate(99.000000, 51.000000)">
                <path d="M14.3089144,47.2975207 L2.26390215,47.2975207 C1.01536467,47.2975207 0,46.3763531 0,45.2442362 L0,26.4221311 C0,25.7158805 0.379960326,25.0522828 1.01603956,24.6465855 L16.8626798,14.5570564 C17.7865975,13.9691755 19.0324354,13.963224 19.9627646,14.5421775 L31.8474916,21.9399532 C32.1748109,22.1432978 32.6789501,22.0808065 32.8858024,21.8113336 L46.8188058,3.6574552 C47.1194672,3.26696744 47.6428406,3.10991267 48.1193095,3.2666368 C48.5866674,3.41972387 48.9008264,3.84294515 48.9008264,4.31939973 L48.9008264,26.4670983 L46.8761711,26.4670983 L46.8761711,6.88352553 L34.5041769,23.0036273 C33.6622577,24.1013575 31.9828061,24.3747981 30.7619389,23.6143224 L18.8772119,16.2168773 C18.611982,16.0515565 18.2286472,16.0535403 17.9661169,16.2205144 L2.11981418,26.3100435 C2.04996357,26.3543495 2.02465538,26.4016313 2.02465538,26.4221311 L2.02465538,45.2442362 C2.03241656,45.2452281 2.1167772,45.3136709 2.26390215,45.3136709 L14.3089144,45.3136709 L14.3089144,47.2975207 Z" id="Fill-1" fill="#0054D3"></path>
                <mask id="mask-2" fill="white">
                    <use xlink:href="#path-1"></use>
                </mask>
                <g id="Clip-4"></g>
                <polygon id="Fill-3" fill="#0054D3" mask="url(#mask-2)" points="20.8429752 48.0991736 32.0661157 48.0991736 32.0661157 45.6942149 20.8429752 45.6942149"></polygon>
                <path d="M0.897144801,18.4380165 L0,17.0567286 L16.9077032,6.52273032 C17.6487502,6.06142795 18.648846,6.05488001 19.3965781,6.50767006 L31.5234087,13.8475833 C31.6507605,13.924849 31.8382785,13.8845791 31.8924281,13.8177901 L41.8378999,1.64320551 L34.9321579,1.75190132 L34.9054173,0.115243742 L42.2169469,0 L42.2510411,0 C43.0890225,0 43.6853363,0.00785752786 43.9828247,0.585058429 C44.289338,1.17993877 43.8858903,1.71523285 43.4958128,2.2328475 L33.1977002,14.8405784 C32.6013864,15.5700189 31.4802896,15.7448489 30.6446481,15.2400027 L18.5181517,7.90008947 C18.3102441,7.77436903 18.0100816,7.77535122 17.804848,7.90401824 L0.897144801,18.4380165 Z" id="Fill-5" fill="#0054D3" mask="url(#mask-2)"></path>
                <polygon id="Fill-6" fill="#0054D3" mask="url(#mask-2)" points="4.80991736 29.661157 12.0247934 29.661157 12.0247934 28.0578512 4.80991736 28.0578512"></polygon>
                <polygon id="Fill-7" fill="#0054D3" mask="url(#mask-2)" points="4.80991736 33.6694215 12.0247934 33.6694215 12.0247934 32.0661157 4.80991736 32.0661157"></polygon>
                <polygon id="Fill-8" fill="#0054D3" mask="url(#mask-2)" points="4.80991736 37.677686 12.0247934 37.677686 12.0247934 36.0743802 4.80991736 36.0743802"></polygon>
                <polygon id="Fill-9" fill="#0054D3" mask="url(#mask-2)" points="4.80991736 41.6859504 12.0247934 41.6859504 12.0247934 40.0826446 4.80991736 40.0826446"></polygon>
                <polygon id="Fill-10" fill="#0054D3" mask="url(#mask-2)" points="14.4297521 33.6694215 21.6446281 33.6694215 21.6446281 32.0661157 14.4297521 32.0661157"></polygon>
                <polygon id="Fill-11" fill="#0054D3" mask="url(#mask-2)" points="14.4297521 37.677686 21.6446281 37.677686 21.6446281 36.0743802 14.4297521 36.0743802"></polygon>
                <polygon id="Fill-12" fill="#0054D3" mask="url(#mask-2)" points="14.4297521 41.6859504 21.6446281 41.6859504 21.6446281 40.0826446 14.4297521 40.0826446"></polygon>
                <polygon id="Fill-13" fill="#0054D3" mask="url(#mask-2)" points="61.7272727 58.5206612 67.338843 58.5206612 67.338843 56.9173554 61.7272727 56.9173554"></polygon>
                <path d="M7.27734249,94.5427655 L29.5986906,94.5427655 L29.5986906,60.5609594 C29.5986906,59.4649644 28.7015056,58.572937 27.5984313,58.572937 L9.2776018,58.572937 C8.17452742,58.572937 7.27734249,59.4649644 7.27734249,60.5609594 L7.27734249,94.5427655 Z M31.2644628,96.1983471 L5.61157025,96.1983471 L5.61157025,60.5609594 C5.61157025,58.5520767 7.25635376,56.9173554 9.2776018,56.9173554 L27.5984313,56.9173554 C29.6196793,56.9173554 31.2644628,58.5520767 31.2644628,60.5609594 L31.2644628,96.1983471 Z" id="Fill-14" fill="#0054D3" mask="url(#mask-2)"></path>
                <path d="M12.9064601,57.4963086 L23.969573,57.4963086 L23.969573,55.3244578 C23.969573,54.115277 23.0629371,53.1317905 21.9482428,53.1317905 L14.9277902,53.1317905 C13.813096,53.1317905 12.9064601,54.115277 12.9064601,55.3244578 L12.9064601,57.4963086 Z M25.6528926,59.322314 L11.2231405,59.322314 L11.2231405,55.3244578 C11.2231405,53.1084177 12.8852502,51.3057851 14.9277902,51.3057851 L21.9482428,51.3057851 C23.9911195,51.3057851 25.6528926,53.1084177 25.6528926,55.3244578 L25.6528926,59.322314 Z" id="Fill-15" fill="#0054D3" mask="url(#mask-2)"></path>
                <path d="M30.4865237,94.5334502 L40.0589308,94.5334502 L40.0589308,71.4086985 L30.4865237,71.4086985 L30.4865237,94.5334502 Z M28.8595041,96.1983471 L41.6859504,96.1983471 L41.6859504,69.7438017 L28.8595041,69.7438017 L28.8595041,96.1983471 Z" id="Fill-16" fill="#0054D3" mask="url(#mask-2)"></path>
                <path d="M42.589942,94.5347187 L51.2034465,94.5347187 L51.2034465,54.1654455 C51.2034465,53.0637908 50.2847864,52.1677606 49.1553086,52.1677606 L44.6380798,52.1677606 C43.5086021,52.1677606 42.589942,53.0637908 42.589942,54.1654455 L42.589942,94.5347187 Z M52.9090909,96.1983471 L40.8842975,96.1983471 L40.8842975,54.1654455 C40.8842975,52.1467989 42.5684509,50.5041322 44.6380798,50.5041322 L49.1553086,50.5041322 C51.2249376,50.5041322 52.9090909,52.1467989 52.9090909,54.1654455 L52.9090909,96.1983471 Z" id="Fill-17" fill="#0054D3" mask="url(#mask-2)"></path>
                <polygon id="Fill-18" fill="#0054D3" mask="url(#mask-2)" points="17.6363636 52.107438 19.2396694 52.107438 19.2396694 44.0909091 17.6363636 44.0909091"></polygon>
                <path d="M11.4501686,65.7355372 L9.39248595,65.7355372 C9.07535207,65.7355372 8.81818182,65.4783669 8.81818182,65.1609124 L8.81818182,63.1035504 C8.81818182,62.7864165 9.07535207,62.5289256 9.39248595,62.5289256 L11.4501686,62.5289256 C11.7673025,62.5289256 12.0247934,62.7864165 12.0247934,63.1035504 L12.0247934,65.1609124 C12.0247934,65.4783669 11.7673025,65.7355372 11.4501686,65.7355372" id="Fill-19" fill="#0054D3" mask="url(#mask-2)"></path>
                <path d="M19.4666975,65.7355372 L17.4093355,65.7355372 C17.091881,65.7355372 16.8347107,65.4783669 16.8347107,65.1609124 L16.8347107,63.1035504 C16.8347107,62.7864165 17.091881,62.5289256 17.4093355,62.5289256 L19.4666975,62.5289256 C19.7838314,62.5289256 20.0413223,62.7864165 20.0413223,63.1035504 L20.0413223,65.1609124 C20.0413223,65.4783669 19.7838314,65.7355372 19.4666975,65.7355372" id="Fill-20" fill="#0054D3" mask="url(#mask-2)"></path>
                <path d="M11.4501686,70.5454545 L9.39248595,70.5454545 C9.07535207,70.5454545 8.81818182,70.2879636 8.81818182,69.9708298 L8.81818182,67.9131471 C8.81818182,67.5960132 9.07535207,67.338843 9.39248595,67.338843 L11.4501686,67.338843 C11.7673025,67.338843 12.0247934,67.5960132 12.0247934,67.9131471 L12.0247934,69.9708298 C12.0247934,70.2879636 11.7673025,70.5454545 11.4501686,70.5454545" id="Fill-21" fill="#0054D3" mask="url(#mask-2)"></path>
                <path d="M19.4666975,70.5454545 L17.4093355,70.5454545 C17.091881,70.5454545 16.8347107,70.2879636 16.8347107,69.9708298 L16.8347107,67.9131471 C16.8347107,67.5960132 17.091881,67.338843 17.4093355,67.338843 L19.4666975,67.338843 C19.7838314,67.338843 20.0413223,67.5960132 20.0413223,67.9131471 L20.0413223,69.9708298 C20.0413223,70.2879636 19.7838314,70.5454545 19.4666975,70.5454545" id="Fill-22" fill="#0054D3" mask="url(#mask-2)"></path>
                <path d="M11.4501686,75.3553719 L9.39248595,75.3553719 C9.07535207,75.3553719 8.81818182,75.0982017 8.81818182,74.7810678 L8.81818182,72.7233851 C8.81818182,72.4062512 9.07535207,72.1487603 9.39248595,72.1487603 L11.4501686,72.1487603 C11.7673025,72.1487603 12.0247934,72.4062512 12.0247934,72.7233851 L12.0247934,74.7810678 C12.0247934,75.0982017 11.7673025,75.3553719 11.4501686,75.3553719" id="Fill-23" fill="#0054D3" mask="url(#mask-2)"></path>
                <path d="M19.4666975,75.3553719 L17.4093355,75.3553719 C17.091881,75.3553719 16.8347107,75.0982017 16.8347107,74.7810678 L16.8347107,72.7233851 C16.8347107,72.4062512 17.091881,72.1487603 17.4093355,72.1487603 L19.4666975,72.1487603 C19.7838314,72.1487603 20.0413223,72.4062512 20.0413223,72.7233851 L20.0413223,74.7810678 C20.0413223,75.0982017 19.7838314,75.3553719 19.4666975,75.3553719" id="Fill-24" fill="#0054D3" mask="url(#mask-2)"></path>
                <path d="M11.4501686,80.1652893 L9.39248595,80.1652893 C9.07535207,80.1652893 8.81818182,79.908119 8.81818182,79.5906645 L8.81818182,77.5333025 C8.81818182,77.2161686 9.07535207,76.9586777 9.39248595,76.9586777 L11.4501686,76.9586777 C11.7673025,76.9586777 12.0247934,77.2161686 12.0247934,77.5333025 L12.0247934,79.5906645 C12.0247934,79.908119 11.7673025,80.1652893 11.4501686,80.1652893" id="Fill-25" fill="#0054D3" mask="url(#mask-2)"></path>
                <path d="M19.4666975,80.1652893 L17.4093355,80.1652893 C17.091881,80.1652893 16.8347107,79.908119 16.8347107,79.5906645 L16.8347107,77.5333025 C16.8347107,77.2161686 17.091881,76.9586777 17.4093355,76.9586777 L19.4666975,76.9586777 C19.7838314,76.9586777 20.0413223,77.2161686 20.0413223,77.5333025 L20.0413223,79.5906645 C20.0413223,79.908119 19.7838314,80.1652893 19.4666975,80.1652893" id="Fill-26" fill="#0054D3" mask="url(#mask-2)"></path>
                <path d="M11.4501686,85.7768595 L9.39248595,85.7768595 C9.07535207,85.7768595 8.81818182,85.5193686 8.81818182,85.2022347 L8.81818182,83.1445521 C8.81818182,82.8274182 9.07535207,82.5702479 9.39248595,82.5702479 L11.4501686,82.5702479 C11.7673025,82.5702479 12.0247934,82.8274182 12.0247934,83.1445521 L12.0247934,85.2022347 C12.0247934,85.5193686 11.7673025,85.7768595 11.4501686,85.7768595" id="Fill-27" fill="#0054D3" mask="url(#mask-2)"></path>
                <path d="M19.4666975,85.7768595 L17.4093355,85.7768595 C17.091881,85.7768595 16.8347107,85.5193686 16.8347107,85.2022347 L16.8347107,83.1445521 C16.8347107,82.8274182 17.091881,82.5702479 17.4093355,82.5702479 L19.4666975,82.5702479 C19.7838314,82.5702479 20.0413223,82.8274182 20.0413223,83.1445521 L20.0413223,85.2022347 C20.0413223,85.5193686 19.7838314,85.7768595 19.4666975,85.7768595" id="Fill-28" fill="#0054D3" mask="url(#mask-2)"></path>
                <path d="M11.4501686,90.5867769 L9.39248595,90.5867769 C9.07535207,90.5867769 8.81818182,90.3296066 8.81818182,90.0124727 L8.81818182,87.9547901 C8.81818182,87.6376562 9.07535207,87.3801653 9.39248595,87.3801653 L11.4501686,87.3801653 C11.7673025,87.3801653 12.0247934,87.6376562 12.0247934,87.9547901 L12.0247934,90.0124727 C12.0247934,90.3296066 11.7673025,90.5867769 11.4501686,90.5867769" id="Fill-29" fill="#0054D3" mask="url(#mask-2)"></path>
                <path d="M19.4666975,90.5867769 L17.4093355,90.5867769 C17.091881,90.5867769 16.8347107,90.3296066 16.8347107,90.0124727 L16.8347107,87.9547901 C16.8347107,87.6376562 17.091881,87.3801653 17.4093355,87.3801653 L19.4666975,87.3801653 C19.7838314,87.3801653 20.0413223,87.6376562 20.0413223,87.9547901 L20.0413223,90.0124727 C20.0413223,90.3296066 19.7838314,90.5867769 19.4666975,90.5867769" id="Fill-30" fill="#0054D3" mask="url(#mask-2)"></path>
                <path d="M30.6900291,72.1487603 L29.661157,70.7180353 L35.4652783,66.103337 C36.127086,65.5777572 37.0546401,65.6193731 37.6720998,66.2030716 L42.4876033,70.7668263 L41.3454734,72.0996105 L36.5303111,67.5362147 C36.5204181,67.5258107 36.5047257,67.5265282 36.4941504,67.5344209 L30.6900291,72.1487603 Z" id="Fill-31" fill="#0054D3" mask="url(#mask-2)"></path>
                <polygon id="Fill-32" fill="#0054D3" mask="url(#mask-2)" points="32.8677686 76.1570248 35.2727273 76.1570248 35.2727273 74.553719 32.8677686 74.553719"></polygon>
                <polygon id="Fill-33" fill="#0054D3" mask="url(#mask-2)" points="32.8677686 79.3636364 35.2727273 79.3636364 35.2727273 77.7603306 32.8677686 77.7603306"></polygon>
                <polygon id="Fill-34" fill="#0054D3" mask="url(#mask-2)" points="32.8677686 82.5702479 35.2727273 82.5702479 35.2727273 80.9669421 32.8677686 80.9669421"></polygon>
                <polygon id="Fill-35" fill="#0054D3" mask="url(#mask-2)" points="32.8677686 85.7768595 35.2727273 85.7768595 35.2727273 84.1735537 32.8677686 84.1735537"></polygon>
                <polygon id="Fill-36" fill="#0054D3" mask="url(#mask-2)" points="32.8677686 88.9834711 35.2727273 88.9834711 35.2727273 87.3801653 32.8677686 87.3801653"></polygon>
                <polygon id="Fill-37" fill="#0054D3" mask="url(#mask-2)" points="32.8677686 92.1900826 35.2727273 92.1900826 35.2727273 90.5867769 32.8677686 90.5867769"></polygon>
                <polygon id="Fill-38" fill="#0054D3" mask="url(#mask-2)" points="44.0909091 95.3966942 45.6942149 95.3966942 45.6942149 56.9173554 44.0909091 56.9173554"></polygon>
                <polygon id="Fill-39" fill="#0054D3" mask="url(#mask-2)" points="47.2975207 94.5950413 48.9008264 94.5950413 48.9008264 66.5371901 47.2975207 66.5371901"></polygon>
                <path d="M67.8063164,64.1322314 L54.2345295,64.1322314 L54.2345295,62.1383879 L67.8063164,62.1383879 C69.0813362,62.1383879 70.1184741,61.1198662 70.1184741,59.8677325 L70.1184741,37.1322675 C70.1184741,35.8801338 69.0813362,34.8616121 67.8063164,34.8616121 L38.0118654,34.8616121 C36.737184,34.8616121 35.6997078,35.8801338 35.6997078,37.1322675 L35.8306612,59.8620833 C35.8306612,61.1198662 36.8677991,62.1383879 38.1431573,62.1383879 L39.476717,62.1383879 L39.476717,64.1322314 L38.1431573,64.1322314 C35.7484346,64.1322314 33.800375,62.2191386 33.800375,59.8677325 L33.6694215,37.1379167 C33.6694215,34.7808614 35.6174812,32.8677686 38.0118654,32.8677686 L67.8063164,32.8677686 C70.2007007,32.8677686 72.1487603,34.7808614 72.1487603,37.1322675 L72.1487603,59.8677325 C72.1487603,62.2191386 70.2007007,64.1322314 67.8063164,64.1322314" id="Fill-40" fill="#0054D3" mask="url(#mask-2)"></path>
                <path d="M62.5289256,38.4793388 L60.8217019,38.4793388 L60.8217019,30.1593035 C60.8217019,29.9032923 60.5598137,29.6947512 60.2381728,29.6947512 L46.3813205,29.6947512 C46.060021,29.6947512 45.7981328,29.9032923 45.7981328,30.1593035 L45.7981328,38.4793388 L44.0909091,38.4793388 L44.0909091,30.1593035 C44.0909091,29.0007056 45.1183163,28.0578512 46.3813205,28.0578512 L60.2381728,28.0578512 C61.5011769,28.0578512 62.5289256,29.0007056 62.5289256,30.1593035 L62.5289256,38.4793388 Z" id="Fill-41" fill="#0054D3" mask="url(#mask-2)"></path>
                <path d="M48.0991736,39.2809917 C48.0991736,40.6091603 47.0223056,41.6859504 45.6943887,41.6859504 C44.3661241,41.6859504 43.2892562,40.6091603 43.2892562,39.2809917 C43.2892562,37.9528231 44.3661241,36.8760331 45.6943887,36.8760331 C47.0223056,36.8760331 48.0991736,37.9528231 48.0991736,39.2809917" id="Fill-42" fill="#0054D3" mask="url(#mask-2)"></path>
                <path d="M64.1322314,39.2809917 C64.1322314,40.6091603 63.0553635,41.6859504 61.7274466,41.6859504 C60.399182,41.6859504 59.322314,40.6091603 59.322314,39.2809917 C59.322314,37.9528231 60.399182,36.8760331 61.7274466,36.8760331 C63.0553635,36.8760331 64.1322314,37.9528231 64.1322314,39.2809917" id="Fill-43" fill="#0054D3" mask="url(#mask-2)"></path>
            </g>
        </g>
    </g>
</svg>