<?xml version="1.0" encoding="UTF-8"?>
<svg width="104px" height="140px" viewBox="0 0 104 140" version="1.1" xmlns="http://www.w3.org/2000/svg" xmlns:xlink="http://www.w3.org/1999/xlink">
    <!-- Generator: Sketch 51 (57462) - http://www.bohemiancoding.com/sketch -->
    <title>group_44_slice</title>
    <desc>Created with Sketch.</desc>
    <defs>
        <polygon id="path-1" points="0 140 104 140 104 0 0 0"></polygon>
    </defs>
    <g id="Page-1" stroke="none" stroke-width="1" fill="none" fill-rule="evenodd">
        <g id="Artboard" transform="translate(-104.000000, -47.000000)">
            <g id="Group-44" transform="translate(104.000000, 47.000000)">
                <path d="M20.4827624,69 L3.24070496,69 C1.4534627,69 0,67.6628825 0,66.0195623 L0,38.6984035 C0,37.6732482 0.543901295,36.7100053 1.45442877,36.1211168 L24.1383974,21.4756972 C25.4609567,20.6223609 27.2443346,20.613722 28.5760717,21.4540998 L45.5886859,32.1923144 C46.0572332,32.4874786 46.7788926,32.3967696 47.0749952,32.0056171 L67.0196528,5.65442044 C67.45004,5.08760935 68.1992327,4.85963706 68.881283,5.0871294 C69.5502912,5.30934239 70,5.92366771 70,6.61526364 L70,38.7636756 L67.1017693,38.7636756 L67.1017693,10.3372112 L49.3916476,33.7362867 C48.1864666,35.329693 45.7823843,35.7266048 44.0347512,34.622739 L27.022137,23.8850043 C26.6424687,23.6450335 26.0937371,23.6479131 25.7179331,23.8902836 L3.03444754,38.5357033 C2.93445858,38.6000155 2.8982307,38.6686472 2.8982307,38.6984035 L2.8982307,66.0195623 C2.90934058,66.0210021 3.0301002,66.1203501 3.24070496,66.1203501 L20.4827624,66.1203501 L20.4827624,69 Z" id="Fill-1" fill="#009CD0"></path>
                <mask id="mask-2" fill="white">
                    <use xlink:href="#path-1"></use>
                </mask>
                <g id="Clip-4"></g>
                <polygon id="Fill-3" fill="#009CD0" mask="url(#mask-2)" points="30 69 46 69 46 66 30 66"></polygon>
                <path d="M1.3022473,27 L0,24.9772893 L24.5423156,9.55166291 C25.6179797,8.87614752 27.0696652,8.86655894 28.155033,9.52960918 L45.7576902,20.2779267 C45.9425472,20.391072 46.2147383,20.3321022 46.2933389,20.2342987 L60.7296526,2.40625388 L50.7056477,2.56542429 L50.6668326,0.168758989 L61.279857,0 L61.3293463,0 C62.5457151,0 63.4112923,0.0115062947 63.8431105,0.856739528 C64.2880288,1.72786192 63.7024057,2.51172825 63.1361901,3.26970542 L48.188002,21.7320347 C47.3224248,22.8002024 45.6951008,23.0562175 44.4821283,22.316938 L26.8799563,11.5686205 C26.5781687,11.3845198 26.142469,11.3859581 25.8445629,11.5743736 L1.3022473,27 Z" id="Fill-5" fill="#009CD0" mask="url(#mask-2)"></path>
                <polygon id="Fill-6" fill="#009CD0" mask="url(#mask-2)" points="7 42 17 42 17 40 7 40"></polygon>
                <polygon id="Fill-7" fill="#009CD0" mask="url(#mask-2)" points="7 48 17 48 17 46 7 46"></polygon>
                <polygon id="Fill-8" fill="#009CD0" mask="url(#mask-2)" points="7 54 17 54 17 52 7 52"></polygon>
                <polygon id="Fill-9" fill="#009CD0" mask="url(#mask-2)" points="7 60 17 60 17 58 7 58"></polygon>
                <polygon id="Fill-10" fill="#009CD0" mask="url(#mask-2)" points="21 48 31 48 31 46 21 46"></polygon>
                <polygon id="Fill-11" fill="#009CD0" mask="url(#mask-2)" points="21 54 31 54 31 52 21 52"></polygon>
                <polygon id="Fill-12" fill="#009CD0" mask="url(#mask-2)" points="21 60 31 60 31 58 21 58"></polygon>
                <polygon id="Fill-13" fill="#009CD0" mask="url(#mask-2)" points="89 84 97 84 97 82 89 82"></polygon>
                <path d="M10.4025974,136.597613 L42.5974026,136.597613 L42.5974026,87.2871738 C42.5974026,85.6967934 41.3033636,84.4023872 39.7123636,84.4023872 L13.2876364,84.4023872 C11.6966364,84.4023872 10.4025974,85.6967934 10.4025974,87.2871738 L10.4025974,136.597613 Z M45,139 L8,139 L8,87.2871738 C8,84.3721171 10.3723247,82 13.2876364,82 L39.7123636,82 C42.6276753,82 45,84.3721171 45,87.2871738 L45,139 Z" id="Fill-14" fill="#009CD0" mask="url(#mask-2)"></path>
                <path d="M18.4497795,82.4944194 L34.5502205,82.4944194 L34.5502205,79.5142818 C34.5502205,77.8550863 33.2307692,76.5055806 31.6085252,76.5055806 L21.3914748,76.5055806 C19.7692308,76.5055806 18.4497795,77.8550863 18.4497795,79.5142818 L18.4497795,82.4944194 Z M37,85 L16,85 L16,79.5142818 C16,76.4735092 18.4189123,74 21.3914748,74 L31.6085252,74 C34.5815777,74 37,76.4735092 37,79.5142818 L37,85 Z" id="Fill-15" fill="#009CD0" mask="url(#mask-2)"></path>
                <path d="M44.4101276,136.608499 L58.5898724,136.608499 L58.5898724,103.391501 L44.4101276,103.391501 L44.4101276,136.608499 Z M42,139 L61,139 L61,101 L42,101 L42,139 Z" id="Fill-16" fill="#009CD0" mask="url(#mask-2)"></path>
                <path d="M61.4113475,136.597082 L73.5886525,136.597082 L73.5886525,78.2883429 C73.5886525,76.6971303 72.2899007,75.4029185 70.6931064,75.4029185 L64.3068936,75.4029185 C62.7100993,75.4029185 61.4113475,76.6971303 61.4113475,78.2883429 L61.4113475,136.597082 Z M76,139 L59,139 L59,78.2883429 C59,75.3726417 61.3809645,73 64.3068936,73 L70.6931064,73 C73.6190355,73 76,75.3726417 76,78.2883429 L76,139 Z" id="Fill-17" fill="#009CD0" mask="url(#mask-2)"></path>
                <polygon id="Fill-18" fill="#009CD0" mask="url(#mask-2)" points="25 75 27 75 27 64 25 64"></polygon>
                <path d="M17.104,95 L13.8955,95 C13.401,95 13,94.599 13,94.104 L13,90.896 C13,90.4015 13.401,90 13.8955,90 L17.104,90 C17.5985,90 18,90.4015 18,90.896 L18,94.104 C18,94.599 17.5985,95 17.104,95" id="Fill-19" fill="#009CD0" mask="url(#mask-2)"></path>
                <path d="M28.104,95 L24.896,95 C24.401,95 24,94.599 24,94.104 L24,90.896 C24,90.4015 24.401,90 24.896,90 L28.104,90 C28.5985,90 29,90.4015 29,90.896 L29,94.104 C29,94.599 28.5985,95 28.104,95" id="Fill-20" fill="#009CD0" mask="url(#mask-2)"></path>
                <path d="M17.104,102 L13.8955,102 C13.401,102 13,101.5985 13,101.104 L13,97.8955 C13,97.401 13.401,97 13.8955,97 L17.104,97 C17.5985,97 18,97.401 18,97.8955 L18,101.104 C18,101.5985 17.5985,102 17.104,102" id="Fill-21" fill="#009CD0" mask="url(#mask-2)"></path>
                <path d="M28.104,102 L24.896,102 C24.401,102 24,101.5985 24,101.104 L24,97.8955 C24,97.401 24.401,97 24.896,97 L28.104,97 C28.5985,97 29,97.401 29,97.8955 L29,101.104 C29,101.5985 28.5985,102 28.104,102" id="Fill-22" fill="#009CD0" mask="url(#mask-2)"></path>
                <path d="M17.104,109 L13.8955,109 C13.401,109 13,108.599 13,108.1045 L13,104.896 C13,104.4015 13.401,104 13.8955,104 L17.104,104 C17.5985,104 18,104.4015 18,104.896 L18,108.1045 C18,108.599 17.5985,109 17.104,109" id="Fill-23" fill="#009CD0" mask="url(#mask-2)"></path>
                <path d="M28.104,109 L24.896,109 C24.401,109 24,108.599 24,108.1045 L24,104.896 C24,104.4015 24.401,104 24.896,104 L28.104,104 C28.5985,104 29,104.4015 29,104.896 L29,108.1045 C29,108.599 28.5985,109 28.104,109" id="Fill-24" fill="#009CD0" mask="url(#mask-2)"></path>
                <path d="M17.104,116 L13.8955,116 C13.401,116 13,115.599 13,115.104 L13,111.896 C13,111.4015 13.401,111 13.8955,111 L17.104,111 C17.5985,111 18,111.4015 18,111.896 L18,115.104 C18,115.599 17.5985,116 17.104,116" id="Fill-25" fill="#009CD0" mask="url(#mask-2)"></path>
                <path d="M28.104,116 L24.896,116 C24.401,116 24,115.599 24,115.104 L24,111.896 C24,111.4015 24.401,111 24.896,111 L28.104,111 C28.5985,111 29,111.4015 29,111.896 L29,115.104 C29,115.599 28.5985,116 28.104,116" id="Fill-26" fill="#009CD0" mask="url(#mask-2)"></path>
                <path d="M17.104,124 L13.8955,124 C13.401,124 13,123.5985 13,123.104 L13,119.8955 C13,119.401 13.401,119 13.8955,119 L17.104,119 C17.5985,119 18,119.401 18,119.8955 L18,123.104 C18,123.5985 17.5985,124 17.104,124" id="Fill-27" fill="#009CD0" mask="url(#mask-2)"></path>
                <path d="M28.104,124 L24.896,124 C24.401,124 24,123.5985 24,123.104 L24,119.8955 C24,119.401 24.401,119 24.896,119 L28.104,119 C28.5985,119 29,119.401 29,119.8955 L29,123.104 C29,123.5985 28.5985,124 28.104,124" id="Fill-28" fill="#009CD0" mask="url(#mask-2)"></path>
                <path d="M17.104,131 L13.8955,131 C13.401,131 13,130.599 13,130.1045 L13,126.896 C13,126.4015 13.401,126 13.8955,126 L17.104,126 C17.5985,126 18,126.4015 18,126.896 L18,130.1045 C18,130.599 17.5985,131 17.104,131" id="Fill-29" fill="#009CD0" mask="url(#mask-2)"></path>
                <path d="M28.104,131 L24.896,131 C24.401,131 24,130.599 24,130.1045 L24,126.896 C24,126.4015 24.401,126 24.896,126 L28.104,126 C28.5985,126 29,126.4015 29,126.896 L29,130.1045 C29,130.599 28.5985,131 28.104,131" id="Fill-30" fill="#009CD0" mask="url(#mask-2)"></path>
                <path d="M44.4438682,104 L43,101.992191 L51.1452166,95.5161521 C52.0739647,94.7785794 53.3756483,94.8369811 54.2421607,95.6561147 L61,102.060662 L59.3971914,103.931026 L52.6398308,97.5269816 C52.6259475,97.5123812 52.6039256,97.5133882 52.5890848,97.5244643 L44.4438682,104 Z" id="Fill-31" fill="#009CD0" mask="url(#mask-2)"></path>
                <polygon id="Fill-32" fill="#009CD0" mask="url(#mask-2)" points="47 110 51 110 51 108 47 108"></polygon>
                <polygon id="Fill-33" fill="#009CD0" mask="url(#mask-2)" points="47 114 51 114 51 112 47 112"></polygon>
                <polygon id="Fill-34" fill="#009CD0" mask="url(#mask-2)" points="47 119 51 119 51 117 47 117"></polygon>
                <polygon id="Fill-35" fill="#009CD0" mask="url(#mask-2)" points="47 124 51 124 51 122 47 122"></polygon>
                <polygon id="Fill-36" fill="#009CD0" mask="url(#mask-2)" points="47 128 51 128 51 126 47 126"></polygon>
                <polygon id="Fill-37" fill="#009CD0" mask="url(#mask-2)" points="47 133 51 133 51 131 47 131"></polygon>
                <polygon id="Fill-38" fill="#009CD0" mask="url(#mask-2)" points="63 137 65 137 65 82 63 82"></polygon>
                <polygon id="Fill-39" fill="#009CD0" mask="url(#mask-2)" points="68 137 70 137 70 96 68 96"></polygon>
                <path d="M97.7931777,93 L78.3945003,93 L78.3945003,90.1301936 L97.7931777,90.1301936 C99.6156126,90.1301936 101.098034,88.6642008 101.098034,86.8619623 L101.098034,54.1380377 C101.098034,52.3357992 99.6156126,50.8698064 97.7931777,50.8698064 L55.2068223,50.8698064 C53.3848711,50.8698064 51.9019663,52.3357992 51.9019663,54.1380377 L52.0891431,86.8538312 C52.0891431,88.6642008 53.5715642,90.1301936 55.3944827,90.1301936 L57.3005909,90.1301936 L57.3005909,93 L55.3944827,93 C51.9716135,93 49.1871768,90.2464207 49.1871768,86.8619623 L49,54.1461688 C49,50.7535793 51.7844367,48 55.2068223,48 L97.7931777,48 C101.215563,48 104,50.7535793 104,54.1380377 L104,86.8619623 C104,90.2464207 101.215563,93 97.7931777,93" id="Fill-40" fill="#009CD0" mask="url(#mask-2)"></path>
                <path d="M90,56 L87.5925926,56 L87.5925926,44.0246914 C87.5925926,43.6562058 87.2232963,43.3560456 86.7697407,43.3560456 L67.2297778,43.3560456 C66.7767037,43.3560456 66.4074074,43.6562058 66.4074074,44.0246914 L66.4074074,56 L64,56 L64,44.0246914 C64,42.3570823 65.4487778,41 67.2297778,41 L86.7697407,41 C88.5507407,41 90,42.3570823 90,44.0246914 L90,56 Z" id="Fill-41" fill="#009CD0" mask="url(#mask-2)"></path>
                <path d="M69,56.5 C69,58.4329189 67.4328056,60 65.500253,60 C63.5671944,60 62,58.4329189 62,56.5 C62,54.5670811 63.5671944,53 65.500253,53 C67.4328056,53 69,54.5670811 69,56.5" id="Fill-42" fill="#009CD0" mask="url(#mask-2)"></path>
                <path d="M93,56.5 C93,58.4329189 91.4328056,60 89.500253,60 C87.5671944,60 86,58.4329189 86,56.5 C86,54.5670811 87.5671944,53 89.500253,53 C91.4328056,53 93,54.5670811 93,56.5" id="Fill-43" fill="#009CD0" mask="url(#mask-2)"></path>
            </g>
        </g>
    </g>
</svg>