<?xml version="1.0" encoding="UTF-8"?>
<svg width="112px" height="138px" viewBox="0 0 112 138" version="1.1" xmlns="http://www.w3.org/2000/svg" xmlns:xlink="http://www.w3.org/1999/xlink">
    <!-- Generator: Sketch 51 (57462) - http://www.bohemiancoding.com/sketch -->
    <title>供应链_slice</title>
    <desc>Created with Sketch.</desc>
    <defs>
        <polygon id="path-1" points="1.70992366e-05 0.0148763359 91.9515041 0.0148763359 91.9515041 87.0371151 1.70992366e-05 87.0371151"></polygon>
    </defs>
    <g id="Page-1" stroke="none" stroke-width="1" fill="none" fill-rule="evenodd">
        <g id="Artboard" transform="translate(-99.000000, -50.000000)">
            <g id="供应链" transform="translate(99.000000, 50.130412)">
                <path d="M28.5994821,58.5201197 L35.3121295,58.5201197 C35.814676,58.5201197 36.2221508,58.9275945 36.2221508,59.4301411 L36.2221508,66.195796 C36.2221508,66.6983426 35.814676,67.1058174 35.3121295,67.1058174 L28.5994821,67.1058174 C28.0969356,67.1058174 27.6894608,66.6983426 27.6894608,66.195796 L27.6894608,59.4301411 C27.6894608,58.9275945 28.0969356,58.5201197 28.5994821,58.5201197 M14.8428043,58.5201197 L21.5554516,58.5201197 C22.0579982,58.5201197 22.465473,58.9275945 22.465473,59.4301411 L22.465473,66.195796 C22.465473,66.6983426 22.0579982,67.1058174 21.5554516,67.1058174 L14.8428043,67.1058174 C14.3400867,67.1058174 13.9327829,66.6983426 13.9327829,66.195796 L13.9327829,59.4301411 C13.9327829,58.9275945 14.3400867,58.5201197 14.8428043,58.5201197 M14.8428043,43.1675701 L21.5554516,43.1675701 C22.0579982,43.1675701 22.465473,43.5750449 22.465473,44.0775915 L22.465473,50.8435884 C22.465473,51.346135 22.0579982,51.7536098 21.5554516,51.7536098 L14.8428043,51.7536098 C14.3400867,51.7536098 13.9327829,51.346135 13.9327829,50.8435884 L13.9327829,44.0775915 C13.9327829,43.5750449 14.3400867,43.1675701 14.8428043,43.1675701 M28.5994821,73.8940434 L35.3121295,73.8940434 C35.814676,73.8940434 36.2221508,74.3015182 36.2221508,74.8040647 L36.2221508,81.5695487 C36.2221508,82.0720953 35.814676,82.4797411 35.3121295,82.4797411 L28.5994821,82.4797411 C28.0969356,82.4797411 27.6894608,82.0720953 27.6894608,81.5695487 L27.6894608,74.8040647 C27.6894608,74.3015182 28.0969356,73.8940434 28.5994821,73.8940434 M14.8428043,73.8940434 L21.5554516,73.8940434 C22.0579982,73.8940434 22.465473,74.3015182 22.465473,74.8040647 L22.465473,81.5695487 C22.465473,82.0720953 22.0579982,82.4797411 21.5554516,82.4797411 L14.8428043,82.4797411 C14.3400867,82.4797411 13.9327829,82.0720953 13.9327829,81.5695487 L13.9327829,74.8040647 C13.9327829,74.3015182 14.3400867,73.8940434 14.8428043,73.8940434" id="Fill-1" fill="#009CD0"></path>
                <path d="M28.5994821,43.1675359 L35.3121295,43.1675359 C35.814676,43.1675359 36.2221508,43.5750107 36.2221508,44.0775573 L36.2221508,50.8435542 C36.2221508,51.3462718 35.814676,51.7535756 35.3121295,51.7535756 L28.5994821,51.7535756 C28.0969356,51.7535756 27.6894608,51.3462718 27.6894608,50.8435542 L27.6894608,44.0775573 C27.6894608,43.5750107 28.0969356,43.1675359 28.5994821,43.1675359 M42.3879646,58.5200855 L49.1006119,58.5200855 C49.6031585,58.5200855 50.0106333,58.9275603 50.0106333,59.4301069 L50.0106333,66.1957618 C50.0106333,66.6983084 49.6031585,67.1057832 49.1006119,67.1057832 L42.3879646,67.1057832 C41.885247,67.1057832 41.4777722,66.6983084 41.4777722,66.1957618 L41.4777722,59.4301069 C41.4777722,58.9275603 41.885247,58.5200855 42.3879646,58.5200855 M42.3879646,73.8940092 L49.1006119,73.8940092 C49.6031585,73.8940092 50.0106333,74.301484 50.0106333,74.8042015 L50.0106333,81.5695145 C50.0106333,82.0720611 49.6031585,82.4797069 49.1006119,82.4797069 L42.3879646,82.4797069 C41.885247,82.4797069 41.4777722,82.0720611 41.4777722,81.5695145 L41.4777722,74.8042015 C41.4777722,74.301484 41.885247,73.8940092 42.3879646,73.8940092" id="Fill-3" fill="#009CD0"></path>
                <g id="Group-7" transform="translate(0.000000, 0.156116)">
                    <mask id="mask-2" fill="white">
                        <use xlink:href="#path-1"></use>
                    </mask>
                    <g id="Clip-6"></g>
                    <path d="M2.1437484,87.0371151 L1.10514076,87.0371151 C0.494698015,87.0371151 1.70992366e-05,86.5422632 1.70992366e-05,85.9321624 L1.70992366e-05,30.9001502 C1.70992366e-05,29.8435884 0.727247634,29.2553747 1.00083542,29.0339395 C1.01622473,29.0214571 1.03127206,29.0096586 1.04529344,28.9978602 L1.14481099,28.8983426 L1.28314382,28.8073747 C5.41688427,26.0851762 9.41263389,23.445738 13.3458003,20.847509 C22.9959255,14.4730846 41.754814,2.21823267 44.7273453,0.276785344 C44.9891347,0.105792977 45.294869,0.0148250382 45.607785,0.0148250382 C46.1751377,0.0148250382 54.6324202,5.33542351 57.5505759,7.28080366 L57.6242736,7.33295634 C58.9672476,8.34027237 60.235156,9.13213802 61.5776171,9.97085557 C62.3564873,10.4573289 63.1616904,10.9602174 63.9915163,11.5135487 L64.0416171,11.5482602 C65.9343316,12.9151731 67.740011,14.0199548 69.6517056,15.1895426 C70.9780934,16.0009014 72.3494522,16.8399609 73.7452629,17.7706724 C77.3802186,20.1938052 80.8785515,22.4587701 84.2614644,24.6491823 C86.5216415,26.112364 88.8587652,27.6254754 91.2182889,29.1739823 L91.9515041,29.6551548 L91.9515041,32.0399853 C91.9515041,32.6502571 91.4566522,33.144938 90.8463805,33.144938 L89.8077728,33.144938 C89.1973301,33.144938 88.7026492,32.6502571 88.7026492,32.0399853 L88.7026492,31.4097075 C86.600127,30.0335609 84.517098,28.6849441 82.4959682,27.3763395 C79.1038217,25.1801136 75.5960843,22.909164 71.9431744,20.4737197 C70.6000293,19.5782327 69.2558583,18.7561014 67.9563163,17.9608159 C66.0844629,16.815851 64.1493423,15.6317289 62.1649759,14.2003518 C61.3833698,13.680022 60.6072354,13.1952586 59.8565789,12.7262266 C58.5266003,11.8955456 57.1521637,11.036993 55.711553,9.95939908 C53.5072904,8.49091664 48.8156018,5.55121588 46.7356507,4.20430901 C46.0957973,3.7899945 45.272469,3.79050748 44.6326156,4.20499298 C34.4117179,10.8259884 25.0331285,17.0210418 15.1364324,23.558422 C11.5874858,25.9027273 7.98809649,28.2803762 4.28200794,30.7223182 C3.63753771,31.1468922 3.24887206,31.8672831 3.24887206,32.6389716 L3.24887206,85.9321624 C3.24887206,86.5422632 2.75402015,87.0371151 2.1437484,87.0371151" id="Fill-5" fill="#009CD0" mask="url(#mask-2)"></path>
                </g>
                <path d="M36.2221679,106.647785 L13.2522504,106.647785 L13.2522504,101.2434 C13.2522504,99.7569637 14.4680061,98.540866 15.9546137,98.540866 L53.7873588,98.540866 C55.2736244,98.540866 56.4895511,99.7569637 56.4895511,101.2434 L56.4895511,106.647785 L36.2221679,106.647785 Z M55.1385405,130.968884 C55.1385405,132.455321 53.9224427,133.671419 52.4360061,133.671419 L52.4360061,109.350319 L55.1385405,109.350319 L55.1385405,130.968884 Z M20.0079878,133.671419 L20.0079878,109.350319 L33.5196336,109.350319 L33.5196336,112.052512 L36.2221679,112.052512 L36.2221679,109.350319 L49.7339847,109.350319 L49.7339847,133.671419 L20.0079878,133.671419 Z M14.6032611,130.968884 L14.6032611,109.350319 L17.3054534,109.350319 L17.3054534,133.671419 C15.8193588,133.671419 14.6032611,132.455321 14.6032611,130.968884 Z M25.4127145,93.1363102 C25.4127145,91.6498736 26.6288122,90.4339469 28.1149069,90.4339469 L41.6265527,90.4339469 C43.1129893,90.4339469 44.329087,91.6498736 44.329087,93.1363102 L44.329087,95.8385026 L25.4127145,95.8385026 L25.4127145,93.1363102 Z M59.1920855,101.2434 C59.1920855,98.270527 56.7597191,95.8385026 53.7873588,95.8385026 L47.0316214,95.8385026 L47.0316214,93.1363102 C47.0316214,90.1636079 44.599426,87.7314125 41.6265527,87.7314125 L28.1149069,87.7314125 C25.1423756,87.7314125 22.7103511,90.1636079 22.7103511,93.1363102 L22.7103511,95.8385026 L15.9546137,95.8385026 C12.9819115,95.8385026 10.549716,98.270527 10.549716,101.2434 L10.549716,106.647785 C10.549716,107.998967 11.0900519,109.215235 11.9010687,110.160994 L11.9010687,130.968884 C11.9010687,133.941416 14.3330931,136.373782 17.3054534,136.373782 L52.4360061,136.373782 C55.4088794,136.373782 57.8409038,133.941416 57.8409038,130.968884 L57.8409038,110.160994 C58.6517496,109.215235 59.1920855,107.998967 59.1920855,106.647785 L59.1920855,101.2434 Z" id="Fill-8" fill="#009CD0"></path>
                <path d="M78.8466834,38.8008867 C68.931007,38.8008867 60.8639292,46.8679646 60.8639292,56.7836409 C60.8639292,66.6993173 68.931007,74.7663951 78.8466834,74.7663951 C88.7621887,74.7663951 96.8292666,66.6993173 96.8292666,56.7836409 C96.8292666,46.8679646 88.7621887,38.8008867 78.8466834,38.8008867 M78.8466834,77.6732653 C67.3281246,77.6732653 57.9570589,68.3021997 57.9570589,56.7836409 C57.9570589,45.2650821 67.3281246,35.8940165 78.8466834,35.8940165 C90.3650711,35.8940165 99.7361368,45.2650821 99.7361368,56.7836409 C99.7361368,68.3021997 90.3650711,77.6732653 78.8466834,77.6732653" id="Fill-10" fill="#009CD0"></path>
                <path d="M51.9596385,92.9608721 C54.4934034,88.5749179 58.0837301,84.8724202 62.3814522,82.2057942 C63.0609759,81.784298 63.2671927,80.8857331 62.8328721,80.2142461 C62.8277423,80.2060385 62.8222705,80.1980018 62.8171408,80.1899652 C62.3884629,79.5265148 61.5114431,79.3278217 60.84064,79.7445301 C56.136127,82.6666186 52.2056965,86.7218736 49.4332263,91.5253911 C48.8817759,92.4807255 49.5801087,93.6752782 50.6830095,93.6752782 L50.7189179,93.6752782 C51.230185,93.6752782 51.7038339,93.4037423 51.9596385,92.9608721" id="Fill-12" fill="#009CD0"></path>
                <path d="M78.4569405,74.723647 C76.3267176,74.723647 77.3145405,77.6305173 78.4569405,77.6305173 C94.2908336,77.6305173 107.352256,89.7258333 108.885716,105.162853 C108.970528,106.016447 108.29545,106.75616 107.437582,106.75616 L63.324116,106.75616 C62.5214779,106.75616 61.8706809,107.406957 61.8706809,108.209595 C61.8706809,109.012233 62.5214779,109.66303 63.324116,109.66303 L110.489624,109.66303 C111.292263,109.66303 111.94306,109.012233 111.94306,108.209595 C111.94306,89.7454974 96.9212092,74.723647 78.4569405,74.723647" id="Fill-14" fill="#009CD0"></path>
                <path d="M73.9715713,96.4543658 L78.1042858,100.58708 C78.3539347,100.836729 78.7586736,100.836729 79.0083224,100.58708 L82.8397484,96.7556544 C82.982869,96.6125337 83.049898,96.4097368 83.0199744,96.2095047 L81.2748263,84.4784024 C81.2281453,84.1651444 80.9591744,83.9331078 80.6424965,83.9331078 L76.4495927,83.9331078 C76.1395835,83.9331078 75.8742034,84.1555689 75.8201698,84.4607902 L73.7940812,95.890604 C73.7576598,96.0963078 73.8240049,96.3067994 73.9715713,96.4543658 M78.1042858,104.697908 L70.8449759,97.4385979 C70.6974095,97.2910315 70.6310644,97.0805398 70.6674858,96.874836 L73.3831866,81.55392 C73.4372202,81.2486986 73.7026003,81.0262376 74.0126095,81.0262376 L83.1489026,81.0262376 C83.4655805,81.0262376 83.7347224,81.2582742 83.7812324,81.5715322 L86.1104904,97.2298162 C86.140414,97.4300482 86.073385,97.6328452 85.9304354,97.7759658 L79.0083224,104.697908 C78.7586736,104.947557 78.3539347,104.947557 78.1042858,104.697908" id="Fill-16" fill="#009CD0"></path>
            </g>
        </g>
    </g>
</svg>