<?xml version="1.0" encoding="UTF-8"?>
<svg width="71px" height="97px" viewBox="0 0 71 97" version="1.1" xmlns="http://www.w3.org/2000/svg" xmlns:xlink="http://www.w3.org/1999/xlink">
    <!-- Generator: Sketch 52.2 (67145) - http://www.bohemiancoding.com/sketch -->
    <title>投融资方_鼠标划过_slice</title>
    <desc>Created with Sketch.</desc>
    <defs>
        <polygon id="path-1" points="0 0.0760042588 52.9136283 0.0760042588 52.9136283 63.9885639 0 63.9885639"></polygon>
        <polygon id="path-3" points="0.0487882647 0.117450121 25.4678774 0.117450121 25.4678774 25.5589543 0.0487882647 25.5589543"></polygon>
    </defs>
    <g id="Page-1" stroke="none" stroke-width="1" fill="none" fill-rule="evenodd">
        <g id="画板" transform="translate(-100.000000, -51.000000)">
            <g id="投融资方-鼠标划过" transform="translate(100.000000, 51.000000)">
                <g id="Group-3" transform="translate(0.000000, 0.058517)">
                    <mask id="mask-2" fill="white">
                        <use xlink:href="#path-1"></use>
                    </mask>
                    <g id="Clip-2"></g>
                    <path d="M47.5744718,0.0759773546 L5.33915651,0.0759773546 C2.39519467,0.0759773546 0,2.47327275 0,5.41981661 L0,58.6448592 C0,61.591403 2.39519467,63.9885639 5.33915651,63.9885639 L7.95181513,63.9885639 L7.95181513,61.7017101 L5.33915651,61.7017101 C3.65508776,61.7017101 2.28484986,60.3305395 2.28484986,58.6448592 L2.28484986,5.41981661 C2.28484986,3.73413632 3.65508776,2.36283116 5.33915651,2.36283116 L47.5744718,2.36283116 C49.2585405,2.36283116 50.6287784,3.73413632 50.6287784,5.41981661 L50.6287784,35.2242477 L52.9136283,35.2242477 L52.9136283,5.41981661 C52.9136283,2.47327275 50.5184336,0.0759773546 47.5744718,0.0759773546" id="Fill-1" fill="#0054D3" mask="url(#mask-2)"></path>
                </g>
                <path d="M40.034521,15.0428571 L11.8017065,15.0428571 C11.437609,15.0428571 11.1424601,14.7474494 11.1424601,14.3830325 L11.1424601,12.0056462 C11.1424601,11.6412293 11.437609,11.3458216 11.8017065,11.3458216 L40.034521,11.3458216 C40.3986185,11.3458216 40.6937674,11.6412293 40.6937674,12.0056462 L40.6937674,14.3830325 C40.6937674,14.7474494 40.3986185,15.0428571 40.034521,15.0428571" id="Fill-4" fill="#0054D3"></path>
                <path d="M40.034521,21.7846635 L11.8017065,21.7846635 C11.437609,21.7846635 11.1424601,21.4892558 11.1424601,21.1248389 L11.1424601,18.7473181 C11.1424601,18.3829012 11.437609,18.0874935 11.8017065,18.0874935 L40.034521,18.0874935 C40.3986185,18.0874935 40.6937674,18.3829012 40.6937674,18.7473181 L40.6937674,21.1248389 C40.6937674,21.4892558 40.3986185,21.7846635 40.034521,21.7846635" id="Fill-6" fill="#0054D3"></path>
                <path d="M40.034521,29.4298848 L11.8017065,29.4298848 C11.437609,29.4298848 11.1424601,29.1344771 11.1424601,28.7700602 L11.1424601,26.3926739 C11.1424601,26.028257 11.437609,25.7328493 11.8017065,25.7328493 L40.034521,25.7328493 C40.3986185,25.7328493 40.6937674,26.028257 40.6937674,26.3926739 L40.6937674,28.7700602 C40.6937674,29.1344771 40.3986185,29.4298848 40.034521,29.4298848" id="Fill-8" fill="#0054D3"></path>
                <path d="M24.7629877,33.3780841 L11.8017065,33.3780841 C11.437609,33.3780841 11.1424601,33.6734918 11.1424601,34.0379087 L11.1424601,36.415295 C11.1424601,36.7797119 11.437609,37.0751196 11.8017065,37.0751196 L24.7629877,37.0751196 C25.1089409,37.0751196 25.3895742,36.7943746 25.3895742,36.4479836 L25.3895742,34.0052201 C25.3895742,33.658829 25.1089409,33.3780841 24.7629877,33.3780841" id="Fill-10" fill="#0054D3"></path>
                <path d="M20.137242,41.0233054 L11.5777912,41.0233054 C11.3373444,41.0233054 11.1424601,41.3187131 11.1424601,41.68313 L11.1424601,44.0605163 C11.1424601,44.4249332 11.3373444,44.7203409 11.5777912,44.7203409 L20.137242,44.7203409 C20.365727,44.7203409 20.5510686,44.439596 20.5510686,44.0932049 L20.5510686,41.6504414 C20.5510686,41.3041849 20.365727,41.0233054 20.137242,41.0233054" id="Fill-12" fill="#0054D3"></path>
                <path d="M25.4343438,58.5977096 C21.810572,58.5977096 18.1866657,59.1148076 15.5940331,59.8908582 C15.5832809,59.8942212 15.5723942,59.8967771 15.5612388,59.899064 C14.3036305,60.1512905 13.2917109,60.4045932 12.7636417,60.8968048 C12.7372988,60.9211531 12.7085365,60.9421383 12.6768174,60.9589534 C12.1745537,61.2255737 11.687343,61.7211484 11.687343,61.9725678 C11.687343,62.2211622 11.924833,62.4694876 12.399813,62.9454223 C12.4426875,62.9884689 12.4947015,63.0207539 12.5518227,63.040663 C13.3169786,63.3074178 14.3208341,63.7957283 15.5637924,64.0466096 C15.5732006,64.0486275 15.5824744,64.0509143 15.5918826,64.0537393 C18.1846496,64.8292517 21.8094967,65.0879353 25.4343438,65.0879353 C29.3251743,65.0879353 32.6970751,64.5686849 35.2910517,64.0494346 C36.5877712,63.7899439 37.6253619,63.2706936 38.1438884,63.011203 C38.6628181,62.7514433 38.9222158,62.2323275 38.9222158,61.9725678 C38.9222158,61.7181889 38.6730327,61.4638101 38.1743978,60.9646033 C38.1546406,60.9446942 38.1320609,60.9262649 38.1086748,60.9106605 C37.345535,60.4093014 36.5750029,60.1535773 35.3077177,59.899064 C35.2968311,59.8967771 35.28581,59.8942212 35.2751922,59.8908582 C32.683366,59.1148076 29.3172446,58.5977096 25.4343438,58.5977096 M25.4343438,66.3859266 C18.1717469,66.3859266 10.6497524,64.8283101 10.6497524,61.9725678 C10.6497524,60.6745765 12.2058696,59.3765851 15.3185071,58.5977096 C18.1717469,57.8189687 21.8030454,57.5593435 25.6938759,57.5593435 C33.2158704,57.5593435 40.737865,59.1168254 40.737865,61.9725678 C40.737865,63.2706936 39.181479,64.5686849 36.0691103,65.3476949 C32.9564728,66.1264359 29.3251743,66.3859266 25.4343438,66.3859266 M41.1371761,86.1160941 L43.9699867,86.1160941 C44.1905419,86.1160941 44.3692978,86.2950067 44.3692978,86.5157554 L44.3692978,86.7550679 C44.3692978,86.9758166 44.1905419,87.1545947 43.9699867,87.1545947 L41.1371761,87.1545947 C40.9166209,87.1545947 40.737865,86.9758166 40.737865,86.7550679 L40.737865,86.5157554 C40.737865,86.2950067 40.9166209,86.1160941 41.1371761,86.1160941 M41.1371761,83.520246 L43.9699867,83.520246 C44.1905419,83.520246 44.3692978,83.6990241 44.3692978,83.9196382 L44.3692978,84.1590853 C44.3692978,84.3796994 44.1905419,84.5584776 43.9699867,84.5584776 L41.1371761,84.5584776 C40.9166209,84.5584776 40.737865,84.3796994 40.737865,84.1590853 L40.737865,83.9196382 C40.737865,83.6990241 40.9166209,83.520246 41.1371761,83.520246 M41.1371761,80.6645036 L43.9699867,80.6645036 C44.1905419,80.6645036 44.3692978,80.8432818 44.3692978,81.0640305 L44.3692978,81.303343 C44.3692978,81.5240916 44.1905419,81.7028698 43.9699867,81.7028698 L41.1371761,81.7028698 C40.9166209,81.7028698 40.737865,81.5240916 40.737865,81.303343 L40.737865,81.0640305 C40.737865,80.8432818 40.9166209,80.6645036 41.1371761,80.6645036 M24.2775378,86.1160941 L27.1103484,86.1160941 C27.3306348,86.1160941 27.5093907,86.2950067 27.5093907,86.5157554 L27.5093907,86.7550679 C27.5093907,86.9758166 27.3306348,87.1545947 27.1103484,87.1545947 L24.2775378,87.1545947 C24.0569826,87.1545947 23.8782267,86.9758166 23.8782267,86.7550679 L23.8782267,86.5157554 C23.8782267,86.2950067 24.0569826,86.1160941 24.2775378,86.1160941 M24.2775378,83.520246 L27.1103484,83.520246 C27.3306348,83.520246 27.5093907,83.6990241 27.5093907,83.9196382 L27.5093907,84.1590853 C27.5093907,84.3796994 27.3306348,84.5584776 27.1103484,84.5584776 L24.2775378,84.5584776 C24.0569826,84.5584776 23.8782267,84.3796994 23.8782267,84.1590853 L23.8782267,83.9196382 C23.8782267,83.6990241 24.0569826,83.520246 24.2775378,83.520246 M24.2775378,80.6645036 L27.1103484,80.6645036 C27.3306348,80.6645036 27.5093907,80.8432818 27.5093907,81.0640305 L27.5093907,81.303343 C27.5093907,81.5240916 27.3306348,81.7028698 27.1103484,81.7028698 L24.2775378,81.7028698 C24.0569826,81.7028698 23.8782267,81.5240916 23.8782267,81.303343 L23.8782267,81.0640305 C23.8782267,80.8432818 24.0569826,80.6645036 24.2775378,80.6645036" id="Fill-14" fill="#0054D3"></path>
                <path d="M22.0625909,86.1161479 C18.431158,86.1161479 15.0592573,85.5971666 12.7246783,84.8182911 C9.87157286,84.0392811 8.57471896,83.0010494 8.57471896,81.7027891 L9.87157286,81.7027891 C9.87157286,82.2220394 10.6497658,83.0010494 13.2434736,83.7797904 C15.5780526,84.5585314 18.6904213,84.8182911 22.3219886,85.0776472 L22.0625909,86.1161479 Z M24.9158308,75.7318138 C21.2843979,75.7318138 17.6530995,75.212698 15.0592573,74.4338225 C11.9466197,73.6550815 10.6497658,72.6165808 10.6497658,71.318455 L10.6497658,61.9724871 L11.9466197,63.3388149 L11.9466197,71.318455 C11.9466197,71.8378398 12.9842104,72.6165808 15.5780526,73.3954563 C18.1717604,74.1743318 21.5436612,74.4338225 25.1749596,74.6935822 L24.9158308,75.7318138 Z M39.7004222,72.8760715 L38.9222292,71.8378398 C38.9222292,71.5782147 39.1814925,71.5782147 39.1814925,71.318455 L39.1814925,61.9724871 L40.7330399,61.8046051 L40.7330399,71.150573 C40.4786152,71.8378398 40.2190831,72.3569557 39.7004222,72.8760715 Z" id="Fill-16" fill="#0054D3"></path>
                <path d="M20.2468341,76.2511986 C12.7247052,76.2511986 5.20271065,74.6935822 5.20271065,71.8378398 C5.20271065,69.760973 8.31548258,68.7224724 10.909056,68.2033565 L11.168588,69.5012133 C9.61220208,69.760973 8.57461144,70.0207327 7.5371552,70.539714 C7.01835988,71.0588298 6.49983336,71.318455 6.49983336,71.8378398 C6.49983336,72.0973305 6.75896222,72.3569557 7.27789194,72.8760715 C8.05595052,73.3954563 8.8341435,73.6550815 10.1309974,73.9145721 C12.7247052,74.6935822 16.356138,74.9530728 19.9874365,74.9530728 C21.5435536,74.9530728 22.8406764,74.9530728 24.3969279,74.6935822 L24.3969279,75.991439 C23.100074,76.2511986 21.5435536,76.2511986 20.2468341,76.2511986 M23.3592029,94.6833748 C15.8373427,94.6833748 8.31548258,93.1256238 8.31548258,90.270016 L8.31548258,81.7027891 L9.61220208,81.7027891 L9.61220208,90.270016 C9.61220208,90.5295067 9.87159974,90.7891318 10.3902607,91.3085167 C11.168588,91.8276325 11.9466466,92.0872577 13.2435005,92.3466138 C15.8373427,93.1256238 19.4687756,93.385249 23.100074,93.385249 C24.6563256,93.385249 26.2125771,93.385249 27.7689631,93.1256238 L27.7689631,94.4236151 C26.7313725,94.6833748 24.9157232,94.6833748 23.3592029,94.6833748" id="Fill-18" fill="#0054D3"></path>
                <path d="M20.2468341,83.7797635 C16.356138,83.7797635 12.7247052,83.2605132 9.87159974,82.7412628 C6.75896222,81.9625219 5.20271065,80.6645305 5.20271065,79.3662702 L5.20271065,71.8379475 L6.49983336,72.9913289 L6.49983336,79.3662702 C6.49983336,79.6258954 6.75896222,79.885655 7.27789194,80.4047709 C8.05595052,80.9240212 8.8341435,81.1837809 10.1309974,81.4432715 C12.7247052,82.2220125 16.356138,82.4817722 19.9874365,82.4817722 L21.5435536,82.4817722 L21.5435536,83.7797635 L20.2468341,83.7797635 Z" id="Fill-20" fill="#0054D3"></path>
                <g id="Group-24" transform="translate(21.235663, 70.681943)">
                    <mask id="mask-4" fill="white">
                        <use xlink:href="#path-3"></use>
                    </mask>
                    <g id="Clip-23"></g>
                    <path d="M12.7583328,1.15595079 C6.53332657,1.15595079 1.34550776,6.34805057 1.34550776,12.5785165 C1.34550776,18.8092515 6.53332657,24.0013513 12.7583328,24.0013513 C18.9833391,24.0013513 24.1711579,18.8092515 24.1711579,12.5785165 C24.1711579,6.34805057 18.9833391,1.15595079 12.7583328,1.15595079 M12.7583328,25.5589677 C5.75499919,25.5589677 0.0487882647,19.8474831 0.0487882647,12.8382762 C0.0487882647,5.82880024 5.75499919,0.117450121 12.7583328,0.117450121 C19.761532,0.117450121 25.4678774,5.56930959 25.4678774,12.5785165 C25.4678774,19.588127 19.761532,25.5589677 12.7583328,25.5589677" id="Fill-22" fill="#0054D3" mask="url(#mask-4)"></path>
                </g>
                <path d="M33.9676129,82.7108342 L29.2207701,77.2096056 C29.1370371,77.1124816 29.1528967,76.9645087 29.2554461,76.8875628 L29.940229,76.3735588 C30.0324295,76.3044151 30.1621283,76.3174636 30.2386036,76.4035569 L34.2260698,80.8933235 C34.2405853,80.9096006 34.2662562,80.9096006 34.2807718,80.8933235 L38.2681036,76.4035569 C38.3445788,76.3174636 38.4742777,76.3044151 38.5664781,76.3735588 L39.2414496,76.8801642 C39.3476279,76.9598005 39.3603962,77.1143649 39.2687334,77.2104127 L34.0217773,82.7121794 C34.0068586,82.7277839 33.9817252,82.7272458 33.9676129,82.7108342" id="Fill-25" fill="#0054D3"></path>
                <path d="M29.6172454,85.0776876 L38.8895693,85.0776876 C39.0507184,85.0776876 39.1814925,85.2087108 39.1814925,85.3700013 L39.1814925,86.0836342 C39.1814925,86.2450592 39.0507184,86.3758134 38.8895693,86.3758134 L29.6172454,86.3758134 C29.4559618,86.3758134 29.3251878,86.2450592 29.3251878,86.0836342 L29.3251878,85.3700013 C29.3251878,85.2087108 29.4559618,85.0776876 29.6172454,85.0776876 M29.6172454,81.4432043 L38.8895693,81.4432043 C39.0507184,81.4432043 39.1814925,81.574093 39.1814925,81.735518 L39.1814925,82.4491509 C39.1814925,82.6104414 39.0507184,82.7413301 38.8895693,82.7413301 L29.6172454,82.7413301 C29.4559618,82.7413301 29.3251878,82.6104414 29.3251878,82.4491509 L29.3251878,81.735518 C29.3251878,81.574093 29.4559618,81.4432043 29.6172454,81.4432043" id="Fill-27" fill="#0054D3"></path>
                <path d="M7.67071139,74.953019 L8.38439097,74.953019 C8.54540568,74.953019 8.67591093,75.0837732 8.67591093,75.2450637 L8.67591093,79.5935835 C8.67591093,79.7548739 8.54540568,79.8856281 8.38439097,79.8856281 L7.67071139,79.8856281 C7.50969668,79.8856281 7.37905703,79.7548739 7.37905703,79.5935835 L7.37905703,75.2450637 C7.37905703,75.0837732 7.50969668,74.953019 7.67071139,74.953019 M10.5239513,84.8182373 L11.2374964,84.8182373 C11.3985111,84.8182373 11.5292852,84.9489915 11.5292852,85.110282 L11.5292852,90.2374082 C11.5292852,90.3986986 11.3985111,90.5294529 11.2374964,90.5294529 L10.5239513,90.5294529 C10.3628021,90.5294529 10.2322969,90.3986986 10.2322969,90.2374082 L10.2322969,85.110282 C10.2322969,84.9489915 10.3628021,84.8182373 10.5239513,84.8182373 M12.5989981,65.6070511 L13.3124089,65.6070511 C13.473558,65.6070511 13.6040633,65.7378053 13.6040633,65.8990958 L13.6040633,70.24775 C13.6040633,70.4090405 13.473558,70.5396602 13.3124089,70.5396602 L12.5989981,70.5396602 C12.4379834,70.5396602 12.3073438,70.4090405 12.3073438,70.24775 L12.3073438,65.8990958 C12.3073438,65.7378053 12.4379834,65.6070511 12.5989981,65.6070511 M33.579296,81.836987 L34.2928411,81.8283777 C34.4537215,81.8266289 34.5859739,81.9554999 34.5878556,82.1166558 L34.6969908,90.6190437 C34.6991412,90.7803342 34.5701144,90.9128372 34.4086965,90.9147205 L33.6954201,90.9231953 C33.5344054,90.9250786 33.4022873,90.7960731 33.4002713,90.6350517 L33.2910017,82.1326638 C33.2888512,81.9712388 33.417878,81.8388703 33.579296,81.836987" id="Fill-29" fill="#0054D3"></path>
                <path d="M70.3048436,37.6216642 L33.1509001,37.6216642 C32.8026621,37.6216642 32.5204159,37.9041579 32.5204159,38.2525668 L32.5204159,39.3789096 C32.5204159,39.7273185 32.8026621,40.0098122 33.1509001,40.0098122 L34.9066056,40.0098122 L34.9066056,54.9435056 C35.7093943,55.1393679 36.4964579,55.4121761 37.2925264,55.6350771 L37.2925264,40.0098122 L66.0437331,40.0098122 L66.0437331,62.8160671 C66.0437331,64.3684372 65.0894722,65.204215 63.6578122,65.204215 L43.3446905,65.204215 L43.3446905,67.472774 L46.8366131,67.472774 L44.6887198,71.234783 C45.6855864,71.6254315 46.5527541,72.4330944 47.2800084,73.1621972 C47.2813524,73.1635424 47.2826965,73.1651567 47.2840405,73.1663674 L50.5345754,67.472774 L52.9207651,67.472774 L57.5860253,75.6441062 C57.6521515,75.7597941 57.7748614,75.8310902 57.9080547,75.8310902 L60.7522896,75.8310902 C61.036955,75.8310902 61.2154421,75.5233065 61.0741846,75.2759228 L56.6189962,67.472774 L63.7770276,67.472774 C66.4125347,67.472774 68.5491381,65.3344312 68.5491381,62.6964781 L68.5491381,39.8902232 L70.3048436,39.8902232 C70.6529472,39.8902232 70.935059,39.607864 70.935059,39.2593205 L70.935059,38.2525668 C70.935059,37.9041579 70.6529472,37.6216642 70.3048436,37.6216642" id="Fill-31" fill="#0054D3"></path>
                <path d="M44.569827,61.5027807 C45.285657,61.5027807 45.7627874,60.9056429 45.7627874,60.3086395 L45.7627874,55.5323435 C45.7627874,54.8157512 45.285657,54.3382023 44.569827,54.3382023 C43.853997,54.3382023 43.3767322,54.8157512 43.3767322,55.5323435 L43.3767322,60.3086395 C43.2573824,60.9056429 43.853997,61.5027807 44.569827,61.5027807 M58.8858898,61.5027807 C59.6015854,61.5027807 60.0789847,60.9056429 60.0789847,60.3086395 L60.0789847,49.5621754 C60.0789847,48.8457175 59.4822356,48.3680341 58.8858898,48.3680341 C58.2892752,48.3680341 57.6929294,48.9650375 57.6929294,49.5621754 L57.6929294,60.4279594 C57.6929294,60.9056429 58.1699254,61.5027807 58.8858898,61.5027807 M51.727724,61.5027807 C52.443554,61.5027807 52.9208188,60.9056429 52.9208188,60.3086395 L52.9208188,45.8607007 C52.9208188,45.1441083 52.443554,44.6665595 51.727724,44.6665595 C51.0120284,44.6665595 50.5346292,45.2634283 50.5346292,45.8607007 L50.5346292,60.3086395 C50.4154138,60.9056429 51.0120284,61.5027807 51.727724,61.5027807" id="Fill-33" fill="#0054D3"></path>
            </g>
        </g>
    </g>
</svg>