<?xml version="1.0" encoding="UTF-8"?>
<svg width="90px" height="123px" viewBox="0 0 90 123" version="1.1" xmlns="http://www.w3.org/2000/svg" xmlns:xlink="http://www.w3.org/1999/xlink">
    <!-- Generator: Sketch 51 (57462) - http://www.bohemiancoding.com/sketch -->
    <title>投融资方_copy_slice</title>
    <desc>Created with Sketch.</desc>
    <defs>
        <polygon id="path-1" points="0 0.0958763966 67.5894942 0.0958763966 67.5894942 80.719068 0 80.719068"></polygon>
        <polygon id="path-3" points="0.0620787636 0.149313963 32.4056276 0.149313963 32.4056276 32.4930168 0.0620787636 32.4930168"></polygon>
    </defs>
    <g id="Page-1" stroke="none" stroke-width="1" fill="none" fill-rule="evenodd">
        <g id="Artboard" transform="translate(-90.000000, -42.000000)">
            <g id="投融资方-copy" transform="translate(90.000000, 42.000000)">
                <g id="Group-3">
                    <mask id="mask-2" fill="white">
                        <use xlink:href="#path-1"></use>
                    </mask>
                    <g id="Clip-2"></g>
                    <path d="M60.7694953,0.0958424581 L6.81999893,0.0958424581 C3.05951418,0.0958424581 0,3.11993673 0,6.83688645 L0,73.9781937 C0,77.6951434 3.05951418,80.719068 6.81999893,80.719068 L10.1572918,80.719068 L10.1572918,77.8342915 L6.81999893,77.8342915 C4.66884508,77.8342915 2.91856468,76.1046134 2.91856468,73.9781937 L2.91856468,6.83688645 C2.91856468,4.71046676 4.66884508,2.98061899 6.81999893,2.98061899 L60.7694953,2.98061899 C62.9206491,2.98061899 64.6709295,4.71046676 64.6709295,6.83688645 L64.6709295,44.4340094 L67.5894942,44.4340094 L67.5894942,6.83688645 C67.5894942,3.11993673 64.52998,0.0958424581 60.7694953,0.0958424581" id="Fill-1" fill="#0054D3" mask="url(#mask-2)"></path>
                </g>
                <path d="M50.1745842,19 L14.8254158,19 C14.369544,19 14,18.6004803 14,18.1076302 L14,14.8923698 C14,14.3995197 14.369544,14 14.8254158,14 L50.1745842,14 C50.630456,14 51,14.3995197 51,14.8923698 L51,18.1076302 C51,18.6004803 50.630456,19 50.1745842,19" id="Fill-4" fill="#0054D3"></path>
                <path d="M50.1745842,28 L14.8254158,28 C14.369544,28 14,27.6004948 14,27.1076626 L14,23.8923374 C14,23.3995052 14.369544,23 14.8254158,23 L50.1745842,23 C50.630456,23 51,23.3995052 51,23.8923374 L51,27.1076626 C51,27.6004948 50.630456,28 50.1745842,28" id="Fill-6" fill="#0054D3"></path>
                <path d="M50.1745842,38 L14.8254158,38 C14.369544,38 14,37.6004803 14,37.1076302 L14,33.8923698 C14,33.3995197 14.369544,33 14.8254158,33 L50.1745842,33 C50.630456,33 51,33.3995197 51,33.8923698 L51,37.1076302 C51,37.6004803 50.630456,38 50.1745842,38" id="Fill-8" fill="#0054D3"></path>
                <path d="M31.208362,42 L14.832901,42 C14.3728951,42 14,42.3995197 14,42.8923698 L14,46.1076302 C14,46.6004803 14.3728951,47 14.832901,47 L31.208362,47 C31.645444,47 32,46.6203107 32,46.1518393 L32,42.8481607 C32,42.3796893 31.645444,42 31.208362,42" id="Fill-10" fill="#0054D3"></path>
                <path d="M25.472194,52 L14.5552333,52 C14.2485608,52 14,52.3995197 14,52.8923698 L14,56.1076302 C14,56.6004803 14.2485608,57 14.5552333,57 L25.472194,57 C25.7636101,57 26,56.6203107 26,56.1518393 L26,52.8481607 C26,52.3798712 25.7636101,52 25.472194,52" id="Fill-12" fill="#0054D3"></path>
                <path d="M32.8536774,74.3332515 C28.2325537,74.3332515 23.6112586,74.9972001 20.3050693,75.9936411 C20.2913578,75.9979591 20.2774748,76.0012409 20.2632492,76.0041772 C18.659516,76.3280335 17.3690909,76.6532715 16.6956841,77.2852662 C16.6620908,77.3165292 16.6254125,77.343474 16.5849636,77.3650644 C15.9444644,77.7074021 15.3231613,78.3437149 15.3231613,78.6665349 C15.3231613,78.9857276 15.6260144,79.3045749 16.2317206,79.9156701 C16.2863953,79.9709416 16.3527248,80.0123952 16.4255672,80.0379582 C17.401313,80.3804686 18.6814544,81.0074544 20.2665056,81.3295834 C20.2785032,81.3321743 20.2903294,81.3351106 20.302327,81.3387378 C23.6086877,82.3344879 28.2311825,82.6666348 32.8536774,82.6666348 C37.8153609,82.6666348 42.1152923,81.9999227 45.4231956,81.3332106 C47.0768044,81.0000273 48.3999657,80.3333152 49.0612036,80.0001318 C49.7229556,79.666603 50.053746,79.0000636 50.053746,78.6665349 C50.053746,78.339915 49.7359816,78.0132952 49.10011,77.3723188 C49.0749151,77.3467558 49.0461209,77.3230927 49.0162984,77.3030567 C48.0431235,76.6593168 47.060522,76.3309698 45.4444484,76.0041772 C45.4305655,76.0012409 45.4165112,75.9979591 45.4029711,75.9936411 C42.0978101,74.9972001 37.8052486,74.3332515 32.8536774,74.3332515 M32.8536774,84.3332424 C23.5922339,84.3332424 14,82.3332788 14,78.6665349 C14,76.9999273 15.9843992,75.3333197 19.9537117,74.3332515 C23.5922339,73.3333561 28.2229556,73 33.1846391,73 C42.776873,73 52.3691068,74.9997909 52.3691068,78.6665349 C52.3691068,80.3333152 50.3843649,81.9999227 46.4153952,83.0001636 C42.4460827,84.0000591 37.8153609,84.3332424 32.8536774,84.3332424 M52.8783183,109.666576 L56.4907886,109.666576 C56.772046,109.666576 57,109.896298 57,110.179737 L57,110.487012 C57,110.770451 56.772046,111 56.4907886,111 L52.8783183,111 C52.5970608,111 52.3691068,110.770451 52.3691068,110.487012 L52.3691068,110.179737 C52.3691068,109.896298 52.5970608,109.666576 52.8783183,109.666576 M52.8783183,106.333533 L56.4907886,106.333533 C56.772046,106.333533 57,106.563083 57,106.846349 L57,107.153797 C57,107.437063 56.772046,107.666612 56.4907886,107.666612 L52.8783183,107.666612 C52.5970608,107.666612 52.3691068,107.437063 52.3691068,107.153797 L52.3691068,106.846349 C52.3691068,106.563083 52.5970608,106.333533 52.8783183,106.333533 M52.8783183,102.666789 L56.4907886,102.666789 C56.772046,102.666789 57,102.896339 57,103.179778 L57,103.487053 C57,103.770492 56.772046,104.000041 56.4907886,104.000041 L52.8783183,104.000041 C52.5970608,104.000041 52.3691068,103.770492 52.3691068,103.487053 L52.3691068,103.179778 C52.3691068,102.896339 52.5970608,102.666789 52.8783183,102.666789 M31.3784897,109.666576 L34.99096,109.666576 C35.2718747,109.666576 35.4998286,109.896298 35.4998286,110.179737 L35.4998286,110.487012 C35.4998286,110.770451 35.2718747,111 34.99096,111 L31.3784897,111 C31.0972322,111 30.8692782,110.770451 30.8692782,110.487012 L30.8692782,110.179737 C30.8692782,109.896298 31.0972322,109.666576 31.3784897,109.666576 M31.3784897,106.333533 L34.99096,106.333533 C35.2718747,106.333533 35.4998286,106.563083 35.4998286,106.846349 L35.4998286,107.153797 C35.4998286,107.437063 35.2718747,107.666612 34.99096,107.666612 L31.3784897,107.666612 C31.0972322,107.666612 30.8692782,107.437063 30.8692782,107.153797 L30.8692782,106.846349 C30.8692782,106.563083 31.0972322,106.333533 31.3784897,106.333533 M31.3784897,102.666789 L34.99096,102.666789 C35.2718747,102.666789 35.4998286,102.896339 35.4998286,103.179778 L35.4998286,103.487053 C35.4998286,103.770492 35.2718747,104.000041 34.99096,104.000041 L31.3784897,104.000041 C31.0972322,104.000041 30.8692782,103.770492 30.8692782,103.487053 L30.8692782,103.179778 C30.8692782,102.896339 31.0972322,102.666789 31.3784897,102.666789" id="Fill-14" fill="#0054D3"></path>
                <path d="M28.1962569,109 C23.56639,109 19.2674114,108.338239 16.2909583,107.345084 C12.6534137,106.351757 11,105.027893 11,103.372462 L12.6534137,103.372462 C12.6534137,104.034566 13.6455648,105.027893 16.9523923,106.020877 C19.9288455,107.013861 23.8969357,107.345084 28.5269739,107.675793 L28.1962569,109 Z M31.8339728,95.7587854 C27.2041059,95.7587854 22.5744103,95.0968533 19.2674114,94.1036978 C15.2989786,93.1107139 13.6455648,91.7865067 13.6455648,90.1312477 L13.6455648,78.2140687 L15.2989786,79.9562932 L15.2989786,90.1312477 C15.2989786,90.7935228 16.6218466,91.7865067 19.9288455,92.7796621 C23.235673,93.7728176 27.5346515,94.1036978 32.1643471,94.4349212 L31.8339728,95.7587854 Z M50.6834721,92.117387 L49.691321,90.7935228 C49.691321,90.462471 50.0218667,90.462471 50.0218667,90.1312477 L50.0218667,78.2140687 L52,78 L52,89.9171789 C51.6756232,90.7935228 51.3447348,91.4554549 50.6834721,92.117387 Z" id="Fill-16" fill="#0054D3"></path>
                <path d="M26.3332758,96.3333249 C16.6665515,96.3333249 7,94.3333655 7,90.6666294 C7,87.9999594 11.0002382,86.666538 14.3332519,86 L14.6667778,87.6664313 C12.6666587,87.9999594 11.333246,88.3334874 10.000006,88.9998527 C9.33329958,89.6663906 8.66693865,89.999746 8.66693865,90.6666294 C8.66693865,90.999812 8.9999464,91.3331674 9.66682549,91.9997054 C10.6667123,92.6665888 11.6667719,92.9999441 13.3333651,93.3331267 C16.6665515,94.3333655 21.3333234,94.6665481 25.9999226,94.6665481 C27.9996962,94.6665481 29.6666349,94.6665481 31.6665813,94.3333655 L31.6665813,95.9997968 C29.9999881,96.3333249 27.9996962,96.3333249 26.3332758,96.3333249 M30.3329958,120 C20.666617,120 11.0002382,117.999868 11.0002382,114.333305 L11.0002382,103.333096 L12.6666587,103.333096 L12.6666587,114.333305 C12.6666587,114.666487 13.0000119,114.999843 13.6665456,115.666726 C14.6667778,116.333264 15.6666647,116.666619 17.3332579,116.999629 C20.666617,117.999868 25.3333889,118.333223 29.9999881,118.333223 C31.9999345,118.333223 33.9998809,118.333223 36,117.999868 L36,119.666472 C34.6665873,120 32.3332877,120 30.3329958,120" id="Fill-18" fill="#0054D3"></path>
                <path d="M26.3335554,106 C21.3335307,106 16.6666913,105.347775 13.0000987,104.695549 C8.99997533,103.71738 7,102.086986 7,100.456254 L7,91 L8.66696277,92.4487513 L8.66696277,100.456254 C8.66696277,100.782366 8.99997533,101.108648 9.66686407,101.760704 C10.6667654,102.41293 11.6668394,102.739211 13.3334567,103.065155 C16.6666913,104.043324 21.3335307,104.369606 26.0001974,104.369606 L28,104.369606 L28,106 L26.3335554,106 Z" id="Fill-20" fill="#0054D3"></path>
                <g id="Group-24" transform="translate(27.000000, 90.000000)">
                    <mask id="mask-4" fill="white">
                        <use xlink:href="#path-3"></use>
                    </mask>
                    <g id="Clip-23"></g>
                    <path d="M16.2338532,1.46955654 C8.31308181,1.46955654 1.71203995,8.07025637 1.71203995,15.9910278 C1.71203995,23.9121412 8.31308181,30.512841 16.2338532,30.512841 C24.1546246,30.512841 30.7556665,23.9121412 30.7556665,15.9910278 C30.7556665,8.07025637 24.1546246,1.46955654 16.2338532,1.46955654 M16.2338532,32.4930339 C7.32272887,32.4930339 0.0620787636,25.2320417 0.0620787636,16.3212594 C0.0620787636,7.41013508 7.32272887,0.149313963 16.2338532,0.149313963 C25.1448065,0.149313963 32.4056276,7.08024545 32.4056276,15.9910278 C32.4056276,24.9023231 25.1448065,32.4930339 16.2338532,32.4930339" id="Fill-22" fill="#0054D3" mask="url(#mask-4)"></path>
                </g>
                <path d="M43.1406984,104.984125 L37.0688168,98.1014539 C36.9617104,97.9799406 36.981997,97.7948094 37.1131722,97.6985412 L37.9891062,97.055463 C38.1070436,96.9689563 38.2729467,96.9852815 38.3707693,97.0929941 L43.4713012,102.710209 C43.4898685,102.730574 43.5227053,102.730574 43.5412727,102.710209 L48.6416326,97.0929941 C48.7394553,96.9852815 48.9053584,96.9689563 49.0232957,97.055463 L49.8866795,97.6892847 C50.0224966,97.7889189 50.038829,97.9822968 49.9215794,98.1024637 L43.2099823,104.985808 C43.1908991,105.005331 43.15875,105.004657 43.1406984,104.984125" id="Fill-25" fill="#0054D3"></path>
                <path d="M37.3555786,107.420967 L48.644585,107.420967 C48.8407833,107.420967 49,107.580343 49,107.776535 L49,108.644595 C49,108.840951 48.8407833,109 48.644585,109 L37.3555786,109 C37.1592167,109 37,108.840951 37,108.644595 L37,107.776535 C37,107.580343 37.1592167,107.420967 37.3555786,107.420967 M37.3555786,103 L48.644585,103 C48.8407833,103 49,103.159212 49,103.355569 L49,104.223628 C49,104.419821 48.8407833,104.579033 48.644585,104.579033 L37.3555786,104.579033 C37.1592167,104.579033 37,104.419821 37,104.223628 L37,103.355569 C37,103.159212 37.1592167,103 37.3555786,103" id="Fill-27" fill="#0054D3"></path>
                <path d="M9.37367002,94.8134393 L10.2880423,94.8134393 C10.4943357,94.8134393 10.6615401,94.9787146 10.6615401,95.182588 L10.6615401,100.67918 C10.6615401,100.883054 10.4943357,101.048329 10.2880423,101.048329 L9.37367002,101.048329 C9.16737662,101.048329 9,100.883054 9,100.67918 L9,95.182588 C9,94.9787146 9.16737662,94.8134393 9.37367002,94.8134393 M13.0292649,107.283219 L13.943465,107.283219 C14.1497584,107.283219 14.3173072,107.448494 14.3173072,107.652367 L14.3173072,114.133129 C14.3173072,114.337003 14.1497584,114.502278 13.943465,114.502278 L13.0292649,114.502278 C12.8227993,114.502278 12.6555949,114.337003 12.6555949,114.133129 L12.6555949,107.652367 C12.6555949,107.448494 12.8227993,107.283219 13.0292649,107.283219 M15.6878324,83 L16.6018602,83 C16.8083258,83 16.9755303,83.1652752 16.9755303,83.3691487 L16.9755303,88.865911 C16.9755303,89.0697844 16.8083258,89.2348896 16.6018602,89.2348896 L15.6878324,89.2348896 C15.481539,89.2348896 15.3141624,89.0697844 15.3141624,88.865911 L15.3141624,83.3691487 C15.3141624,83.1652752 15.481539,83 15.6878324,83 M42.5679661,103.514875 L43.4821662,103.503993 C43.6882874,103.501782 43.8577304,103.664677 43.8601411,103.86838 L43.9999661,114.615522 C44.0027212,114.819396 43.837411,114.986881 43.630601,114.989262 L42.7167453,114.999974 C42.5104519,115.002355 42.3411811,114.83929 42.3385981,114.635757 L42.198601,103.888615 C42.1958459,103.684571 42.3611561,103.517255 42.5679661,103.514875" id="Fill-29" fill="#0054D3"></path>
                <path d="M89.1961255,48 L41.8042174,48 C41.3600206,48 41,48.3548783 41,48.7925616 L41,50.2075123 C41,50.6451956 41.3600206,51.0000739 41.8042174,51.0000739 L44.0437168,51.0000739 L44.0437168,69.7602952 C45.0677182,70.0063442 46.0716612,70.3490552 47.0870907,70.6290712 L47.0870907,51.0000739 L83.7608435,51.0000739 L83.7608435,79.6500787 C83.7608435,81.6002197 82.5436311,82.6501526 80.7174696,82.6501526 L54.8069604,82.6501526 L54.8069604,85.4999947 L59.2611006,85.4999947 L56.5213441,90.2259603 C57.7929025,90.7167064 58.8990228,91.7313205 59.8266758,92.6472446 C59.8283902,92.6489345 59.8301046,92.6509624 59.831819,92.6524833 L63.9780559,85.4999947 L67.0217727,85.4999947 L72.9725699,95.7651043 C73.0569175,95.9104355 73.2134408,96 73.3833362,96 L77.0113149,96 C77.3744214,96 77.6020915,95.6133516 77.4219098,95.3025796 L71.7390708,85.4999947 L80.8695354,85.4999947 C84.2312704,85.4999947 86.9566261,82.8137346 86.9566261,79.4998469 L86.9566261,50.8498421 L89.1961255,50.8498421 C89.6401509,50.8498421 90,50.4951327 90,50.0572805 L90,48.7925616 C90,48.3548783 89.6401509,48 89.1961255,48" id="Fill-31" fill="#0054D3"></path>
                <path d="M56.5179272,78 C57.4171283,78 58.0164832,77.2551835 58.0164832,76.5105348 L58.0164832,70.5530094 C58.0164832,69.659196 57.4171283,69.0635442 56.5179272,69.0635442 C55.618726,69.0635442 55.0192023,69.659196 55.0192023,70.5530094 L55.0192023,76.5105348 C54.8692791,77.2551835 55.618726,78 56.5179272,78 M74.5012751,78 C75.4003074,78 76,77.2551835 76,76.5105348 L76,63.1063544 C76,62.2127088 75.2503843,61.6168892 74.5012751,61.6168892 C73.7518283,61.6168892 73.0027191,62.3615379 73.0027191,63.1063544 L73.0027191,76.6593638 C73.0027191,77.2551835 73.6019051,78 74.5012751,78 M65.5094323,78 C66.4086335,78 67.0081572,77.2551835 67.0081572,76.5105348 L67.0081572,58.4894652 C67.0081572,57.5956519 66.4086335,57 65.5094323,57 C64.6104,57 64.0107074,57.7444809 64.0107074,58.4894652 L64.0107074,76.5105348 C63.8609531,77.2551835 64.6104,78 65.5094323,78" id="Fill-33" fill="#0054D3"></path>
            </g>
        </g>
    </g>
</svg>