<?xml version="1.0" encoding="UTF-8"?>
<svg width="90px" height="121px" viewBox="0 0 90 121" version="1.1" xmlns="http://www.w3.org/2000/svg" xmlns:xlink="http://www.w3.org/1999/xlink">
    <!-- Generator: Sketch 51 (57462) - http://www.bohemiancoding.com/sketch -->
    <title>市场渠道_copy_slice</title>
    <desc>Created with Sketch.</desc>
    <defs>
        <polygon id="path-1" points="0 121 90 121 90 0 0 0"></polygon>
    </defs>
    <g id="Page-1" stroke="none" stroke-width="1" fill="none" fill-rule="evenodd">
        <g id="Artboard" transform="translate(-90.000000, -42.000000)">
            <g id="市场渠道-copy" transform="translate(90.000000, 42.000000)">
                <path d="M17.8492644,59 L2.82404289,59 C1.26658892,59 0,57.8509147 0,56.4386864 L0,32.9595655 C0,32.0785726 0.473971128,31.2507858 1.26743079,30.7447098 L21.0348892,18.1588023 C22.1874051,17.4254664 23.7414916,17.4180423 24.9020053,18.140242 L39.7272834,27.3683952 C40.1355889,27.6220519 40.7644636,27.5440989 41.0224958,27.2079522 L58.4028403,4.56239257 C58.777892,4.07528928 59.4307599,3.8793756 60.025118,4.07487683 C60.6081109,4.26584112 61,4.79377694 61,5.38811719 L61,33.0156587 L58.474399,33.0156587 L58.474399,8.58666587 L43.0412929,28.6952464 C41.9910638,30.06458 39.8960777,30.405676 38.3731403,29.4570413 L23.5478622,20.2293006 C23.2170085,20.0230756 22.738828,20.0255503 22.4113417,20.2338375 L2.64430429,32.819745 C2.55717105,32.8750133 2.52560104,32.9339936 2.52560104,32.9595655 L2.52560104,56.4386864 C2.53528251,56.4399237 2.64051589,56.5253008 2.82404289,56.5253008 L17.8492644,56.5253008 L17.8492644,59 Z" id="Fill-1" fill="#0054D3"></path>
                <mask id="mask-2" fill="white">
                    <use xlink:href="#path-1"></use>
                </mask>
                <g id="Clip-4"></g>
                <polygon id="Fill-3" fill="#0054D3" mask="url(#mask-2)" points="26 60 40 60 40 57 26 57"></polygon>
                <path d="M1.11911877,23 L0,21.2769501 L21.0910525,8.13660174 C22.0154513,7.5611627 23.2629935,7.55299466 24.1957315,8.11781522 L39.323015,17.2737894 C39.4818765,17.3701724 39.7157907,17.3199389 39.7833381,17.2366248 L52.1895452,2.04977183 L43.575166,2.18536144 L43.5418093,0.143757658 L52.6623771,0 L52.7049069,0 C53.7502239,0 54.4940793,0.00980165847 54.8651731,0.729815154 C55.2475248,1.47188238 54.7442549,2.13962036 54.2576634,2.78530461 L41.4115642,18.512474 C40.6677088,19.4223947 39.2692273,19.6404816 38.226829,19.010725 L23.0999624,9.85475079 C22.8406137,9.69792425 22.4661843,9.69914946 22.2101713,9.85965161 L1.11911877,23 Z" id="Fill-5" fill="#0054D3" mask="url(#mask-2)"></path>
                <polygon id="Fill-6" fill="#0054D3" mask="url(#mask-2)" points="6 37 15 37 15 35 6 35"></polygon>
                <polygon id="Fill-7" fill="#0054D3" mask="url(#mask-2)" points="6 42 15 42 15 40 6 40"></polygon>
                <polygon id="Fill-8" fill="#0054D3" mask="url(#mask-2)" points="6 47 15 47 15 45 6 45"></polygon>
                <polygon id="Fill-9" fill="#0054D3" mask="url(#mask-2)" points="6 52 15 52 15 50 6 50"></polygon>
                <polygon id="Fill-10" fill="#0054D3" mask="url(#mask-2)" points="18 42 27 42 27 40 18 40"></polygon>
                <polygon id="Fill-11" fill="#0054D3" mask="url(#mask-2)" points="18 47 27 47 27 45 18 45"></polygon>
                <polygon id="Fill-12" fill="#0054D3" mask="url(#mask-2)" points="18 52 27 52 27 50 18 50"></polygon>
                <polygon id="Fill-13" fill="#0054D3" mask="url(#mask-2)" points="77 73 84 73 84 71 77 71"></polygon>
                <path d="M9.07792208,117.93479 L36.9220779,117.93479 L36.9220779,75.5451143 C36.9220779,74.1779452 35.8029091,73.0652101 34.4269091,73.0652101 L11.5730909,73.0652101 C10.1970909,73.0652101 9.07792208,74.1779452 9.07792208,75.5451143 L9.07792208,117.93479 Z M39,120 L7,120 L7,75.5451143 C7,73.0391884 9.05174026,71 11.5730909,71 L34.4269091,71 C36.9482597,71 39,73.0391884 39,75.5451143 L39,120 Z" id="Fill-14" fill="#0054D3" mask="url(#mask-2)"></path>
                <path d="M16.099811,71.7221994 L29.900189,71.7221994 L29.900189,69.0129835 C29.900189,67.5046239 28.7692308,66.2778006 27.3787359,66.2778006 L18.6212641,66.2778006 C17.2307692,66.2778006 16.099811,67.5046239 16.099811,69.0129835 L16.099811,71.7221994 Z M32,74 L14,74 L14,69.0129835 C14,66.2486447 16.0733534,64 18.6212641,64 L27.3787359,64 C29.9270666,64 32,66.2486447 32,69.0129835 L32,74 Z" id="Fill-15" fill="#0054D3" mask="url(#mask-2)"></path>
                <path d="M38.0295811,117.92317 L49.9704189,117.92317 L49.9704189,89.0768301 L38.0295811,89.0768301 L38.0295811,117.92317 Z M36,120 L52,120 L52,87 L36,87 L36,120 Z" id="Fill-16" fill="#0054D3" mask="url(#mask-2)"></path>
                <path d="M53.1276596,117.924752 L63.8723404,117.924752 L63.8723404,67.5672053 C63.8723404,66.1929762 62.726383,65.0752478 61.3174468,65.0752478 L55.6825532,65.0752478 C54.273617,65.0752478 53.1276596,66.1929762 53.1276596,67.5672053 L53.1276596,117.924752 Z M66,120 L51,120 L51,67.5672053 C51,65.0490996 53.1008511,63 55.6825532,63 L61.3174468,63 C63.8991489,63 66,65.0490996 66,67.5672053 L66,120 Z" id="Fill-17" fill="#0054D3" mask="url(#mask-2)"></path>
                <polygon id="Fill-18" fill="#0054D3" mask="url(#mask-2)" points="22 65 24 65 24 55 22 55"></polygon>
                <path d="M14.2832,82 L11.7164,82 C11.3208,82 11,81.6792 11,81.2832 L11,78.7168 C11,78.3212 11.3208,78 11.7164,78 L14.2832,78 C14.6788,78 15,78.3212 15,78.7168 L15,81.2832 C15,81.6792 14.6788,82 14.2832,82" id="Fill-19" fill="#0054D3" mask="url(#mask-2)"></path>
                <path d="M24.2832,82 L21.7168,82 C21.3208,82 21,81.6792 21,81.2832 L21,78.7168 C21,78.3212 21.3208,78 21.7168,78 L24.2832,78 C24.6788,78 25,78.3212 25,78.7168 L25,81.2832 C25,81.6792 24.6788,82 24.2832,82" id="Fill-20" fill="#0054D3" mask="url(#mask-2)"></path>
                <path d="M14.2832,88 L11.7164,88 C11.3208,88 11,87.6788 11,87.2832 L11,84.7164 C11,84.3208 11.3208,84 11.7164,84 L14.2832,84 C14.6788,84 15,84.3208 15,84.7164 L15,87.2832 C15,87.6788 14.6788,88 14.2832,88" id="Fill-21" fill="#0054D3" mask="url(#mask-2)"></path>
                <path d="M24.2832,88 L21.7168,88 C21.3208,88 21,87.6788 21,87.2832 L21,84.7164 C21,84.3208 21.3208,84 21.7168,84 L24.2832,84 C24.6788,84 25,84.3208 25,84.7164 L25,87.2832 C25,87.6788 24.6788,88 24.2832,88" id="Fill-22" fill="#0054D3" mask="url(#mask-2)"></path>
                <path d="M14.2832,94 L11.7164,94 C11.3208,94 11,93.6792 11,93.2836 L11,90.7168 C11,90.3212 11.3208,90 11.7164,90 L14.2832,90 C14.6788,90 15,90.3212 15,90.7168 L15,93.2836 C15,93.6792 14.6788,94 14.2832,94" id="Fill-23" fill="#0054D3" mask="url(#mask-2)"></path>
                <path d="M24.2832,94 L21.7168,94 C21.3208,94 21,93.6792 21,93.2836 L21,90.7168 C21,90.3212 21.3208,90 21.7168,90 L24.2832,90 C24.6788,90 25,90.3212 25,90.7168 L25,93.2836 C25,93.6792 24.6788,94 24.2832,94" id="Fill-24" fill="#0054D3" mask="url(#mask-2)"></path>
                <path d="M14.2832,100 L11.7164,100 C11.3208,100 11,99.6792 11,99.2832 L11,96.7168 C11,96.3212 11.3208,96 11.7164,96 L14.2832,96 C14.6788,96 15,96.3212 15,96.7168 L15,99.2832 C15,99.6792 14.6788,100 14.2832,100" id="Fill-25" fill="#0054D3" mask="url(#mask-2)"></path>
                <path d="M24.2832,100 L21.7168,100 C21.3208,100 21,99.6792 21,99.2832 L21,96.7168 C21,96.3212 21.3208,96 21.7168,96 L24.2832,96 C24.6788,96 25,96.3212 25,96.7168 L25,99.2832 C25,99.6792 24.6788,100 24.2832,100" id="Fill-26" fill="#0054D3" mask="url(#mask-2)"></path>
                <path d="M14.2832,107 L11.7164,107 C11.3208,107 11,106.6788 11,106.2832 L11,103.7164 C11,103.3208 11.3208,103 11.7164,103 L14.2832,103 C14.6788,103 15,103.3208 15,103.7164 L15,106.2832 C15,106.6788 14.6788,107 14.2832,107" id="Fill-27" fill="#0054D3" mask="url(#mask-2)"></path>
                <path d="M24.2832,107 L21.7168,107 C21.3208,107 21,106.6788 21,106.2832 L21,103.7164 C21,103.3208 21.3208,103 21.7168,103 L24.2832,103 C24.6788,103 25,103.3208 25,103.7164 L25,106.2832 C25,106.6788 24.6788,107 24.2832,107" id="Fill-28" fill="#0054D3" mask="url(#mask-2)"></path>
                <path d="M14.2832,113 L11.7164,113 C11.3208,113 11,112.6792 11,112.2836 L11,109.7168 C11,109.3212 11.3208,109 11.7164,109 L14.2832,109 C14.6788,109 15,109.3212 15,109.7168 L15,112.2836 C15,112.6792 14.6788,113 14.2832,113" id="Fill-29" fill="#0054D3" mask="url(#mask-2)"></path>
                <path d="M24.2832,113 L21.7168,113 C21.3208,113 21,112.6792 21,112.2836 L21,109.7168 C21,109.3212 21.3208,109 21.7168,109 L24.2832,109 C24.6788,109 25,109.3212 25,109.7168 L25,112.2836 C25,112.6792 24.6788,113 24.2832,113" id="Fill-30" fill="#0054D3" mask="url(#mask-2)"></path>
                <path d="M38.2834384,90 L37,88.2152811 L44.2401926,82.4588019 C45.0657464,81.8031817 46.2227985,81.8550943 46.9930317,82.5832131 L53,88.2761441 L51.5752813,89.9386894 L45.5687385,84.2462059 C45.5563978,84.2332278 45.5368228,84.2341228 45.5236309,84.2439683 L38.2834384,90 Z" id="Fill-31" fill="#0054D3" mask="url(#mask-2)"></path>
                <polygon id="Fill-32" fill="#0054D3" mask="url(#mask-2)" points="41 95 44 95 44 93 41 93"></polygon>
                <polygon id="Fill-33" fill="#0054D3" mask="url(#mask-2)" points="41 99 44 99 44 97 41 97"></polygon>
                <polygon id="Fill-34" fill="#0054D3" mask="url(#mask-2)" points="41 103 44 103 44 101 41 101"></polygon>
                <polygon id="Fill-35" fill="#0054D3" mask="url(#mask-2)" points="41 107 44 107 44 105 41 105"></polygon>
                <polygon id="Fill-36" fill="#0054D3" mask="url(#mask-2)" points="41 111 44 111 44 109 41 109"></polygon>
                <polygon id="Fill-37" fill="#0054D3" mask="url(#mask-2)" points="41 115 44 115 44 113 41 113"></polygon>
                <polygon id="Fill-38" fill="#0054D3" mask="url(#mask-2)" points="55 119 57 119 57 71 55 71"></polygon>
                <polygon id="Fill-39" fill="#0054D3" mask="url(#mask-2)" points="59 118 61 118 61 83 59 83"></polygon>
                <path d="M84.5831369,80 L67.6533821,80 L67.6533821,77.5128344 L84.5831369,77.5128344 C86.1736255,77.5128344 87.4673749,76.2423073 87.4673749,74.6803673 L87.4673749,46.3196327 C87.4673749,44.7576927 86.1736255,43.4871656 84.5831369,43.4871656 L47.4168631,43.4871656 C45.8267966,43.4871656 44.5326251,44.7576927 44.5326251,46.3196327 L44.6959795,74.6733204 C44.6959795,76.2423073 45.9897288,77.5128344 47.5806395,77.5128344 L49.2441521,77.5128344 L49.2441521,80 L47.5806395,80 C44.5934081,80 42.1633543,77.6135646 42.1633543,74.6803673 L42,46.3266796 C42,43.3864354 44.4300538,41 47.4168631,41 L84.5831369,41 C87.5699462,41 90,43.3864354 90,46.3196327 L90,74.6803673 C90,77.6135646 87.5699462,80 84.5831369,80" id="Fill-40" fill="#0054D3" mask="url(#mask-2)"></path>
                <path d="M78,48 L75.8703704,48 L75.8703704,37.6213992 C75.8703704,37.302045 75.5436852,37.0419062 75.142463,37.0419062 L57.8571111,37.0419062 C57.4563148,37.0419062 57.1296296,37.302045 57.1296296,37.6213992 L57.1296296,48 L55,48 L55,37.6213992 C55,36.176138 56.2816111,35 57.8571111,35 L75.142463,35 C76.717963,35 78,36.176138 78,37.6213992 L78,48 Z" id="Fill-41" fill="#0054D3" mask="url(#mask-2)"></path>
                <path d="M60,49 C60,50.6567876 58.6566905,52 57.0002169,52 C55.3433095,52 54,50.6567876 54,49 C54,47.3432124 55.3433095,46 57.0002169,46 C58.6566905,46 60,47.3432124 60,49" id="Fill-42" fill="#0054D3" mask="url(#mask-2)"></path>
                <path d="M80,49 C80,50.6567876 78.6566905,52 77.0002169,52 C75.3433095,52 74,50.6567876 74,49 C74,47.3432124 75.3433095,46 77.0002169,46 C78.6566905,46 80,47.3432124 80,49" id="Fill-43" fill="#0054D3" mask="url(#mask-2)"></path>
            </g>
        </g>
    </g>
</svg>