<?xml version="1.0" encoding="UTF-8"?>
<svg width="93px" height="120px" viewBox="0 0 93 120" version="1.1" xmlns="http://www.w3.org/2000/svg" xmlns:xlink="http://www.w3.org/1999/xlink">
    <!-- Generator: Sketch 51 (57462) - http://www.bohemiancoding.com/sketch -->
    <title>生产icon_slice</title>
    <desc>Created with Sketch.</desc>
    <defs>
        <polygon id="path-1" points="0 0.0916819366 67.7279521 0.0916819366 67.7279521 63.8646756 0 63.8646756"></polygon>
        <polygon id="path-3" points="0 120 93 120 93 0 0 0"></polygon>
    </defs>
    <g id="Page-1" stroke="none" stroke-width="1" fill="none" fill-rule="evenodd">
        <g id="Artboard" transform="translate(-90.000000, -43.000000)">
            <g id="生产icon" transform="translate(90.000000, 43.000000)">
                <g id="Group-3" transform="translate(0.000000, 17.000000)">
                    <mask id="mask-2" fill="white">
                        <use xlink:href="#path-1"></use>
                    </mask>
                    <g id="Clip-2"></g>
                    <path d="M5.92114521,2.61479433 L16.7259044,2.61479433 C16.8889228,2.61479433 17.0297054,2.73006073 17.0606481,2.88888401 L17.4468289,4.62531652 L5.49223396,4.62531652 L5.58064165,2.93403444 C5.59082193,2.75502626 5.7403113,2.61479433 5.92114521,2.61479433 M4.80868178,61.3415632 L2.88594848,61.3415632 C2.76472278,61.3415632 2.6842182,61.2841956 2.63827299,61.2358581 C2.59219384,61.1876533 2.53888132,61.1049218 2.54584677,60.9800942 L5.36029218,7.14842891 L18.0080838,7.14842891 L18.7031558,10.2735028 C18.9718616,11.6078309 20.1590697,12.5744485 21.5334074,12.5744485 L49.8731621,12.5744485 C49.9880921,12.5744485 50.0944493,12.6312849 50.1578081,12.7264992 L53.4396087,17.6621055 C53.9735376,18.465252 54.8789127,18.9486272 55.8491201,18.9486272 L64.2927242,18.9486272 C64.4415439,18.9486272 64.5732177,19.0443727 64.6179574,19.1852686 L65.2711027,21.2441283 C65.3747808,21.5710705 65.7262683,21.7527346 66.0560558,21.6498182 L67.2897449,21.2652427 C67.6193984,21.1624591 67.8026435,20.814004 67.6989654,20.4870618 L67.0458201,18.4283348 C66.6676763,17.2363634 65.5530696,16.4255148 64.2927242,16.4255148 L55.8491201,16.4255148 C55.734458,16.4255148 55.6275651,16.3684128 55.5644741,16.2734641 L52.2826735,11.337725 C51.7470033,10.5321882 50.8461825,10.0513361 49.8731621,10.0513361 L21.5334074,10.0513361 C21.370255,10.0513361 21.2294725,9.93606972 21.1985298,9.77737923 L19.5560221,2.39289323 C19.2874502,1.05829957 18.1002421,0.0916819366 16.7259044,0.0916819366 L5.92114521,0.0916819366 C4.39048662,0.0916819366 3.12478319,1.27860712 3.03932242,2.79858315 L0.00439359428,60.8445101 C-0.0395423485,61.6264093 0.246577084,62.400872 0.789346719,62.9696347 C1.3319824,63.5383973 2.09617311,63.8646756 2.88594848,63.8646756 L4.80868178,63.8646756 C5.292379,63.8646756 5.68445371,63.4761163 5.68445371,62.9964593 L5.68445371,62.2097795 C5.68445371,61.7302553 5.292379,61.3415632 4.80868178,61.3415632" id="Fill-1" fill="#0054D3" mask="url(#mask-2)"></path>
                </g>
                <path d="M18.303612,6.38172121 C18.804522,5.90949222 19.4710254,5.65441672 20.1734984,5.6630656 C20.4242198,5.66625904 20.6736091,5.704048 20.9147386,5.77536802 L21.7373767,6.01873426 L22.2683946,5.34545202 C23.0935639,4.2990703 24.3487698,3.71134546 25.7168136,3.7261151 C26.0849025,3.73090525 26.4501938,3.78080264 26.8026959,3.87460976 L27.4132466,4.03707569 L27.91016,3.64734373 C28.8494995,2.910592 30.0327661,2.5134087 31.2510699,2.52857751 C32.4711055,2.54401244 33.6511748,2.97472679 34.5737285,3.7412839 L35.1976012,4.25955156 L35.9293828,3.90973752 C36.4787852,3.64721067 37.0653561,3.51774356 37.6854987,3.5258602 C38.7159611,3.53890005 39.6779482,3.93728089 40.3940097,4.64768679 C41.0992803,5.34744792 41.4808245,6.26755596 41.4685682,7.23862588 C41.4561787,8.20982886 41.0513208,9.12009048 40.3287315,9.80175548 C39.5946852,10.4937991 38.6252378,10.8661003 37.5926438,10.8547902 C37.1428906,10.8490686 36.7028625,10.7692328 36.2850822,10.6176778 L35.5217273,10.3406474 L34.9515425,10.9183927 C33.9450598,11.9382956 32.5856753,12.4859694 31.125043,12.4714659 C30.1514658,12.4590914 29.2054653,12.1857867 28.3894882,11.680825 L27.8527418,11.348841 L27.2643058,11.5773045 C26.7395493,11.781152 26.1858839,11.8801485 25.6135675,11.8736286 C24.4861204,11.8593912 23.4288805,11.4266809 22.6364835,10.6552006 L22.0235349,10.0584277 L21.2407298,10.404383 C20.88543,10.5615265 20.5061506,10.638302 20.110485,10.633778 C19.4054808,10.6247299 18.7480364,10.3528889 18.2593827,9.86801923 C17.7816531,9.39406046 17.5230716,8.77160704 17.5313313,8.11535645 C17.5397242,7.45923891 17.8138925,6.84357154 18.303612,6.38172121 M20.0783788,13.1616468 C20.5573073,13.1680336 21.0247789,13.1106849 21.4781291,12.9918625 C22.6452761,13.8869553 24.075534,14.3824698 25.5815946,14.4014973 C26.2682143,14.4098801 26.9419116,14.3199317 27.5920288,14.1325836 C28.6684525,14.685846 29.8669063,14.9838998 31.0929368,14.9993347 C31.1259756,14.9998669 31.1587479,15 31.1916534,15 C33.0183763,15 34.7936759,14.3601158 36.1801042,13.217931 C36.6309233,13.3215846 37.0927996,13.3766713 37.5605376,13.382659 C39.2480448,13.4074081 40.8520226,12.7850877 42.0664629,11.6398426 C43.2919606,10.4840858 43.9784471,8.9323432 43.9994959,7.27069327 C44.020678,5.60891029 43.3736249,4.04040218 42.1778355,2.85404162 C40.9928369,1.67845889 39.4088423,1.01928098 37.7174717,0.997991426 C36.9768975,0.987745827 36.2577719,1.10071354 35.5699532,1.33183829 C34.3144809,0.488239596 32.8186784,0.0200024021 31.2830428,0.000708741066 C29.7014461,-0.0205808159 28.1471597,0.438342197 26.8463923,1.29883948 C26.484698,1.23670058 26.1174084,1.20290341 25.7489198,1.19824632 C23.899283,1.17416251 22.1059985,1.9041282 20.8182868,3.17870736 C20.6152584,3.15236153 20.4104981,3.13772496 20.2054714,3.13519683 C18.8363617,3.11417339 17.5471846,3.61793753 16.5658806,4.54350102 C15.573386,5.47944317 15.0174558,6.73659151 15.0004036,8.08342211 C14.9833513,9.43011965 15.5071753,10.7008401 16.4755569,11.6616644 C17.4331476,12.6117109 18.7125997,13.144349 20.0783788,13.1616468" id="Fill-4" fill="#0054D3"></path>
                <mask id="mask-4" fill="white">
                    <use xlink:href="#path-3"></use>
                </mask>
                <g id="Clip-7"></g>
                <path d="M41.3075959,96.4819862 L42.9747205,96.4819862 L42.9747205,94.8148617 L41.3075959,94.8148617 L41.3075959,96.4819862 Z M21.2262869,87.5944549 L22.8934114,87.5944549 L22.8934114,85.9273303 L21.2262869,85.9273303 L21.2262869,87.5944549 Z M43.2085261,106.464189 L44.8756507,106.464189 L44.8756507,104.797065 L43.2085261,104.797065 L43.2085261,106.464189 Z M50.481685,111.390941 C50.481685,114.749446 47.7493132,117.481685 44.3908088,117.481685 L39.2901605,117.481685 L39.2901605,106.62841 L41.2077911,106.62841 L41.2077911,107.188801 C41.2087189,107.892737 41.7791835,108.463201 42.4831189,108.464262 L45.6010579,108.464262 C46.3043305,108.464262 46.8766508,107.892074 46.8766508,107.188801 L46.8766508,104.071658 C46.8766508,103.36759 46.3043305,102.795402 45.6010579,102.795402 L42.4831189,102.795402 C41.7798463,102.795402 41.2077911,103.36759 41.2077911,104.071658 L41.2077911,104.627542 L38.5648858,104.627542 C37.8614806,104.627542 37.2894255,105.19973 37.2894255,105.903135 L37.2894255,117.481685 L35.1666185,117.481685 L35.1666185,94.7312271 C35.1666185,93.6741975 34.3062825,92.8138616 33.2491204,92.8138616 L11.518315,92.8138616 L11.518315,84.6091912 C11.518315,81.2506868 14.2506868,78.518315 17.6091912,78.518315 L28.2009591,78.518315 L28.2009591,85.7603263 L24.894279,85.7603263 L24.894279,85.2019231 C24.894279,84.4985179 24.3220913,83.9263302 23.6188187,83.9263302 L20.5010121,83.9263302 C19.797607,83.9263302 19.2254193,84.4985179 19.2254193,85.2019231 L19.2254193,88.3197296 C19.2266122,89.0236649 19.7969443,89.5942621 20.5010121,89.5951899 L23.6188187,89.5951899 C24.3220913,89.5951899 24.894279,89.02393 24.894279,88.3197296 L24.894279,87.7613264 L28.9263664,87.7613264 C29.6304343,87.760266 30.2010314,87.1898014 30.2018267,86.4857336 L30.2018267,78.518315 L41.1407244,78.518315 L41.1407244,92.8138616 L40.5821886,92.8138616 C39.878916,92.8138616 39.3067284,93.3861818 39.3067284,94.0894544 L39.3067284,97.2072609 C39.3077887,97.9113288 39.8782533,98.4816609 40.5821886,98.4827212 L43.6999952,98.4827212 C44.4034003,98.4827212 44.9757206,97.9106661 44.9757206,97.2072609 L44.9757206,94.0894544 C44.9757206,93.3861818 44.4034003,92.8138616 43.6999952,92.8138616 L43.1414594,92.8138616 L43.1414594,78.518315 L44.3908088,78.518315 C47.7493132,78.518315 50.481685,81.2506868 50.481685,84.6091912 L50.481685,111.390941 Z M16.9906136,109.155605 L18.6577381,109.155605 L18.6577381,107.488746 L16.9906136,107.488746 L16.9906136,109.155605 Z M21.2290703,100.711165 L22.8961948,100.711165 L22.8961948,99.04298 L21.2290703,99.04298 L21.2290703,100.711165 Z M11.518315,111.390941 L11.518315,94.8147291 L33.1656184,94.8147291 L33.1656184,117.481685 L30.9730938,117.481685 L30.9730938,100.152629 C30.9730938,99.449224 30.4010387,98.8771689 29.697501,98.8771689 L24.8970624,98.8771689 L24.8970624,98.3186331 C24.8970624,97.615228 24.3248747,97.0430403 23.6214695,97.0430403 L20.5037955,97.0430403 C19.8003904,97.0430403 19.2282027,97.615228 19.2282027,98.3186331 L19.2282027,101.435512 C19.2286003,102.139712 19.7993301,102.710972 20.5037955,102.7119 L23.6214695,102.7119 C24.3248747,102.7119 24.8970624,102.139712 24.8970624,101.435512 L24.8970624,100.877904 L28.973154,100.877904 L28.973154,117.481685 L26.3863143,117.481685 L26.3863143,108.597335 C26.3863143,107.89393 25.8139941,107.321609 25.1107215,107.321609 L20.6587382,107.321609 L20.6587382,106.763339 C20.6587382,106.059933 20.0865505,105.487613 19.3831454,105.487613 L16.2653388,105.487613 C15.5619337,105.487613 14.989746,106.059933 14.989746,106.763339 L14.989746,109.880085 C14.9902762,110.584418 15.5610059,111.155545 16.2653388,111.156605 L19.3831454,111.156605 C20.0874783,111.156605 20.6587382,110.584285 20.6587382,109.880085 L20.6587382,109.322609 L24.386242,109.322609 L24.386242,117.481685 L17.6091912,117.481685 C14.2506868,117.481685 11.518315,114.749446 11.518315,111.390941 Z M44.3908088,76 L17.6091912,76 C12.8620349,76 9,79.8621674 9,84.6091912 L9,111.390941 C9,116.137965 12.8620349,120 17.6091912,120 L44.3908088,120 C49.1379651,120 53,116.137965 53,111.390941 L53,84.6091912 C53,79.8621674 49.1379651,76 44.3908088,76 Z" id="Fill-6" fill="#0054D3" mask="url(#mask-4)"></path>
                <path d="M90.2631815,87.7173957 L87.846237,87.7173957 L75.3946475,87.7173957 C75.1412581,87.7173957 74.9273858,87.5021595 74.9273858,87.2474477 L74.9273858,83.7036374 L90.7304432,83.7036374 L90.7304432,87.2474477 C90.7304432,87.5021595 90.5164374,87.7173957 90.2631815,87.7173957 Z M74.9273858,57.3861495 L76.8793381,57.3964884 L76.9545005,43.4868347 L74.9273858,43.4402428 L74.9273858,39.4775074 L90.7304432,39.4775074 L90.7304432,81.4210331 L74.9273858,81.4210331 L74.9273858,72.5976932 L74.9273858,57.3861495 Z M35.1336446,70.3150889 C31.5879294,70.3150889 28.7033227,67.4137646 28.7033227,63.8476653 C28.7033227,60.281566 31.5879294,57.3803759 35.1336446,57.3803759 L72.657829,57.3803759 L72.657829,70.3150889 L35.1336446,70.3150889 Z M90.7304432,37.1949031 L74.9273858,37.1949031 L74.9273858,32.7525523 C74.9273858,32.4978405 75.1412581,32.2826043 75.3946475,32.2826043 L90.2631815,32.2826043 C90.5164374,32.2826043 90.7304432,32.4978405 90.7304432,32.7525523 L90.7304432,37.1949031 Z M26.2850432,50.5101397 L30.7750275,45.9943427 L35.2648784,50.5101397 L30.774894,55.0256681 L26.2850432,50.5101397 Z M46.0801175,54.9633664 L52.4298034,54.9633664 L52.4298034,49.0107372 L46.0801175,49.0107372 L46.0801175,54.9633664 Z M61.3143172,54.9633664 L67.664003,54.9633664 L67.664003,49.0107372 L61.3143172,49.0107372 L61.3143172,54.9633664 Z M90.2631815,30 L75.3946475,30 C73.8855257,30 72.657829,31.2347547 72.657829,32.7525523 L72.657829,45.6711528 L74.6729284,45.7174762 L74.6220637,55.0977716 L73.7910054,55.0977716 L72.657829,55.0918636 L72.657829,55.0977716 L69.9335598,55.0977716 L69.9335598,48.9731414 C69.9335598,47.7352985 68.9322848,46.7281329 67.701384,46.7281329 L61.2769362,46.7281329 C60.0460354,46.7281329 59.0447604,47.7352985 59.0447604,48.9731414 L59.0447604,55.0977716 L54.6993602,55.0977716 L54.6993602,48.9731414 C54.6993602,47.7352985 53.6979516,46.7281329 52.4671843,46.7281329 L46.0427365,46.7281329 C44.8118357,46.7281329 43.8105607,47.7352985 43.8105607,48.9731414 L43.8105607,55.0977716 L35.1336446,55.0977716 C34.6848064,55.0977716 34.2437113,55.1321449 33.8130295,55.1984747 L36.8961557,52.0974896 C37.3177592,51.6735965 37.5499215,51.1097933 37.5499215,50.5101397 C37.5499215,49.9104861 37.3177592,49.3466828 36.8961557,48.9226555 L32.353304,44.3536873 C31.9317005,43.92966 31.3712534,43.696163 30.7750275,43.696163 C30.1786681,43.696163 29.6182211,43.92966 29.1966175,44.3536873 L24.6537659,48.9226555 C24.2321623,49.3466828 24,49.9104861 24,50.5101397 C24,51.1097933 24.2321623,51.6735965 24.6537659,52.0974896 L29.1966175,56.6664578 C29.3429372,56.8136186 29.5067458,56.9360737 29.6821692,57.0355683 C27.7029822,58.6407763 26.4337659,61.0973956 26.4337659,63.8477995 C26.4337659,67.8204709 29.0808701,71.1812701 32.6937375,72.2449637 L32.6937375,73.6819303 C32.6937375,74.1630227 33.0815647,74.5530795 33.5600407,74.5530795 L34.3641313,74.5530795 C34.8426073,74.5530795 35.230301,74.1630227 35.230301,73.6819303 L35.230301,72.5976932 L72.657829,72.5976932 L72.657829,87.2474477 C72.657829,87.4079014 72.6743834,87.5643269 72.7006836,87.7173957 L56.712991,87.7173957 C56.3640133,87.7173957 56.0811197,88.0019156 56.0811197,88.3527653 L56.0811197,89.3646304 C56.0811197,89.7154801 56.3640133,90 56.712991,90 L75.3946475,90 L87.846237,90 L90.2631815,90 C91.7723033,90 93,88.7652453 93,87.2474477 L93,32.7525523 C93,31.2347547 91.7723033,30 90.2631815,30 Z" id="Fill-8" fill="#0054D3" mask="url(#mask-4)"></path>
                <path d="M83.4999319,44.3143596 C84.7051687,44.3143596 85.6856404,45.2948313 85.6856404,46.4999319 C85.6856404,47.7051687 84.7051687,48.6856404 83.4999319,48.6856404 C82.2946951,48.6856404 81.3143596,47.7051687 81.3143596,46.4999319 C81.3143596,45.2948313 82.2946951,44.3143596 83.4999319,44.3143596 M83.4999319,51 C85.9813339,51 88,48.9813339 88,46.4999319 C88,44.0186661 85.9813339,42 83.4999319,42 C81.0186661,42 79,44.0186661 79,46.4999319 C79,48.9813339 81.0186661,51 83.4999319,51" id="Fill-9" fill="#0054D3" mask="url(#mask-4)"></path>
                <path d="M79.4098588,68 L86.5901412,68 C87.3655636,68 88,67.325 88,66.5 C88,65.675 87.3655636,65 86.5901412,65 L79.4098588,65 C78.6344364,65 78,65.675 78,66.5 C78,67.325 78.6344364,68 79.4098588,68" id="Fill-10" fill="#0054D3" mask="url(#mask-4)"></path>
                <path d="M79.4098588,73 L86.5901412,73 C87.3655636,73 88,72.3251364 88,71.5001364 L88,71.5 C88,70.675 87.3655636,70 86.5901412,70 L79.4098588,70 C78.6344364,70 78,70.675 78,71.5 L78,71.5001364 C78,72.3251364 78.6344364,73 79.4098588,73" id="Fill-11" fill="#0054D3" mask="url(#mask-4)"></path>
                <path d="M79.4098588,78 L86.5901412,78 C87.3655636,78 88,77.325 88,76.5 C88,75.675 87.3655636,75 86.5901412,75 L79.4098588,75 C78.6344364,75 78,75.675 78,76.5 C78,77.325 78.6344364,78 79.4098588,78" id="Fill-12" fill="#0054D3" mask="url(#mask-4)"></path>
                <path d="M35,64.8520098 C33.97871,64.8520098 33.1479563,64.021243 33.1479563,62.9999368 C33.1479563,61.978757 33.97871,61.1479902 35,61.1479902 C36.02129,61.1479902 36.8520437,61.978757 36.8520437,62.9999368 C36.8520437,64.021243 36.02129,64.8520098 35,64.8520098 M35,59 C32.7944279,59 31,60.7943299 31,62.9999368 C31,65.2055437 32.7944279,67 35,67 C37.2055721,67 39,65.2055437 39,62.9999368 C39,60.7943299 37.2055721,59 35,59" id="Fill-13" fill="#0054D3" mask="url(#mask-4)"></path>
                <path d="M46,64.8520098 C44.97871,64.8520098 44.1479563,64.021243 44.1479563,62.9999368 C44.1479563,61.978757 44.97871,61.1479902 46,61.1479902 C47.02129,61.1479902 47.8520437,61.978757 47.8520437,62.9999368 C47.8520437,64.021243 47.02129,64.8520098 46,64.8520098 M46,59 C43.7944279,59 42,60.7943299 42,62.9999368 C42,65.2055437 43.7944279,67 46,67 C48.2055721,67 50,65.2055437 50,62.9999368 C50,60.7943299 48.2055721,59 46,59" id="Fill-14" fill="#0054D3" mask="url(#mask-4)"></path>
                <path d="M56,64.8520098 C54.97871,64.8520098 54.1479563,64.021243 54.1479563,62.9999368 C54.1479563,61.978757 54.97871,61.1479902 56,61.1479902 C57.02129,61.1479902 57.8520437,61.978757 57.8520437,62.9999368 C57.8520437,64.021243 57.02129,64.8520098 56,64.8520098 M56,59 C53.7944279,59 52,60.7943299 52,62.9999368 C52,65.2055437 53.7944279,67 56,67 C58.2055721,67 60,65.2055437 60,62.9999368 C60,60.7943299 58.2055721,59 56,59" id="Fill-15" fill="#0054D3" mask="url(#mask-4)"></path>
                <path d="M67.0000632,64.8520098 C65.978757,64.8520098 65.1479902,64.021243 65.1479902,62.9999368 C65.1479902,61.978757 65.978757,61.1479902 67.0000632,61.1479902 C68.021243,61.1479902 68.8520098,61.978757 68.8520098,62.9999368 C68.8520098,64.021243 68.021243,64.8520098 67.0000632,64.8520098 M67.0000632,59 C64.7944563,59 63,60.7943299 63,62.9999368 C63,65.2055437 64.7944563,67 67.0000632,67 C69.2056701,67 71,65.2055437 71,62.9999368 C71,60.7943299 69.2056701,59 67.0000632,59" id="Fill-16" fill="#0054D3" mask="url(#mask-4)"></path>
            </g>
        </g>
    </g>
</svg>