<?xml version="1.0" encoding="UTF-8"?>
<svg width="80px" height="97px" viewBox="0 0 80 97" version="1.1" xmlns="http://www.w3.org/2000/svg" xmlns:xlink="http://www.w3.org/1999/xlink">
    <!-- Generator: Sketch 52.2 (67145) - http://www.bohemiancoding.com/sketch -->
    <title>供应链_slice</title>
    <desc>Created with Sketch.</desc>
    <defs>
        <polygon id="path-1" points="1.21200266e-05 0.0105444231 65.1756975 0.0105444231 65.1756975 61.6923534 1.21200266e-05 61.6923534"></polygon>
    </defs>
    <g id="Page-1" stroke="none" stroke-width="1" fill="none" fill-rule="evenodd">
        <g id="画板" transform="translate(-95.000000, -51.000000)">
            <g id="供应链" transform="translate(95.000000, 51.000000)">
                <path d="M20.2714596,41.4793608 L25.0294184,41.4793608 C25.385626,41.4793608 25.6744462,41.7681811 25.6744462,42.1243887 L25.6744462,46.9199196 C25.6744462,47.2761272 25.385626,47.5649474 25.0294184,47.5649474 L20.2714596,47.5649474 C19.915252,47.5649474 19.6264317,47.2761272 19.6264317,46.9199196 L19.6264317,42.1243887 C19.6264317,41.7681811 19.915252,41.4793608 20.2714596,41.4793608 M10.5206558,41.4793608 L15.2786146,41.4793608 C15.6348222,41.4793608 15.9236424,41.7681811 15.9236424,42.1243887 L15.9236424,46.9199196 C15.9236424,47.2761272 15.6348222,47.5649474 15.2786146,47.5649474 L10.5206558,47.5649474 C10.164327,47.5649474 9.87562795,47.2761272 9.87562795,46.9199196 L9.87562795,42.1243887 C9.87562795,41.7681811 10.164327,41.4793608 10.5206558,41.4793608 M10.5206558,30.597395 L15.2786146,30.597395 C15.6348222,30.597395 15.9236424,30.8862152 15.9236424,31.2424228 L15.9236424,36.0381961 C15.9236424,36.3944037 15.6348222,36.6832239 15.2786146,36.6832239 L10.5206558,36.6832239 C10.164327,36.6832239 9.87562795,36.3944037 9.87562795,36.0381961 L9.87562795,31.2424228 C9.87562795,30.8862152 10.164327,30.597395 10.5206558,30.597395 M20.2714596,52.3764768 L25.0294184,52.3764768 C25.385626,52.3764768 25.6744462,52.665297 25.6744462,53.0215046 L25.6744462,57.8169143 C25.6744462,58.1731219 25.385626,58.4620633 25.0294184,58.4620633 L20.2714596,58.4620633 C19.915252,58.4620633 19.6264317,58.1731219 19.6264317,57.8169143 L19.6264317,53.0215046 C19.6264317,52.665297 19.915252,52.3764768 20.2714596,52.3764768 M10.5206558,52.3764768 L15.2786146,52.3764768 C15.6348222,52.3764768 15.9236424,52.665297 15.9236424,53.0215046 L15.9236424,57.8169143 C15.9236424,58.1731219 15.6348222,58.4620633 15.2786146,58.4620633 L10.5206558,58.4620633 C10.164327,58.4620633 9.87562795,58.1731219 9.87562795,57.8169143 L9.87562795,53.0215046 C9.87562795,52.665297 10.164327,52.3764768 10.5206558,52.3764768" id="Fill-1" fill="#009CD0"></path>
                <path d="M20.2714596,30.5973707 L25.0294184,30.5973707 C25.385626,30.5973707 25.6744462,30.886191 25.6744462,31.2423985 L25.6744462,36.0381719 C25.6744462,36.3945006 25.385626,36.6831997 25.0294184,36.6831997 L20.2714596,36.6831997 C19.915252,36.6831997 19.6264317,36.3945006 19.6264317,36.0381719 L19.6264317,31.2423985 C19.6264317,30.886191 19.915252,30.5973707 20.2714596,30.5973707 M30.0448066,41.4793366 L34.8027654,41.4793366 C35.158973,41.4793366 35.4477933,41.7681568 35.4477933,42.1243644 L35.4477933,46.9198953 C35.4477933,47.2761029 35.158973,47.5649232 34.8027654,47.5649232 L30.0448066,47.5649232 C29.6884778,47.5649232 29.3996576,47.2761029 29.3996576,46.9198953 L29.3996576,42.1243644 C29.3996576,41.7681568 29.6884778,41.4793366 30.0448066,41.4793366 M30.0448066,52.3764525 L34.8027654,52.3764525 C35.158973,52.3764525 35.4477933,52.6652727 35.4477933,53.0216015 L35.4477933,57.81689 C35.4477933,58.1730976 35.158973,58.4620391 34.8027654,58.4620391 L30.0448066,58.4620391 C29.6884778,58.4620391 29.3996576,58.1730976 29.3996576,57.81689 L29.3996576,53.0216015 C29.3996576,52.6652727 29.6884778,52.3764525 30.0448066,52.3764525" id="Fill-3" fill="#009CD0"></path>
                <g id="Group-7" transform="translate(0.000000, 0.110656)">
                    <mask id="mask-2" fill="white">
                        <use xlink:href="#path-1"></use>
                    </mask>
                    <g id="Clip-6"></g>
                    <path d="M1.51949985,61.6923534 L0.783329439,61.6923534 C0.350644489,61.6923534 1.21200266e-05,61.3415998 1.21200266e-05,60.9091573 L1.21200266e-05,21.9021849 C1.21200266e-05,21.1532884 0.515476851,20.7363595 0.709397276,20.5794052 C0.7203053,20.5705576 0.730970924,20.5621948 0.740909346,20.5538319 L0.8114479,20.4832934 L0.909498915,20.4188148 C3.83951534,18.4893066 6.67172316,16.6184593 9.45957167,14.7768213 C16.2996299,10.2585965 29.5960263,1.57229469 31.7029717,0.19618687 C31.8885293,0.0749866045 32.1052354,0.0105080631 32.3270318,0.0105080631 C32.7291743,0.0105080631 38.7237395,3.78177554 40.7921432,5.16067096 L40.8443805,5.19763704 C41.7962874,5.91162781 42.6949874,6.47290624 43.6465307,7.06739355 C44.1985979,7.4122083 44.7693299,7.76865828 45.3575148,8.16086234 L45.3930265,8.185466 C46.7345923,9.15434092 48.0144671,9.93741584 49.369486,10.7664257 C50.3096365,11.3415209 51.2816626,11.9362506 52.2710204,12.5959437 C54.8474957,14.3134726 57.3271319,15.9188914 59.724958,17.4714668 C61.3269831,18.5085774 62.9835483,19.5810786 64.6559908,20.6786682 L65.1756975,21.0197258 L65.1756975,22.7101059 C65.1756975,23.1426696 64.8249439,23.493302 64.3923802,23.493302 L63.6562098,23.493302 C63.2235248,23.493302 62.8728925,23.1426696 62.8728925,22.7101059 L62.8728925,22.2633617 C61.382614,21.2879419 59.9061524,20.3320354 58.4735652,19.4044898 C56.0691943,17.8477936 53.5828921,16.2381329 50.9936908,14.5118775 C50.0416627,13.8771517 49.0889074,13.2944208 48.1677854,12.7307184 C46.8410061,11.9191614 45.4693827,11.0798495 44.0628536,10.0652821 C43.5088472,9.69646971 42.9587192,9.35286696 42.42665,9.02041463 C41.4839543,8.43162374 40.5097466,7.8230772 39.4886344,7.05927313 C37.9262417,6.01840524 34.6007488,3.93473027 33.1264688,2.98003578 C32.6729374,2.68636753 32.0893581,2.68673113 31.6358267,2.98052058 C24.391202,7.67351608 17.7436098,12.0646017 10.7287809,16.6983303 C8.21326934,18.3599859 5.66200374,20.0452756 3.03510918,21.7761366 C2.57830538,22.0770769 2.30281717,22.5876936 2.30281717,23.1346704 L2.30281717,60.9091573 C2.30281717,61.3415998 1.9520636,61.6923534 1.51949985,61.6923534" id="Fill-5" fill="#009CD0" mask="url(#mask-2)"></path>
                </g>
                <path d="M25.6744583,75.5924968 L9.39326301,75.5924968 L9.39326301,71.7618412 C9.39326301,70.7082472 10.2549969,69.846271 11.308712,69.846271 L38.1247556,69.846271 C39.1782284,69.846271 40.0400834,70.7082472 40.0400834,71.7618412 L40.0400834,75.5924968 L25.6744583,75.5924968 Z M39.0824801,92.8314166 C39.0824801,93.8850105 38.2205039,94.7469868 37.1669099,94.7469868 L37.1669099,77.508067 L39.0824801,77.508067 L39.0824801,92.8314166 Z M14.1817643,94.7469868 L14.1817643,77.508067 L23.7588881,77.508067 L23.7588881,79.4233948 L25.6744583,79.4233948 L25.6744583,77.508067 L35.2517033,77.508067 L35.2517033,94.7469868 L14.1817643,94.7469868 Z M10.3508663,92.8314166 L10.3508663,77.508067 L12.2661941,77.508067 L12.2661941,94.7469868 C11.2128426,94.7469868 10.3508663,93.8850105 10.3508663,92.8314166 Z M18.0126623,66.0154942 C18.0126623,64.9619002 18.8746386,64.1000452 19.9279901,64.1000452 L29.5051139,64.1000452 C30.5587078,64.1000452 31.4206841,64.9619002 31.4206841,66.0154942 L31.4206841,67.930822 L18.0126623,67.930822 L18.0126623,66.0154942 Z M41.9556536,71.7618412 C41.9556536,69.6546533 40.2315799,67.930822 38.1247556,67.930822 L33.3362543,67.930822 L33.3362543,66.0154942 C33.3362543,63.9084275 31.6123018,62.1844749 29.5051139,62.1844749 L19.9279901,62.1844749 C17.8210447,62.1844749 16.0972133,63.9084275 16.0972133,66.0154942 L16.0972133,67.930822 L11.308712,67.930822 C9.20164539,67.930822 7.47769281,69.6546533 7.47769281,71.7618412 L7.47769281,75.5924968 C7.47769281,76.5502213 7.86068565,77.4123188 8.43553851,78.0826774 L8.43553851,92.8314166 C8.43553851,94.938362 10.1593699,96.6624358 12.2661941,96.6624358 L37.1669099,96.6624358 C39.2740978,96.6624358 40.9979291,94.938362 40.9979291,92.8314166 L40.9979291,78.0826774 C41.5726608,77.4123188 41.9556536,76.5502213 41.9556536,75.5924968 L41.9556536,71.7618412 Z" id="Fill-8" fill="#009CD0"></path>
                <path d="M55.8869334,27.5022674 C48.8586512,27.5022674 43.140665,33.2202536 43.140665,40.2485358 C43.140665,47.276818 48.8586512,52.9948041 55.8869334,52.9948041 C62.9150944,52.9948041 68.6330805,47.276818 68.6330805,40.2485358 C68.6330805,33.2202536 62.9150944,27.5022674 55.8869334,27.5022674 M55.8869334,55.0552087 C47.7225199,55.0552087 41.0802605,48.4129493 41.0802605,40.2485358 C41.0802605,32.0841223 47.7225199,25.4418629 55.8869334,25.4418629 C64.0512257,25.4418629 70.6934851,32.0841223 70.6934851,40.2485358 C70.6934851,48.4129493 64.0512257,55.0552087 55.8869334,55.0552087" id="Fill-10" fill="#009CD0"></path>
                <path d="M36.8292581,65.8911427 C38.6252037,62.7823559 41.1700456,60.1580065 44.2162931,58.2678884 C44.697943,57.9691297 44.8441105,57.3322223 44.5362618,56.8562689 C44.5326258,56.8504512 44.5287474,56.8447548 44.5251114,56.8390584 C44.2212623,56.3688014 43.5996262,56.2279667 43.1241575,56.5233317 C39.7895746,58.5945231 37.0036653,61.4689086 35.0385242,64.8736664 C34.6476533,65.5508123 35.1426352,66.3975174 35.9243769,66.3975174 L35.949829,66.3975174 C36.3122178,66.3975174 36.6479425,66.2050514 36.8292581,65.8911427" id="Fill-12" fill="#009CD0"></path>
                <path d="M55.6106816,52.9645041 C54.1007687,52.9645041 54.8009426,55.0249086 55.6106816,55.0249086 C66.8338262,55.0249086 76.0918297,63.5981306 77.1787537,74.5399694 C77.2388691,75.1450011 76.7603704,75.6693135 76.1523087,75.6693135 L44.8844581,75.6693135 C44.315544,75.6693135 43.8542558,76.1306017 43.8542558,76.6995158 C43.8542558,77.2684298 44.315544,77.729718 44.8844581,77.729718 L78.3156122,77.729718 C78.8845263,77.729718 79.3458145,77.2684298 79.3458145,76.6995158 C79.3458145,63.6120686 68.6982499,52.9645041 55.6106816,52.9645041" id="Fill-14" fill="#009CD0"></path>
                <path d="M52.431429,68.367349 L55.3607182,71.2966382 C55.5376706,71.4735906 55.8245516,71.4735906 56.001504,71.2966382 L58.7172383,68.5809038 C58.818683,68.4794592 58.8661935,68.3357157 58.8449834,68.1937902 L57.6080135,59.8787247 C57.5749258,59.6566858 57.3842778,59.4922171 57.1598149,59.4922171 L54.1878632,59.4922171 C53.9681271,59.4922171 53.7800243,59.6498986 53.741725,59.8662411 L52.3056231,67.9677517 C52.2798074,68.1135556 52.3268331,68.2627531 52.431429,68.367349 M55.3607182,74.2104138 L50.2152821,69.0649777 C50.1106863,68.9603819 50.0636606,68.8111843 50.0894762,68.6653804 L52.0143788,57.8058366 C52.0526781,57.5894941 52.2407809,57.4318126 52.460517,57.4318126 L58.9363684,57.4318126 C59.1608313,57.4318126 59.3516005,57.5962813 59.384567,57.8183202 L61.035557,68.9169922 C61.0567671,69.0589177 61.0092566,69.2026612 60.9079331,69.3041058 L56.001504,74.2104138 C55.8245516,74.3873662 55.5376706,74.3873662 55.3607182,74.2104138" id="Fill-16" fill="#009CD0"></path>
            </g>
        </g>
    </g>
</svg>