<?xml version="1.0" encoding="UTF-8"?>
<svg width="104px" height="142px" viewBox="0 0 104 142" version="1.1" xmlns="http://www.w3.org/2000/svg" xmlns:xlink="http://www.w3.org/1999/xlink">
    <!-- Generator: Sketch 51 (57462) - http://www.bohemiancoding.com/sketch -->
    <title>投融资方_slice</title>
    <desc>Created with Sketch.</desc>
    <defs>
        <polygon id="path-1" points="0 0.111263966 77.5291257 0.111263966 77.5291257 93.6739802 0 93.6739802"></polygon>
        <polygon id="path-3" points="0.0714846369 0.171937291 37.3155712 0.171937291 37.3155712 37.4162011 0.0714846369 37.4162011"></polygon>
    </defs>
    <g id="Page-1" stroke="none" stroke-width="1" fill="none" fill-rule="evenodd">
        <g id="Artboard" transform="translate(-103.000000, -47.000000)">
            <g id="投融资方" transform="translate(103.000000, 47.000000)">
                <g id="Group-3" transform="translate(0.000000, 0.085663)">
                    <mask id="mask-2" fill="white">
                        <use xlink:href="#path-1"></use>
                    </mask>
                    <g id="Clip-2"></g>
                    <path d="M69.7061858,0.111224581 L7.82293994,0.111224581 C3.50944274,0.111224581 0,3.62066732 0,7.93416453 L0,85.8512372 C0,90.1647344 3.50944274,93.6739802 7.82293994,93.6739802 L11.6510112,93.6739802 L11.6510112,90.3262148 L7.82293994,90.3262148 C5.35543994,90.3262148 3.34776536,88.3189341 3.34776536,85.8512372 L3.34776536,7.93416453 C3.34776536,5.4664676 5.35543994,3.45898994 7.82293994,3.45898994 L69.7061858,3.45898994 C72.1736858,3.45898994 74.1813603,5.4664676 74.1813603,7.93416453 L74.1813603,51.5653936 L77.5291257,51.5653936 L77.5291257,7.93416453 C77.5291257,3.62066732 74.019683,0.111224581 69.7061858,0.111224581" id="Fill-1" fill="#009CD0" mask="url(#mask-2)"></path>
                </g>
                <path d="M58.6586388,22.0215021 L17.2918777,22.0215021 C16.7584014,22.0215021 16.3259489,21.5890496 16.3259489,21.0555733 L16.3259489,17.5752758 C16.3259489,17.0417996 16.7584014,16.6093471 17.2918777,16.6093471 L58.6586388,16.6093471 C59.1921151,16.6093471 59.6245676,17.0417996 59.6245676,17.5752758 L59.6245676,21.0555733 C59.6245676,21.5890496 59.1921151,22.0215021 58.6586388,22.0215021" id="Fill-4" fill="#009CD0"></path>
                <path d="M58.6586388,31.8909507 L17.2918777,31.8909507 C16.7584014,31.8909507 16.3259489,31.4584982 16.3259489,30.9250219 L16.3259489,27.4445275 C16.3259489,26.9110513 16.7584014,26.4785987 17.2918777,26.4785987 L58.6586388,26.4785987 C59.1921151,26.4785987 59.6245676,26.9110513 59.6245676,27.4445275 L59.6245676,30.9250219 C59.6245676,31.4584982 59.1921151,31.8909507 58.6586388,31.8909507" id="Fill-6" fill="#009CD0"></path>
                <path d="M58.6586388,43.0829242 L17.2918777,43.0829242 C16.7584014,43.0829242 16.3259489,42.6504716 16.3259489,42.1169954 L16.3259489,38.6366979 C16.3259489,38.1032216 16.7584014,37.6707691 17.2918777,37.6707691 L58.6586388,37.6707691 C59.1921151,37.6707691 59.6245676,38.1032216 59.6245676,38.6366979 L59.6245676,42.1169954 C59.6245676,42.6504716 59.1921151,43.0829242 58.6586388,43.0829242" id="Fill-8" fill="#009CD0"></path>
                <path d="M36.2827659,48.8627623 L17.2918777,48.8627623 C16.7584014,48.8627623 16.3259489,49.2952148 16.3259489,49.8286911 L16.3259489,53.3089885 C16.3259489,53.8424648 16.7584014,54.2749173 17.2918777,54.2749173 L36.2827659,54.2749173 C36.789657,54.2749173 37.2008413,53.8639299 37.2008413,53.3568419 L37.2008413,49.7808377 C37.2008413,49.2737497 36.789657,48.8627623 36.2827659,48.8627623" id="Fill-10" fill="#009CD0"></path>
                <path d="M29.5051165,60.0547358 L16.9637966,60.0547358 C16.6114936,60.0547358 16.3259489,60.4871883 16.3259489,61.0206645 L16.3259489,64.500962 C16.3259489,65.0344383 16.6114936,65.4668908 16.9637966,65.4668908 L29.5051165,65.4668908 C29.839893,65.4668908 30.1114559,65.0559034 30.1114559,64.5488154 L30.1114559,60.9728112 C30.1114559,60.4659201 29.839893,60.0547358 29.5051165,60.0547358" id="Fill-12" fill="#009CD0"></path>
                <path d="M37.2664378,85.7822141 C31.956882,85.7822141 26.6471292,86.5392029 22.8484001,87.675277 C22.8326459,87.6802001 22.8166948,87.6839418 22.8003499,87.6872895 C20.9577004,88.0565284 19.4750342,88.4273426 18.7013066,89.1478999 C18.6627088,89.1835437 18.6205663,89.2142644 18.5740915,89.2388803 C17.8381739,89.6291904 17.1243122,90.3546708 17.1243122,90.7227281 C17.1243122,91.0866499 17.4722828,91.4501778 18.1682242,92.1469068 C18.231044,92.2099236 18.3072549,92.2571862 18.390949,92.2863314 C19.5120566,92.6768384 20.9829071,93.3916848 22.8040915,93.7589543 C22.8178764,93.7619082 22.8314644,93.765256 22.8452493,93.7693915 C26.6441753,94.9046778 31.9553066,95.2833691 37.2664378,95.2833691 C42.9672884,95.2833691 47.9078024,94.5232295 51.7085007,93.7630898 C53.608456,93.3832169 55.1287353,92.6230772 55.8884811,92.2432043 C56.6488177,91.8629376 57.0288876,91.1029948 57.0288876,90.7227281 C57.0288876,90.3503384 56.6637842,89.9779487 55.9331837,89.2471513 C55.9042353,89.218006 55.8711515,89.191027 55.8368862,89.1681834 C54.7187325,88.4342351 53.5897479,88.0598761 51.7329197,87.6872895 C51.7169686,87.6839418 51.7008205,87.6802001 51.6852633,87.675277 C47.8877158,86.5392029 42.9556697,85.7822141 37.2664378,85.7822141 M37.2664378,97.1835214 C26.6252703,97.1835214 15.6040328,94.9032993 15.6040328,90.7227281 C15.6040328,88.8225758 17.884058,86.9224236 22.444699,85.7822141 C26.6252703,84.6422015 31.9458541,84.2621317 37.6467046,84.2621317 C48.667942,84.2621317 59.6891795,86.5421568 59.6891795,90.7227281 C59.6891795,92.6230772 57.4087605,94.5232295 52.8485133,95.6636359 C48.2878722,96.8036485 42.9672884,97.1835214 37.2664378,97.1835214 M60.2742507,126.066859 L64.424889,126.066859 C64.7480468,126.066859 65.0099602,126.328773 65.0099602,126.651931 L65.0099602,127.002264 C65.0099602,127.325422 64.7480468,127.587139 64.424889,127.587139 L60.2742507,127.587139 C59.9510929,127.587139 59.6891795,127.325422 59.6891795,127.002264 L59.6891795,126.651931 C59.6891795,126.328773 59.9510929,126.066859 60.2742507,126.066859 M60.2742507,122.266752 L64.424889,122.266752 C64.7480468,122.266752 65.0099602,122.528468 65.0099602,122.851429 L65.0099602,123.20196 C65.0099602,123.524921 64.7480468,123.786637 64.424889,123.786637 L60.2742507,123.786637 C59.9510929,123.786637 59.6891795,123.524921 59.6891795,123.20196 L59.6891795,122.851429 C59.6891795,122.528468 59.9510929,122.266752 60.2742507,122.266752 M60.2742507,118.086181 L64.424889,118.086181 C64.7480468,118.086181 65.0099602,118.347897 65.0099602,118.671055 L65.0099602,119.021389 C65.0099602,119.344547 64.7480468,119.606263 64.424889,119.606263 L60.2742507,119.606263 C59.9510929,119.606263 59.6891795,119.344547 59.6891795,119.021389 L59.6891795,118.671055 C59.6891795,118.347897 59.9510929,118.086181 60.2742507,118.086181 M35.5714839,126.066859 L39.7221222,126.066859 C40.0448862,126.066859 40.3067996,126.328773 40.3067996,126.651931 L40.3067996,127.002264 C40.3067996,127.325422 40.0448862,127.587139 39.7221222,127.587139 L35.5714839,127.587139 C35.2483261,127.587139 34.9864127,127.325422 34.9864127,127.002264 L34.9864127,126.651931 C34.9864127,126.328773 35.2483261,126.066859 35.5714839,126.066859 M35.5714839,122.266752 L39.7221222,122.266752 C40.0448862,122.266752 40.3067996,122.528468 40.3067996,122.851429 L40.3067996,123.20196 C40.3067996,123.524921 40.0448862,123.786637 39.7221222,123.786637 L35.5714839,123.786637 C35.2483261,123.786637 34.9864127,123.524921 34.9864127,123.20196 L34.9864127,122.851429 C34.9864127,122.528468 35.2483261,122.266752 35.5714839,122.266752 M35.5714839,118.086181 L39.7221222,118.086181 C40.0448862,118.086181 40.3067996,118.347897 40.3067996,118.671055 L40.3067996,119.021389 C40.3067996,119.344547 40.0448862,119.606263 39.7221222,119.606263 L35.5714839,119.606263 C35.2483261,119.606263 34.9864127,119.344547 34.9864127,119.021389 L34.9864127,118.671055 C34.9864127,118.347897 35.2483261,118.086181 35.5714839,118.086181" id="Fill-14" fill="#009CD0"></path>
                <path d="M32.3261405,126.066938 C27.0053598,126.066938 22.0648458,125.307192 18.6442173,124.166983 C14.463843,123.026576 12.5636908,121.506691 12.5636908,119.606145 L14.463843,119.606145 C14.463843,120.366284 15.6040525,121.506691 19.404357,122.646703 C22.8249855,123.786716 27.3852327,124.166983 32.7062103,124.546659 L32.3261405,126.066938 Z M36.5067117,110.865129 C31.185931,110.865129 25.8653472,110.105187 22.0648458,108.964977 C17.5042047,107.824965 15.6040525,106.304685 15.6040525,104.404336 L15.6040525,90.7226099 L17.5042047,92.7228013 L17.5042047,104.404336 C17.5042047,105.164673 19.0244841,106.304685 22.8249855,107.444895 C26.6252899,108.585104 31.5658039,108.964977 36.8863877,109.345244 L36.5067117,110.865129 Z M58.1691168,106.684558 L57.0289073,105.164673 C57.0289073,104.784603 57.4087802,104.784603 57.4087802,104.404336 L57.4087802,90.7226099 L59.6821098,90.4768446 L59.6821098,104.158571 C59.3093263,105.164673 58.9290595,105.924616 58.1691168,106.684558 Z" id="Fill-16" fill="#009CD0"></path>
                <path d="M29.6656911,111.625466 C18.6442567,111.625466 7.62301927,109.345244 7.62301927,105.164673 C7.62301927,102.124311 12.1838573,100.604032 15.9839648,99.844089 L16.3642316,101.744044 C14.0838126,102.124311 12.5635332,102.504578 11.0434508,103.264324 C10.2833112,104.024266 9.52356536,104.404336 9.52356536,105.164673 C9.52356536,105.544546 9.90324134,105.924616 10.6635779,106.684558 C11.8035905,107.444895 12.9438,107.824965 14.8439522,108.204838 C18.6442567,109.345244 23.9650374,109.725117 29.2856212,109.725117 C31.5656464,109.725117 33.4661925,109.725117 35.7464145,109.345244 L35.7464145,111.245199 C33.8462623,111.625466 31.5656464,111.625466 29.6656911,111.625466 M34.2259383,138.608652 C23.2048978,138.608652 12.1838573,136.328233 12.1838573,132.147859 L12.1838573,119.606145 L14.0838126,119.606145 L14.0838126,132.147859 C14.0838126,132.527731 14.4638824,132.907801 15.2238251,133.668138 C16.3642316,134.428081 17.5042441,134.80815 19.4043964,135.187826 C23.2048978,136.328233 28.5256785,136.708303 33.8462623,136.708303 C36.1264844,136.708303 38.4067064,136.708303 40.6871254,136.328233 L40.6871254,138.228385 C39.1668461,138.608652 36.5065542,138.608652 34.2259383,138.608652" id="Fill-18" fill="#009CD0"></path>
                <path d="M29.6656911,122.646664 C23.9650374,122.646664 18.6442567,121.886524 14.4638824,121.126385 C9.90324134,119.986372 7.62301927,118.08622 7.62301927,116.185674 L7.62301927,105.16483 L9.52356536,106.853286 L9.52356536,116.185674 C9.52356536,116.565744 9.90324134,116.94601 10.6635779,117.705953 C11.8035905,118.466093 12.9438,118.84636 14.8439522,119.226233 C18.6442567,120.366245 23.9650374,120.746512 29.2856212,120.746512 L31.5656464,120.746512 L31.5656464,122.646664 L29.6656911,122.646664 Z" id="Fill-20" fill="#009CD0"></path>
                <g id="Group-24" transform="translate(31.114525, 103.472535)">
                    <mask id="mask-4" fill="white">
                        <use xlink:href="#path-3"></use>
                    </mask>
                    <g id="Clip-23"></g>
                    <path d="M18.6935279,1.69221662 C9.57263966,1.69221662 1.97143994,9.29302249 1.97143994,18.4139108 C1.97143994,27.5351929 9.57263966,35.1359987 18.6935279,35.1359987 C27.8144162,35.1359987 35.4156159,27.5351929 35.4156159,18.4139108 C35.4156159,9.29302249 27.8144162,1.69221662 18.6935279,1.69221662 M18.6935279,37.4162208 C8.43223324,37.4162208 0.0714846369,29.0550784 0.0714846369,18.7941775 C0.0714846369,8.53288282 8.43223324,0.171937291 18.6935279,0.171937291 C28.9546257,0.171937291 37.3155712,8.15300992 37.3155712,18.4139108 C37.3155712,28.6754024 28.9546257,37.4162208 18.6935279,37.4162208" id="Fill-22" fill="#009CD0" mask="url(#mask-4)"></path>
                </g>
                <path d="M49.7693962,121.08184 L42.8143152,113.028495 C42.6916295,112.886313 42.7148669,112.669693 42.8651225,112.557051 L43.8684675,111.804591 C44.0035596,111.703371 44.1935946,111.722472 44.3056462,111.848506 L50.1480876,118.421154 C50.1693557,118.444982 50.2069689,118.444982 50.228237,118.421154 L56.0704814,111.848506 C56.1825331,111.722472 56.372568,111.703371 56.5076602,111.804591 L57.4966295,112.54622 C57.6522021,112.662801 57.6709102,112.88907 57.5366057,113.029676 L49.848758,121.083809 C49.826899,121.106653 49.7900736,121.105865 49.7693962,121.08184" id="Fill-25" fill="#009CD0"></path>
                <path d="M43.3952313,124.546718 L56.9810539,124.546718 C57.2171698,124.546718 57.4087802,124.738525 57.4087802,124.974641 L57.4087802,126.019341 C57.4087802,126.255654 57.2171698,126.447067 56.9810539,126.447067 L43.3952313,126.447067 C43.1589184,126.447067 42.9673081,126.255654 42.9673081,126.019341 L42.9673081,124.974641 C42.9673081,124.738525 43.1589184,124.546718 43.3952313,124.546718 M43.3952313,119.226134 L56.9810539,119.226134 C57.2171698,119.226134 57.4087802,119.417744 57.4087802,119.654057 L57.4087802,120.698757 C57.4087802,120.934873 57.2171698,121.126483 56.9810539,121.126483 L43.3952313,121.126483 C43.1589184,121.126483 42.9673081,120.934873 42.9673081,120.698757 L42.9673081,119.654057 C42.9673081,119.417744 43.1589184,119.226134 43.3952313,119.226134" id="Fill-27" fill="#009CD0"></path>
                <path d="M11.2391376,109.725038 L12.2848219,109.725038 C12.5207409,109.725038 12.7119574,109.916452 12.7119574,110.152567 L12.7119574,116.518442 C12.7119574,116.754558 12.5207409,116.945971 12.2848219,116.945971 L11.2391376,116.945971 C11.0032186,116.945971 10.8118052,116.754558 10.8118052,116.518442 L10.8118052,110.152567 C10.8118052,109.916452 11.0032186,109.725038 11.2391376,109.725038 M15.4197088,124.166904 L16.4651962,124.166904 C16.7011152,124.166904 16.8927256,124.358317 16.8927256,124.594433 L16.8927256,132.100123 C16.8927256,132.336239 16.7011152,132.527653 16.4651962,132.527653 L15.4197088,132.527653 C15.1835929,132.527653 14.9923764,132.336239 14.9923764,132.100123 L14.9923764,124.594433 C14.9923764,124.358317 15.1835929,124.166904 15.4197088,124.166904 M18.4600705,96.0433119 L19.505361,96.0433119 C19.741477,96.0433119 19.9326934,96.2347253 19.9326934,96.4708412 L19.9326934,102.836912 C19.9326934,103.073028 19.741477,103.264245 19.505361,103.264245 L18.4600705,103.264245 C18.2241515,103.264245 18.0327381,103.073028 18.0327381,102.836912 L18.0327381,96.4708412 C18.0327381,96.2347253 18.2241515,96.0433119 18.4600705,96.0433119 M49.2004337,119.8026 L50.2459211,119.789996 C50.4816432,119.787436 50.6754197,119.976093 50.6781767,120.212012 L50.8380817,132.658806 C50.8412325,132.894922 50.6521823,133.088896 50.4156725,133.091653 L49.3705789,133.104059 C49.1346599,133.106816 48.9410803,132.917963 48.9381264,132.682241 L48.7780244,120.235446 C48.7748736,119.999133 48.9639239,119.805357 49.2004337,119.8026" id="Fill-29" fill="#009CD0"></path>
                <path d="M103.01076,55.0750135 L48.5727473,55.0750135 C48.0625085,55.0750135 47.648961,55.488561 47.648961,55.9986029 L47.648961,57.6474758 C47.648961,58.1575177 48.0625085,58.5710652 48.5727473,58.5710652 L51.1452096,58.5710652 L51.1452096,80.4327608 C52.3214568,80.719487 53.4746635,81.1188557 54.6410644,81.4451644 L54.6410644,58.5710652 L96.7673744,58.5710652 L96.7673744,91.9575415 C96.7673744,94.2300834 95.3691901,95.4535932 93.2715197,95.4535932 L63.5087041,95.4535932 L63.5087041,98.7745764 L68.6250742,98.7745764 L65.4779778,104.281847 C66.9385881,104.853724 68.2091635,106.036076 69.2747376,107.103423 C69.2767068,107.105392 69.2786761,107.107755 69.2806454,107.109528 L74.0433339,98.7745764 L77.5395825,98.7745764 L84.3751286,110.736733 C84.4720169,110.90609 84.6518116,111.010462 84.8469666,111.010462 L89.0143437,111.010462 C89.4314359,111.010462 89.6929554,110.559892 89.4859848,110.197743 L82.9582362,98.7745764 L93.4461943,98.7745764 C97.3077432,98.7745764 100.438298,95.6442189 100.438298,91.782473 L100.438298,58.3959968 L103.01076,58.3959968 C103.520802,58.3959968 103.934152,57.9826462 103.934152,57.4724074 L103.934152,55.9986029 C103.934152,55.488561 103.520802,55.0750135 103.01076,55.0750135" id="Fill-31" fill="#009CD0"></path>
                <path d="M65.3037758,90.0349986 C66.352611,90.0349986 67.0517032,89.160838 67.0517032,88.2868743 L67.0517032,81.2947709 C67.0517032,80.2457388 66.352611,79.5466466 65.3037758,79.5466466 C64.2549406,79.5466466 63.5556515,80.2457388 63.5556515,81.2947709 L63.5556515,88.2868743 C63.38078,89.160838 64.2549406,90.0349986 65.3037758,90.0349986 M86.279692,90.0349986 C87.3283303,90.0349986 88.0278163,89.160838 88.0278163,88.2868743 L88.0278163,72.5549372 C88.0278163,71.506102 87.1534588,70.8068128 86.279692,70.8068128 C85.4055314,70.8068128 84.5317647,71.6807765 84.5317647,72.5549372 L84.5317647,88.4615489 C84.5317647,89.160838 85.2306599,90.0349986 86.279692,90.0349986 M75.791537,90.0349986 C76.8403722,90.0349986 77.5396613,89.160838 77.5396613,88.2868743 L77.5396613,67.1362835 C77.5396613,66.0872514 76.8403722,65.3881592 75.791537,65.3881592 C74.7428987,65.3881592 74.0434127,66.261926 74.0434127,67.1362835 L74.0434127,88.2868743 C73.8687381,89.160838 74.7428987,90.0349986 75.791537,90.0349986" id="Fill-33" fill="#009CD0"></path>
            </g>
        </g>
    </g>
</svg>