<?xml version="1.0" encoding="UTF-8"?>
<svg width="75px" height="97px" viewBox="0 0 75 97" version="1.1" xmlns="http://www.w3.org/2000/svg" xmlns:xlink="http://www.w3.org/1999/xlink">
    <!-- Generator: Sketch 52.2 (67145) - http://www.bohemiancoding.com/sketch -->
    <title>生产icon按下效果_slice</title>
    <desc>Created with Sketch.</desc>
    <defs>
        <polygon id="path-1" points="0 0.0742148347 54.893143 0.0742148347 54.893143 51.6972756 0 51.6972756"></polygon>
        <polygon id="path-3" points="0 97 74.9545455 97 74.9545455 0 0 0"></polygon>
    </defs>
    <g id="Page-1" stroke="none" stroke-width="1" fill="none" fill-rule="evenodd">
        <g id="画板" transform="translate(-98.000000, -51.000000)">
            <g id="生产icon按下效果" transform="translate(98.000000, 51.000000)">
                <g id="Group-3" transform="translate(0.000000, 13.227273)">
                    <mask id="mask-2" fill="white">
                        <use xlink:href="#path-1"></use>
                    </mask>
                    <g id="Clip-2"></g>
                    <path d="M4.79905653,2.11662772 L13.5562561,2.11662772 C13.6883816,2.11662772 13.8024851,2.20993374 13.827564,2.33849826 L14.1405616,3.74410831 L4.45142626,3.74410831 L4.52308022,2.3750467 C4.53133128,2.23014288 4.65249161,2.11662772 4.79905653,2.11662772 M3.89741087,49.6548627 L2.33904581,49.6548627 C2.24079303,49.6548627 2.1755445,49.6084247 2.13830615,49.5692963 C2.10095924,49.5302755 2.05774973,49.4633059 2.0633952,49.3622602 L4.34448815,5.7865212 L14.5954556,5.7865212 L15.1588077,8.31621081 C15.3765924,9.39632474 16.3388182,10.1787839 17.4527116,10.1787839 L40.4219312,10.1787839 C40.5150814,10.1787839 40.6012832,10.2247919 40.6526352,10.3018661 L43.3125171,14.2971482 C43.7452636,14.9472805 44.4790653,15.3385638 45.2654132,15.3385638 L52.1089092,15.3385638 C52.2295267,15.3385638 52.3362477,15.416068 52.3725089,15.5301206 L52.9018797,17.1967295 C52.9859102,17.4613833 53.270789,17.608437 53.53808,17.525128 L54.5379784,17.2138213 C54.8051608,17.1306199 54.95368,16.8485519 54.8696494,16.5838982 L54.3402786,14.9173968 C54.0337951,13.9525179 53.1304124,13.2961509 52.1089092,13.2961509 L45.2654132,13.2961509 C45.1724802,13.2961509 45.085844,13.2499279 45.0347092,13.1730687 L42.3748273,9.17767907 C41.9406695,8.52561188 41.210559,8.13637098 40.4219312,8.13637098 L17.4527116,8.13637098 C17.3204774,8.13637098 17.2063739,8.04306496 17.181295,7.91460794 L15.8500513,1.93700289 C15.6323753,0.856673962 14.6701495,0.0742148347 13.5562561,0.0742148347 L4.79905653,0.0742148347 C3.55846592,0.0742148347 2.53262007,1.03500886 2.46335457,2.26540138 L0.00356098467,49.2525073 C-0.032048862,49.8854404 0.199849408,50.5123536 0.639761294,50.9727565 C1.07956461,51.4331593 1.6989371,51.6972756 2.33904581,51.6972756 L3.89741087,51.6972756 C4.28944488,51.6972756 4.60721934,51.382744 4.60721934,50.9944706 L4.60721934,50.3576677 C4.60721934,49.9695018 4.28944488,49.6548627 3.89741087,49.6548627" id="Fill-1" fill="#0054D3" mask="url(#mask-2)"></path>
                </g>
                <path d="M14.7619348,5.15855798 C15.1617599,4.77683955 15.6937612,4.57065352 16.2544734,4.5776447 C16.4545987,4.58022605 16.6536605,4.61077213 16.8461295,4.66842248 L17.5027572,4.86514353 L17.9266144,4.32090705 C18.5852624,3.47508182 19.5871646,3.00000425 20.6791338,3.01194304 C20.9729414,3.01581507 21.264516,3.0561488 21.5458823,3.13197622 L22.0332223,3.26330285 L22.4298573,2.94826952 C23.1796357,2.35272854 24.1241162,2.03167204 25.0965632,2.04393349 C26.0703926,2.05641006 27.012321,2.40457082 27.748701,3.02420449 L28.2466747,3.44313751 L28.8307809,3.16037117 C29.2693124,2.94816196 29.7375119,2.84350937 30.2325082,2.85007033 C31.0550207,2.86061088 31.8228763,3.18263538 32.3944348,3.75688016 C32.9573801,4.3225204 33.2619277,5.0662744 33.2521448,5.85122259 C33.2422555,6.63627833 32.919099,7.37207314 32.34233,7.92308568 C31.756416,8.48248764 30.9826056,8.78343105 30.1583916,8.77428874 C29.7993997,8.76966381 29.4481704,8.70512984 29.1146992,8.58262285 L28.5053913,8.35868998 L28.0502712,8.8257008 C27.2468992,9.65012226 26.1618419,10.0928253 24.9959689,10.0811016 C24.218862,10.0710989 23.4637668,9.85017757 22.8124559,9.44200021 L22.3840263,9.17364646 L21.9143381,9.35832117 C21.4954788,9.5230979 21.0535445,9.60312002 20.596723,9.59784975 C19.6967975,9.58634119 18.8529113,9.23656708 18.220422,8.61295382 L17.7311679,8.13056239 L17.1063349,8.41020959 C16.8227355,8.53723396 16.5199956,8.59929413 16.2041763,8.5956372 C15.6414437,8.58832335 15.1166733,8.36858518 14.7266311,7.97664888 C14.3453085,7.59353221 14.1389095,7.09038236 14.1455023,6.55991313 C14.1522015,6.02955146 14.371042,5.53188699 14.7619348,5.15855798 M16.1785492,10.6389978 C16.5608288,10.6441605 16.9339634,10.5978036 17.2958264,10.5017556 C18.2274402,11.2252889 19.3690685,11.6258297 20.5712022,11.6412103 C21.1192604,11.6479864 21.6570039,11.5752781 22.1759258,11.4238384 C23.0351245,11.8710588 23.9917273,12.1119856 24.9703418,12.1244622 C24.9967133,12.1248924 25.022872,12.125 25.0491371,12.125 C26.5072228,12.125 27.9242625,11.6077602 29.0309061,10.6844942 C29.3907487,10.7682808 29.7594172,10.8128093 30.1327645,10.8176493 C31.4797286,10.8376549 32.7600196,10.3346126 33.7293828,9.40887277 C34.707572,8.47463601 35.2555238,7.22031075 35.2723249,5.87714373 C35.2892324,4.53386915 34.7727562,3.26599176 33.8182801,2.30701697 C32.8724172,1.35675427 31.6080767,0.823918795 30.2580289,0.806709736 C29.6669045,0.798427877 29.0929003,0.889743444 28.5438851,1.07656929 C27.5417702,0.39466034 26.3478244,0.0161686084 25.122084,0.000572899029 C23.8596574,-0.0166361595 22.6190299,0.354326609 21.5807606,1.04989525 C21.2920571,0.999666306 20.9988875,0.972346925 20.7047608,0.968582443 C19.2283854,0.949114696 17.7969902,1.53917029 16.7691419,2.56945512 C16.6070852,2.54815891 16.443646,2.53632768 16.2799942,2.5342841 C15.1871743,2.51729016 14.1581564,2.92449951 13.3748819,3.67266333 C12.5826753,4.42921656 12.1389332,5.44541147 12.1253221,6.53409954 C12.1117111,7.62268005 12.5298261,8.64984574 13.3027858,9.42651206 C14.0671323,10.1944663 15.0883878,10.6250154 16.1785492,10.6389978" id="Fill-4" fill="#0054D3"></path>
                <mask id="mask-4" fill="white">
                    <use xlink:href="#path-3"></use>
                </mask>
                <g id="Clip-7"></g>
                <path d="M33.6153868,78.1467162 L34.951842,78.1467162 L34.951842,76.810261 L33.6153868,76.810261 L33.6153868,78.1467162 Z M17.5171473,71.022001 L18.8536025,71.022001 L18.8536025,69.6855458 L17.5171473,69.6855458 L17.5171473,71.022001 Z M35.139273,86.1489782 L36.4757282,86.1489782 L36.4757282,84.812523 L35.139273,84.812523 L35.139273,86.1489782 Z M40.9698218,90.0985232 C40.9698218,92.790878 38.7794081,94.9811855 36.0870533,94.9811855 L31.9981039,94.9811855 L31.9981039,86.2806262 L33.535378,86.2806262 L33.535378,86.7298655 C33.5361218,87.2941773 33.9934364,87.7514919 34.5577482,87.752342 L37.0572531,87.752342 C37.6210336,87.752342 38.0798357,87.293646 38.0798357,86.7298655 L38.0798357,84.2309982 C38.0798357,83.6665801 37.6210336,83.2078842 37.0572531,83.2078842 L34.5577482,83.2078842 C33.9939677,83.2078842 33.535378,83.6665801 33.535378,84.2309982 L33.535378,84.6766249 L31.4166853,84.6766249 C30.8527985,84.6766249 30.3942089,85.1353208 30.3942089,85.6992076 L30.3942089,94.9811855 L28.6924545,94.9811855 L28.6924545,76.7432151 C28.6924545,75.8958443 28.0027637,75.2061535 27.1552866,75.2061535 L9.73472361,75.2061535 L9.73472361,68.6288558 C9.73472361,65.936501 11.9251374,63.7460872 14.6174922,63.7460872 L23.1084135,63.7460872 L23.1084135,69.5516665 L20.4576038,69.5516665 L20.4576038,69.104021 C20.4576038,68.5401342 19.9989079,68.0814383 19.4351274,68.0814383 L16.9357287,68.0814383 C16.371842,68.0814383 15.9131461,68.5401342 15.9131461,69.104021 L15.9131461,71.6034196 C15.9141023,72.1677314 16.3713107,72.6251523 16.9357287,72.625896 L19.4351274,72.625896 C19.9989079,72.625896 20.4576038,72.1679439 20.4576038,71.6034196 L20.4576038,71.1557741 L23.6899384,71.1557741 C24.2543564,71.154924 24.7117773,70.6976094 24.7124148,70.1331914 L24.7124148,63.7460872 L33.4816138,63.7460872 L33.4816138,75.2061535 L33.033862,75.2061535 C32.4700815,75.2061535 32.0113855,75.6649557 32.0113855,76.2287362 L32.0113855,78.7281348 C32.0122356,79.2925528 32.4695502,79.7497612 33.033862,79.7506112 L35.5332606,79.7506112 C36.0971474,79.7506112 36.5559495,79.2920216 36.5559495,78.7281348 L36.5559495,76.2287362 C36.5559495,75.6649557 36.0971474,75.2061535 35.5332606,75.2061535 L35.0855088,75.2061535 L35.0855088,63.7460872 L36.0870533,63.7460872 C38.7794081,63.7460872 40.9698218,65.936501 40.9698218,68.6288558 L40.9698218,90.0985232 Z M14.1216076,88.3065597 L15.4580628,88.3065597 L15.4580628,86.970317 L14.1216076,86.970317 L14.1216076,88.3065597 Z M17.5193786,81.5370496 L18.8558339,81.5370496 L18.8558339,80.1997443 L17.5193786,80.1997443 L17.5193786,81.5370496 Z M9.73472361,90.0985232 L9.73472361,76.8101548 L27.088347,76.8101548 L27.088347,94.9811855 L25.3307033,94.9811855 L25.3307033,81.0892978 C25.3307033,80.525411 24.8721136,80.0668213 24.3081206,80.0668213 L20.4598351,80.0668213 L20.4598351,79.6190695 C20.4598351,79.0551828 20.0011392,78.5964868 19.4372524,78.5964868 L16.9379601,78.5964868 C16.3740733,78.5964868 15.9153774,79.0551828 15.9153774,79.6190695 L15.9153774,82.1177244 C15.9156961,82.6822487 16.3732233,83.1402008 16.9379601,83.1409446 L19.4372524,83.1409446 C20.0011392,83.1409446 20.4598351,82.6822487 20.4598351,82.1177244 L20.4598351,81.6707163 L23.7274458,81.6707163 L23.7274458,94.9811855 L21.6536983,94.9811855 L21.6536983,87.8590204 C21.6536983,87.2951336 21.1948961,86.8363314 20.6311156,86.8363314 L17.0621703,86.8363314 L17.0621703,86.3887921 C17.0621703,85.8249054 16.6034744,85.3661032 16.0395876,85.3661032 L13.540189,85.3661032 C12.9763022,85.3661032 12.5176063,85.8249054 12.5176063,86.3887921 L12.5176063,88.8873407 C12.5180313,89.4519713 12.9755584,89.9098172 13.540189,89.9106672 L16.0395876,89.9106672 C16.6042182,89.9106672 17.0621703,89.451865 17.0621703,88.8873407 L17.0621703,88.4404389 L20.0503345,88.4404389 L20.0503345,94.9811855 L14.6174922,94.9811855 C11.9251374,94.9811855 9.73472361,92.790878 9.73472361,90.0985232 Z M36.0870533,61.7272727 L14.6174922,61.7272727 C10.8119205,61.7272727 7.71590909,64.8233904 7.71590909,68.6288558 L7.71590909,90.0985232 C7.71590909,93.9039886 10.8119205,97 14.6174922,97 L36.0870533,97 C39.8926249,97 42.9886364,93.9039886 42.9886364,90.0985232 L42.9886364,68.6288558 C42.9886364,64.8233904 39.8926249,61.7272727 36.0870533,61.7272727 Z" id="Fill-6" fill="#0054D3" mask="url(#mask-4)"></path>
                <path d="M72.7685162,70.9048948 L70.8379858,70.9048948 L60.8922991,70.9048948 C60.6899048,70.9048948 60.5190746,70.7309123 60.5190746,70.5250203 L60.5190746,67.6604402 L73.1417407,67.6604402 L73.1417407,70.5250203 C73.1417407,70.7309123 72.9708039,70.9048948 72.7685162,70.9048948 Z M60.5190746,46.3871375 L62.0781933,46.3954948 L62.1382292,35.1518581 L60.5190746,35.1141962 L60.5190746,31.9109851 L73.1417407,31.9109851 L73.1417407,65.8153351 L60.5190746,65.8153351 L60.5190746,58.6831354 L60.5190746,46.3871375 Z M28.7338894,56.8380302 C25.9017552,56.8380302 23.5976803,54.492793 23.5976803,51.6101961 C23.5976803,48.7275991 25.9017552,46.3824705 28.7338894,46.3824705 L58.7062699,46.3824705 L58.7062699,56.8380302 L28.7338894,56.8380302 Z M73.1417407,30.06588 L60.5190746,30.06588 L60.5190746,26.4749797 C60.5190746,26.2690877 60.6899048,26.0951052 60.8922991,26.0951052 L72.7685162,26.0951052 C72.9708039,26.0951052 73.1417407,26.2690877 73.1417407,26.4749797 L73.1417407,30.06588 Z M21.6660836,40.8290296 L25.2524512,37.1787604 L28.8387121,40.8290296 L25.2523445,44.4790817 L21.6660836,40.8290296 Z M37.4773666,44.4287212 L42.5491677,44.4287212 L42.5491677,39.6170126 L37.4773666,39.6170126 L37.4773666,44.4287212 Z M49.6456585,44.4287212 L54.7174596,44.4287212 L54.7174596,39.6170126 L49.6456585,39.6170126 L49.6456585,44.4287212 Z M72.7685162,24.25 L60.8922991,24.25 C59.6868906,24.25 58.7062699,25.2480934 58.7062699,26.4749797 L58.7062699,36.9175152 L60.3158272,36.95496 L60.2751991,44.5373653 L59.6113926,44.5373653 L58.7062699,44.5325898 L58.7062699,44.5373653 L56.5302644,44.5373653 L56.5302644,39.5866226 C56.5302644,38.5860329 55.7304976,37.7719074 54.7473176,37.7719074 L49.6158005,37.7719074 C48.6326205,37.7719074 47.8328537,38.5860329 47.8328537,39.5866226 L47.8328537,44.5373653 L44.3619725,44.5373653 L44.3619725,39.5866226 C44.3619725,38.5860329 43.562099,37.7719074 42.5790257,37.7719074 L37.4475086,37.7719074 C36.4643286,37.7719074 35.6645618,38.5860329 35.6645618,39.5866226 L35.6645618,44.5373653 L28.7338894,44.5373653 C28.3753806,44.5373653 28.0230566,44.5651505 27.6790503,44.618767 L30.1416922,42.1121374 C30.4784473,41.7694905 30.6638866,41.3137496 30.6638866,40.8290296 C30.6638866,40.3443096 30.4784473,39.8885686 30.1416922,39.5458132 L26.5130969,35.8525639 C26.1763418,35.5098085 25.7286856,35.3210651 25.2524512,35.3210651 C24.7761101,35.3210651 24.3284539,35.5098085 23.9916988,35.8525639 L20.3631035,39.5458132 C20.0263484,39.8885686 19.8409091,40.3443096 19.8409091,40.8290296 C19.8409091,41.3137496 20.0263484,41.7694905 20.3631035,42.1121374 L23.9916988,45.8053867 C24.1085714,45.9243417 24.2394132,46.0233262 24.3795324,46.1037511 C22.79866,47.4012941 21.7848756,49.3870614 21.7848756,51.6103046 C21.7848756,54.8215473 23.8992457,57.5381933 26.7850176,58.3980123 L26.7850176,59.5595603 C26.7850176,59.9484434 27.094794,60.2637393 27.4769759,60.2637393 L28.1192419,60.2637393 C28.5014238,60.2637393 28.8110935,59.9484434 28.8110935,59.5595603 L28.8110935,58.6831354 L58.7062699,58.6831354 L58.7062699,70.5250203 C58.7062699,70.6547203 58.7194927,70.7811643 58.7404999,70.9048948 L45.9703568,70.9048948 C45.6916114,70.9048948 45.4656506,71.1348818 45.4656506,71.4184853 L45.4656506,72.2364096 C45.4656506,72.5200131 45.6916114,72.75 45.9703568,72.75 L60.8922991,72.75 L70.8379858,72.75 L72.7685162,72.75 C73.9739247,72.75 74.9545455,71.7519066 74.9545455,70.5250203 L74.9545455,26.4749797 C74.9545455,25.2480934 73.9739247,24.25 72.7685162,24.25 Z" id="Fill-8" fill="#0054D3" mask="url(#mask-4)"></path>
                <path d="M67.7897144,36.1546088 C68.8229919,36.1546088 69.663573,36.9951899 69.663573,38.0283507 C69.663573,39.0616282 68.8229919,39.9022094 67.7897144,39.9022094 C66.7564369,39.9022094 65.9159725,39.0616282 65.9159725,38.0283507 C65.9159725,36.9951899 66.7564369,36.1546088 67.7897144,36.1546088 M67.7897144,41.8863636 C69.9170779,41.8863636 71.6477273,40.1557143 71.6477273,38.0283507 C71.6477273,35.9011039 69.9170779,34.1704545 67.7897144,34.1704545 C65.6624676,34.1704545 63.9318182,35.9011039 63.9318182,38.0283507 C63.9318182,40.1557143 65.6624676,41.8863636 67.7897144,41.8863636" id="Fill-9" fill="#0054D3" mask="url(#mask-4)"></path>
                <path d="M63.9173797,55.1136364 L69.4576203,55.1136364 C70.0559292,55.1136364 70.5454545,54.6176136 70.5454545,54.0113636 C70.5454545,53.4051136 70.0559292,52.9090909 69.4576203,52.9090909 L63.9173797,52.9090909 C63.3190708,52.9090909 62.8295455,53.4051136 62.8295455,54.0113636 C62.8295455,54.6176136 63.3190708,55.1136364 63.9173797,55.1136364" id="Fill-10" fill="#0054D3" mask="url(#mask-4)"></path>
                <path d="M63.9173797,58.4204545 L69.4576203,58.4204545 C70.0559292,58.4204545 70.5454545,57.924532 70.5454545,57.318282 L70.5454545,57.3181818 C70.5454545,56.7119318 70.0559292,56.2159091 69.4576203,56.2159091 L63.9173797,56.2159091 C63.3190708,56.2159091 62.8295455,56.7119318 62.8295455,57.3181818 L62.8295455,57.318282 C62.8295455,57.924532 63.3190708,58.4204545 63.9173797,58.4204545" id="Fill-11" fill="#0054D3" mask="url(#mask-4)"></path>
                <path d="M63.9173797,62.8295455 L69.4576203,62.8295455 C70.0559292,62.8295455 70.5454545,62.3335227 70.5454545,61.7272727 C70.5454545,61.1210227 70.0559292,60.625 69.4576203,60.625 L63.9173797,60.625 C63.3190708,60.625 62.8295455,61.1210227 62.8295455,61.7272727 C62.8295455,62.3335227 63.3190708,62.8295455 63.9173797,62.8295455" id="Fill-12" fill="#0054D3" mask="url(#mask-4)"></path>
                <path d="M28.6590909,52.2356104 C27.8147858,52.2356104 27.1279979,51.5488117 27.1279979,50.7044932 C27.1279979,49.8602792 27.8147858,49.1734805 28.6590909,49.1734805 C29.503396,49.1734805 30.1901839,49.8602792 30.1901839,50.7044932 C30.1901839,51.5488117 29.503396,52.2356104 28.6590909,52.2356104 M28.6590909,47.3977273 C26.8357345,47.3977273 25.3522727,48.881108 25.3522727,50.7044932 C25.3522727,52.5278785 26.8357345,54.0113636 28.6590909,54.0113636 C30.4824473,54.0113636 31.9659091,52.5278785 31.9659091,50.7044932 C31.9659091,48.881108 30.4824473,47.3977273 28.6590909,47.3977273" id="Fill-13" fill="#0054D3" mask="url(#mask-4)"></path>
                <path d="M37.4772727,52.2356104 C36.6329676,52.2356104 35.9461798,51.5488117 35.9461798,50.7044932 C35.9461798,49.8602792 36.6329676,49.1734805 37.4772727,49.1734805 C38.3215778,49.1734805 39.0083657,49.8602792 39.0083657,50.7044932 C39.0083657,51.5488117 38.3215778,52.2356104 37.4772727,52.2356104 M37.4772727,47.3977273 C35.6539163,47.3977273 34.1704545,48.881108 34.1704545,50.7044932 C34.1704545,52.5278785 35.6539163,54.0113636 37.4772727,54.0113636 C39.3006292,54.0113636 40.7840909,52.5278785 40.7840909,50.7044932 C40.7840909,48.881108 39.3006292,47.3977273 37.4772727,47.3977273" id="Fill-14" fill="#0054D3" mask="url(#mask-4)"></path>
                <path d="M45.1931818,52.2356104 C44.3488767,52.2356104 43.6620889,51.5488117 43.6620889,50.7044932 C43.6620889,49.8602792 44.3488767,49.1734805 45.1931818,49.1734805 C46.0374869,49.1734805 46.7242748,49.8602792 46.7242748,50.7044932 C46.7242748,51.5488117 46.0374869,52.2356104 45.1931818,52.2356104 M45.1931818,47.3977273 C43.3698254,47.3977273 41.8863636,48.881108 41.8863636,50.7044932 C41.8863636,52.5278785 43.3698254,54.0113636 45.1931818,54.0113636 C47.0165383,54.0113636 48.5,52.5278785 48.5,50.7044932 C48.5,48.881108 47.0165383,47.3977273 45.1931818,47.3977273" id="Fill-15" fill="#0054D3" mask="url(#mask-4)"></path>
                <path d="M54.0114159,52.2356104 C53.1670974,52.2356104 52.4802987,51.5488117 52.4802987,50.7044932 C52.4802987,49.8602792 53.1670974,49.1734805 54.0114159,49.1734805 C54.8556299,49.1734805 55.5424285,49.8602792 55.5424285,50.7044932 C55.5424285,51.5488117 54.8556299,52.2356104 54.0114159,52.2356104 M54.0114159,47.3977273 C52.1880306,47.3977273 50.7045455,48.881108 50.7045455,50.7044932 C50.7045455,52.5278785 52.1880306,54.0113636 54.0114159,54.0113636 C55.8348011,54.0113636 57.3181818,52.5278785 57.3181818,50.7044932 C57.3181818,48.881108 55.8348011,47.3977273 54.0114159,47.3977273" id="Fill-16" fill="#0054D3" mask="url(#mask-4)"></path>
            </g>
        </g>
    </g>
</svg>