<?xml version="1.0" encoding="UTF-8"?>
<svg width="168px" height="208px" viewBox="0 0 168 208" version="1.1" xmlns="http://www.w3.org/2000/svg" xmlns:xlink="http://www.w3.org/1999/xlink">
    <!-- Generator: Sketch 51 (57462) - http://www.bohemiancoding.com/sketch -->
    <title>logo_slice</title>
    <desc>Created with Sketch.</desc>
    <defs>
        <polygon id="path-1" points="0.198914773 0.232459259 64.9976364 0.232459259 64.9976364 64.6477024 0.198914773 64.6477024"></polygon>
        <polygon id="path-3" points="0 0.120439506 29.091 0.120439506 29.091 28.5776741 0 28.5776741"></polygon>
        <polygon id="path-5" points="0.47264 0.7686 7.03424 0.7686 7.03424 9 0.47264 9"></polygon>
        <polygon id="path-7" points="0.133777778 0.7683 6.86933333 0.7683 6.86933333 9 0.133777778 9"></polygon>
        <polygon id="path-9" points="0.24976 0.9306 6.18529333 0.9306 6.18529333 9 0.24976 9"></polygon>
        <polygon id="path-11" points="0.04445 0.7686 6.73131667 0.7686 6.73131667 9 0.04445 9"></polygon>
        <polygon id="path-13" points="0.00751333333 0.7686 6.69438 0.7686 6.69438 9 0.00751333333 9"></polygon>
        <polygon id="path-15" points="0.6008 0.7683 7.5272 0.7683 7.5272 9 0.6008 9"></polygon>
        <polygon id="path-17" points="0.13552 0.7686 6.68592 0.7686 6.68592 9 0.13552 9"></polygon>
        <polygon id="path-19" points="0.293942857 0.7683 6.89051429 0.7683 6.89051429 9 0.293942857 9"></polygon>
        <polygon id="path-21" points="0.32896 0.7683 7.25696 0.7683 7.25696 9 0.32896 9"></polygon>
        <polygon id="path-23" points="0.368977778 0.7674 6.95831111 0.7674 6.95831111 9 0.368977778 9"></polygon>
    </defs>
    <g id="Page-1" stroke="none" stroke-width="1" fill="none" fill-rule="evenodd">
        <g id="Artboard" transform="translate(-906.000000, 0.000000)">
            <g id="LOGO" transform="translate(906.000000, 0.000000)">
                <path d="M81.5,104.965439 C63.0183784,104.965439 48.0358615,89.9826686 48.0358615,71.5007348 C48.0358615,53.0158618 63.0183784,38.0345614 81.5,38.0345614 C99.9830912,38.0345614 114.965608,53.0158618 114.965608,71.5007348 C114.965608,89.9826686 99.9830912,104.965439 81.5,104.965439 M125,71.5007348 C125,47.4753965 105.524932,28 81.5,28 C57.4765372,28 38,47.4753965 38,71.5007348 C38,95.5246035 57.4765372,115 81.5,115 C105.524932,115 125,95.5246035 125,71.5007348" id="Fill-1" fill="#131426"></path>
                <g id="Group-5" transform="translate(10.000000, 0.000000)">
                    <mask id="mask-2" fill="white">
                        <use xlink:href="#path-1"></use>
                    </mask>
                    <g id="Clip-4"></g>
                    <path d="M9.02451136,63.1432052 L63.4841705,9.00627 C65.502125,7.0002737 65.502125,3.74456815 63.4841705,1.73857185 C61.4647386,-0.270361481 58.1911023,-0.270361481 56.1731477,1.73857185 L1.71348864,55.875507 C-0.305943182,57.8815033 -0.305943182,61.1357404 1.71348864,63.1432052 C3.73144318,65.1492015 7.00507955,65.1492015 9.02451136,63.1432052" id="Fill-3" fill="#131426" mask="url(#mask-2)"></path>
                </g>
                <path d="M74.4807475,134.148101 L19.8528594,79.5192784 C17.8286712,77.4935739 14.5449224,77.4935739 12.5192525,79.5192784 C10.4935825,81.5435012 10.4935825,84.8273061 12.5192525,86.8530107 L67.1471406,141.481833 C69.1713288,143.506056 72.4550776,143.506056 74.4807475,141.481833 C76.5064175,139.456128 76.5064175,136.172323 74.4807475,134.148101" id="Fill-6" fill="#131426"></path>
                <path d="M145.146989,63.4807389 L90.5181671,8.85402121 C88.4939443,6.82833971 88.4939443,3.54457217 90.5181671,1.52037251 C92.5438716,-0.506790838 95.8276766,-0.506790838 97.8518993,1.52037251 L152.480722,56.1470902 C154.506426,58.1727717 154.506426,61.4565392 152.480722,63.4807389 C150.456499,65.5064204 147.172694,65.5064204 145.146989,63.4807389" id="Fill-8" fill="#131426"></path>
                <path d="M90.5192525,134.146989 L145.147141,79.5181671 C147.171329,77.4939443 150.455078,77.4939443 152.480748,79.5181671 C154.506417,81.5438716 154.506417,84.8276766 152.480748,86.8518993 L97.8528594,141.480722 C95.8286712,143.506426 92.5449224,143.506426 90.5192525,141.480722 C88.4935825,139.456499 88.4935825,136.172694 90.5192525,134.146989" id="Fill-10" fill="#131426"></path>
                <g id="Group-14" transform="translate(0.000000, 164.000000)">
                    <mask id="mask-4" fill="white">
                        <use xlink:href="#path-3"></use>
                    </mask>
                    <g id="Clip-13"></g>
                    <path d="M26.1238571,19.3477975 C27.1024286,21.1866123 28.4481429,23.6727358 29.091,25.1735753 L25.7267143,26.6457728 C25.1752857,25.0504148 23.951,22.4755012 22.9724286,20.5436 L26.1238571,19.3477975 Z M17.0081429,15.8520444 L24.0738571,15.8520444 L24.0738571,14.134958 L17.0081429,14.134958 L17.0081429,15.8520444 Z M17.0081429,11.6803407 L24.0738571,11.6803407 L24.0738571,9.9933284 L17.0081429,9.9933284 L17.0081429,11.6803407 Z M17.5281429,20.6051802 C16.5795714,22.7819704 15.1424286,25.3268099 14.011,26.9221679 C13.3367143,26.3693778 11.961,25.5416247 11.1652857,25.1435012 C12.3581429,23.7013778 13.551,21.5847358 14.3152857,19.6542667 L17.5281429,20.6051802 Z M22.1167143,18.4584642 L22.1167143,25.081921 C22.1167143,26.6457728 21.871,27.5036 20.801,27.9948099 C19.761,28.4860198 18.3238571,28.5476 16.4567143,28.5160938 C16.3038571,27.5651802 15.9067143,26.2777235 15.5095714,25.3883901 C16.5795714,25.4184642 17.8038571,25.4184642 18.171,25.4184642 C18.5067143,25.4184642 18.6295714,25.3268099 18.6295714,24.9888346 L18.6295714,18.4584642 L13.7967143,18.4584642 L13.7967143,7.38690864 L17.8952857,7.38690864 C18.201,6.49757531 18.4767143,5.5796 18.6295714,4.78048889 L12.7252857,4.78048889 L12.7252857,9.96325432 C12.7252857,15.3909086 12.1752857,23.4879951 8.53385714,28.5776741 C7.89242857,27.9948099 6.36242857,27.0138222 5.47528571,26.6156988 C8.90242857,21.8912049 9.20814286,14.9312049 9.20814286,9.96325432 L9.20814286,1.49955062 L28.3267143,1.49955062 L28.3267143,4.78048889 L19.3638571,4.78048889 L22.791,5.39485926 C22.3924286,6.06937778 21.9938571,6.7438963 21.5967143,7.38690864 L27.4395714,7.38690864 L27.4395714,18.4584642 L22.1167143,18.4584642 Z M6.42385714,6.0378716 C5.32242857,5.14997037 3.02814286,3.70784691 1.46814286,2.75693333 L3.54814286,0.120439506 C5.07814286,0.978266667 7.46385714,2.29722963 8.62528571,3.12498272 L6.42385714,6.0378716 Z M7.64671429,18.3353037 C6.48528571,21.616242 5.04814286,25.1119951 3.701,28.1494765 L0.366714286,26.184637 C1.621,23.7930321 3.36528571,19.9005877 4.64957143,16.3418222 L7.64671429,18.3353037 Z M4.95671429,14.1335259 C3.88528571,13.2756988 1.591,11.9252296 -0.000428571429,10.9757481 L2.04957143,8.3693284 C3.60957143,9.13550123 5.93528571,10.392884 7.15814286,11.190563 L4.95671429,14.1335259 Z" id="Fill-12" fill="#131426" mask="url(#mask-4)"></path>
                </g>
                <path d="M60.1957472,170.989061 C59.4165453,169.514829 57.5450044,167.32178 55.9239732,165.72311 L58.6985144,164 C60.3515875,165.503512 62.2857559,167.572122 63.1902126,169.046354 L60.1957472,170.989061 Z M54.6131663,176.537561 C55.4870376,183.497343 57.1401107,188.136709 59.6350131,188.450002 C60.3515875,188.512953 60.7258957,186.945026 60.9764055,183.465135 C61.660938,184.280574 63.3140111,185.221916 64,185.59816 C63.2207981,191.647343 61.5371395,193.090832 59.7908535,192.995673 C54.5199534,192.493526 52.0570929,186.600989 50.9341684,177.039708 L44.789397,177.885891 L44.2592485,174.281562 L50.5598602,173.435379 C50.3399359,170.612817 50.15351,167.541378 50.0602971,164.248877 L53.8339645,164.248877 C53.8965919,167.32178 54.0203903,170.268781 54.2403146,172.933232 L63.1275852,171.772293 L63.6577338,175.284391 L54.6131663,176.537561 Z M46.068162,165.190219 C45.2583746,167.102183 44.2912904,169.046354 43.1683659,170.958317 L43.1683659,192.995673 L39.3014856,192.995673 L39.3014856,176.537561 C38.2411885,177.853683 37.1808913,179.046831 36.0579668,180.048196 C35.7142441,179.171269 34.653947,177.165611 34,176.256476 C37.3673172,173.370963 40.6428779,168.762341 42.5129624,164.02928 L46.068162,165.190219 Z" id="Fill-15" fill="#131426"></path>
                <path d="M98,177.230127 C98,177.230127 97.9691864,178.272057 97.9060919,178.745795 C97.2780814,187.026626 96.5869763,190.438723 95.5187715,191.607573 C94.7645719,192.460598 94.0103724,192.777899 92.9729812,192.903344 C92.1556871,192.999272 90.7426634,193.030265 89.2034507,192.966804 C89.1388889,191.957343 88.79407,190.534652 88.2599676,189.618167 C89.517456,189.743612 90.7426634,189.743612 91.338393,189.743612 C91.8416818,189.743612 92.1556871,189.681627 92.4696924,189.331858 C93.1299838,188.636746 93.7594616,186.173601 94.2304695,180.420852 L82.4156547,180.420852 C82.855849,177.640405 83.3268569,173.215894 83.5469541,169.834789 L87.0347602,170.023694 C86.8469439,172.29941 86.5960332,174.923419 86.3128415,177.230127 L90.9935742,177.230127 C91.338393,174.384745 91.6846792,171.19402 91.9047764,168.601003 L82.0077413,168.601003 L82.0077413,165.219897 L92.4696924,165.219897 L93.0683566,165.094453 L95.7374013,165.315826 C95.5187715,168.854844 95.0462963,173.277879 94.5767557,177.230127 L98,177.230127 Z M81.441358,186.803777 L92.5650678,186.803777 L92.5650678,183.453663 L81.441358,183.453663 L81.441358,186.803777 Z M74.7504048,186.014212 L77.043817,186.014212 L77.043817,178.083151 L74.7504048,178.083151 L74.7504048,186.014212 Z M69.691105,165 L80.9395365,165 L80.9395365,168.412098 L76.5097146,168.412098 C76.0695203,170.560893 75.5354179,172.742156 74.8134993,174.796499 L80.2484315,174.796499 L80.2484315,189.300865 L74.7504048,189.300865 L74.7504048,191.607573 L71.5766039,191.607573 L71.5766039,181.811075 C71.1686905,182.411734 70.7284963,183.012393 70.288302,183.549592 C70.1635802,182.538654 69.5032888,180.137494 69,179.061621 C70.9485934,176.440563 72.2354281,172.585719 73.0541894,168.412098 L69.691105,168.412098 L69.691105,165 Z" id="Fill-17" fill="#131426"></path>
                <path d="M122.168264,172.63185 C121.283439,171.2964 119.230644,169.3099 117.462469,167.97445 L119.925232,165.86325 C121.63147,167.13635 123.842059,168.96915 124.788822,170.3336 L122.168264,172.63185 Z M121.346851,180.82725 C120.367645,179.46135 118.157056,177.47485 116.326943,176.0785 L118.726294,173.9673 C120.525439,175.2085 122.862852,177.13265 123.905471,178.4681 L121.346851,180.82725 Z M129.273411,185.1439 L129.273411,192.9681 L125.579266,192.9681 L125.579266,185.7964 L116.042324,187.41025 L115.442118,183.90125 L125.579266,182.1946 L125.579266,164 L129.273411,164 L129.273411,181.574 L132.398319,181.0462 L133,184.49285 L129.273411,185.1439 Z M113.704911,183.80845 C113.325911,182.93845 112.56791,181.6349 111.80991,180.39515 L111.80991,193 L108.179177,193 L108.179177,181.82195 C107.136558,184.213 105.968589,186.417 104.737207,187.96995 C104.389176,186.91435 103.567763,185.3933 103,184.46095 C104.768176,182.473 106.536352,179.15105 107.673352,176.14085 L103.409969,176.14085 L103.409969,172.69275 L108.179177,172.69275 L108.179177,169.1852 C106.947795,169.3708 105.778351,169.55785 104.610382,169.6811 C104.485032,168.84445 104.010175,167.6337 103.600206,166.82605 C107.199971,166.29825 111.146291,165.33545 113.768323,164.2784 L115.883056,167.29005 C114.653149,167.75695 113.262498,168.1296 111.80991,168.4399 L111.80991,172.69275 L115.978912,172.69275 L115.978912,176.14085 L111.80991,176.14085 L111.80991,176.3888 C112.725704,177.25735 115.316767,180.1762 115.915499,180.8896 L113.704911,183.80845 Z" id="Fill-19" fill="#131426"></path>
                <path d="M154.16562,178.871127 C155.048666,180.915581 156.309949,182.774834 157.884714,184.354837 C159.522763,182.806666 160.878238,180.977798 161.824568,178.871127 L154.16562,178.871127 Z M166.582712,176.392606 C165.384714,180.699995 163.368426,184.077034 160.720761,186.678541 C162.769427,188.103727 165.19633,189.126678 168,189.808162 C167.212618,190.550417 166.141189,192.039266 165.605475,193 C162.548666,192.101482 159.931907,190.831113 157.758144,189.094846 C155.300334,190.768897 152.527571,192.007434 149.470761,192.905952 C149.060145,191.914833 148.146193,190.365215 147.453002,189.560744 C150.227237,188.908197 152.779239,187.918525 154.985381,186.523724 C153.12657,184.447438 151.644525,182.000748 150.509812,179.14893 L151.45467,178.871127 L149.816621,178.871127 L149.816621,175.556304 L156.024431,175.556304 L156.024431,171.839246 L149.25,171.839246 L149.25,168.430375 L156.024431,168.430375 L156.024431,164 L159.743524,164 L159.743524,168.430375 L166.802002,168.430375 L166.802002,171.839246 L159.743524,171.839246 L159.743524,175.556304 L163.525903,175.556304 L164.188187,175.401487 L166.582712,176.392606 Z M149.12343,180.575563 C148.021095,180.885197 146.886381,181.194831 145.751668,181.474081 L145.751668,188.877813 C145.751668,190.674849 145.404337,191.542983 144.332908,192.131866 C143.293858,192.688919 141.780907,192.78152 139.574765,192.78152 C139.417288,191.852617 138.944859,190.397046 138.503336,189.436312 C139.732241,189.466697 141.024431,189.466697 141.433575,189.466697 C141.906005,189.466697 142.032575,189.311879 142.032575,188.848875 L142.032575,182.463753 L138.975765,183.208901 L138,179.707429 C139.16562,179.490396 140.521095,179.180761 142.032575,178.808911 L142.032575,173.325201 L138.407673,173.325201 L138.407673,169.917777 L142.032575,169.917777 L142.032575,164.030385 L145.751668,164.030385 L145.751668,169.917777 L148.839384,169.917777 L148.839384,173.325201 L145.751668,173.325201 L145.751668,177.910393 L148.651001,177.198523 L149.12343,180.575563 Z" id="Fill-21" fill="#131426"></path>
                <g id="Group-25" transform="translate(0.000000, 199.000000)">
                    <mask id="mask-6" fill="white">
                        <use xlink:href="#path-5"></use>
                    </mask>
                    <g id="Clip-24"></g>
                    <path d="M0.47264,6.7461 L1.42304,6.5436 C1.80544,7.6206 2.63744,8.1606 3.91424,8.1606 C4.58144,8.1606 5.08384,8.0271 5.42144,7.7631 C5.75904,7.4961 5.92864,7.1421 5.92864,6.6966 C5.92864,6.3591 5.79904,6.0891 5.54144,5.8821 C5.28544,5.6751 4.98624,5.5341 4.64864,5.4576 L2.96224,5.0676 C2.52544,4.9641 2.16864,4.8366 1.89024,4.6881 C1.61184,4.5381 1.37664,4.3086 1.18144,3.9996 C0.98944,3.6906 0.89184,3.3366 0.89184,2.9391 C0.89184,2.2776 1.15744,1.7496 1.69024,1.3581 C2.22144,0.9651 2.90304,0.7686 3.73504,0.7686 C5.26784,0.7686 6.27424,1.4196 6.75584,2.7186 L5.79744,2.9856 C5.68704,2.5251 5.42624,2.1741 5.01344,1.9371 C4.60224,1.7001 4.16224,1.5816 3.69824,1.5816 C3.23584,1.5816 2.82464,1.6956 2.46624,1.9221 C2.10464,2.1516 1.92384,2.4756 1.92384,2.8956 C1.92384,3.4791 2.37984,3.8766 3.29344,4.0821 L4.87264,4.4271 C6.31264,4.7526 7.03424,5.4816 7.03424,6.6126 C7.03424,7.2966 6.76384,7.8651 6.22144,8.3196 C5.68064,8.7741 4.91744,9.0006 3.93344,9.0006 C2.18464,9.0006 1.03264,8.2506 0.47264,6.7461" id="Fill-23" fill="#131426" mask="url(#mask-6)"></path>
                </g>
                <g id="Group-28" transform="translate(9.000000, 199.000000)">
                    <mask id="mask-8" fill="white">
                        <use xlink:href="#path-7"></use>
                    </mask>
                    <g id="Clip-27"></g>
                    <path d="M3.50466667,8.1963 C4.22177778,8.1963 4.78177778,7.8798 5.18777778,7.2498 C5.59066667,6.6183 5.79288889,5.8083 5.79288889,4.8153 C5.79288889,3.7938 5.58288889,3.0003 5.166,2.4318 C4.74755556,1.8633 4.19066667,1.5813 3.5,1.5813 C2.79844444,1.5813 2.24155556,1.8873 1.82777778,2.5008 C1.41555556,3.1158 1.20866667,3.9198 1.20866667,4.9143 C1.20866667,5.8833 1.41866667,6.6723 1.834,7.2828 C2.25088889,7.8903 2.80777778,8.1963 3.50466667,8.1963 M3.48133333,9.0003 C2.42822222,9.0003 1.60533333,8.6043 1.01733333,7.8153 C0.427777778,7.0263 0.133777778,6.0543 0.133777778,4.9083 C0.133777778,3.7098 0.443333333,2.7198 1.05933333,1.9383 C1.67533333,1.1598 2.49355556,0.7683 3.51088889,0.7683 C4.52355556,0.7683 5.33711111,1.1523 5.95,1.9188 C6.56133333,2.6868 6.86933333,3.6543 6.86933333,4.8213 C6.86933333,5.9418 6.57222222,6.9183 5.97644444,7.7508 C5.38222222,8.5833 4.55,9.0003 3.48133333,9.0003" id="Fill-26" fill="#131426" mask="url(#mask-8)"></path>
                </g>
                <g id="Group-31" transform="translate(17.000000, 199.000000)">
                    <mask id="mask-10" fill="white">
                        <use xlink:href="#path-9"></use>
                    </mask>
                    <g id="Clip-30"></g>
                    <path d="M5.29022667,0.9306 L6.18529333,0.9306 L6.18529333,6.0951 C6.18529333,7.1316 5.90926,7.8756 5.35719333,8.3256 C4.80349333,8.7741 4.07992667,9.0006 3.18322667,9.0006 C2.18689333,9.0006 1.44862667,8.7696 0.968426667,8.3046 C0.491493333,7.8411 0.24976,7.1046 0.24976,6.0951 L0.24976,0.9306 L1.32939333,0.9306 L1.32939333,6.0951 C1.32939333,6.7116 1.40779333,7.1451 1.56296,7.3971 C1.71649333,7.6461 1.95332667,7.8321 2.26856,7.9521 C2.58379333,8.0721 2.91372667,8.1321 3.25836,8.1321 C3.92312667,8.1321 4.42782667,7.9701 4.77246,7.6491 C5.11872667,7.3296 5.29022667,6.8106 5.29022667,6.0951 L5.29022667,0.9306 Z" id="Fill-29" fill="#131426" mask="url(#mask-10)"></path>
                </g>
                <path d="M26.8148734,202.721495 L28.6331751,202.721495 C29.1118143,202.721495 29.4691456,202.575792 29.7051688,202.285904 C29.9398734,201.994498 30.0585443,201.63783 30.0585443,201.214381 C30.0585443,200.792449 29.9345992,200.464618 29.6840717,200.229368 C29.4348629,199.997154 29.1197257,199.878771 28.7399789,199.878771 L26.8148734,199.878771 L26.8148734,202.721495 Z M31,207 L30.0875527,207 L28.8059072,203.538038 L26.8148734,203.538038 L26.8148734,207 L26,207 L26,199 L28.7399789,199 C29.4836498,199 30.0334916,199.233732 30.3908228,199.699677 C30.7507911,200.167141 30.9287975,200.677101 30.9287975,201.234111 C30.9287975,201.660596 30.8285865,202.06735 30.6294831,202.457408 C30.4277426,202.848985 30.0981013,203.129767 29.6352848,203.296718 L31,207 Z" id="Fill-32" fill="#131426"></path>
                <g id="Group-36" transform="translate(34.000000, 199.000000)">
                    <mask id="mask-12" fill="white">
                        <use xlink:href="#path-11"></use>
                    </mask>
                    <g id="Clip-35"></g>
                    <path d="M5.74641667,6.1791 L6.73131667,6.3816 C6.25765,8.1276 5.19435,9.0006 3.53815,9.0006 C2.44871667,9.0006 1.59448333,8.5956 0.973816667,7.7871 C0.35315,6.9816 0.04445,5.9886 0.04445,4.8096 C0.04445,3.5916 0.36785,2.6136 1.01465,1.8771 C1.66308333,1.1376 2.53038333,0.7686 3.62145,0.7686 C5.23518333,0.7686 6.27071667,1.6161 6.73131667,3.3111 L5.71375,3.4971 C5.34461667,2.2386 4.64391667,1.6071 3.61328333,1.6071 C2.85378333,1.6071 2.26415,1.9011 1.84438333,2.4861 C1.42625,3.0726 1.21718333,3.8931 1.21718333,4.9506 C1.21718333,5.9211 1.43115,6.6981 1.86071667,7.2831 C2.28865,7.8666 2.85541667,8.1606 3.56265,8.1606 C4.66025,8.1606 5.38871667,7.5006 5.74641667,6.1791" id="Fill-34" fill="#131426" mask="url(#mask-12)"></path>
                </g>
                <polygon id="Fill-37" fill="#131426" points="47 206.121229 47 207 42 207 42 199 46.8929619 199 46.8929619 199.878771 42.9677419 199.878771 42.9677419 202.420983 46.0835777 202.420983 46.0835777 203.239044 42.9677419 203.239044 42.9677419 206.121229"></polygon>
                <g id="Group-41" transform="translate(53.000000, 199.000000)">
                    <mask id="mask-14" fill="white">
                        <use xlink:href="#path-13"></use>
                    </mask>
                    <g id="Clip-40"></g>
                    <path d="M5.70948,6.1791 L6.69438,6.3816 C6.22234667,8.1276 5.15904667,9.0006 3.50121333,9.0006 C2.41341333,9.0006 1.55754667,8.5956 0.938513333,7.7871 C0.317846667,6.9816 0.00751333333,5.9886 0.00751333333,4.8096 C0.00751333333,3.5916 0.330913333,2.6136 0.979346667,1.8771 C1.62614667,1.1376 2.49508,0.7686 3.58451333,0.7686 C5.19824667,0.7686 6.23541333,1.6161 6.69438,3.3111 L5.67844667,3.4971 C5.30768,2.2386 4.60698,1.6071 3.57798,1.6071 C2.81684667,1.6071 2.22721333,1.9011 1.80908,2.4861 C1.38931333,3.0726 1.18024667,3.8931 1.18024667,4.9506 C1.18024667,5.9211 1.39421333,6.6981 1.82541333,7.2831 C2.25334667,7.8666 2.82011333,8.1606 3.52734667,8.1606 C4.62494667,8.1606 5.35178,7.5006 5.70948,6.1791" id="Fill-39" fill="#131426" mask="url(#mask-14)"></path>
                </g>
                <g id="Group-44" transform="translate(61.000000, 199.000000)">
                    <mask id="mask-16" fill="white">
                        <use xlink:href="#path-15"></use>
                    </mask>
                    <g id="Clip-43"></g>
                    <path d="M4.0664,8.1963 C4.804,8.1963 5.38,7.8798 5.7976,7.2498 C6.212,6.6183 6.42,5.8083 6.42,4.8153 C6.42,3.7938 6.2056,3.0003 5.7752,2.4318 C5.3448,1.8633 4.7736,1.5813 4.0616,1.5813 C3.34,1.5813 2.7672,1.8873 2.3416,2.5008 C1.9176,3.1158 1.7064,3.9198 1.7064,4.9143 C1.7064,5.8833 1.9208,6.6723 2.3496,7.2828 C2.7768,7.8903 3.3496,8.1963 4.0664,8.1963 M4.0424,9.0003 C2.9592,9.0003 2.1128,8.6043 1.508,7.8153 C0.9016,7.0263 0.6008,6.0543 0.6008,4.9083 C0.6008,3.7098 0.9176,2.7198 1.5512,1.9383 C2.1864,1.1598 3.0264,0.7683 4.0728,0.7683 C5.116,0.7683 5.9512,1.1523 6.5816,1.9188 C7.212,2.6868 7.5272,3.6543 7.5272,4.8213 C7.5272,5.9418 7.2216,6.9183 6.6088,7.7508 C5.9976,8.5833 5.1416,9.0003 4.0424,9.0003" id="Fill-42" fill="#131426" mask="url(#mask-16)"></path>
                </g>
                <path d="M70.119186,206.150228 L71.933624,206.150228 C72.8951066,206.150228 73.6225775,205.852807 74.121124,205.257967 C74.6179748,204.664643 74.8672481,203.883156 74.8672481,202.908953 C74.8672481,202.121396 74.6315407,201.411229 74.1567345,200.783005 C73.683624,200.153263 72.9425872,199.83915 71.933624,199.83915 L70.119186,199.83915 L70.119186,206.150228 Z M69,207 L69,199 L71.9997578,199 C73.2613857,199 74.2432171,199.385432 74.9469477,200.15478 C75.6489826,200.924127 76,201.866464 76,202.978756 C76,204.107739 75.6574612,205.060698 74.9723837,205.836115 C74.2873062,206.611533 73.4173934,207 72.3660368,207 L69,207 Z" id="Fill-45" fill="#131426"></path>
                <polygon id="Fill-47" fill="#131426" points="83 206.121229 83 207 78 207 78 199 82.8929619 199 82.8929619 199.878771 78.9692082 199.878771 78.9692082 202.420983 82.0835777 202.420983 82.0835777 203.239044 78.9692082 203.239044 78.9692082 206.121229"></polygon>
                <polygon id="Fill-49" fill="#131426" points="91.9451683 207 91.0494028 207 91.0494028 199.878771 89 199.878771 89 199 94 199 94 199.878771 91.9451683 199.878771"></polygon>
                <polygon id="Fill-51" fill="#131426" points="101 206.121229 101 207 96 207 96 199 100.892962 199 100.892962 199.878771 96.9677419 199.878771 96.9677419 202.420983 100.083578 202.420983 100.083578 203.239044 96.9677419 203.239044 96.9677419 206.121229"></polygon>
                <g id="Group-55" transform="translate(104.000000, 199.000000)">
                    <mask id="mask-18" fill="white">
                        <use xlink:href="#path-17"></use>
                    </mask>
                    <g id="Clip-54"></g>
                    <path d="M5.72112,6.1791 L6.68592,6.3816 C6.22352,8.1276 5.18192,9.0006 3.55792,9.0006 C2.49072,9.0006 1.65392,8.5956 1.04592,7.7871 C0.43952,6.9816 0.13552,5.9886 0.13552,4.8096 C0.13552,3.5916 0.45232,2.6136 1.08752,1.8771 C1.72112,1.1376 2.57232,0.7686 3.63952,0.7686 C5.22032,0.7686 6.23472,1.6161 6.68592,3.3111 L5.68912,3.4971 C5.32752,2.2386 4.64112,1.6071 3.63312,1.6071 C2.88752,1.6071 2.30992,1.9011 1.89872,2.4861 C1.48912,3.0726 1.28432,3.8931 1.28432,4.9506 C1.28432,5.9211 1.49392,6.6981 1.91472,7.2831 C2.33552,7.8666 2.89072,8.1606 3.58352,8.1606 C4.65712,8.1606 5.37072,7.5006 5.72112,6.1791" id="Fill-53" fill="#131426" mask="url(#mask-18)"></path>
                </g>
                <polygon id="Fill-56" fill="#131426" points="118 207 117.122411 207 117.122411 203.190476 113.877589 203.190476 113.877589 207 113 207 113 199 113.877589 199 113.877589 202.310188 117.122411 202.310188 117.122411 199 118 199"></polygon>
                <path d="M126,207 L125.174182,207 L121.660912,200.025991 L121.671219,200.552647 C121.680237,200.752988 121.686679,200.918422 121.686679,201.056536 L121.686679,207 L121,207 L121,199 L122.064159,199 L125.348106,205.520205 L125.3378,204.963195 C125.331358,204.74464 125.328781,204.55037 125.328781,204.383419 L125.328781,199 L126,199 L126,207 Z" id="Fill-58" fill="#131426"></path>
                <g id="Group-62" transform="translate(129.000000, 199.000000)">
                    <mask id="mask-20" fill="white">
                        <use xlink:href="#path-19"></use>
                    </mask>
                    <g id="Clip-61"></g>
                    <path d="M3.59451429,8.1963 C4.29699048,8.1963 4.8455619,7.8798 5.24327619,7.2498 C5.63794286,6.6183 5.8360381,5.8083 5.8360381,4.8153 C5.8360381,3.7938 5.63032381,3.0003 5.22194286,2.4318 C4.8120381,1.8633 4.2680381,1.5813 3.58994286,1.5813 C2.90270476,1.5813 2.35718095,1.8873 1.95184762,2.5008 C1.5480381,3.1158 1.34537143,3.9198 1.34537143,4.9143 C1.34537143,5.8833 1.55108571,6.6723 1.95946667,7.2828 C2.36632381,7.8903 2.91184762,8.1963 3.59451429,8.1963 M3.57165714,9.0003 C2.5400381,9.0003 1.73394286,8.6043 1.15794286,7.8153 C0.580419048,7.0263 0.293942857,6.0543 0.293942857,4.9083 C0.293942857,3.7098 0.595657143,2.7198 1.19908571,1.9383 C1.8040381,1.1598 2.6040381,0.7683 3.60060952,0.7683 C4.59413333,0.7683 5.3895619,1.1523 5.98994286,1.9188 C6.59032381,2.6868 6.89051429,3.6543 6.89051429,4.8213 C6.89051429,5.9418 6.59946667,6.9183 6.01584762,7.7508 C5.43375238,8.5833 4.61851429,9.0003 3.57165714,9.0003" id="Fill-60" fill="#131426" mask="url(#mask-20)"></path>
                </g>
                <polygon id="Fill-63" fill="#131426" points="143 206.121229 143 207 139 207 139 199 139.867609 199 139.867609 206.121229"></polygon>
                <g id="Group-67" transform="translate(144.000000, 199.000000)">
                    <mask id="mask-22" fill="white">
                        <use xlink:href="#path-21"></use>
                    </mask>
                    <g id="Clip-66"></g>
                    <path d="M3.79616,8.1963 C4.53376,8.1963 5.10976,7.8798 5.52736,7.2498 C5.94176,6.6183 6.14976,5.8083 6.14976,4.8153 C6.14976,3.7938 5.93376,3.0003 5.50496,2.4318 C5.07456,1.8633 4.50176,1.5813 3.79136,1.5813 C3.06976,1.5813 2.49696,1.8873 2.07136,2.5008 C1.64736,3.1158 1.43456,3.9198 1.43456,4.9143 C1.43456,5.8833 1.64896,6.6723 2.07776,7.2828 C2.50656,7.8903 3.07936,8.1963 3.79616,8.1963 M3.77056,9.0003 C2.68896,9.0003 1.84256,8.6043 1.23776,7.8153 C0.63136,7.0263 0.32896,6.0543 0.32896,4.9083 C0.32896,3.7098 0.64576,2.7198 1.28096,1.9383 C1.91456,1.1598 2.75616,0.7683 3.80256,0.7683 C4.84416,0.7683 5.68096,1.1523 6.31136,1.9188 C6.94016,2.6868 7.25696,3.6543 7.25696,4.8213 C7.25696,5.9418 6.95136,6.9183 6.33856,7.7508 C5.72736,8.5833 4.87136,9.0003 3.77056,9.0003" id="Fill-65" fill="#131426" mask="url(#mask-22)"></path>
                </g>
                <g id="Group-70" transform="translate(153.000000, 199.000000)">
                    <mask id="mask-24" fill="white">
                        <use xlink:href="#path-23"></use>
                    </mask>
                    <g id="Clip-69"></g>
                    <path d="M6.95831111,4.8534 L6.95831111,8.9469 L6.33142222,8.9469 L6.04986667,7.9584 C5.54275556,8.6514 4.79297778,9.0009 3.79431111,9.0009 C2.7132,9.0009 1.87008889,8.6079 1.2712,7.8219 C0.6692,7.0404 0.368977778,6.0849 0.368977778,4.9644 C0.368977778,3.7674 0.687866667,2.7669 1.32253333,1.9674 C1.96031111,1.1679 2.8252,0.7674 3.91875556,0.7674 C5.4292,0.7674 6.41386667,1.5324 6.87431111,3.0639 L5.90053333,3.2889 C5.76053333,2.7009 5.4992,2.2734 5.11497778,2.0079 C4.7292,1.7409 4.3092,1.6074 3.85342222,1.6074 C3.04453333,1.6074 2.4472,1.9239 2.06297778,2.5539 C1.6772,3.1854 1.48586667,3.9744 1.48586667,4.9254 C1.48586667,5.9484 1.70208889,6.7509 2.13142222,7.3269 C2.56231111,7.9059 3.1472,8.1969 3.8892,8.1969 C4.46475556,8.1969 4.94697778,8.0094 5.33431111,7.6389 C5.72008889,7.2699 5.91453333,6.7599 5.91453333,6.1104 C5.91453333,5.9904 5.90986667,5.8464 5.90053333,5.6829 L3.87053333,5.6829 L3.87053333,4.8534 L6.95831111,4.8534 Z" id="Fill-68" fill="#131426" mask="url(#mask-24)"></path>
                </g>
                <polygon id="Fill-71" fill="#131426" points="167 199 164.051313 203.636691 164.051313 207 162.948687 207 162.948687 203.636691 160 199 161.303103 199 163.640334 202.675963 165.992601 199"></polygon>
            </g>
        </g>
    </g>
</svg>