<?xml version="1.0" encoding="UTF-8"?>
<svg width="40px" height="46px" viewBox="0 0 40 46" version="1.1" xmlns="http://www.w3.org/2000/svg" xmlns:xlink="http://www.w3.org/1999/xlink">
    <!-- Generator: Sketch 52.2 (67145) - http://www.bohemiancoding.com/sketch -->
    <title>自然语言处理icon_slice</title>
    <desc>Created with Sketch.</desc>
    <defs>
        <path d="M1.6194113,0.258411138 C-0.429741523,1.08684685 -0.176365602,3.06369206 0.564110565,6.19654709 C0.642018673,6.52630631 0.96721769,6.74937592 1.32004865,6.71374939 C2.73785651,6.57010319 4.11187224,6.07684193 4.84087666,5.4913317 C6.3800855,4.25532842 6.13289435,2.58734152 5.45366732,1.53450614 C4.91230074,0.695334971 3.94947224,0.0194758395 2.80389386,0.0194758395 C2.42602457,0.0194758395 2.02850369,0.0929140049 1.6194113,0.258411138" id="path-1"></path>
        <linearGradient x1="-206.551889%" y1="-275.639512%" x2="146.266475%" y2="137.737163%" id="linearGradient-3">
            <stop stop-color="#0453C7" offset="0%"></stop>
            <stop stop-color="#16D0B7" offset="100%"></stop>
        </linearGradient>
        <path d="M18.8636855,0.345542849 L1.12314496,10.696632 C0.428108108,11.1022649 0,11.8515536 0,12.6627201 L0,33.3649977 C0,34.1760649 0.428108108,34.9254529 1.12314496,35.3309865 L18.8636855,45.682175 C19.5587224,46.0877086 20.4150369,46.0877086 21.1100737,45.682175 L38.8506143,35.3309865 C39.5455528,34.9254529 39.9737592,34.1760649 39.9737592,33.3649977 L39.9737592,12.6627201 C39.9737592,11.8515536 39.5455528,11.1022649 38.8506143,10.696632 L21.1100737,0.345542849 C20.7625553,0.142726379 20.374742,0.0413181446 19.9868305,0.0413181446 C19.5990172,0.0413181446 19.2112039,0.142726379 18.8636855,0.345542849 M14.7083047,24.9895317 C15.6380344,24.9673828 15.8481572,21.5405592 15.9737592,19.4933245 C16.0704668,17.9157859 16.1704177,16.2845137 16.477543,15.0142788 C16.9038821,13.2511064 17.7382801,12.3101254 18.9577396,12.2176562 C19.6991646,12.1614397 20.3615725,12.3717053 20.8718428,12.8257083 C22.1135135,13.930472 22.2281081,16.1462569 22.360688,18.7118554 C22.4541523,20.5204181 22.55086,22.3905608 23.0732187,23.6517574 C23.0773464,23.6613917 23.0812776,23.671026 23.0854054,23.6804616 C23.4061916,24.4331272 24.5237346,24.09702 24.3976413,23.2876413 C24.271941,22.4806463 24.204914,21.6941117 24.2531695,20.9588275 C24.379656,19.035448 25.2927764,17.6959853 26.9669779,16.9775859 C28.1643243,16.4638901 29.4114988,16.43459 30.5738575,16.8927645 C31.6012776,17.2976029 32.5029975,18.0730133 33.1128256,19.0761702 C33.7310074,20.0927356 34.0071744,21.2734811 33.8903194,22.400791 C33.7581327,23.677184 33.1438821,24.8158167 32.1140049,25.6933307 C31.202457,26.470231 29.6220147,27.1329104 27.9272727,27.3721782 C27.5463391,27.426011 27.2812776,27.785161 27.3424079,28.1690424 C27.6501229,30.100169 27.6468796,31.9454811 26.627027,33.4162481 C26.059656,34.2342679 24.1832924,35.8378291 22.4167076,35.8378291 L22.4167076,35.8371338 C21.8963145,35.8371338 21.4744963,35.406273 21.4744963,34.8746991 C21.4744963,34.343324 21.8963145,33.9124631 22.4167076,33.9124631 L22.4167076,33.9120658 C23.3212776,33.9120658 24.6764619,32.8733515 25.0665356,32.3109877 C25.8065848,31.2436685 25.6823587,29.5863739 25.3428993,27.8109849 C25.2913022,27.5409271 25.0850123,27.3301648 24.8202457,27.2663005 C24.8156265,27.265208 24.8112039,27.2640161 24.8065848,27.2630229 C23.1304177,26.8539136 21.923145,25.8623775 21.3154791,24.3953847 C20.6651597,22.8253945 20.5597052,20.7852118 20.4576904,18.8121711 C20.3614742,16.9504709 20.2523833,14.8403651 19.6127764,14.2711481 C19.5246192,14.1927827 19.3945946,14.1155098 19.100344,14.138056 C18.702113,14.16825 18.4459951,14.9863691 18.3286486,15.4713607 C18.0619165,16.5749326 17.9671744,18.119099 17.8756757,19.6123129 C17.7771007,21.2181584 17.6753808,22.8787307 17.3551843,24.1627715 C17.1610811,24.9408637 16.8999509,25.5340174 16.5566585,25.9756051 C16.092285,26.5729304 15.4687961,26.8977148 14.7534152,26.9148976 C14.0693857,26.9323784 13.1254054,26.683377 12.5426044,25.4088711 C12.2237838,24.7117268 12.0736118,23.8446416 11.9284521,23.0059628 C11.6246683,21.2517294 11.393317,20.4651948 10.825258,20.4415561 C10.4573956,20.4261611 10.2887469,20.5502149 10.1825061,20.6595689 C9.39665848,21.4698416 9.5585258,24.1431057 9.63646192,25.4277424 C9.6617199,25.84589 9.68353808,26.2071258 9.6829484,26.4891022 L9.68285012,26.4891022 C9.68265356,27.0198815 9.25690418,27.4499477 8.73189189,27.4499477 C8.20668305,27.4499477 7.78093366,27.0196828 7.78093366,26.4889036 C7.78093366,26.4876124 7.78113022,26.4863212 7.78113022,26.48503 L7.77739558,26.48503 C7.77788698,26.2638389 7.75773956,25.9310093 7.73434889,25.5454395 C7.6182801,23.6292112 7.44285012,20.7331669 8.82162162,19.3115644 C9.35872236,18.7578417 10.078231,18.4839104 10.9035872,18.5174813 C11.6041278,18.5465828 12.5644226,18.8566676 13.1620639,20.1685187 C13.5001474,20.9109541 13.65543,21.80724 13.805602,22.6740271 C13.9296314,23.3908373 14.0580835,24.1321802 14.2723342,24.6009822 C14.4370516,24.9611255 14.5599017,24.9900283 14.6751843,24.9900283 C14.6862899,24.9900283 14.6973956,24.9898296 14.7083047,24.9895317" id="path-4"></path>
        <linearGradient x1="21.4000734%" y1="15.8523931%" x2="80.3333266%" y2="86.2171816%" id="linearGradient-6">
            <stop stop-color="#75A8F2" offset="0%"></stop>
            <stop stop-color="#42D1BE" offset="100%"></stop>
        </linearGradient>
    </defs>
    <g id="Symbols" stroke="none" stroke-width="1" fill="none" fill-rule="evenodd">
        <g id="画板" transform="translate(-475.000000, -24.000000)">
            <g id="自然语言处理icon" transform="translate(475.000000, 24.000000)">
                <g id="Group-3" transform="translate(26.000000, 19.000000)">
                    <mask id="mask-2" fill="white">
                        <use xlink:href="#path-1"></use>
                    </mask>
                    <g id="Clip-2"></g>
                    <path d="M1.6194113,0.258411138 C-0.429741523,1.08684685 -0.176365602,3.06369206 0.564110565,6.19654709 C0.642018673,6.52630631 0.96721769,6.74937592 1.32004865,6.71374939 C2.73785651,6.57010319 4.11187224,6.07684193 4.84087666,5.4913317 C6.3800855,4.25532842 6.13289435,2.58734152 5.45366732,1.53450614 C4.91230074,0.695334971 3.94947224,0.0194758395 2.80389386,0.0194758395 C2.42602457,0.0194758395 2.02850369,0.0929140049 1.6194113,0.258411138" id="Fill-1" fill="url(#linearGradient-3)" mask="url(#mask-2)"></path>
                </g>
                <g id="Group-6">
                    <mask id="mask-5" fill="white">
                        <use xlink:href="#path-4"></use>
                    </mask>
                    <g id="Clip-5"></g>
                    <path d="M18.8636855,0.345542849 L1.12314496,10.696632 C0.428108108,11.1022649 0,11.8515536 0,12.6627201 L0,33.3649977 C0,34.1760649 0.428108108,34.9254529 1.12314496,35.3309865 L18.8636855,45.682175 C19.5587224,46.0877086 20.4150369,46.0877086 21.1100737,45.682175 L38.8506143,35.3309865 C39.5455528,34.9254529 39.9737592,34.1760649 39.9737592,33.3649977 L39.9737592,12.6627201 C39.9737592,11.8515536 39.5455528,11.1022649 38.8506143,10.696632 L21.1100737,0.345542849 C20.7625553,0.142726379 20.374742,0.0413181446 19.9868305,0.0413181446 C19.5990172,0.0413181446 19.2112039,0.142726379 18.8636855,0.345542849 M14.7083047,24.9895317 C15.6380344,24.9673828 15.8481572,21.5405592 15.9737592,19.4933245 C16.0704668,17.9157859 16.1704177,16.2845137 16.477543,15.0142788 C16.9038821,13.2511064 17.7382801,12.3101254 18.9577396,12.2176562 C19.6991646,12.1614397 20.3615725,12.3717053 20.8718428,12.8257083 C22.1135135,13.930472 22.2281081,16.1462569 22.360688,18.7118554 C22.4541523,20.5204181 22.55086,22.3905608 23.0732187,23.6517574 C23.0773464,23.6613917 23.0812776,23.671026 23.0854054,23.6804616 C23.4061916,24.4331272 24.5237346,24.09702 24.3976413,23.2876413 C24.271941,22.4806463 24.204914,21.6941117 24.2531695,20.9588275 C24.379656,19.035448 25.2927764,17.6959853 26.9669779,16.9775859 C28.1643243,16.4638901 29.4114988,16.43459 30.5738575,16.8927645 C31.6012776,17.2976029 32.5029975,18.0730133 33.1128256,19.0761702 C33.7310074,20.0927356 34.0071744,21.2734811 33.8903194,22.400791 C33.7581327,23.677184 33.1438821,24.8158167 32.1140049,25.6933307 C31.202457,26.470231 29.6220147,27.1329104 27.9272727,27.3721782 C27.5463391,27.426011 27.2812776,27.785161 27.3424079,28.1690424 C27.6501229,30.100169 27.6468796,31.9454811 26.627027,33.4162481 C26.059656,34.2342679 24.1832924,35.8378291 22.4167076,35.8378291 L22.4167076,35.8371338 C21.8963145,35.8371338 21.4744963,35.406273 21.4744963,34.8746991 C21.4744963,34.343324 21.8963145,33.9124631 22.4167076,33.9124631 L22.4167076,33.9120658 C23.3212776,33.9120658 24.6764619,32.8733515 25.0665356,32.3109877 C25.8065848,31.2436685 25.6823587,29.5863739 25.3428993,27.8109849 C25.2913022,27.5409271 25.0850123,27.3301648 24.8202457,27.2663005 C24.8156265,27.265208 24.8112039,27.2640161 24.8065848,27.2630229 C23.1304177,26.8539136 21.923145,25.8623775 21.3154791,24.3953847 C20.6651597,22.8253945 20.5597052,20.7852118 20.4576904,18.8121711 C20.3614742,16.9504709 20.2523833,14.8403651 19.6127764,14.2711481 C19.5246192,14.1927827 19.3945946,14.1155098 19.100344,14.138056 C18.702113,14.16825 18.4459951,14.9863691 18.3286486,15.4713607 C18.0619165,16.5749326 17.9671744,18.119099 17.8756757,19.6123129 C17.7771007,21.2181584 17.6753808,22.8787307 17.3551843,24.1627715 C17.1610811,24.9408637 16.8999509,25.5340174 16.5566585,25.9756051 C16.092285,26.5729304 15.4687961,26.8977148 14.7534152,26.9148976 C14.0693857,26.9323784 13.1254054,26.683377 12.5426044,25.4088711 C12.2237838,24.7117268 12.0736118,23.8446416 11.9284521,23.0059628 C11.6246683,21.2517294 11.393317,20.4651948 10.825258,20.4415561 C10.4573956,20.4261611 10.2887469,20.5502149 10.1825061,20.6595689 C9.39665848,21.4698416 9.5585258,24.1431057 9.63646192,25.4277424 C9.6617199,25.84589 9.68353808,26.2071258 9.6829484,26.4891022 L9.68285012,26.4891022 C9.68265356,27.0198815 9.25690418,27.4499477 8.73189189,27.4499477 C8.20668305,27.4499477 7.78093366,27.0196828 7.78093366,26.4889036 C7.78093366,26.4876124 7.78113022,26.4863212 7.78113022,26.48503 L7.77739558,26.48503 C7.77788698,26.2638389 7.75773956,25.9310093 7.73434889,25.5454395 C7.6182801,23.6292112 7.44285012,20.7331669 8.82162162,19.3115644 C9.35872236,18.7578417 10.078231,18.4839104 10.9035872,18.5174813 C11.6041278,18.5465828 12.5644226,18.8566676 13.1620639,20.1685187 C13.5001474,20.9109541 13.65543,21.80724 13.805602,22.6740271 C13.9296314,23.3908373 14.0580835,24.1321802 14.2723342,24.6009822 C14.4370516,24.9611255 14.5599017,24.9900283 14.6751843,24.9900283 C14.6862899,24.9900283 14.6973956,24.9898296 14.7083047,24.9895317" id="Fill-4" fill="url(#linearGradient-6)" mask="url(#mask-5)"></path>
                </g>
            </g>
        </g>
    </g>
</svg>