<?xml version="1.0" encoding="UTF-8"?>
<svg width="40px" height="46px" viewBox="0 0 40 46" version="1.1" xmlns="http://www.w3.org/2000/svg" xmlns:xlink="http://www.w3.org/1999/xlink">
    <!-- Generator: Sketch 52.2 (67145) - http://www.bohemiancoding.com/sketch -->
    <title>深度学习_slice</title>
    <desc>Created with Sketch.</desc>
    <defs>
        <path d="M0.738476658,0.716235007 C-0.0554299754,1.64343703 -0.20009828,3.0047901 0.32009828,4.6531934 C0.681277641,5.79752061 1.8439312,5.94819715 2.09808354,5.96766492 C2.12186732,5.96478448 2.14604423,5.96279798 2.17051597,5.96279798 C2.5012285,5.96279798 2.76923833,6.23355885 2.76923833,6.56778861 C2.76923833,6.90191904 2.5012285,7.17277924 2.17051597,7.17277924 C2.13503686,7.17277924 2.10044226,7.1691042 2.06663391,7.16304535 C1.90574939,7.1542054 1.44235872,7.11020427 0.919213759,6.89099325 C0.794201474,6.83845015 0.675184275,6.77915292 0.561277641,6.7143928 L0.485700246,16.6633152 C0.481867322,16.8989149 0.633513514,17.0239655 0.698968059,17.0668741 C0.763734644,17.1091867 0.936707617,17.1967916 1.14506143,17.0980622 C1.68,16.8443853 1.86820639,16.4341717 2.02869779,16.0004179 C2.14604423,15.6830735 2.40992629,15.440819 2.73434889,15.3526181 C3.06240786,15.2635232 3.41513514,15.340401 3.67783784,15.5586188 C4.29051597,16.0667672 4.95056511,16.3311713 5.57159705,16.3312706 C5.83459459,16.3312706 6.09041769,16.2839918 6.33297297,16.1878448 C7.05189189,15.9024831 7.53415233,15.2198201 7.65572482,14.3149663 C7.85464373,12.8366079 7.35911548,11.6838381 6.18299754,10.8888381 C5.73798526,10.5879816 5.484914,10.1912762 5.47076167,9.77182534 C5.46093366,9.48447714 5.5590172,9.05628561 6.0814742,8.64795915 C6.46348894,8.34938718 7.34555283,7.46092204 7.28570025,5.66333208 C7.22997543,3.99128936 6.28265356,3.11792166 5.57464373,2.69668291 C5.57002457,2.71207834 5.56540541,2.72727511 5.56058968,2.74207459 C5.32206388,3.48830585 4.79184275,4.02198088 4.36412776,4.23463643 C4.27380835,4.29035795 4.16805897,4.32303598 4.05444717,4.32303598 C3.72530713,4.32303598 3.45837838,4.05336769 3.45837838,3.72072714 C3.45837838,3.45374063 3.63027027,3.22777549 3.86820639,3.14861319 C3.99783784,3.07332459 4.29700246,2.80713268 4.43538084,2.37467016 C4.59203931,1.8847976 4.49159705,1.34983133 4.1368059,0.78457084 C3.85739558,0.339096702 3.32874693,0.0559201649 2.68668305,0.00784670165 C2.6202457,0.00288043478 2.55371007,0.000397301349 2.48737101,0.000397301349 C1.79085995,0.000397301349 1.12,0.27076087 0.738476658,0.716235007" id="path-1"></path>
        <linearGradient x1="-79.0410365%" y1="-69.705038%" x2="117.690604%" y2="112.400818%" id="linearGradient-3">
            <stop stop-color="#F9E599" offset="0%"></stop>
            <stop stop-color="#E15757" offset="100%"></stop>
        </linearGradient>
        <path d="M5.03135135,0.00784670165 C4.38928747,0.0559201649 3.86083538,0.339096702 3.5812285,0.78457084 C3.22643735,1.34983133 3.12599509,1.8847976 3.28265356,2.37467016 C3.42103194,2.80713268 3.72029484,3.07332459 3.84982801,3.14861319 C4.08776413,3.22777549 4.2597543,3.45374063 4.2597543,3.72072714 C4.2597543,4.05336769 3.99282555,4.32303598 3.66358722,4.32303598 C3.54997543,4.32303598 3.44422604,4.29035795 3.35390663,4.23463643 C2.92609337,4.02198088 2.3960688,3.48830585 2.15744472,2.74207459 C2.15272727,2.72727511 2.14810811,2.71207834 2.14348894,2.69668291 C1.43538084,3.11792166 0.488058968,3.99128936 0.432334152,5.66333208 C0.372481572,7.46092204 1.25464373,8.34938718 1.6365602,8.64795915 C2.1590172,9.05628561 2.25710074,9.48447714 2.24737101,9.77182534 C2.23312039,10.1912762 1.98014742,10.5879816 1.53503686,10.8888381 C0.359017199,11.6838381 -0.136511057,12.8366079 0.0623095823,14.3150656 C0.183980344,15.2198201 0.666142506,15.9024831 1.38515971,16.1878448 C2.20058968,16.5113475 3.16835381,16.2820052 4.04029484,15.5586188 C4.30299754,15.340401 4.65572482,15.2635232 4.9836855,15.3526181 C5.30820639,15.440819 5.57199017,15.6830735 5.68943489,16.0004179 C5.84992629,16.4341717 6.03813268,16.8443853 6.57307125,17.0980622 C6.7812285,17.1967916 6.95439803,17.1090873 7.01906634,17.0668741 C7.08452088,17.0239655 7.23626536,16.8989149 7.23233415,16.6633152 L7.23233415,16.657753 L7.15675676,6.7143928 C7.04285012,6.77915292 6.9239312,6.83845015 6.79882064,6.89099325 C6.2755774,7.11020427 5.81228501,7.1542054 5.65149877,7.16304535 C5.61759214,7.1691042 5.58299754,7.17277924 5.54761671,7.17277924 C5.21690418,7.17277924 4.94889435,6.90191904 4.94889435,6.56778861 C4.94889435,6.23355885 5.21690418,5.96279798 5.54761671,5.96279798 C5.57199017,5.96279798 5.59616708,5.96478448 5.61995086,5.96766492 C5.87410319,5.94819715 7.03685504,5.79752061 7.3980344,4.6531934 C7.91813268,3.0047901 7.77356265,1.64343703 6.97955774,0.716235007 C6.59823096,0.270860195 5.92717445,0.000397301349 5.23085995,0.000397301349 C5.16452088,0.000397301349 5.09798526,0.00278110945 5.03135135,0.00784670165" id="path-4"></path>
        <linearGradient x1="-65.5519939%" y1="-24.3798446%" x2="139.533449%" y2="123.816495%" id="linearGradient-6">
            <stop stop-color="#F9E599" offset="0%"></stop>
            <stop stop-color="#E15757" offset="100%"></stop>
        </linearGradient>
        <path d="M18.8636855,0.345552849 L1.12314496,10.6969415 C0.428206388,11.1024869 0,11.8519959 0,12.6630866 L0,33.3659633 C0,34.1769546 0.428206388,34.926563 1.12314496,35.332009 L18.8636855,45.683497 C19.5587224,46.0890424 20.4150369,46.0890424 21.1100737,45.683497 L38.8506143,35.332009 C39.5456511,34.926563 39.9737592,34.1769546 39.9737592,33.3659633 L39.9737592,12.6630866 C39.9737592,11.8519959 39.5456511,11.1024869 38.8506143,10.6969415 L21.1100737,0.345552849 C20.7625553,0.142829835 20.374742,0.0414186657 19.9868305,0.0414186657 C19.5990172,0.0414186657 19.2112039,0.142829835 18.8636855,0.345552849 M21.7764128,32.4722339 C21.2961179,32.1581672 21.014742,31.625982 21.0231941,31.0484052 L21.1078133,19.895759 C21.0314496,19.7450825 20.9662899,19.5860626 20.9134152,19.4186001 C20.2706634,17.381934 20.5018182,15.5770933 21.564226,14.3363212 C22.2283047,13.560789 23.35086,13.1323988 24.4941523,13.2182159 C25.5129238,13.2945971 26.3734644,13.7789074 26.85543,14.5466923 C27.1376904,14.9966361 27.2910074,15.4169809 27.3609828,15.7966023 C27.6653563,15.9324794 28.0644717,16.1471214 28.4650614,16.4686376 C29.2169042,17.0722376 30.1259951,18.1792185 30.1875184,20.0252792 C30.2657494,22.3748201 29.0507125,23.5845034 28.5247174,23.9956109 C28.4397052,24.0619603 28.3999017,24.1102324 28.3823096,24.1363549 C28.404914,24.1691323 28.4580835,24.2285289 28.5603931,24.2977586 C29.2161179,24.7410476 29.7247174,25.2914093 30.0723342,25.9336469 C30.5352334,26.7892354 30.6950369,27.7799063 30.5474201,28.8781466 C30.3689435,30.2049344 29.5979361,31.2607627 28.484914,31.7022639 C27.3241278,32.1629348 25.9544963,31.8987294 24.7890909,30.9978486 C24.6109091,31.4481897 24.2549386,32.1612463 23.3672727,32.582187 C23.1438821,32.6881672 22.9058477,32.7406109 22.6687961,32.7406109 C22.3577396,32.7406109 22.0485504,32.6504235 21.7764128,32.4722339 M12.0586732,31.7022639 C10.9456511,31.2607627 10.1746437,30.2049344 9.99616708,28.8781466 C9.84855037,27.7799063 10.0083538,26.7892354 10.4713514,25.9336469 C10.8188698,25.2914093 11.3275676,24.7410476 11.9832924,24.2977586 C12.085602,24.2285289 12.1387715,24.1691323 12.1612776,24.1363549 C12.1437838,24.1102324 12.1038821,24.0619603 12.0188698,23.9956109 C11.492973,23.5845034 10.2778378,22.3748201 10.3561671,20.0252792 C10.4175921,18.1792185 11.3267813,17.0722376 12.0786241,16.4686376 C12.4791155,16.1471214 12.878231,15.9324794 13.182801,15.7966023 C13.2526781,15.4169809 13.4059951,14.9966361 13.6883538,14.5466923 C14.1701229,13.7789074 15.0307617,13.2945971 16.0495332,13.2182159 C17.1924324,13.1324981 18.3152826,13.560789 18.9794595,14.3363212 C20.0418673,15.5770933 20.2729238,17.381934 19.630172,19.4186001 C19.5773956,19.5860626 19.5121376,19.7450825 19.435774,19.895759 L19.5203931,31.0484052 C19.5289435,31.625982 19.2475676,32.1581672 18.767371,32.4722339 C18.4950369,32.6502249 18.1858477,32.7406109 17.8748894,32.7406109 C17.6378378,32.7406109 17.3999017,32.6881672 17.1763145,32.582187 C16.2888452,32.1612463 15.9326781,31.4481897 15.7544963,30.9978486 C14.9668796,31.6066136 14.0857985,31.9246533 13.2391155,31.9247526 C12.8330221,31.9247526 12.4349877,31.8515499 12.0586732,31.7022639" id="path-7"></path>
        <linearGradient x1="19.8495787%" y1="10.713679%" x2="81.0752236%" y2="90.4910803%" id="linearGradient-9">
            <stop stop-color="#F9E599" offset="0%"></stop>
            <stop stop-color="#E15757" offset="100%"></stop>
        </linearGradient>
    </defs>
    <g id="Symbols" stroke="none" stroke-width="1" fill="none" fill-rule="evenodd">
        <g id="画板" transform="translate(-195.000000, -24.000000)">
            <g id="深度学习" transform="translate(195.000000, 24.000000)">
                <g id="Group-3" transform="translate(21.719902, 14.460081)">
                    <mask id="mask-2" fill="white">
                        <use xlink:href="#path-1"></use>
                    </mask>
                    <g id="Clip-2"></g>
                    <path d="M0.738476658,0.716235007 C-0.0554299754,1.64343703 -0.20009828,3.0047901 0.32009828,4.6531934 C0.681277641,5.79752061 1.8439312,5.94819715 2.09808354,5.96766492 C2.12186732,5.96478448 2.14604423,5.96279798 2.17051597,5.96279798 C2.5012285,5.96279798 2.76923833,6.23355885 2.76923833,6.56778861 C2.76923833,6.90191904 2.5012285,7.17277924 2.17051597,7.17277924 C2.13503686,7.17277924 2.10044226,7.1691042 2.06663391,7.16304535 C1.90574939,7.1542054 1.44235872,7.11020427 0.919213759,6.89099325 C0.794201474,6.83845015 0.675184275,6.77915292 0.561277641,6.7143928 L0.485700246,16.6633152 C0.481867322,16.8989149 0.633513514,17.0239655 0.698968059,17.0668741 C0.763734644,17.1091867 0.936707617,17.1967916 1.14506143,17.0980622 C1.68,16.8443853 1.86820639,16.4341717 2.02869779,16.0004179 C2.14604423,15.6830735 2.40992629,15.440819 2.73434889,15.3526181 C3.06240786,15.2635232 3.41513514,15.340401 3.67783784,15.5586188 C4.29051597,16.0667672 4.95056511,16.3311713 5.57159705,16.3312706 C5.83459459,16.3312706 6.09041769,16.2839918 6.33297297,16.1878448 C7.05189189,15.9024831 7.53415233,15.2198201 7.65572482,14.3149663 C7.85464373,12.8366079 7.35911548,11.6838381 6.18299754,10.8888381 C5.73798526,10.5879816 5.484914,10.1912762 5.47076167,9.77182534 C5.46093366,9.48447714 5.5590172,9.05628561 6.0814742,8.64795915 C6.46348894,8.34938718 7.34555283,7.46092204 7.28570025,5.66333208 C7.22997543,3.99128936 6.28265356,3.11792166 5.57464373,2.69668291 C5.57002457,2.71207834 5.56540541,2.72727511 5.56058968,2.74207459 C5.32206388,3.48830585 4.79184275,4.02198088 4.36412776,4.23463643 C4.27380835,4.29035795 4.16805897,4.32303598 4.05444717,4.32303598 C3.72530713,4.32303598 3.45837838,4.05336769 3.45837838,3.72072714 C3.45837838,3.45374063 3.63027027,3.22777549 3.86820639,3.14861319 C3.99783784,3.07332459 4.29700246,2.80713268 4.43538084,2.37467016 C4.59203931,1.8847976 4.49159705,1.34983133 4.1368059,0.78457084 C3.85739558,0.339096702 3.32874693,0.0559201649 2.68668305,0.00784670165 C2.6202457,0.00288043478 2.55371007,0.000397301349 2.48737101,0.000397301349 C1.79085995,0.000397301349 1.12,0.27076087 0.738476658,0.716235007" id="Fill-1" fill="url(#linearGradient-3)" mask="url(#mask-2)"></path>
                </g>
                <g id="Group-6" transform="translate(11.105651, 14.460081)">
                    <mask id="mask-5" fill="white">
                        <use xlink:href="#path-4"></use>
                    </mask>
                    <g id="Clip-5"></g>
                    <path d="M5.03135135,0.00784670165 C4.38928747,0.0559201649 3.86083538,0.339096702 3.5812285,0.78457084 C3.22643735,1.34983133 3.12599509,1.8847976 3.28265356,2.37467016 C3.42103194,2.80713268 3.72029484,3.07332459 3.84982801,3.14861319 C4.08776413,3.22777549 4.2597543,3.45374063 4.2597543,3.72072714 C4.2597543,4.05336769 3.99282555,4.32303598 3.66358722,4.32303598 C3.54997543,4.32303598 3.44422604,4.29035795 3.35390663,4.23463643 C2.92609337,4.02198088 2.3960688,3.48830585 2.15744472,2.74207459 C2.15272727,2.72727511 2.14810811,2.71207834 2.14348894,2.69668291 C1.43538084,3.11792166 0.488058968,3.99128936 0.432334152,5.66333208 C0.372481572,7.46092204 1.25464373,8.34938718 1.6365602,8.64795915 C2.1590172,9.05628561 2.25710074,9.48447714 2.24737101,9.77182534 C2.23312039,10.1912762 1.98014742,10.5879816 1.53503686,10.8888381 C0.359017199,11.6838381 -0.136511057,12.8366079 0.0623095823,14.3150656 C0.183980344,15.2198201 0.666142506,15.9024831 1.38515971,16.1878448 C2.20058968,16.5113475 3.16835381,16.2820052 4.04029484,15.5586188 C4.30299754,15.340401 4.65572482,15.2635232 4.9836855,15.3526181 C5.30820639,15.440819 5.57199017,15.6830735 5.68943489,16.0004179 C5.84992629,16.4341717 6.03813268,16.8443853 6.57307125,17.0980622 C6.7812285,17.1967916 6.95439803,17.1090873 7.01906634,17.0668741 C7.08452088,17.0239655 7.23626536,16.8989149 7.23233415,16.6633152 L7.23233415,16.657753 L7.15675676,6.7143928 C7.04285012,6.77915292 6.9239312,6.83845015 6.79882064,6.89099325 C6.2755774,7.11020427 5.81228501,7.1542054 5.65149877,7.16304535 C5.61759214,7.1691042 5.58299754,7.17277924 5.54761671,7.17277924 C5.21690418,7.17277924 4.94889435,6.90191904 4.94889435,6.56778861 C4.94889435,6.23355885 5.21690418,5.96279798 5.54761671,5.96279798 C5.57199017,5.96279798 5.59616708,5.96478448 5.61995086,5.96766492 C5.87410319,5.94819715 7.03685504,5.79752061 7.3980344,4.6531934 C7.91813268,3.0047901 7.77356265,1.64343703 6.97955774,0.716235007 C6.59823096,0.270860195 5.92717445,0.000397301349 5.23085995,0.000397301349 C5.16452088,0.000397301349 5.09798526,0.00278110945 5.03135135,0.00784670165" id="Fill-4" fill="url(#linearGradient-6)" mask="url(#mask-5)"></path>
                </g>
                <g id="Group-9" transform="translate(0.000000, 0.057907)">
                    <mask id="mask-8" fill="white">
                        <use xlink:href="#path-7"></use>
                    </mask>
                    <g id="Clip-8"></g>
                    <path d="M18.8636855,0.345552849 L1.12314496,10.6969415 C0.428206388,11.1024869 0,11.8519959 0,12.6630866 L0,33.3659633 C0,34.1769546 0.428206388,34.926563 1.12314496,35.332009 L18.8636855,45.683497 C19.5587224,46.0890424 20.4150369,46.0890424 21.1100737,45.683497 L38.8506143,35.332009 C39.5456511,34.926563 39.9737592,34.1769546 39.9737592,33.3659633 L39.9737592,12.6630866 C39.9737592,11.8519959 39.5456511,11.1024869 38.8506143,10.6969415 L21.1100737,0.345552849 C20.7625553,0.142829835 20.374742,0.0414186657 19.9868305,0.0414186657 C19.5990172,0.0414186657 19.2112039,0.142829835 18.8636855,0.345552849 M21.7764128,32.4722339 C21.2961179,32.1581672 21.014742,31.625982 21.0231941,31.0484052 L21.1078133,19.895759 C21.0314496,19.7450825 20.9662899,19.5860626 20.9134152,19.4186001 C20.2706634,17.381934 20.5018182,15.5770933 21.564226,14.3363212 C22.2283047,13.560789 23.35086,13.1323988 24.4941523,13.2182159 C25.5129238,13.2945971 26.3734644,13.7789074 26.85543,14.5466923 C27.1376904,14.9966361 27.2910074,15.4169809 27.3609828,15.7966023 C27.6653563,15.9324794 28.0644717,16.1471214 28.4650614,16.4686376 C29.2169042,17.0722376 30.1259951,18.1792185 30.1875184,20.0252792 C30.2657494,22.3748201 29.0507125,23.5845034 28.5247174,23.9956109 C28.4397052,24.0619603 28.3999017,24.1102324 28.3823096,24.1363549 C28.404914,24.1691323 28.4580835,24.2285289 28.5603931,24.2977586 C29.2161179,24.7410476 29.7247174,25.2914093 30.0723342,25.9336469 C30.5352334,26.7892354 30.6950369,27.7799063 30.5474201,28.8781466 C30.3689435,30.2049344 29.5979361,31.2607627 28.484914,31.7022639 C27.3241278,32.1629348 25.9544963,31.8987294 24.7890909,30.9978486 C24.6109091,31.4481897 24.2549386,32.1612463 23.3672727,32.582187 C23.1438821,32.6881672 22.9058477,32.7406109 22.6687961,32.7406109 C22.3577396,32.7406109 22.0485504,32.6504235 21.7764128,32.4722339 M12.0586732,31.7022639 C10.9456511,31.2607627 10.1746437,30.2049344 9.99616708,28.8781466 C9.84855037,27.7799063 10.0083538,26.7892354 10.4713514,25.9336469 C10.8188698,25.2914093 11.3275676,24.7410476 11.9832924,24.2977586 C12.085602,24.2285289 12.1387715,24.1691323 12.1612776,24.1363549 C12.1437838,24.1102324 12.1038821,24.0619603 12.0188698,23.9956109 C11.492973,23.5845034 10.2778378,22.3748201 10.3561671,20.0252792 C10.4175921,18.1792185 11.3267813,17.0722376 12.0786241,16.4686376 C12.4791155,16.1471214 12.878231,15.9324794 13.182801,15.7966023 C13.2526781,15.4169809 13.4059951,14.9966361 13.6883538,14.5466923 C14.1701229,13.7789074 15.0307617,13.2945971 16.0495332,13.2182159 C17.1924324,13.1324981 18.3152826,13.560789 18.9794595,14.3363212 C20.0418673,15.5770933 20.2729238,17.381934 19.630172,19.4186001 C19.5773956,19.5860626 19.5121376,19.7450825 19.435774,19.895759 L19.5203931,31.0484052 C19.5289435,31.625982 19.2475676,32.1581672 18.767371,32.4722339 C18.4950369,32.6502249 18.1858477,32.7406109 17.8748894,32.7406109 C17.6378378,32.7406109 17.3999017,32.6881672 17.1763145,32.582187 C16.2888452,32.1612463 15.9326781,31.4481897 15.7544963,30.9978486 C14.9668796,31.6066136 14.0857985,31.9246533 13.2391155,31.9247526 C12.8330221,31.9247526 12.4349877,31.8515499 12.0586732,31.7022639" id="Fill-7" fill="url(#linearGradient-9)" mask="url(#mask-8)"></path>
                </g>
            </g>
        </g>
    </g>
</svg>