<?xml version="1.0" encoding="UTF-8"?>
<svg width="40px" height="46px" viewBox="0 0 40 46" version="1.1" xmlns="http://www.w3.org/2000/svg" xmlns:xlink="http://www.w3.org/1999/xlink">
    <!-- Generator: Sketch 52.2 (67145) - http://www.bohemiancoding.com/sketch -->
    <title>室内定位_slice</title>
    <desc>Created with Sketch.</desc>
    <defs>
        <path d="M0.0143488943,3.24148238 C0.0143488943,5.03043103 3.2192629,9.71928223 3.2192629,9.71928223 C3.2192629,9.71928223 6.42427518,5.03043103 6.42427518,3.24148238 C6.42427518,1.45273238 4.98938575,0.00258245877 3.2192629,0.00258245877 C1.44923833,0.00258245877 0.0143488943,1.45273238 0.0143488943,3.24148238 M0.847469287,3.09338831 C0.847469287,2.3493422 1.44422604,1.74623876 2.18044226,1.74623876 C2.91665848,1.74623876 3.51351351,2.3493422 3.51351351,3.09338831 C3.51351351,3.83753373 2.91665848,4.44073651 2.18044226,4.44073651 C1.44422604,4.44073651 0.847469287,3.83753373 0.847469287,3.09338831" id="path-1"></path>
        <linearGradient x1="253.535867%" y1="220.078374%" x2="-99.8403474%" y2="-102.144641%" id="linearGradient-3">
            <stop stop-color="#785CD9" offset="0%"></stop>
            <stop stop-color="#52C6E6" offset="100%"></stop>
            <stop stop-color="#7DDDF2" offset="100%"></stop>
        </linearGradient>
        <path d="M18.8636855,0.345552849 L1.12314496,10.6969415 C0.428108108,11.1024869 0,11.8519959 0,12.6630866 L0,33.3659633 C0,34.1769546 0.428108108,34.926563 1.12314496,35.332009 L18.8636855,45.683497 C19.5588206,46.0890424 20.4150369,46.0890424 21.1100737,45.683497 L38.8506143,35.332009 C39.5456511,34.926563 39.9737592,34.1769546 39.9737592,33.3659633 L39.9737592,12.6630866 C39.9737592,11.8519959 39.5456511,11.1024869 38.8506143,10.6969415 L21.1100737,0.345552849 C20.7625553,0.142829835 20.374742,0.0414186657 19.9869287,0.0414186657 C19.5991155,0.0414186657 19.2113022,0.142829835 18.8636855,0.345552849 M10.5356265,30.852039 L10.5356265,17.4488793 C10.5356265,16.997545 10.7257985,16.5673669 11.0586732,16.2662125 L18.9363145,10.7676612 C18.9907617,10.7296196 19.0421622,10.687307 19.0941523,10.6458883 C19.6673219,10.1892897 20.4790172,10.1929648 21.048059,10.6547283 C21.1000491,10.6968422 21.1514496,10.7398501 21.2058968,10.7786863 L28.9259951,16.2673051 C29.252285,16.5680622 29.4381327,16.9937706 29.4381327,17.4401387 L29.4381327,30.852039 C29.4381327,31.7286844 28.7349386,32.4394565 27.8675184,32.4394565 L20.0754791,32.4394565 L12.1062408,32.4394565 C11.2388206,32.4394565 10.5356265,31.7286844 10.5356265,30.852039" id="path-4"></path>
        <linearGradient x1="107.534879%" y1="129.13656%" x2="-10.9616748%" y2="-11.8670764%" id="linearGradient-6">
            <stop stop-color="#785CD9" offset="0%"></stop>
            <stop stop-color="#52C6E6" offset="100%"></stop>
            <stop stop-color="#7DDDF2" offset="100%"></stop>
        </linearGradient>
    </defs>
    <g id="Symbols" stroke="none" stroke-width="1" fill="none" fill-rule="evenodd">
        <g id="画板" transform="translate(-195.000000, -25.000000)">
            <g id="室内定位" transform="translate(195.000000, 25.000000)">
                <g id="Group-3" transform="translate(13.562654, 18.631745)">
                    <mask id="mask-2" fill="white">
                        <use xlink:href="#path-1"></use>
                    </mask>
                    <g id="Clip-2"></g>
                    <path d="M0.0143488943,3.24148238 C0.0143488943,5.03043103 3.2192629,9.71928223 3.2192629,9.71928223 C3.2192629,9.71928223 6.42427518,5.03043103 6.42427518,3.24148238 C6.42427518,1.45273238 4.98938575,0.00258245877 3.2192629,0.00258245877 C1.44923833,0.00258245877 0.0143488943,1.45273238 0.0143488943,3.24148238 M0.847469287,3.09338831 C0.847469287,2.3493422 1.44422604,1.74623876 2.18044226,1.74623876 C2.91665848,1.74623876 3.51351351,2.3493422 3.51351351,3.09338831 C3.51351351,3.83753373 2.91665848,4.44073651 2.18044226,4.44073651 C1.44422604,4.44073651 0.847469287,3.83753373 0.847469287,3.09338831" id="Fill-1" fill="url(#linearGradient-3)" mask="url(#mask-2)"></path>
                </g>
                <g id="Group-6" transform="translate(0.000000, 0.057907)">
                    <mask id="mask-5" fill="white">
                        <use xlink:href="#path-4"></use>
                    </mask>
                    <g id="Clip-5"></g>
                    <path d="M18.8636855,0.345552849 L1.12314496,10.6969415 C0.428108108,11.1024869 0,11.8519959 0,12.6630866 L0,33.3659633 C0,34.1769546 0.428108108,34.926563 1.12314496,35.332009 L18.8636855,45.683497 C19.5588206,46.0890424 20.4150369,46.0890424 21.1100737,45.683497 L38.8506143,35.332009 C39.5456511,34.926563 39.9737592,34.1769546 39.9737592,33.3659633 L39.9737592,12.6630866 C39.9737592,11.8519959 39.5456511,11.1024869 38.8506143,10.6969415 L21.1100737,0.345552849 C20.7625553,0.142829835 20.374742,0.0414186657 19.9869287,0.0414186657 C19.5991155,0.0414186657 19.2113022,0.142829835 18.8636855,0.345552849 M10.5356265,30.852039 L10.5356265,17.4488793 C10.5356265,16.997545 10.7257985,16.5673669 11.0586732,16.2662125 L18.9363145,10.7676612 C18.9907617,10.7296196 19.0421622,10.687307 19.0941523,10.6458883 C19.6673219,10.1892897 20.4790172,10.1929648 21.048059,10.6547283 C21.1000491,10.6968422 21.1514496,10.7398501 21.2058968,10.7786863 L28.9259951,16.2673051 C29.252285,16.5680622 29.4381327,16.9937706 29.4381327,17.4401387 L29.4381327,30.852039 C29.4381327,31.7286844 28.7349386,32.4394565 27.8675184,32.4394565 L20.0754791,32.4394565 L12.1062408,32.4394565 C11.2388206,32.4394565 10.5356265,31.7286844 10.5356265,30.852039" id="Fill-4" fill="url(#linearGradient-6)" mask="url(#mask-5)"></path>
                </g>
            </g>
        </g>
    </g>
</svg>