<?xml version="1.0" encoding="UTF-8"?>
<svg width="61px" height="71px" viewBox="0 0 61 71" version="1.1" xmlns="http://www.w3.org/2000/svg" xmlns:xlink="http://www.w3.org/1999/xlink">
    <!-- Generator: Sketch 51 (57462) - http://www.bohemiancoding.com/sketch -->
    <title>语音识别icon_slice</title>
    <desc>Created with Sketch.</desc>
    <defs>
        <path d="M30.500075,0 L0,17.5961913 L0,52.7884241 L30.500075,70.3846154 L61,52.7884241 L61,17.5961913 L30.500075,0 Z M22.1014449,28.4179074 L22.1014449,26.1450623 C22.1014449,21.5100528 25.8614816,17.7526499 30.500075,17.7526499 C35.1383684,17.7526499 38.8985551,21.5100528 38.8985551,26.1450623 L38.8985551,28.4165586 C38.8985551,28.6518459 38.7076362,28.8427733 38.4720246,28.8427733 L22.5264756,28.8427733 C22.2917639,28.8427733 22.1014449,28.6524454 22.1014449,28.4179074 Z M22.1014449,38.4339519 L22.1014449,29.9916346 L38.4729245,29.9673566 C38.7079362,29.966907 38.8985551,30.1572349 38.8985551,30.3920726 L38.8985551,38.4339519 C38.8985551,43.0689614 35.1383684,46.8263644 30.500075,46.8263644 C25.8614816,46.8263644 22.1014449,43.0689614 22.1014449,38.4339519 Z M40.548286,38.5979037 L40.548286,29.9673566 L42.3488923,29.9673566 L42.3488923,38.3339923 C42.3488923,44.5448271 37.562273,49.635125 31.474916,50.1310266 L31.474916,54.4570155 L37.5489252,54.4570155 L37.5489252,56.4051042 L23.4512248,56.4051042 L23.4512248,54.4570155 L29.525234,54.4570155 L29.525234,50.1310266 C23.437577,49.635125 18.6509578,44.5448271 18.6509578,38.3339923 L18.6509578,29.9673566 L20.451714,29.9673566 L20.451714,38.5979037 C20.451714,44.1433401 24.9503802,48.6388257 30.500075,48.6388257 C36.0494698,48.6388257 40.548286,44.1433401 40.548286,38.5979037 Z" id="path-1"></path>
        <linearGradient x1="21.4070926%" y1="13.7594185%" x2="77.8228386%" y2="85.2643741%" id="linearGradient-3">
            <stop stop-color="#00DBDD" offset="0%"></stop>
            <stop stop-color="#1220FF" offset="100%"></stop>
        </linearGradient>
    </defs>
    <g id="Page-1" stroke="none" stroke-width="1" fill="none" fill-rule="evenodd">
        <g id="Artboard" transform="translate(-213.000000, -22.000000)">
            <g id="语音识别icon" transform="translate(213.000000, 22.000000)">
                <mask id="mask-2" fill="white">
                    <use xlink:href="#path-1"></use>
                </mask>
                <g id="Clip-2"></g>
                <path d="M30.500075,0 L0,17.5961913 L0,52.7884241 L30.500075,70.3846154 L61,52.7884241 L61,17.5961913 L30.500075,0 Z M22.1014449,28.4179074 L22.1014449,26.1450623 C22.1014449,21.5100528 25.8614816,17.7526499 30.500075,17.7526499 C35.1383684,17.7526499 38.8985551,21.5100528 38.8985551,26.1450623 L38.8985551,28.4165586 C38.8985551,28.6518459 38.7076362,28.8427733 38.4720246,28.8427733 L22.5264756,28.8427733 C22.2917639,28.8427733 22.1014449,28.6524454 22.1014449,28.4179074 Z M22.1014449,38.4339519 L22.1014449,29.9916346 L38.4729245,29.9673566 C38.7079362,29.966907 38.8985551,30.1572349 38.8985551,30.3920726 L38.8985551,38.4339519 C38.8985551,43.0689614 35.1383684,46.8263644 30.500075,46.8263644 C25.8614816,46.8263644 22.1014449,43.0689614 22.1014449,38.4339519 Z M40.548286,38.5979037 L40.548286,29.9673566 L42.3488923,29.9673566 L42.3488923,38.3339923 C42.3488923,44.5448271 37.562273,49.635125 31.474916,50.1310266 L31.474916,54.4570155 L37.5489252,54.4570155 L37.5489252,56.4051042 L23.4512248,56.4051042 L23.4512248,54.4570155 L29.525234,54.4570155 L29.525234,50.1310266 C23.437577,49.635125 18.6509578,44.5448271 18.6509578,38.3339923 L18.6509578,29.9673566 L20.451714,29.9673566 L20.451714,38.5979037 C20.451714,44.1433401 24.9503802,48.6388257 30.500075,48.6388257 C36.0494698,48.6388257 40.548286,44.1433401 40.548286,38.5979037 Z" id="Fill-1" fill="url(#linearGradient-3)" mask="url(#mask-2)"></path>
            </g>
        </g>
    </g>
</svg>