<?xml version="1.0" encoding="UTF-8"?>
<svg width="61px" height="71px" viewBox="0 0 61 71" version="1.1" xmlns="http://www.w3.org/2000/svg" xmlns:xlink="http://www.w3.org/1999/xlink">
    <!-- Generator: Sketch 51 (57462) - http://www.bohemiancoding.com/sketch -->
    <title>icon_slice</title>
    <desc>Created with Sketch.</desc>
    <defs>
        <path d="M1.14146437,1.21160688 C-0.0695429975,2.6105602 -0.290012285,4.66492629 0.503437346,7.15228747 C1.054086,8.87887224 2.82713268,9.10653563 3.21471499,9.13561179 C3.25113514,9.13126536 3.28770516,9.12841769 3.32532432,9.12841769 C3.82936118,9.12841769 4.23807617,9.53713268 4.23807617,10.0413194 C4.23807617,10.5453563 3.82936118,10.9540713 3.32532432,10.9540713 C3.2710688,10.9540713 3.21831204,10.9485258 3.1667543,10.9395332 C2.92140541,10.9260442 2.21473464,10.8596486 1.41693857,10.5288698 C1.22614496,10.4497346 1.04464373,10.3601081 0.871085995,10.262688 L0.755830467,25.274683 C0.749985258,25.6306413 0.9812457,25.8191867 1.08106388,25.8837838 C1.17968305,25.9476314 1.44361671,26.0798231 1.76120639,25.9309951 C2.57713759,25.5482088 2.86415233,24.9292162 3.10890172,24.2747027 C3.28785504,23.7956953 3.69027518,23.4302948 4.18501966,23.2972039 C4.68530958,23.1626143 5.2230688,23.278769 5.62384029,23.6077494 C6.55802457,24.3749705 7.56459951,24.7737936 8.5118231,24.7739435 C8.91289435,24.7739435 9.30302457,24.702602 9.6727715,24.5572211 C10.7692727,24.126774 11.50457,23.0968182 11.6902678,21.7312875 C11.9933194,19.5006658 11.2377887,17.7613415 9.44420885,16.5615749 C8.76541523,16.1075971 8.37978133,15.5088378 8.35804914,14.8760565 C8.3432113,14.4424619 8.49263882,13.7961916 9.28938575,13.1801966 C9.87195823,12.7296658 11.2172555,11.3890147 11.1259803,8.67653808 C11.041,6.15335627 9.59648403,4.83563636 8.51646929,4.19985749 C8.50942506,4.22308845 8.50238084,4.24601966 8.49503686,4.26835135 C8.13128501,5.39437838 7.32269779,6.19981818 6.67043243,6.52070516 C6.53269533,6.60463636 6.37127764,6.65409582 6.19816953,6.65409582 C5.69608108,6.65409582 5.28916462,6.24717936 5.28916462,5.74509091 C5.28916462,5.34222113 5.55129975,5.00125061 5.91415233,4.8819484 C6.11184029,4.76834152 6.56806634,4.36667076 6.77909337,3.71395577 C7.01799754,2.97491155 6.8648231,2.16767322 6.32391646,1.31457248 C5.89751597,0.642373464 5.09147666,0.215223587 4.11217936,0.14253317 C4.01086241,0.135039312 3.90939558,0.131292383 3.80837838,0.131292383 C2.74619902,0.131292383 1.72298771,0.539407862 1.14146437,1.21160688" id="path-1"></path>
        <linearGradient x1="22.5280666%" y1="15.1802116%" x2="77.8228423%" y2="85.2643806%" id="linearGradient-3">
            <stop stop-color="#CD8CFF" offset="0%"></stop>
            <stop stop-color="#6E009C" offset="100%"></stop>
        </linearGradient>
        <path d="M7.68809828,0.14253317 C6.70880098,0.215223587 5.90291155,0.642373464 5.47651106,1.31457248 C4.93560442,2.16767322 4.7822801,2.97491155 5.02118428,3.71395577 C5.2322113,4.36667076 5.68858722,4.76834152 5.88612531,4.8819484 C6.24897789,5.00125061 6.5112629,5.34222113 6.5112629,5.74509091 C6.5112629,6.24717936 6.10419656,6.65409582 5.60225799,6.65409582 C5.429,6.65409582 5.26773219,6.60463636 5.12984521,6.52070516 C4.47757985,6.19981818 3.66914251,5.39437838 3.30524079,4.26835135 C3.29804668,4.24601966 3.29085258,4.22308845 3.28380835,4.19985749 C2.20394349,4.83563636 0.759427518,6.15335627 0.674447174,8.67653808 C0.58317199,11.3890147 1.92831941,12.7296658 2.51089189,13.1801966 C3.3077887,13.7961916 3.45721622,14.4424619 3.44237838,14.8760565 C3.42049631,15.5088378 3.03486241,16.1075971 2.3560688,16.5615749 C0.562638821,17.7613415 -0.193041769,19.5006658 0.110009828,21.7314373 C0.295707617,23.0968182 1.03100491,24.126774 2.12750614,24.5572211 C3.37118673,25.0456708 4.84687715,24.6996044 6.17643735,23.6077494 C6.57720885,23.278769 7.11511794,23.1626143 7.61525799,23.2972039 C8.11000246,23.4302948 8.5124226,23.7956953 8.69137592,24.2747027 C8.93612531,24.9292162 9.22314005,25.5482088 10.0390713,25.9309951 C10.3566609,26.0798231 10.6205946,25.9476314 10.7192138,25.8837838 C10.8190319,25.8191867 11.0504423,25.6306413 11.0444472,25.274683 L11.0442973,25.2664398 L10.9291916,10.262688 C10.7556339,10.3601081 10.5742826,10.4497346 10.3833391,10.5288698 C9.585543,10.8596486 8.87887224,10.9260442 8.63352334,10.9395332 C8.5819656,10.9485258 8.52935872,10.9540713 8.47510319,10.9540713 C7.97106634,10.9540713 7.56220147,10.5453563 7.56220147,10.0413194 C7.56220147,9.53713268 7.97106634,9.12841769 8.47510319,9.12841769 C8.51257248,9.12841769 8.54929238,9.13126536 8.58556265,9.13561179 C8.97314496,9.10653563 10.7461916,8.87887224 11.2969902,7.15228747 C12.0904398,4.66492629 11.8696708,2.6105602 10.6589631,1.211457 C10.0774398,0.539407862 9.05407862,0.131292383 7.99234889,0.131292383 C7.89103194,0.131292383 7.78971499,0.135039312 7.68809828,0.14253317" id="path-4"></path>
        <path d="M30.4800663,0.0517076167 L0,17.6493833 L0,52.8445848 L30.4800663,70.4422604 L60.9599828,52.8445848 L60.9599828,17.6493833 L30.4800663,0.0517076167 Z M32.7745356,49.5795111 C32.0419361,49.1054496 31.6128378,48.3024079 31.626027,47.4308722 L31.7550713,30.6020663 C31.6384668,30.3748526 31.5392482,30.1347494 31.4584644,29.8820565 C30.4784177,26.8088256 30.8307789,24.0854079 32.4511007,22.2132924 C33.4638206,21.0430516 35.1755676,20.3963317 36.9189386,20.5259754 C38.472715,20.6413808 39.7851892,21.3720319 40.5200369,22.5307322 C40.950484,23.2095258 41.1841425,23.8441057 41.290855,24.4169361 C41.7551744,24.6216683 42.3639754,24.9455528 42.9747248,25.4307052 C44.1211351,26.3415086 45.5076486,28.0120393 45.6013219,30.797656 C45.720774,34.3427002 43.8679926,36.1683538 43.0657002,36.7885455 C42.9359066,36.8889631 42.8753563,36.9616536 42.8483784,37.0010713 C42.8828501,37.0503808 42.9640835,37.1400074 43.1201057,37.2444717 C44.120086,37.9132236 44.8958501,38.7438428 45.4258157,39.7130983 C46.1317371,41.00414 46.3755872,42.4990147 46.1503219,44.1560565 C45.878145,46.1582654 44.7023587,47.7514595 43.005,48.4178133 C41.2349509,49.1127936 39.146113,48.7139705 37.3688698,47.3547346 C37.0971425,48.0341278 36.5542875,49.1100958 35.2005971,49.7452752 C34.8599263,49.9051941 34.4969238,49.9843292 34.1354201,49.9843292 C33.661059,49.9843292 33.1895455,49.8480909 32.7745356,49.5795111 Z M17.9549828,48.4178133 C16.2576241,47.7514595 15.0818378,46.1582654 14.8098108,44.1560565 C14.5845455,42.4990147 14.8282457,41.00414 15.534317,39.7130983 C16.0642826,38.7438428 16.8400467,37.9132236 17.8398771,37.2444717 C17.9960491,37.1400074 18.0772826,37.0503808 18.1116044,37.0010713 C18.0846265,36.9616536 18.0240762,36.8889631 17.8942826,36.7885455 C17.09214,36.1683538 15.2392088,34.3427002 15.3586609,30.797656 C15.4523342,28.0120393 16.8388477,26.3415086 17.9854079,25.4307052 C18.5961572,24.9455528 19.2048084,24.6216683 19.6691278,24.4169361 C19.7758403,23.8441057 20.0094988,23.2095258 20.4400958,22.5307322 C21.1747936,21.3720319 22.4872678,20.6413808 24.0408943,20.5259754 C25.7839656,20.3966314 27.496312,21.0430516 28.5090319,22.2132924 C30.1293538,24.0854079 30.481715,26.8088256 29.5015184,29.8820565 C29.4208845,30.1347494 29.321516,30.3748526 29.2050614,30.6020663 L29.3339558,47.4308722 C29.3472948,48.3024079 28.9181966,49.1054496 28.1855971,49.5795111 C27.7704373,49.8480909 27.2989238,49.9843292 26.8247125,49.9843292 C26.4632088,49.9843292 26.1002064,49.9051941 25.7593857,49.7452752 C24.4058452,49.1100958 23.8626904,48.0341278 23.5912629,47.3547346 C22.3899975,48.2733317 21.046199,48.7532383 19.7550074,48.7532383 C19.135715,48.7532383 18.5287125,48.6429287 17.9549828,48.4178133 Z" id="path-6"></path>
    </defs>
    <g id="Page-1" stroke="none" stroke-width="1" fill="none" fill-rule="evenodd">
        <g id="Artboard" transform="translate(-1202.000000, -23.000000)">
            <g id="icon" transform="translate(1202.000000, 23.000000)">
                <g id="Group-3" transform="translate(32.673219, 22.279988)">
                    <mask id="mask-2" fill="white">
                        <use xlink:href="#path-1"></use>
                    </mask>
                    <g id="Clip-2"></g>
                    <path d="M1.14146437,1.21160688 C-0.0695429975,2.6105602 -0.290012285,4.66492629 0.503437346,7.15228747 C1.054086,8.87887224 2.82713268,9.10653563 3.21471499,9.13561179 C3.25113514,9.13126536 3.28770516,9.12841769 3.32532432,9.12841769 C3.82936118,9.12841769 4.23807617,9.53713268 4.23807617,10.0413194 C4.23807617,10.5453563 3.82936118,10.9540713 3.32532432,10.9540713 C3.2710688,10.9540713 3.21831204,10.9485258 3.1667543,10.9395332 C2.92140541,10.9260442 2.21473464,10.8596486 1.41693857,10.5288698 C1.22614496,10.4497346 1.04464373,10.3601081 0.871085995,10.262688 L0.755830467,25.274683 C0.749985258,25.6306413 0.9812457,25.8191867 1.08106388,25.8837838 C1.17968305,25.9476314 1.44361671,26.0798231 1.76120639,25.9309951 C2.57713759,25.5482088 2.86415233,24.9292162 3.10890172,24.2747027 C3.28785504,23.7956953 3.69027518,23.4302948 4.18501966,23.2972039 C4.68530958,23.1626143 5.2230688,23.278769 5.62384029,23.6077494 C6.55802457,24.3749705 7.56459951,24.7737936 8.5118231,24.7739435 C8.91289435,24.7739435 9.30302457,24.702602 9.6727715,24.5572211 C10.7692727,24.126774 11.50457,23.0968182 11.6902678,21.7312875 C11.9933194,19.5006658 11.2377887,17.7613415 9.44420885,16.5615749 C8.76541523,16.1075971 8.37978133,15.5088378 8.35804914,14.8760565 C8.3432113,14.4424619 8.49263882,13.7961916 9.28938575,13.1801966 C9.87195823,12.7296658 11.2172555,11.3890147 11.1259803,8.67653808 C11.041,6.15335627 9.59648403,4.83563636 8.51646929,4.19985749 C8.50942506,4.22308845 8.50238084,4.24601966 8.49503686,4.26835135 C8.13128501,5.39437838 7.32269779,6.19981818 6.67043243,6.52070516 C6.53269533,6.60463636 6.37127764,6.65409582 6.19816953,6.65409582 C5.69608108,6.65409582 5.28916462,6.24717936 5.28916462,5.74509091 C5.28916462,5.34222113 5.55129975,5.00125061 5.91415233,4.8819484 C6.11184029,4.76834152 6.56806634,4.36667076 6.77909337,3.71395577 C7.01799754,2.97491155 6.8648231,2.16767322 6.32391646,1.31457248 C5.89751597,0.642373464 5.09147666,0.215223587 4.11217936,0.14253317 C4.01086241,0.135039312 3.90939558,0.131292383 3.80837838,0.131292383 C2.74619902,0.131292383 1.72298771,0.539407862 1.14146437,1.21160688" id="Fill-1" fill="url(#linearGradient-3)" mask="url(#mask-2)"></path>
                </g>
                <g id="Group-6" transform="translate(16.486486, 22.279988)">
                    <mask id="mask-5" fill="white">
                        <use xlink:href="#path-4"></use>
                    </mask>
                    <g id="Clip-5"></g>
                    <path d="M7.68809828,0.14253317 C6.70880098,0.215223587 5.90291155,0.642373464 5.47651106,1.31457248 C4.93560442,2.16767322 4.7822801,2.97491155 5.02118428,3.71395577 C5.2322113,4.36667076 5.68858722,4.76834152 5.88612531,4.8819484 C6.24897789,5.00125061 6.5112629,5.34222113 6.5112629,5.74509091 C6.5112629,6.24717936 6.10419656,6.65409582 5.60225799,6.65409582 C5.429,6.65409582 5.26773219,6.60463636 5.12984521,6.52070516 C4.47757985,6.19981818 3.66914251,5.39437838 3.30524079,4.26835135 C3.29804668,4.24601966 3.29085258,4.22308845 3.28380835,4.19985749 C2.20394349,4.83563636 0.759427518,6.15335627 0.674447174,8.67653808 C0.58317199,11.3890147 1.92831941,12.7296658 2.51089189,13.1801966 C3.3077887,13.7961916 3.45721622,14.4424619 3.44237838,14.8760565 C3.42049631,15.5088378 3.03486241,16.1075971 2.3560688,16.5615749 C0.562638821,17.7613415 -0.193041769,19.5006658 0.110009828,21.7314373 C0.295707617,23.0968182 1.03100491,24.126774 2.12750614,24.5572211 C3.37118673,25.0456708 4.84687715,24.6996044 6.17643735,23.6077494 C6.57720885,23.278769 7.11511794,23.1626143 7.61525799,23.2972039 C8.11000246,23.4302948 8.5124226,23.7956953 8.69137592,24.2747027 C8.93612531,24.9292162 9.22314005,25.5482088 10.0390713,25.9309951 C10.3566609,26.0798231 10.6205946,25.9476314 10.7192138,25.8837838 C10.8190319,25.8191867 11.0504423,25.6306413 11.0444472,25.274683 L11.0442973,25.2664398 L10.9291916,10.262688 C10.7556339,10.3601081 10.5742826,10.4497346 10.3833391,10.5288698 C9.585543,10.8596486 8.87887224,10.9260442 8.63352334,10.9395332 C8.5819656,10.9485258 8.52935872,10.9540713 8.47510319,10.9540713 C7.97106634,10.9540713 7.56220147,10.5453563 7.56220147,10.0413194 C7.56220147,9.53713268 7.97106634,9.12841769 8.47510319,9.12841769 C8.51257248,9.12841769 8.54929238,9.13126536 8.58556265,9.13561179 C8.97314496,9.10653563 10.7461916,8.87887224 11.2969902,7.15228747 C12.0904398,4.66492629 11.8696708,2.6105602 10.6589631,1.211457 C10.0774398,0.539407862 9.05407862,0.131292383 7.99234889,0.131292383 C7.89103194,0.131292383 7.78971499,0.135039312 7.68809828,0.14253317" id="Fill-4" fill="url(#linearGradient-3)" mask="url(#mask-5)"></path>
                </g>
                <g id="Group-9" transform="translate(0.000000, 0.098170)">
                    <mask id="mask-7" fill="white">
                        <use xlink:href="#path-6"></use>
                    </mask>
                    <g id="Clip-8"></g>
                    <path d="M30.4800663,0.0517076167 L0,17.6493833 L0,52.8445848 L30.4800663,70.4422604 L60.9599828,52.8445848 L60.9599828,17.6493833 L30.4800663,0.0517076167 Z M32.7745356,49.5795111 C32.0419361,49.1054496 31.6128378,48.3024079 31.626027,47.4308722 L31.7550713,30.6020663 C31.6384668,30.3748526 31.5392482,30.1347494 31.4584644,29.8820565 C30.4784177,26.8088256 30.8307789,24.0854079 32.4511007,22.2132924 C33.4638206,21.0430516 35.1755676,20.3963317 36.9189386,20.5259754 C38.472715,20.6413808 39.7851892,21.3720319 40.5200369,22.5307322 C40.950484,23.2095258 41.1841425,23.8441057 41.290855,24.4169361 C41.7551744,24.6216683 42.3639754,24.9455528 42.9747248,25.4307052 C44.1211351,26.3415086 45.5076486,28.0120393 45.6013219,30.797656 C45.720774,34.3427002 43.8679926,36.1683538 43.0657002,36.7885455 C42.9359066,36.8889631 42.8753563,36.9616536 42.8483784,37.0010713 C42.8828501,37.0503808 42.9640835,37.1400074 43.1201057,37.2444717 C44.120086,37.9132236 44.8958501,38.7438428 45.4258157,39.7130983 C46.1317371,41.00414 46.3755872,42.4990147 46.1503219,44.1560565 C45.878145,46.1582654 44.7023587,47.7514595 43.005,48.4178133 C41.2349509,49.1127936 39.146113,48.7139705 37.3688698,47.3547346 C37.0971425,48.0341278 36.5542875,49.1100958 35.2005971,49.7452752 C34.8599263,49.9051941 34.4969238,49.9843292 34.1354201,49.9843292 C33.661059,49.9843292 33.1895455,49.8480909 32.7745356,49.5795111 Z M17.9549828,48.4178133 C16.2576241,47.7514595 15.0818378,46.1582654 14.8098108,44.1560565 C14.5845455,42.4990147 14.8282457,41.00414 15.534317,39.7130983 C16.0642826,38.7438428 16.8400467,37.9132236 17.8398771,37.2444717 C17.9960491,37.1400074 18.0772826,37.0503808 18.1116044,37.0010713 C18.0846265,36.9616536 18.0240762,36.8889631 17.8942826,36.7885455 C17.09214,36.1683538 15.2392088,34.3427002 15.3586609,30.797656 C15.4523342,28.0120393 16.8388477,26.3415086 17.9854079,25.4307052 C18.5961572,24.9455528 19.2048084,24.6216683 19.6691278,24.4169361 C19.7758403,23.8441057 20.0094988,23.2095258 20.4400958,22.5307322 C21.1747936,21.3720319 22.4872678,20.6413808 24.0408943,20.5259754 C25.7839656,20.3966314 27.496312,21.0430516 28.5090319,22.2132924 C30.1293538,24.0854079 30.481715,26.8088256 29.5015184,29.8820565 C29.4208845,30.1347494 29.321516,30.3748526 29.2050614,30.6020663 L29.3339558,47.4308722 C29.3472948,48.3024079 28.9181966,49.1054496 28.1855971,49.5795111 C27.7704373,49.8480909 27.2989238,49.9843292 26.8247125,49.9843292 C26.4632088,49.9843292 26.1002064,49.9051941 25.7593857,49.7452752 C24.4058452,49.1100958 23.8626904,48.0341278 23.5912629,47.3547346 C22.3899975,48.2733317 21.046199,48.7532383 19.7550074,48.7532383 C19.135715,48.7532383 18.5287125,48.6429287 17.9549828,48.4178133 Z" id="Fill-7" fill="url(#linearGradient-3)" mask="url(#mask-7)"></path>
                </g>
            </g>
        </g>
    </g>
</svg>