<?xml version="1.0" encoding="UTF-8"?>
<svg width="40px" height="46px" viewBox="0 0 40 46" version="1.1" xmlns="http://www.w3.org/2000/svg" xmlns:xlink="http://www.w3.org/1999/xlink">
    <!-- Generator: Sketch 52.2 (67145) - http://www.bohemiancoding.com/sketch -->
    <title>手势识别_icon_slice</title>
    <desc>Created with Sketch.</desc>
    <defs>
        <path d="M18.8636855,0.399213759 L1.12314496,10.6416708 C0.428108108,11.0430467 0,11.78457 0,12.5871253 L0,33.0721376 C0,33.8746929 0.428108108,34.6163145 1.12314496,35.0174939 L18.8636855,45.2599509 C19.5588206,45.6613268 20.4150369,45.6613268 21.1100737,45.2599509 L38.8506143,35.0174939 C39.5456511,34.6163145 39.9737592,33.8746929 39.9737592,33.0721376 L39.9737592,12.5871253 C39.9737592,11.78457 39.5456511,11.0430467 38.8506143,10.6416708 L21.1100737,0.399213759 C20.7625553,0.198525799 20.374742,0.0981818182 19.9869287,0.0981818182 C19.5991155,0.0981818182 19.2113022,0.198525799 18.8636855,0.399213759 M16.3527273,22.4274201 L17.3085995,10.8500246 C17.3912531,9.9165602 18.1731695,9.20088452 19.1102703,9.20088452 L20.7062408,9.20088452 C21.4706634,9.20088452 22.1174447,9.76609337 22.2198526,10.5237346 L23.0650614,17.5634398 C23.1633415,18.2901229 23.7835872,18.8323342 24.5169533,18.8323342 L28.0553317,18.8323342 C29.4657494,18.8323342 30.5679607,20.0501229 30.4276167,21.4536609 L29.5532187,30.1962654 C29.4510074,31.2195577 28.6668305,32.0426536 27.6496314,32.1944963 L16.9406388,33.7925307 C15.9774939,33.9361179 15.0315479,33.4430467 14.5978378,32.5713022 L9.86997543,23.0671253 C9.31823096,21.9579361 9.76855037,20.6114988 10.8765602,20.0574939 C11.8418673,19.5748403 13.0140541,19.8467813 13.6680098,20.7053563 L15.2276167,22.7525307 C15.3578378,22.9233415 15.5411302,23.0007862 15.7222604,23.0007862 C16.0248649,23.0007862 16.3210811,22.7847666 16.3527273,22.4274201" id="path-1"></path>
        <linearGradient x1="21.4000678%" y1="15.8524016%" x2="78.6407078%" y2="84.196286%" id="linearGradient-3">
            <stop stop-color="#F48484" offset="0%"></stop>
            <stop stop-color="#B53F3F" offset="100%"></stop>
        </linearGradient>
    </defs>
    <g id="Symbols" stroke="none" stroke-width="1" fill="none" fill-rule="evenodd">
        <g id="画板" transform="translate(-475.000000, -24.000000)">
            <g id="手势识别-icon" transform="translate(475.000000, 24.000000)">
                <mask id="mask-2" fill="white">
                    <use xlink:href="#path-1"></use>
                </mask>
                <g id="Clip-2"></g>
                <path d="M18.8636855,0.399213759 L1.12314496,10.6416708 C0.428108108,11.0430467 0,11.78457 0,12.5871253 L0,33.0721376 C0,33.8746929 0.428108108,34.6163145 1.12314496,35.0174939 L18.8636855,45.2599509 C19.5588206,45.6613268 20.4150369,45.6613268 21.1100737,45.2599509 L38.8506143,35.0174939 C39.5456511,34.6163145 39.9737592,33.8746929 39.9737592,33.0721376 L39.9737592,12.5871253 C39.9737592,11.78457 39.5456511,11.0430467 38.8506143,10.6416708 L21.1100737,0.399213759 C20.7625553,0.198525799 20.374742,0.0981818182 19.9869287,0.0981818182 C19.5991155,0.0981818182 19.2113022,0.198525799 18.8636855,0.399213759 M16.3527273,22.4274201 L17.3085995,10.8500246 C17.3912531,9.9165602 18.1731695,9.20088452 19.1102703,9.20088452 L20.7062408,9.20088452 C21.4706634,9.20088452 22.1174447,9.76609337 22.2198526,10.5237346 L23.0650614,17.5634398 C23.1633415,18.2901229 23.7835872,18.8323342 24.5169533,18.8323342 L28.0553317,18.8323342 C29.4657494,18.8323342 30.5679607,20.0501229 30.4276167,21.4536609 L29.5532187,30.1962654 C29.4510074,31.2195577 28.6668305,32.0426536 27.6496314,32.1944963 L16.9406388,33.7925307 C15.9774939,33.9361179 15.0315479,33.4430467 14.5978378,32.5713022 L9.86997543,23.0671253 C9.31823096,21.9579361 9.76855037,20.6114988 10.8765602,20.0574939 C11.8418673,19.5748403 13.0140541,19.8467813 13.6680098,20.7053563 L15.2276167,22.7525307 C15.3578378,22.9233415 15.5411302,23.0007862 15.7222604,23.0007862 C16.0248649,23.0007862 16.3210811,22.7847666 16.3527273,22.4274201" id="Fill-1" fill="url(#linearGradient-3)" mask="url(#mask-2)"></path>
            </g>
        </g>
    </g>
</svg>