<?xml version="1.0" encoding="UTF-8"?>
<svg width="40px" height="46px" viewBox="0 0 40 46" version="1.1" xmlns="http://www.w3.org/2000/svg" xmlns:xlink="http://www.w3.org/1999/xlink">
    <!-- Generator: Sketch 52.2 (67145) - http://www.bohemiancoding.com/sketch -->
    <title>人工智能icon_slice</title>
    <desc>Created with Sketch.</desc>
    <defs>
        <path d="M0.392334152,0.673120393 L0.0251597052,3.73955774 C-0.0283046683,4.18574939 0.32019656,4.57847666 0.76963145,4.57847666 L2.73808354,4.57847666 C3.3012285,4.57847666 3.66329238,3.98083538 3.40265356,3.48167076 L1.80137592,0.415233415 C1.6572973,0.139361179 1.39921376,0.011990172 1.14250614,0.011990172 C0.791449631,0.011990172 0.442850123,0.25031941 0.392334152,0.673120393" id="path-1"></path>
        <linearGradient x1="-160.184103%" y1="-193.381741%" x2="486.067057%" y2="523.22942%" id="linearGradient-3">
            <stop stop-color="#BEDD00" offset="0%"></stop>
            <stop stop-color="#5EB080" offset="100%"></stop>
        </linearGradient>
        <path d="M18.8636855,0.341916462 L1.12314496,10.5844717 C0.428206388,10.9857494 0,11.7272727 0,12.529828 L0,33.0148403 C0,33.8172973 0.428206388,34.5590172 1.12314496,34.9601966 L18.8636855,45.2027518 C19.5588206,45.6040295 20.4150369,45.6040295 21.1100737,45.2027518 L38.8507125,34.9601966 C39.5456511,34.5590172 39.9737592,33.8172973 39.9737592,33.0148403 L39.9737592,12.529828 C39.9737592,11.7272727 39.5456511,10.9857494 38.8507125,10.5844717 L21.1100737,0.341916462 C20.7625553,0.141228501 20.374742,0.0408845209 19.9869287,0.0408845209 C19.5991155,0.0408845209 19.2113022,0.141228501 18.8636855,0.341916462 M7.79813268,30.9984275 L7.79813268,30.3688452 C7.79813268,29.9547912 8.13385749,29.6190663 8.54791155,29.6190663 L9.27498771,29.6190663 C9.65464373,29.6190663 9.97425061,29.3353317 10.0194595,28.9584275 L11.7844717,14.2168059 C11.8571007,13.6106143 12.1936118,13.073317 12.7076167,12.742801 C13.2106143,12.4194595 13.8228993,12.337199 14.387715,12.5174447 C14.9704177,12.7034889 15.4200491,13.1289435 15.6410811,13.697199 C15.6512039,13.7232432 15.6624079,13.7487961 15.6751843,13.7735627 L23.5261916,28.8079607 C23.7874201,29.3083047 24.3002457,29.6190663 24.86457,29.6190663 L26.1742506,29.6190663 C26.5883047,29.6190663 26.9239312,29.2832432 26.9239312,28.8691892 L26.9239312,15.46457 C26.9239312,15.050516 26.5883047,14.7148894 26.1742506,14.7148894 L23.7704177,14.7148894 C23.3563636,14.7148894 23.0207371,14.3790663 23.0207371,13.9650123 L23.0207371,13.1734644 C23.0207371,12.7594103 23.3563636,12.4237838 23.7704177,12.4237838 L31.4259459,12.4237838 C31.84,12.4237838 32.1757248,12.7594103 32.1757248,13.1734644 L32.1757248,13.9650123 C32.1757248,14.3790663 31.84,14.7148894 31.4259459,14.7148894 L29.8028501,14.7148894 C29.3887961,14.7148894 29.0530713,15.050516 29.0530713,15.46457 L29.0530713,28.8691892 C29.0530713,29.2832432 29.3887961,29.6190663 29.8028501,29.6190663 L31.4259459,29.6190663 C31.84,29.6190663 32.1757248,29.9547912 32.1757248,30.3688452 L32.1757248,30.9984275 C32.1757248,31.4125799 31.84,31.7481081 31.4259459,31.7481081 L25.3189189,31.7481081 C23.6843243,31.7481081 22.1851597,30.8397052 21.4285012,29.3907617 L18.4671253,23.7197052 C18.3377887,23.4722359 18.081769,23.3169533 17.8023587,23.3169533 L13.5046683,23.3169533 C13.1250123,23.3169533 12.8053071,23.600688 12.7601966,23.9775921 L12.185258,28.7800491 C12.1316953,29.2263391 12.4801966,29.6190663 12.9296314,29.6190663 L13.2859951,29.6190663 C13.7000491,29.6190663 14.0358722,29.9547912 14.0358722,30.3688452 L14.0358722,30.9984275 C14.0358722,31.4125799 13.7000491,31.7481081 13.2859951,31.7481081 L8.54791155,31.7481081 C8.13385749,31.7481081 7.79813268,31.4125799 7.79813268,30.9984275" id="path-4"></path>
        <linearGradient x1="21.2231785%" y1="16.1584066%" x2="80.5209435%" y2="85.8925038%" id="linearGradient-6">
            <stop stop-color="#BEDD00" offset="0%"></stop>
            <stop stop-color="#5EB080" offset="100%"></stop>
        </linearGradient>
    </defs>
    <g id="Symbols" stroke="none" stroke-width="1" fill="none" fill-rule="evenodd">
        <g id="画板" transform="translate(-1035.000000, -24.000000)">
            <g id="人工智能icon" transform="translate(1035.000000, 24.000000)">
                <g id="Group-3" transform="translate(13.169533, 16.666634)">
                    <mask id="mask-2" fill="white">
                        <use xlink:href="#path-1"></use>
                    </mask>
                    <g id="Clip-2"></g>
                    <path d="M0.392334152,0.673120393 L0.0251597052,3.73955774 C-0.0283046683,4.18574939 0.32019656,4.57847666 0.76963145,4.57847666 L2.73808354,4.57847666 C3.3012285,4.57847666 3.66329238,3.98083538 3.40265356,3.48167076 L1.80137592,0.415233415 C1.6572973,0.139361179 1.39921376,0.011990172 1.14250614,0.011990172 C0.791449631,0.011990172 0.442850123,0.25031941 0.392334152,0.673120393" id="Fill-1" fill="url(#linearGradient-3)" mask="url(#mask-2)"></path>
                </g>
                <g id="Group-6" transform="translate(0.000000, 0.057297)">
                    <mask id="mask-5" fill="white">
                        <use xlink:href="#path-4"></use>
                    </mask>
                    <g id="Clip-5"></g>
                    <path d="M18.8636855,0.341916462 L1.12314496,10.5844717 C0.428206388,10.9857494 0,11.7272727 0,12.529828 L0,33.0148403 C0,33.8172973 0.428206388,34.5590172 1.12314496,34.9601966 L18.8636855,45.2027518 C19.5588206,45.6040295 20.4150369,45.6040295 21.1100737,45.2027518 L38.8507125,34.9601966 C39.5456511,34.5590172 39.9737592,33.8172973 39.9737592,33.0148403 L39.9737592,12.529828 C39.9737592,11.7272727 39.5456511,10.9857494 38.8507125,10.5844717 L21.1100737,0.341916462 C20.7625553,0.141228501 20.374742,0.0408845209 19.9869287,0.0408845209 C19.5991155,0.0408845209 19.2113022,0.141228501 18.8636855,0.341916462 M7.79813268,30.9984275 L7.79813268,30.3688452 C7.79813268,29.9547912 8.13385749,29.6190663 8.54791155,29.6190663 L9.27498771,29.6190663 C9.65464373,29.6190663 9.97425061,29.3353317 10.0194595,28.9584275 L11.7844717,14.2168059 C11.8571007,13.6106143 12.1936118,13.073317 12.7076167,12.742801 C13.2106143,12.4194595 13.8228993,12.337199 14.387715,12.5174447 C14.9704177,12.7034889 15.4200491,13.1289435 15.6410811,13.697199 C15.6512039,13.7232432 15.6624079,13.7487961 15.6751843,13.7735627 L23.5261916,28.8079607 C23.7874201,29.3083047 24.3002457,29.6190663 24.86457,29.6190663 L26.1742506,29.6190663 C26.5883047,29.6190663 26.9239312,29.2832432 26.9239312,28.8691892 L26.9239312,15.46457 C26.9239312,15.050516 26.5883047,14.7148894 26.1742506,14.7148894 L23.7704177,14.7148894 C23.3563636,14.7148894 23.0207371,14.3790663 23.0207371,13.9650123 L23.0207371,13.1734644 C23.0207371,12.7594103 23.3563636,12.4237838 23.7704177,12.4237838 L31.4259459,12.4237838 C31.84,12.4237838 32.1757248,12.7594103 32.1757248,13.1734644 L32.1757248,13.9650123 C32.1757248,14.3790663 31.84,14.7148894 31.4259459,14.7148894 L29.8028501,14.7148894 C29.3887961,14.7148894 29.0530713,15.050516 29.0530713,15.46457 L29.0530713,28.8691892 C29.0530713,29.2832432 29.3887961,29.6190663 29.8028501,29.6190663 L31.4259459,29.6190663 C31.84,29.6190663 32.1757248,29.9547912 32.1757248,30.3688452 L32.1757248,30.9984275 C32.1757248,31.4125799 31.84,31.7481081 31.4259459,31.7481081 L25.3189189,31.7481081 C23.6843243,31.7481081 22.1851597,30.8397052 21.4285012,29.3907617 L18.4671253,23.7197052 C18.3377887,23.4722359 18.081769,23.3169533 17.8023587,23.3169533 L13.5046683,23.3169533 C13.1250123,23.3169533 12.8053071,23.600688 12.7601966,23.9775921 L12.185258,28.7800491 C12.1316953,29.2263391 12.4801966,29.6190663 12.9296314,29.6190663 L13.2859951,29.6190663 C13.7000491,29.6190663 14.0358722,29.9547912 14.0358722,30.3688452 L14.0358722,30.9984275 C14.0358722,31.4125799 13.7000491,31.7481081 13.2859951,31.7481081 L8.54791155,31.7481081 C8.13385749,31.7481081 7.79813268,31.4125799 7.79813268,30.9984275" id="Fill-4" fill="url(#linearGradient-6)" mask="url(#mask-5)"></path>
                </g>
            </g>
        </g>
    </g>
</svg>