<?xml version="1.0" encoding="UTF-8"?>
<svg width="61px" height="71px" viewBox="0 0 61 71" version="1.1" xmlns="http://www.w3.org/2000/svg" xmlns:xlink="http://www.w3.org/1999/xlink">
    <!-- Generator: Sketch 51 (57462) - http://www.bohemiancoding.com/sketch -->
    <title>group_7_slice</title>
    <desc>Created with Sketch.</desc>
    <defs>
        <path d="M0.022031941,5.00110074 C0.022031941,7.70038821 4.90937592,14.7756388 4.90937592,14.7756388 C4.90937592,14.7756388 9.79701966,7.70038821 9.79701966,5.00110074 C9.79701966,2.30181327 7.60881327,0.11360688 4.90937592,0.11360688 C2.21008845,0.11360688 0.022031941,2.30181327 0.022031941,5.00110074 M2.87659214,6.12652826 C2.87659214,5.00379853 3.78664619,4.09359459 4.90937592,4.09359459 C6.03225553,4.09359459 6.94245946,5.00379853 6.94245946,6.12652826 C6.94245946,7.24925799 6.03225553,8.15946192 4.90937592,8.15946192 C3.78664619,8.15946192 2.87659214,7.24925799 2.87659214,6.12652826" id="path-1"></path>
        <linearGradient x1="21.2231785%" y1="16.1584066%" x2="80.5209435%" y2="85.8925038%" id="linearGradient-3">
            <stop stop-color="#BEDD00" offset="0%"></stop>
            <stop stop-color="#00451D" offset="100%"></stop>
        </linearGradient>
        <path d="M30.4800663,0.0517076167 L0,17.6493833 L0,52.8445848 L30.4800663,70.4422604 L60.9599828,52.8445848 L60.9599828,17.6493833 L30.4800663,0.0517076167 Z M16.0668305,48.4587297 L16.0668305,28.2343071 C16.0668305,27.5529656 16.3568428,26.9039975 16.8644767,26.44957 L28.8778796,18.152371 C28.9610614,18.0951179 29.0392973,18.0312703 29.1185823,17.9687715 C29.9926658,17.2796364 31.2305012,17.2853317 32.0984398,17.9819607 C32.1775749,18.0456585 32.2559607,18.1105553 32.3391425,18.1691572 L44.1121425,26.4512187 C44.6097346,26.9050467 44.8931523,27.5474201 44.8931523,28.2208182 L44.8931523,48.4587297 C44.8931523,49.7816953 43.8207813,50.8540663 42.4979656,50.8540663 L30.6151057,50.8540663 L18.4620172,50.8540663 C17.1392015,50.8540663 16.0668305,49.7816953 16.0668305,48.4587297 Z" id="path-4"></path>
    </defs>
    <g id="Page-1" stroke="none" stroke-width="1" fill="none" fill-rule="evenodd">
        <g id="Artboard" transform="translate(-543.000000, -23.000000)">
            <g id="Group-7" transform="translate(543.000000, 23.000000)">
                <g id="Group-3" transform="translate(20.683047, 29.474091)">
                    <mask id="mask-2" fill="white">
                        <use xlink:href="#path-1"></use>
                    </mask>
                    <g id="Clip-2"></g>
                    <path d="M0.022031941,5.00110074 C0.022031941,7.70038821 4.90937592,14.7756388 4.90937592,14.7756388 C4.90937592,14.7756388 9.79701966,7.70038821 9.79701966,5.00110074 C9.79701966,2.30181327 7.60881327,0.11360688 4.90937592,0.11360688 C2.21008845,0.11360688 0.022031941,2.30181327 0.022031941,5.00110074 M2.87659214,6.12652826 C2.87659214,5.00379853 3.78664619,4.09359459 4.90937592,4.09359459 C6.03225553,4.09359459 6.94245946,5.00379853 6.94245946,6.12652826 C6.94245946,7.24925799 6.03225553,8.15946192 4.90937592,8.15946192 C3.78664619,8.15946192 2.87659214,7.24925799 2.87659214,6.12652826" id="Fill-1" fill="url(#linearGradient-3)" mask="url(#mask-2)"></path>
                </g>
                <g id="Group-6" transform="translate(0.000000, 0.098170)">
                    <mask id="mask-5" fill="white">
                        <use xlink:href="#path-4"></use>
                    </mask>
                    <g id="Clip-5"></g>
                    <path d="M30.4800663,0.0517076167 L0,17.6493833 L0,52.8445848 L30.4800663,70.4422604 L60.9599828,52.8445848 L60.9599828,17.6493833 L30.4800663,0.0517076167 Z M16.0668305,48.4587297 L16.0668305,28.2343071 C16.0668305,27.5529656 16.3568428,26.9039975 16.8644767,26.44957 L28.8778796,18.152371 C28.9610614,18.0951179 29.0392973,18.0312703 29.1185823,17.9687715 C29.9926658,17.2796364 31.2305012,17.2853317 32.0984398,17.9819607 C32.1775749,18.0456585 32.2559607,18.1105553 32.3391425,18.1691572 L44.1121425,26.4512187 C44.6097346,26.9050467 44.8931523,27.5474201 44.8931523,28.2208182 L44.8931523,48.4587297 C44.8931523,49.7816953 43.8207813,50.8540663 42.4979656,50.8540663 L30.6151057,50.8540663 L18.4620172,50.8540663 C17.1392015,50.8540663 16.0668305,49.7816953 16.0668305,48.4587297 Z" id="Fill-4" fill="url(#linearGradient-3)" mask="url(#mask-5)"></path>
                </g>
            </g>
        </g>
    </g>
</svg>