<?xml version="1.0" encoding="UTF-8"?>
<svg width="61px" height="71px" viewBox="0 0 61 71" version="1.1" xmlns="http://www.w3.org/2000/svg" xmlns:xlink="http://www.w3.org/1999/xlink">
    <!-- Generator: Sketch 51 (57462) - http://www.bohemiancoding.com/sketch -->
    <title>icon_slice</title>
    <desc>Created with Sketch.</desc>
    <defs>
        <linearGradient x1="27.1356301%" y1="12.9924076%" x2="80.5209397%" y2="85.8925038%" id="linearGradient-1">
            <stop stop-color="#00A0DD" offset="0%"></stop>
            <stop stop-color="#CD8CFF" offset="100%"></stop>
        </linearGradient>
    </defs>
    <g id="Page-1" stroke="none" stroke-width="1" fill="none" fill-rule="evenodd">
        <g id="Artboard" transform="translate(-214.000000, -23.000000)" fill="url(#linearGradient-1)">
            <g id="icon" transform="translate(214.000000, 23.000000)">
                <path d="M30.500075,0 L0,17.7500378 L0,53.2499622 L30.500075,71 L61,53.2499622 L61,17.7500378 L30.500075,0 Z M24.9542796,34.8814683 L26.4129417,17.0729259 C26.5390711,15.6372188 27.7322765,14.5362128 29.1622932,14.5362128 L31.5977459,14.5362128 C32.7642557,14.5362128 33.7512447,15.405619 33.9075192,16.5710255 L35.1973088,27.3995252 C35.3471344,28.5173116 36.2937799,29.351343 37.4128974,29.351343 L42.8124667,29.351343 C44.9647656,29.351343 46.6465913,31.2245499 46.4325762,33.3834772 L45.1745814,46.0635658 C44.9736141,48.0891569 43.4338153,49.7185189 41.4362911,50.0189032 L27.5298095,52.1105577 C25.0594124,52.4821454 22.6328083,51.2071372 21.5204397,48.9529697 L14.8613759,35.4597119 C14.1300952,33.9777454 14.7269978,32.1787653 16.1955583,31.4384623 L17.129306,30.9680063 C18.294016,30.3808434 19.7082853,30.711765 20.4973066,31.7559294 L23.2375096,35.3815545 C23.4360772,35.6442963 23.7159316,35.7632709 23.9921865,35.7632709 C24.4539612,35.7634221 24.9059875,35.4311399 24.9542796,34.8814683 Z" id="Fill-1"></path>
            </g>
        </g>
    </g>
</svg>