<?xml version="1.0" encoding="UTF-8"?>
<svg width="61px" height="71px" viewBox="0 0 61 71" version="1.1" xmlns="http://www.w3.org/2000/svg" xmlns:xlink="http://www.w3.org/1999/xlink">
    <!-- Generator: Sketch 51 (57462) - http://www.bohemiancoding.com/sketch -->
    <title>icon_slice</title>
    <desc>Created with Sketch.</desc>
    <defs>
        <linearGradient x1="50%" y1="0%" x2="50%" y2="100%" id="linearGradient-1">
            <stop stop-color="#EEEEEE" offset="0%"></stop>
            <stop stop-color="#D8D8D8" offset="100%"></stop>
        </linearGradient>
        <path d="M2.52183292,0.487250614 C-0.556943489,1.79432924 -0.176105651,4.91297297 0.936432432,9.85517199 C1.05348649,10.3753956 1.542086,10.727457 2.07220147,10.6711032 C4.20225553,10.4444889 6.26696314,9.6661769 7.36211548,8.74263391 C9.6747199,6.79273219 9.30332432,4.16133907 8.28266093,2.50040049 C7.46942752,1.17683538 6.02281327,0.110309582 4.30162408,0.110309582 C3.73388943,0.110309582 3.13662899,0.226314496 2.52183292,0.487250614" id="path-2"></path>
        <linearGradient x1="21.2231822%" y1="16.1584196%" x2="80.5209397%" y2="85.8925038%" id="linearGradient-4">
            <stop stop-color="#FFED03" offset="0%"></stop>
            <stop stop-color="#FD5900" offset="100%"></stop>
        </linearGradient>
        <path d="M30.4800663,0.0517076167 L0,17.6493833 L0,52.8445848 L30.4800663,70.4422604 L60.9599828,52.8445848 L60.9599828,17.6493833 L30.4800663,0.0517076167 Z M21.2101646,37.9292604 C22.6280025,37.8958378 22.9484398,32.7249263 23.1398329,29.6355086 C23.287312,27.2551597 23.439887,24.7935774 23.9082531,22.8767985 C24.5584201,20.2160295 25.8308771,18.7962432 27.6905528,18.6565577 C28.8210762,18.5717273 29.831398,18.8890172 30.6095602,19.5742555 C32.5031081,21.2411892 32.677715,24.5846486 32.8800491,28.4562752 C33.0227322,31.1853882 33.1699115,34.0075749 33.9666585,35.9105651 C33.9726536,35.9251032 33.9789484,35.9396413 33.9850934,35.9540295 C34.4744423,37.0897985 36.1785455,36.5827641 35.9864029,35.3611155 C35.7947101,34.1435135 35.6924939,32.9564865 35.7660835,31.8470958 C35.9589754,28.9445749 37.351484,26.9234816 39.9046413,25.8392703 C41.7304447,25.0641057 43.6323857,25.0200418 45.4051327,25.7111253 C46.9717985,26.3220246 48.3467715,27.4922654 49.277059,29.0060246 C50.2197862,30.5400172 50.640941,32.3219066 50.4627371,34.0228624 C50.2610025,35.9490835 49.3242703,37.6671253 47.7538575,38.9914398 C46.3635971,40.1634791 43.9534226,41.1637592 41.368941,41.5248133 C40.7881671,41.6058968 40.3839484,42.1480025 40.4770221,42.7271278 C40.9462875,45.6411892 40.9413415,48.4259066 39.3860663,50.6451376 C38.5209754,51.8795258 35.6595209,54.2992924 32.9653292,54.2992924 L32.9653292,54.2980934 C32.1717297,54.2980934 31.528457,53.6480762 31.528457,52.8460835 C31.528457,52.0440909 32.1717297,51.3939238 32.9653292,51.3939238 L32.9653292,51.3933243 C34.3449484,51.3933243 36.4114545,49.826059 37.006317,48.9773047 C38.1350418,47.3668747 37.9454472,44.8658747 37.4279214,42.1868206 C37.349086,41.7793047 37.0344939,41.4614152 36.6308747,41.3648943 C36.6238305,41.3633956 36.6169361,41.3615971 36.6098919,41.3599484 C34.0535872,40.7427543 32.2126462,39.2463808 31.2859558,37.0326953 C30.2942187,34.6635872 30.1335504,31.5851106 29.9779779,28.6079509 C29.8312482,25.7985037 29.6648845,22.6142138 28.6893342,21.7554177 C28.5550442,21.6371646 28.3567568,21.5205602 27.9078747,21.5544324 C27.3007224,21.5999951 26.9099926,22.834683 26.7313391,23.5663833 C26.3242727,25.2318182 26.179941,27.5618084 26.0402555,29.8152113 C25.8900786,32.2384251 25.7348059,34.7442211 25.246656,36.681683 C24.9506486,37.8561204 24.5522752,38.7507371 24.0287543,39.4172408 C23.3205848,40.318602 22.3697641,40.8088501 21.2789582,40.834629 C20.2358133,40.8611572 18.7962432,40.4852654 17.9073219,38.5620418 C17.4212703,37.5102039 17.192258,36.2016265 16.9708894,34.9362138 C16.5074693,32.2890835 16.1548084,31.1022064 15.2885184,31.0665356 C14.7275283,31.0431548 14.4703391,31.2303514 14.3083219,31.395516 C13.1097543,32.6182138 13.3567518,36.6520074 13.4754545,38.5905184 C13.513973,39.2215012 13.5473956,39.7666044 13.5463464,40.1922555 C13.5460467,40.9928993 12.8969287,41.6420172 12.0961351,41.6420172 C11.2950418,41.6420172 10.6459238,40.9927494 10.6459238,40.1918059 C10.6459238,40.1898575 10.6462236,40.188059 10.6462236,40.1859607 L10.6405283,40.1859607 C10.6411278,39.8523342 10.6104029,39.3497961 10.5747322,38.7681229 C10.3978771,35.876543 10.1303464,31.5065749 12.2328231,29.3612334 C13.0519017,28.5258182 14.1493022,28.1123071 15.4078206,28.1629656 C16.476145,28.2068796 17.9408943,28.6747961 18.8518477,30.6543735 C19.3678747,31.774855 19.6043808,33.1271966 19.8333931,34.4353243 C20.0225381,35.5169877 20.2184275,36.6356708 20.5453096,37.3430909 C20.7965037,37.8863956 20.9838501,37.9301597 21.1598059,37.9301597 C21.1765921,37.9301597 21.1933784,37.9297101 21.2101646,37.9292604 Z" id="path-5"></path>
    </defs>
    <g id="Page-1" stroke="none" stroke-width="1" fill="none" fill-rule="evenodd">
        <g id="Artboard" transform="translate(-543.000000, -23.000000)">
            <g id="icon" transform="translate(543.000000, 23.000000)">
                <g id="Group-3" transform="translate(38.518428, 28.125197)">
                    <mask id="mask-3" fill="white">
                        <use xlink:href="#path-2"></use>
                    </mask>
                    <use id="Clip-2" fill="url(#linearGradient-1)" xlink:href="#path-2"></use>
                    <path d="M2.52183292,0.487250614 C-0.556943489,1.79432924 -0.176105651,4.91297297 0.936432432,9.85517199 C1.05348649,10.3753956 1.542086,10.727457 2.07220147,10.6711032 C4.20225553,10.4444889 6.26696314,9.6661769 7.36211548,8.74263391 C9.6747199,6.79273219 9.30332432,4.16133907 8.28266093,2.50040049 C7.46942752,1.17683538 6.02281327,0.110309582 4.30162408,0.110309582 C3.73388943,0.110309582 3.13662899,0.226314496 2.52183292,0.487250614" id="Fill-1" fill="url(#linearGradient-4)" mask="url(#mask-3)"></path>
                </g>
                <g id="Group-6" transform="translate(0.000000, 0.098170)">
                    <mask id="mask-6" fill="white">
                        <use xlink:href="#path-5"></use>
                    </mask>
                    <g id="Clip-5"></g>
                    <path d="M30.4800663,0.0517076167 L0,17.6493833 L0,52.8445848 L30.4800663,70.4422604 L60.9599828,52.8445848 L60.9599828,17.6493833 L30.4800663,0.0517076167 Z M21.2101646,37.9292604 C22.6280025,37.8958378 22.9484398,32.7249263 23.1398329,29.6355086 C23.287312,27.2551597 23.439887,24.7935774 23.9082531,22.8767985 C24.5584201,20.2160295 25.8308771,18.7962432 27.6905528,18.6565577 C28.8210762,18.5717273 29.831398,18.8890172 30.6095602,19.5742555 C32.5031081,21.2411892 32.677715,24.5846486 32.8800491,28.4562752 C33.0227322,31.1853882 33.1699115,34.0075749 33.9666585,35.9105651 C33.9726536,35.9251032 33.9789484,35.9396413 33.9850934,35.9540295 C34.4744423,37.0897985 36.1785455,36.5827641 35.9864029,35.3611155 C35.7947101,34.1435135 35.6924939,32.9564865 35.7660835,31.8470958 C35.9589754,28.9445749 37.351484,26.9234816 39.9046413,25.8392703 C41.7304447,25.0641057 43.6323857,25.0200418 45.4051327,25.7111253 C46.9717985,26.3220246 48.3467715,27.4922654 49.277059,29.0060246 C50.2197862,30.5400172 50.640941,32.3219066 50.4627371,34.0228624 C50.2610025,35.9490835 49.3242703,37.6671253 47.7538575,38.9914398 C46.3635971,40.1634791 43.9534226,41.1637592 41.368941,41.5248133 C40.7881671,41.6058968 40.3839484,42.1480025 40.4770221,42.7271278 C40.9462875,45.6411892 40.9413415,48.4259066 39.3860663,50.6451376 C38.5209754,51.8795258 35.6595209,54.2992924 32.9653292,54.2992924 L32.9653292,54.2980934 C32.1717297,54.2980934 31.528457,53.6480762 31.528457,52.8460835 C31.528457,52.0440909 32.1717297,51.3939238 32.9653292,51.3939238 L32.9653292,51.3933243 C34.3449484,51.3933243 36.4114545,49.826059 37.006317,48.9773047 C38.1350418,47.3668747 37.9454472,44.8658747 37.4279214,42.1868206 C37.349086,41.7793047 37.0344939,41.4614152 36.6308747,41.3648943 C36.6238305,41.3633956 36.6169361,41.3615971 36.6098919,41.3599484 C34.0535872,40.7427543 32.2126462,39.2463808 31.2859558,37.0326953 C30.2942187,34.6635872 30.1335504,31.5851106 29.9779779,28.6079509 C29.8312482,25.7985037 29.6648845,22.6142138 28.6893342,21.7554177 C28.5550442,21.6371646 28.3567568,21.5205602 27.9078747,21.5544324 C27.3007224,21.5999951 26.9099926,22.834683 26.7313391,23.5663833 C26.3242727,25.2318182 26.179941,27.5618084 26.0402555,29.8152113 C25.8900786,32.2384251 25.7348059,34.7442211 25.246656,36.681683 C24.9506486,37.8561204 24.5522752,38.7507371 24.0287543,39.4172408 C23.3205848,40.318602 22.3697641,40.8088501 21.2789582,40.834629 C20.2358133,40.8611572 18.7962432,40.4852654 17.9073219,38.5620418 C17.4212703,37.5102039 17.192258,36.2016265 16.9708894,34.9362138 C16.5074693,32.2890835 16.1548084,31.1022064 15.2885184,31.0665356 C14.7275283,31.0431548 14.4703391,31.2303514 14.3083219,31.395516 C13.1097543,32.6182138 13.3567518,36.6520074 13.4754545,38.5905184 C13.513973,39.2215012 13.5473956,39.7666044 13.5463464,40.1922555 C13.5460467,40.9928993 12.8969287,41.6420172 12.0961351,41.6420172 C11.2950418,41.6420172 10.6459238,40.9927494 10.6459238,40.1918059 C10.6459238,40.1898575 10.6462236,40.188059 10.6462236,40.1859607 L10.6405283,40.1859607 C10.6411278,39.8523342 10.6104029,39.3497961 10.5747322,38.7681229 C10.3978771,35.876543 10.1303464,31.5065749 12.2328231,29.3612334 C13.0519017,28.5258182 14.1493022,28.1123071 15.4078206,28.1629656 C16.476145,28.2068796 17.9408943,28.6747961 18.8518477,30.6543735 C19.3678747,31.774855 19.6043808,33.1271966 19.8333931,34.4353243 C20.0225381,35.5169877 20.2184275,36.6356708 20.5453096,37.3430909 C20.7965037,37.8863956 20.9838501,37.9301597 21.1598059,37.9301597 C21.1765921,37.9301597 21.1933784,37.9297101 21.2101646,37.9292604 Z" id="Fill-4" fill="url(#linearGradient-4)" mask="url(#mask-6)"></path>
                </g>
            </g>
        </g>
    </g>
</svg>