<?xml version="1.0" encoding="UTF-8"?>
<svg width="61px" height="71px" viewBox="0 0 61 71" version="1.1" xmlns="http://www.w3.org/2000/svg" xmlns:xlink="http://www.w3.org/1999/xlink">
    <!-- Generator: Sketch 51 (57462) - http://www.bohemiancoding.com/sketch -->
    <title>人工智能icon_slice</title>
    <desc>Created with Sketch.</desc>
    <defs>
        <path d="M30.4800663,-5.68434189e-14 L0,17.5976757 L0,52.7928771 L30.4800663,70.3905528 L60.9599828,52.7928771 L60.9599828,17.5976757 L30.4800663,-5.68434189e-14 Z M36.3114865,20.4564324 L41.8894644,20.4564324 C44.1614521,20.4564324 46.0100369,22.3048673 46.0100369,24.5770049 L46.0100369,47.395801 C46.0100369,49.6679386 44.1614521,51.5162236 41.8894644,51.5162236 L26.0685823,51.5162236 L26.0685823,49.0991548 L41.8894644,49.0991548 C42.8285946,49.0991548 43.5928182,48.3350811 43.5928182,47.395801 L43.5928182,36.1374791 L39.3327101,36.1374791 L39.3327101,43.9628649 L40.1182162,43.9628649 L40.1182162,41.1228428 L42.2331327,41.1228428 L42.2331327,44.1638501 C42.2331327,45.219285 41.3746364,46.0777813 40.3192015,46.0777813 L23.3495111,46.0777813 L23.3495111,43.9628649 L37.2177936,43.9628649 L37.2177936,35.9364939 C37.2177936,34.881059 38.0762899,34.0224128 39.1317248,34.0224128 L43.5928182,34.0224128 L43.5928182,24.5770049 C43.5928182,23.6377248 42.8285946,22.8736511 41.8894644,22.8736511 L40.2391671,22.8736511 L40.2391671,27.6974472 C40.2391671,28.7527322 39.3805209,29.6113784 38.3252359,29.6113784 L35.3594668,29.6113784 L35.3594668,38.3929803 C35.3594668,39.4484152 34.5009705,40.3069115 33.4455356,40.3069115 L23.1077592,40.3069115 L23.1077592,38.1919951 L33.2445504,38.1919951 L33.2445504,29.6113784 L24.1652924,29.6113784 L24.1652924,32.4816757 L22.0503759,32.4816757 L22.0503759,29.4102432 C22.0503759,28.3549582 22.9090221,27.4964619 23.9643071,27.4964619 L38.1242506,27.4964619 L38.1242506,22.8736511 L36.3114865,22.8736511 L36.3114865,20.4564324 Z M14.9502457,47.395801 L14.9502457,24.5770049 C14.9502457,22.3048673 16.7985307,20.4564324 19.0706683,20.4564324 L34.3020835,20.4564324 L34.3020835,22.8736511 L19.0706683,22.8736511 C18.1313882,22.8736511 17.3671646,23.6377248 17.3671646,24.5770049 L17.3671646,34.0224128 L26.824113,34.0224128 L26.824113,32.1795233 L28.9391794,32.1795233 L28.9391794,34.223398 C28.9391794,35.2788329 28.0805332,36.1374791 27.0252482,36.1374791 L17.3671646,36.1374791 L17.3671646,47.395801 C17.3671646,48.3350811 18.1313882,49.0991548 19.0706683,49.0991548 L23.8934152,49.0991548 L23.8934152,51.5162236 L19.0706683,51.5162236 C16.7985307,51.5162236 14.9502457,49.6679386 14.9502457,47.395801 Z M18.7268501,45.020398 L20.8417666,45.020398 L20.8417666,39.2493784 L18.7268501,39.2493784 L18.7268501,45.020398 Z" id="path-1"></path>
        <linearGradient x1="21.4070719%" y1="13.7594315%" x2="77.8227992%" y2="85.2643676%" id="linearGradient-3">
            <stop stop-color="#00E080" offset="0%"></stop>
            <stop stop-color="#1A7B26" offset="100%"></stop>
        </linearGradient>
    </defs>
    <g id="Page-1" stroke="none" stroke-width="1" fill="none" fill-rule="evenodd">
        <g id="Artboard" transform="translate(-212.000000, -22.000000)">
            <g id="人工智能icon" transform="translate(212.000000, 22.000000)">
                <mask id="mask-2" fill="white">
                    <use xlink:href="#path-1"></use>
                </mask>
                <g id="Clip-2"></g>
                <path d="M30.4800663,-5.68434189e-14 L0,17.5976757 L0,52.7928771 L30.4800663,70.3905528 L60.9599828,52.7928771 L60.9599828,17.5976757 L30.4800663,-5.68434189e-14 Z M36.3114865,20.4564324 L41.8894644,20.4564324 C44.1614521,20.4564324 46.0100369,22.3048673 46.0100369,24.5770049 L46.0100369,47.395801 C46.0100369,49.6679386 44.1614521,51.5162236 41.8894644,51.5162236 L26.0685823,51.5162236 L26.0685823,49.0991548 L41.8894644,49.0991548 C42.8285946,49.0991548 43.5928182,48.3350811 43.5928182,47.395801 L43.5928182,36.1374791 L39.3327101,36.1374791 L39.3327101,43.9628649 L40.1182162,43.9628649 L40.1182162,41.1228428 L42.2331327,41.1228428 L42.2331327,44.1638501 C42.2331327,45.219285 41.3746364,46.0777813 40.3192015,46.0777813 L23.3495111,46.0777813 L23.3495111,43.9628649 L37.2177936,43.9628649 L37.2177936,35.9364939 C37.2177936,34.881059 38.0762899,34.0224128 39.1317248,34.0224128 L43.5928182,34.0224128 L43.5928182,24.5770049 C43.5928182,23.6377248 42.8285946,22.8736511 41.8894644,22.8736511 L40.2391671,22.8736511 L40.2391671,27.6974472 C40.2391671,28.7527322 39.3805209,29.6113784 38.3252359,29.6113784 L35.3594668,29.6113784 L35.3594668,38.3929803 C35.3594668,39.4484152 34.5009705,40.3069115 33.4455356,40.3069115 L23.1077592,40.3069115 L23.1077592,38.1919951 L33.2445504,38.1919951 L33.2445504,29.6113784 L24.1652924,29.6113784 L24.1652924,32.4816757 L22.0503759,32.4816757 L22.0503759,29.4102432 C22.0503759,28.3549582 22.9090221,27.4964619 23.9643071,27.4964619 L38.1242506,27.4964619 L38.1242506,22.8736511 L36.3114865,22.8736511 L36.3114865,20.4564324 Z M14.9502457,47.395801 L14.9502457,24.5770049 C14.9502457,22.3048673 16.7985307,20.4564324 19.0706683,20.4564324 L34.3020835,20.4564324 L34.3020835,22.8736511 L19.0706683,22.8736511 C18.1313882,22.8736511 17.3671646,23.6377248 17.3671646,24.5770049 L17.3671646,34.0224128 L26.824113,34.0224128 L26.824113,32.1795233 L28.9391794,32.1795233 L28.9391794,34.223398 C28.9391794,35.2788329 28.0805332,36.1374791 27.0252482,36.1374791 L17.3671646,36.1374791 L17.3671646,47.395801 C17.3671646,48.3350811 18.1313882,49.0991548 19.0706683,49.0991548 L23.8934152,49.0991548 L23.8934152,51.5162236 L19.0706683,51.5162236 C16.7985307,51.5162236 14.9502457,49.6679386 14.9502457,47.395801 Z M18.7268501,45.020398 L20.8417666,45.020398 L20.8417666,39.2493784 L18.7268501,39.2493784 L18.7268501,45.020398 Z" id="Fill-1" fill="url(#linearGradient-3)" mask="url(#mask-2)"></path>
            </g>
        </g>
    </g>
</svg>