<?xml version="1.0" encoding="UTF-8"?>
<svg width="40px" height="46px" viewBox="0 0 40 46" version="1.1" xmlns="http://www.w3.org/2000/svg" xmlns:xlink="http://www.w3.org/1999/xlink">
    <!-- Generator: Sketch 52.2 (67145) - http://www.bohemiancoding.com/sketch -->
    <title>语音识别_slice</title>
    <desc>Created with Sketch.</desc>
    <defs>
        <path d="M18.8636855,0.40345952 L1.12314496,10.7548482 C0.428108108,11.1604929 0,11.9098032 0,12.7209933 L0,33.4238699 C0,34.2349606 0.428108108,34.9843703 1.12314496,35.3899157 L18.8636855,45.7414037 C19.5587224,46.146949 20.4150369,46.146949 21.1100737,45.7414037 L38.8506143,35.3899157 C39.5455528,34.9843703 39.9737592,34.2349606 39.9737592,33.4238699 L39.9737592,12.7209933 C39.9737592,11.9098032 39.5455528,11.1604929 38.8506143,10.7548482 L21.1100737,0.40345952 C20.7625553,0.200637181 20.374742,0.099226012 19.9868305,0.099226012 C19.5990172,0.099226012 19.2112039,0.200637181 18.8636855,0.40345952 M14.4832432,17.1066042 L14.4832432,15.6002361 C14.4832432,12.5283021 16.9472236,10.0380172 19.9869287,10.0380172 C23.0264373,10.0380172 25.490516,12.5283021 25.490516,15.6002361 L25.490516,17.1057103 C25.490516,17.261651 25.3654054,17.3880922 25.2110074,17.3880922 L14.761769,17.3880922 C14.6079607,17.3880922 14.4832432,17.2620484 14.4832432,17.1066042 M14.4832432,23.7450131 L14.4832432,18.1496196 L25.2115971,18.1335289 C25.365602,18.1332309 25.490516,18.2593741 25.490516,18.4150169 L25.490516,23.7450131 C25.490516,26.8168478 23.0264373,29.307232 19.9869287,29.307232 C16.9472236,29.307232 14.4832432,26.8168478 14.4832432,23.7450131 M26.5715971,23.8534764 L26.5715971,18.1335289 L27.7515479,18.1335289 L27.7515479,23.6786638 C27.7515479,27.7950037 24.6148403,31.1686882 20.6257494,31.4973557 L20.6257494,34.3644809 L24.6060934,34.3644809 L24.6060934,35.6557103 L15.3677641,35.6557103 L15.3677641,34.3644809 L19.3481081,34.3644809 L19.3481081,31.4973557 C15.3588206,31.1686882 12.222113,27.7950037 12.222113,23.6786638 L12.222113,18.1335289 L13.4020639,18.1335289 L13.4020639,23.7576274 C13.4020639,27.3314524 16.1531204,30.3424007 19.685602,30.5015199 C19.7862408,30.5060888 19.8871744,30.5083733 19.9868305,30.5083733 C23.6237838,30.5086713 26.5715971,27.5291098 26.5715971,23.8534764" id="path-1"></path>
        <linearGradient x1="7.17182442%" y1="-7.94887124%" x2="91.1943361%" y2="100%" id="linearGradient-3">
            <stop stop-color="#B7DE82" offset="0%"></stop>
            <stop stop-color="#34C8B1" offset="100%"></stop>
        </linearGradient>
    </defs>
    <g id="Symbols" stroke="none" stroke-width="1" fill="none" fill-rule="evenodd">
        <g id="画板" transform="translate(-194.000000, -24.000000)">
            <g id="语音识别" transform="translate(194.000000, 24.000000)">
                <mask id="mask-2" fill="white">
                    <use xlink:href="#path-1"></use>
                </mask>
                <g id="Clip-2"></g>
                <path d="M18.8636855,0.40345952 L1.12314496,10.7548482 C0.428108108,11.1604929 0,11.9098032 0,12.7209933 L0,33.4238699 C0,34.2349606 0.428108108,34.9843703 1.12314496,35.3899157 L18.8636855,45.7414037 C19.5587224,46.146949 20.4150369,46.146949 21.1100737,45.7414037 L38.8506143,35.3899157 C39.5455528,34.9843703 39.9737592,34.2349606 39.9737592,33.4238699 L39.9737592,12.7209933 C39.9737592,11.9098032 39.5455528,11.1604929 38.8506143,10.7548482 L21.1100737,0.40345952 C20.7625553,0.200637181 20.374742,0.099226012 19.9868305,0.099226012 C19.5990172,0.099226012 19.2112039,0.200637181 18.8636855,0.40345952 M14.4832432,17.1066042 L14.4832432,15.6002361 C14.4832432,12.5283021 16.9472236,10.0380172 19.9869287,10.0380172 C23.0264373,10.0380172 25.490516,12.5283021 25.490516,15.6002361 L25.490516,17.1057103 C25.490516,17.261651 25.3654054,17.3880922 25.2110074,17.3880922 L14.761769,17.3880922 C14.6079607,17.3880922 14.4832432,17.2620484 14.4832432,17.1066042 M14.4832432,23.7450131 L14.4832432,18.1496196 L25.2115971,18.1335289 C25.365602,18.1332309 25.490516,18.2593741 25.490516,18.4150169 L25.490516,23.7450131 C25.490516,26.8168478 23.0264373,29.307232 19.9869287,29.307232 C16.9472236,29.307232 14.4832432,26.8168478 14.4832432,23.7450131 M26.5715971,23.8534764 L26.5715971,18.1335289 L27.7515479,18.1335289 L27.7515479,23.6786638 C27.7515479,27.7950037 24.6148403,31.1686882 20.6257494,31.4973557 L20.6257494,34.3644809 L24.6060934,34.3644809 L24.6060934,35.6557103 L15.3677641,35.6557103 L15.3677641,34.3644809 L19.3481081,34.3644809 L19.3481081,31.4973557 C15.3588206,31.1686882 12.222113,27.7950037 12.222113,23.6786638 L12.222113,18.1335289 L13.4020639,18.1335289 L13.4020639,23.7576274 C13.4020639,27.3314524 16.1531204,30.3424007 19.685602,30.5015199 C19.7862408,30.5060888 19.8871744,30.5083733 19.9868305,30.5083733 C23.6237838,30.5086713 26.5715971,27.5291098 26.5715971,23.8534764" id="Fill-1" fill="url(#linearGradient-3)" mask="url(#mask-2)"></path>
            </g>
        </g>
    </g>
</svg>