<?xml version="1.0" encoding="UTF-8"?>
<svg width="61px" height="71px" viewBox="0 0 61 71" version="1.1" xmlns="http://www.w3.org/2000/svg" xmlns:xlink="http://www.w3.org/1999/xlink">
    <!-- Generator: Sketch 51 (57462) - http://www.bohemiancoding.com/sketch -->
    <title>神经网络icon_slice</title>
    <desc>Created with Sketch.</desc>
    <defs>
        <path d="M30.4800663,-5.68434189e-14 L0,17.5976757 L0,52.7928771 L30.4800663,70.3905528 L60.9599828,52.7928771 L60.9599828,17.5976757 L30.4800663,-5.68434189e-14 Z M11.4889828,43.8642457 C11.4889828,43.8135872 11.4927297,43.7639779 11.499774,43.7152678 L11.499774,27.3824054 C11.499774,26.4294865 12.1229631,25.643231 13.0507027,25.4259091 C13.9782924,25.2084373 14.8860983,25.635887 15.3095012,26.4894373 L23.3818845,42.7651966 L23.3818845,27.739113 C23.3818845,26.7842457 24.0338501,25.9764079 24.967285,25.774973 C25.9008698,25.5735381 26.8280098,26.0402555 27.2220369,26.9102924 L34.2310418,42.3875061 L34.2310418,27.0080123 C34.2239975,26.9593022 34.2202506,26.909543 34.2202506,26.8587346 C34.2202506,26.2823071 34.6875676,25.8148403 35.2642948,25.8148403 C35.8407224,25.8148403 36.3081892,26.2823071 36.3081892,26.8587346 C36.3081892,26.909543 36.3044423,26.9591523 36.297398,27.0078624 L36.297398,42.6512899 C36.297398,43.6063071 35.6454324,44.414145 34.7119975,44.6155799 C33.7785627,44.8170147 32.8514226,44.3502973 32.4573956,43.4804103 L25.4485405,28.0030467 L25.4485405,43.0082973 C25.4485405,43.9610663 24.8252015,44.7473219 23.8976118,44.9646437 C23.736344,45.0024128 23.5756757,45.0208477 23.4183047,45.0208477 C22.6689189,45.0208477 21.9884767,44.6064373 21.6385135,43.9011155 L13.5661302,27.6253563 L13.5661302,43.7152678 C13.5731744,43.7639779 13.5769214,43.8137371 13.5769214,43.8642457 C13.5769214,44.4408231 13.1094545,44.9082899 12.5328771,44.9082899 C11.9562998,44.9082899 11.4889828,44.4408231 11.4889828,43.8642457 Z M47.3967002,39.5906486 C47.3967002,37.7368182 45.8884865,36.2286044 44.034656,36.2286044 C42.5976339,36.2286044 41.2431941,35.6725602 40.2205823,34.6631376 C39.1993194,33.6546143 38.6260393,32.309317 38.6065553,30.8748428 C38.5866216,29.4045479 39.153457,28.0171351 40.2024472,26.9678452 C41.2515872,25.9187052 42.6404988,25.3533686 44.1095946,25.3719533 C45.543769,25.3912875 46.8892162,25.9645676 47.8977396,26.9861302 C48.8945725,27.9957027 49.4486683,29.3293096 49.462457,30.7459484 C49.4680025,30.7894128 49.4711499,30.8336265 49.4711499,30.8785897 C49.4711499,31.4551671 49.003683,31.9226339 48.4272555,31.9226339 C47.8506781,31.9226339 47.3832113,31.4551671 47.3832113,30.8785897 C47.3832113,30.825683 47.387258,30.7739754 47.3947518,30.7231671 C47.3536855,28.9291376 45.8836904,27.4625897 44.0812678,27.4381597 C43.1737617,27.4260197 42.3151155,27.7777813 41.6637494,28.4291474 C41.0125332,29.0803636 40.6604717,29.9390098 40.6727617,30.8468157 C40.6976413,32.6747174 42.2057052,34.1620983 44.034656,34.1620983 C47.0278526,34.1620983 49.4632064,36.5973022 49.4632064,39.5906486 C49.4632064,42.5838452 47.0278526,45.019199 44.034656,45.019199 C41.0973636,45.019199 38.6978305,42.674371 38.6088034,39.7583612 C38.5999607,39.7038059 38.5951646,39.6477518 38.5951646,39.5906486 C38.5951646,39.0140713 39.0626314,38.5466044 39.6392088,38.5466044 C40.2157862,38.5466044 40.6832531,39.0140713 40.6832531,39.5906486 C40.6832531,39.6326143 40.6805553,39.6741302 40.6756093,39.7147469 C40.7412555,41.5113243 42.2224914,42.9526929 44.034656,42.9526929 C45.8884865,42.9526929 47.3967002,41.4444791 47.3967002,39.5906486 Z" id="path-1"></path>
        <linearGradient x1="21.4070926%" y1="13.7594185%" x2="77.8228386%" y2="85.2643741%" id="linearGradient-3">
            <stop stop-color="#FF6DB6" offset="0%"></stop>
            <stop stop-color="#C30000" offset="100%"></stop>
        </linearGradient>
    </defs>
    <g id="Page-1" stroke="none" stroke-width="1" fill="none" fill-rule="evenodd">
        <g id="Artboard" transform="translate(-214.000000, -23.000000)">
            <g id="神经网络icon" transform="translate(214.000000, 23.000000)">
                <mask id="mask-2" fill="white">
                    <use xlink:href="#path-1"></use>
                </mask>
                <g id="Clip-2"></g>
                <path d="M30.4800663,-5.68434189e-14 L0,17.5976757 L0,52.7928771 L30.4800663,70.3905528 L60.9599828,52.7928771 L60.9599828,17.5976757 L30.4800663,-5.68434189e-14 Z M11.4889828,43.8642457 C11.4889828,43.8135872 11.4927297,43.7639779 11.499774,43.7152678 L11.499774,27.3824054 C11.499774,26.4294865 12.1229631,25.643231 13.0507027,25.4259091 C13.9782924,25.2084373 14.8860983,25.635887 15.3095012,26.4894373 L23.3818845,42.7651966 L23.3818845,27.739113 C23.3818845,26.7842457 24.0338501,25.9764079 24.967285,25.774973 C25.9008698,25.5735381 26.8280098,26.0402555 27.2220369,26.9102924 L34.2310418,42.3875061 L34.2310418,27.0080123 C34.2239975,26.9593022 34.2202506,26.909543 34.2202506,26.8587346 C34.2202506,26.2823071 34.6875676,25.8148403 35.2642948,25.8148403 C35.8407224,25.8148403 36.3081892,26.2823071 36.3081892,26.8587346 C36.3081892,26.909543 36.3044423,26.9591523 36.297398,27.0078624 L36.297398,42.6512899 C36.297398,43.6063071 35.6454324,44.414145 34.7119975,44.6155799 C33.7785627,44.8170147 32.8514226,44.3502973 32.4573956,43.4804103 L25.4485405,28.0030467 L25.4485405,43.0082973 C25.4485405,43.9610663 24.8252015,44.7473219 23.8976118,44.9646437 C23.736344,45.0024128 23.5756757,45.0208477 23.4183047,45.0208477 C22.6689189,45.0208477 21.9884767,44.6064373 21.6385135,43.9011155 L13.5661302,27.6253563 L13.5661302,43.7152678 C13.5731744,43.7639779 13.5769214,43.8137371 13.5769214,43.8642457 C13.5769214,44.4408231 13.1094545,44.9082899 12.5328771,44.9082899 C11.9562998,44.9082899 11.4889828,44.4408231 11.4889828,43.8642457 Z M47.3967002,39.5906486 C47.3967002,37.7368182 45.8884865,36.2286044 44.034656,36.2286044 C42.5976339,36.2286044 41.2431941,35.6725602 40.2205823,34.6631376 C39.1993194,33.6546143 38.6260393,32.309317 38.6065553,30.8748428 C38.5866216,29.4045479 39.153457,28.0171351 40.2024472,26.9678452 C41.2515872,25.9187052 42.6404988,25.3533686 44.1095946,25.3719533 C45.543769,25.3912875 46.8892162,25.9645676 47.8977396,26.9861302 C48.8945725,27.9957027 49.4486683,29.3293096 49.462457,30.7459484 C49.4680025,30.7894128 49.4711499,30.8336265 49.4711499,30.8785897 C49.4711499,31.4551671 49.003683,31.9226339 48.4272555,31.9226339 C47.8506781,31.9226339 47.3832113,31.4551671 47.3832113,30.8785897 C47.3832113,30.825683 47.387258,30.7739754 47.3947518,30.7231671 C47.3536855,28.9291376 45.8836904,27.4625897 44.0812678,27.4381597 C43.1737617,27.4260197 42.3151155,27.7777813 41.6637494,28.4291474 C41.0125332,29.0803636 40.6604717,29.9390098 40.6727617,30.8468157 C40.6976413,32.6747174 42.2057052,34.1620983 44.034656,34.1620983 C47.0278526,34.1620983 49.4632064,36.5973022 49.4632064,39.5906486 C49.4632064,42.5838452 47.0278526,45.019199 44.034656,45.019199 C41.0973636,45.019199 38.6978305,42.674371 38.6088034,39.7583612 C38.5999607,39.7038059 38.5951646,39.6477518 38.5951646,39.5906486 C38.5951646,39.0140713 39.0626314,38.5466044 39.6392088,38.5466044 C40.2157862,38.5466044 40.6832531,39.0140713 40.6832531,39.5906486 C40.6832531,39.6326143 40.6805553,39.6741302 40.6756093,39.7147469 C40.7412555,41.5113243 42.2224914,42.9526929 44.034656,42.9526929 C45.8884865,42.9526929 47.3967002,41.4444791 47.3967002,39.5906486 Z" id="Fill-1" fill="url(#linearGradient-3)" mask="url(#mask-2)"></path>
            </g>
        </g>
    </g>
</svg>