<?xml version="1.0" encoding="UTF-8"?>
<svg width="89px" height="89px" viewBox="0 0 89 89" version="1.1" xmlns="http://www.w3.org/2000/svg" xmlns:xlink="http://www.w3.org/1999/xlink">
    <!-- Generator: Sketch 51 (57462) - http://www.bohemiancoding.com/sketch -->
    <title>虚拟现实_icon_slice</title>
    <desc>Created with Sketch.</desc>
    <defs>
        <polygon id="path-1" points="0 0.0330940171 88.9663778 0.0330940171 88.9663778 87.9999248 0 87.9999248"></polygon>
        <polygon id="path-3" points="0 88 89 88 89 0 0 0"></polygon>
    </defs>
    <g id="Page-1" stroke="none" stroke-width="1" fill="none" fill-rule="evenodd">
        <g id="Artboard">
            <g id="虚拟现实-icon">
                <g id="Group-3" transform="translate(0.000000, 1.000000)">
                    <mask id="mask-2" fill="white">
                        <use xlink:href="#path-1"></use>
                    </mask>
                    <g id="Clip-2"></g>
                    <path d="M44.4831128,1.2936 C38.6501897,1.2936 32.9914632,2.4233094 27.6643949,4.65113846 C22.5191299,6.80224957 17.8987368,9.88300171 13.9302496,13.8068991 C9.96176239,17.7307966 6.84600171,22.3000274 4.66968547,27.3867282 C2.41654017,32.6539419 1.27475385,38.2490872 1.27475385,44.0164718 C1.27475385,49.7846085 2.41654017,55.3790017 4.66968547,60.6462154 C6.84600171,65.7336684 9.96176239,70.3028991 13.9302496,74.2267966 C17.8987368,78.150694 22.5191299,81.230694 27.6643949,83.3825573 C32.9914632,85.6103863 38.6501897,86.7393436 44.4831128,86.7393436 C50.3167966,86.7393436 55.9747624,85.6103863 61.3018308,83.3825573 C66.4470957,81.230694 71.0674889,78.150694 75.0359761,74.2267966 C79.0044632,70.3028991 82.1202239,65.7336684 84.2965402,60.6462154 C86.5496855,55.3790017 87.6914718,49.7846085 87.6914718,44.0164718 C87.6914718,38.2490872 86.5496855,32.6539419 84.2965402,27.3867282 C82.1202239,22.3000274 79.0044632,17.7307966 75.0359761,13.8068991 C71.0674889,9.88300171 66.4470957,6.80224957 61.3018308,4.65113846 C55.9747624,2.4233094 50.3167966,1.2936 44.4831128,1.2936 M44.4831128,87.9999248 C38.4782752,87.9999248 32.652959,86.8363692 27.1684291,84.5438564 C21.8710274,82.3280615 17.1137111,79.1563009 13.0288393,75.1173265 C8.94396752,71.0783521 5.7361641,66.3744889 3.49595043,61.1366085 C1.17662564,55.7137026 -0.000152136752,49.9538393 -0.000152136752,44.0164718 C-0.000152136752,38.0791043 1.17662564,32.319241 3.49595043,26.896335 C5.7361641,21.6584547 8.94396752,16.9545915 13.0288393,12.9156171 C17.1137111,8.87664274 21.8710274,5.70488205 27.1684291,3.48983932 C32.652959,1.19657436 38.4782752,0.0330188034 44.4831128,0.0330188034 C50.4879504,0.0330188034 56.3132667,1.19657436 61.7977966,3.48983932 C67.0951983,5.70488205 71.8525145,8.87664274 75.9373863,12.9156171 C80.0222581,16.9545915 83.2300615,21.6584547 85.4702752,26.896335 C87.7903607,32.319241 88.9663778,38.0791043 88.9663778,44.0164718 C88.9663778,49.9538393 87.7903607,55.7137026 85.4702752,61.1366085 C83.2300615,66.3744889 80.0222581,71.0783521 75.9373863,75.1173265 C71.8525145,79.1563009 67.0951983,82.3280615 61.7977966,84.5438564 C56.3132667,86.8363692 50.4879504,87.9999248 44.4831128,87.9999248" id="Fill-1" fill="#313131" mask="url(#mask-2)"></path>
                </g>
                <path d="M44.8748941,53.5116891 L44.9247853,53.5116891 C46.7163319,53.5329632 48.2206264,54.7197545 48.6681351,56.4642314 L50.9616172,65.4115137 C51.1188499,66.0254237 51.6684088,66.4531853 52.2988518,66.4531853 L69.3261042,66.4531853 C70.5061061,66.4531853 71.4661332,65.4882525 71.4661332,64.3014611 L71.4661332,34.6970193 C71.4661332,33.5109877 70.5061061,32.5452951 69.3261042,32.5452951 L20.6738958,32.5452951 C19.493138,32.5452951 18.5331109,33.5109877 18.5331109,34.6970193 L18.5331109,64.3014611 C18.5331109,65.4882525 19.493138,66.4531853 20.6738958,66.4531853 L37.2249143,66.4531853 C37.8394828,66.4531853 38.386018,66.0383402 38.5530778,65.4441847 L41.1118902,56.3730567 C41.5964393,54.6559322 43.1045134,53.5116891 44.8748941,53.5116891 M69.3261042,69 L52.2988518,69 C50.5125966,69 48.9538754,67.7850964 48.5086345,66.0466978 L46.2143965,57.0994155 C45.9702321,56.1451198 45.1424922,56.0607832 44.8945482,56.0585038 C44.6458483,56.0531853 43.8165965,56.119287 43.5489984,57.0675044 L40.990186,66.1386324 C40.5154639,67.8230859 38.9665698,69 37.2249143,69 L20.6738958,69 C18.0961852,69 16,66.8915839 16,64.3014611 L16,34.6970193 C16,32.1068966 18.0961852,30 20.6738958,30 L69.3261042,30 C71.9030589,30 74,32.1068966 74,34.6970193 L74,64.3014611 C74,66.8915839 71.9030589,69 69.3261042,69" id="Fill-4" fill="#313131"></path>
                <path d="M34,45.9996383 C34,48.209603 32.2090416,50 30,50 C27.7909584,50 26,48.209603 26,45.9996383 C26,43.790397 27.7909584,42 30,42 C32.2090416,42 34,43.790397 34,45.9996383" id="Fill-6" fill="#313131"></path>
                <path d="M30.5,43.5576603 C28.8780877,43.5576603 27.5584235,44.8773245 27.5584235,46.4992367 C27.5584235,48.1219123 28.8780877,49.4415765 30.5,49.4415765 C32.1219123,49.4415765 33.4415765,48.1219123 33.4415765,46.4992367 C33.4415765,44.8773245 32.1219123,43.5576603 30.5,43.5576603 M30.5,52 C27.4675964,52 25,49.5324036 25,46.4992367 C25,43.4675964 27.4675964,41 30.5,41 C33.5324036,41 36,43.4675964 36,46.4992367 C36,49.5324036 33.5324036,52 30.5,52" id="Fill-8" fill="#313131"></path>
                <path d="M66,45.9996383 C66,48.209603 64.2090416,50 62,50 C59.7909584,50 58,48.209603 58,45.9996383 C58,43.790397 59.7909584,42 62,42 C64.2090416,42 66,43.790397 66,45.9996383" id="Fill-10" fill="#313131"></path>
                <path d="M61.5,43.5576603 C59.8780877,43.5576603 58.5584235,44.8773245 58.5584235,46.4992367 C58.5584235,48.1219123 59.8780877,49.4415765 61.5,49.4415765 C63.1219123,49.4415765 64.4415765,48.1219123 64.4415765,46.4992367 C64.4415765,44.8773245 63.1219123,43.5576603 61.5,43.5576603 M61.5,52 C58.4675964,52 56,49.5324036 56,46.4992367 C56,43.4675964 58.4675964,41 61.5,41 C64.5324036,41 67,43.4675964 67,46.4992367 C67,49.5324036 64.5324036,52 61.5,52" id="Fill-12" fill="#313131"></path>
                <path d="M63.4606903,26 L28.5393097,26 C27.1427272,26 26,27.1256154 26,28.500373 C26,29.8743846 27.1427272,31 28.5393097,31 L63.4606903,31 C64.8572728,31 66,29.8743846 66,28.500373 C66,27.1256154 64.8572728,26 63.4606903,26" id="Fill-14" fill="#313131"></path>
                <mask id="mask-4" fill="white">
                    <use xlink:href="#path-3"></use>
                </mask>
                <g id="Clip-17"></g>
                <path d="M27.5668098,30.3333333 L65.4331902,30.3333333 L65.4331902,27.6658709 L27.5668098,27.6658709 L27.5668098,30.3333333 Z M65.947165,33 L27.053601,33 C25.9214778,33 25,32.0434696 25,30.8665075 L25,27.1334925 C25,25.9565304 25.9214778,25 27.053601,25 L65.947165,25 C67.0792882,25 68,25.9565304 68,27.1334925 L68,30.8665075 C68,32.0434696 67.0792882,33 65.947165,33 Z" id="Fill-16" fill="#313131" mask="url(#mask-4)"></path>
                <circle id="Oval-2-Copy-5" stroke="#313131" stroke-width="3" mask="url(#mask-4)" cx="44.5" cy="44.5" r="43"></circle>
            </g>
        </g>
    </g>
</svg>