<?xml version="1.0" encoding="UTF-8"?>
<svg width="68px" height="71px" viewBox="0 0 68 71" version="1.1" xmlns="http://www.w3.org/2000/svg" xmlns:xlink="http://www.w3.org/1999/xlink">
    <!-- Generator: Sketch 52.2 (67145) - http://www.bohemiancoding.com/sketch -->
    <title>物联网icon_slice</title>
    <desc>Created with Sketch.</desc>
    <defs>
        <polygon id="path-1" points="0 0.993837066 68 0.993837066 68 70.0079216 0 70.0079216"></polygon>
    </defs>
    <g id="Page-1" stroke="none" stroke-width="1" fill="none" fill-rule="evenodd">
        <g id="画板" transform="translate(-10.000000, 0.000000)">
            <g id="物联网ICON" transform="translate(10.000000, 0.000000)">
                <mask id="mask-2" fill="white">
                    <use xlink:href="#path-1"></use>
                </mask>
                <g id="Clip-2-Copy-8"></g>
                <path d="M33.9867778,10.7279367 C30.7925043,10.7279367 27.6939573,11.3427287 24.7778889,12.5552514 C21.9611368,13.7271803 19.4303675,15.404474 17.2573761,17.5418322 C15.0843846,19.678602 13.3786581,22.1665976 12.1868632,24.9363973 C10.953188,27.8038577 10.3279744,30.850755 10.3279744,33.9917832 C10.3279744,37.1333996 10.953188,40.180297 12.1868632,43.0477574 C13.3786581,45.8175571 15.0843846,48.3055526 17.2573761,50.4423225 C19.4303675,52.5796806 21.9611368,54.2569744 24.7778889,55.4283149 C27.6939573,56.641426 30.7925043,57.256218 33.9867778,57.256218 C37.1810513,57.256218 40.2795983,56.641426 43.1956667,55.4283149 C46.0124188,54.2569744 48.543188,52.5796806 50.7161795,50.4423225 C52.8891709,48.3055526 54.5948974,45.8175571 55.7866923,43.0477574 C57.0203675,40.180297 57.6455812,37.1333996 57.6455812,33.9917832 C57.6455812,30.850755 57.0203675,27.8038577 55.7866923,24.9363973 C54.5948974,22.1665976 52.8891709,19.678602 50.7161795,17.5418322 C48.543188,15.404474 46.0124188,13.7271803 43.1956667,12.5552514 C40.2795983,11.3427287 37.1810513,10.7279367 33.9867778,10.7279367 M33.9867778,59.2276705 C30.5226752,59.2276705 27.1614786,58.5605183 23.9971197,57.2438633 C20.9410513,55.9730971 18.196094,54.1534305 15.8400256,51.8366354 C13.483359,49.519252 11.6328462,46.8206387 10.3405385,43.8149237 C9.00216239,40.7033114 8.32310256,37.3987309 8.32310256,33.9917832 C8.32310256,30.586012 9.00216239,27.2808433 10.3405385,24.169231 C11.6328462,21.1635159 13.483359,18.4649026 15.8400256,16.1475193 C18.196094,13.8301359 20.9410513,12.0110576 23.9971197,10.7402914 C27.1614786,9.42363636 30.5226752,8.75589578 33.9867778,8.75589578 C37.4508803,8.75589578 40.8120769,9.42363636 43.9764359,10.7402914 C47.0325043,12.0110576 49.7768632,13.8301359 52.1335299,16.1475193 C54.4901966,18.4649026 56.3407094,21.1635159 57.6330171,24.169231 C58.9719915,27.2808433 59.650453,30.586012 59.650453,33.9917832 C59.650453,37.3987309 58.9719915,40.7033114 57.6330171,43.8149237 C56.3407094,46.8206387 54.4901966,49.519252 52.1335299,51.8366354 C49.7768632,54.1534305 47.0325043,55.9730971 43.9764359,57.2438633 C40.8120769,58.5605183 37.4508803,59.2276705 33.9867778,59.2276705" id="Fill-4" fill="#313131" mask="url(#mask-2)"></path>
                <path d="M53.0992308,34.8035439 C48.3099145,34.8035439 43.9064957,34.0569688 39.954188,32.5714666 C35.5824786,30.927707 31.7540171,28.3832329 28.5758974,25.007466 C25.7513675,22.0070458 23.9744444,18.8924919 22.9812821,16.8080824 C21.9019658,14.5424709 21.4957265,12.9999019 21.4789744,12.9357753 L22.45,12.6916235 C22.454188,12.7063314 22.8580342,14.2330158 23.9074359,16.4280291 C24.8736752,18.4483121 26.6003419,21.4669702 29.3417094,24.3697297 C32.4151282,27.6243031 36.1155556,30.0775879 40.3394872,31.6607508 C45.6313675,33.6445581 51.7722222,34.2640566 58.5915385,33.5021852 L58.7046154,34.4817341 C56.7835043,34.6958818 54.9132479,34.8035439 53.0992308,34.8035439" id="Fill-6" fill="#313131" mask="url(#mask-2)"></path>
                <path d="M36.1574359,47.1151506 C29.3632479,47.1151506 23.2576923,45.0077966 19.267094,43.1975431 C16.9032479,42.1250399 14.6554701,40.867805 12.7666667,39.5611514 C11.0394017,38.3668665 9.67529915,37.1684634 8.92504274,36.1877378 L9.72615385,35.5953019 C11.0011111,37.2625942 14.5752991,39.9829752 19.687094,42.3021235 C23.7476923,44.1441462 30.0452991,46.3020955 36.9878632,46.1191287 C41.0975214,46.01029 44.8942735,45.0748648 48.2716239,43.339916 C52.1246154,41.3602269 55.4732479,38.3115646 58.2247863,34.2798235 L59.0570085,34.8287239 C56.2115385,38.999308 52.7390598,42.1562208 48.7358974,44.2135677 C45.2221368,46.0191147 41.2788034,46.9916039 37.0147863,47.1039725 C36.7282051,47.1116207 36.4416239,47.1151506 36.1574359,47.1151506" id="Fill-8" fill="#313131" mask="url(#mask-2)"></path>
                <path d="M46.0584872,13.304121 L46.0088291,12.8140524 L46.0584872,13.304121 Z M21.4723333,55.2647037 C20.0478034,48.1101723 19.8491709,41.650444 20.8830171,36.0649559 C21.7672906,31.2866396 23.563359,27.0813447 26.2203675,23.5661465 C27.9560085,21.2699426 30.073359,19.2496596 32.5143846,17.5617762 C34.4642137,16.2139403 36.6234444,15.0737806 38.9316496,14.1736546 C42.864812,12.6387337 45.8347265,12.3357501 45.9591709,12.3233954 L46.0584872,13.304121 C46.0154103,13.3088276 43.0676325,13.6153411 39.266094,15.1037848 C37.0344701,15.9768483 34.9488291,17.0811206 33.0666068,18.3854209 C30.7195128,20.011531 28.6841282,21.9565093 27.0166923,24.1650539 C24.4554103,27.5578821 22.7227607,31.6237456 21.8678034,36.2502759 C20.8584872,41.7116291 21.0565214,48.0460457 22.4565214,55.0758538 L21.4723333,55.2647037 Z" id="Fill-10" fill="#313131" mask="url(#mask-2)"></path>
                <path d="M21.964547,55.1706317 L21.9262564,54.6787982 L21.964547,55.1706317 Z M22.0028376,55.661877 L21.9262564,54.6787982 C21.9723248,54.6752682 25.5854017,54.384051 30.1455726,52.7955932 C32.818735,51.863698 35.2908718,50.6741196 37.4925812,49.2598039 C40.2357436,47.4977924 42.5648889,45.3792604 44.4154017,42.963628 C49.7240342,36.0332456 51.1892479,26.6419302 48.7697607,15.0514834 L49.7515556,14.8532203 C52.2320684,26.7372377 50.7046325,36.3968259 45.2105299,43.563712 C43.2858291,46.0746519 40.8669402,48.2726068 38.0196752,50.0987449 C35.7479658,51.5548312 33.2004444,52.7791203 30.4483077,53.7357249 C25.7636923,55.3635999 22.1542051,55.6501107 22.0028376,55.661877 Z" id="Fill-12" fill="#313131" mask="url(#mask-2)"></path>
                <path d="M52.4112564,26.5843339 C52.4112564,27.6880179 51.5012564,28.5822608 50.3794615,28.5822608 C49.2570684,28.5822608 48.3470684,27.6880179 48.3470684,26.5843339 C48.3470684,25.48065 49.2570684,24.5864071 50.3794615,24.5864071 C51.5012564,24.5864071 52.4112564,25.48065 52.4112564,26.5843339" id="Fill-14" fill="#313131" mask="url(#mask-2)"></path>
                <path d="M23.691812,35.0609329 C23.691812,36.1646169 22.781812,37.0588598 21.6600171,37.0588598 C20.5376239,37.0588598 19.6276239,36.1646169 19.6276239,35.0609329 C19.6276239,33.9578372 20.5376239,33.063006 21.6600171,33.063006 C22.781812,33.063006 23.691812,33.9578372 23.691812,35.0609329" id="Fill-16" fill="#313131" mask="url(#mask-2)"></path>
                <path d="M34.7436752,46.6221992 C34.7436752,47.7258832 33.8336752,48.6201261 32.7118803,48.6201261 C31.5894872,48.6201261 30.6794872,47.7258832 30.6794872,46.6221992 C30.6794872,45.5185152 31.5894872,44.6242723 32.7118803,44.6242723 C33.8336752,44.6242723 34.7436752,45.5185152 34.7436752,46.6221992" id="Fill-18" fill="#313131" mask="url(#mask-2)"></path>
            </g>
        </g>
    </g>
</svg>