<?xml version="1.0" encoding="UTF-8"?>
<svg width="90px" height="90px" viewBox="0 0 90 90" version="1.1" xmlns="http://www.w3.org/2000/svg" xmlns:xlink="http://www.w3.org/1999/xlink">
    <!-- Generator: Sketch 51 (57462) - http://www.bohemiancoding.com/sketch -->
    <title>物联网icon_slice</title>
    <desc>Created with Sketch.</desc>
    <defs>
        <polygon id="path-1" points="0 0.0332819723 89.9660769 0.0332819723 89.9660769 88.4997142 0 88.4997142"></polygon>
    </defs>
    <g id="Page-1" stroke="none" stroke-width="1" fill="none" fill-rule="evenodd">
        <g id="Artboard">
            <g id="物联网ICON">
                <ellipse id="Oval-2-Copy-3" stroke="#313131" stroke-width="3" cx="45" cy="45.3719008" rx="43.5" ry="43.1280992"></ellipse>
                <g id="Group-3" transform="translate(0.000000, 0.723126)">
                    <mask id="mask-2" fill="white">
                        <use xlink:href="#path-1"></use>
                    </mask>
                    <g id="Clip-2"></g>
                    <path d="M44.983,1.30094691 C39.0837692,1.30094691 33.3622308,2.43707242 27.9753077,4.67755428 C22.7722308,6.84088248 18.0999231,9.93913153 14.0868462,13.8853145 C10.0737692,17.8314974 6.923,22.4266788 4.72223077,27.5422692 C2.44376923,32.8393977 1.28915385,38.4663202 1.28915385,44.2664603 C1.28915385,50.0673568 2.44376923,55.6935229 4.72223077,60.9906514 C6.923,66.1069982 10.0737692,70.7021796 14.0868462,74.6483625 C18.0999231,78.5945455 22.7722308,81.6920381 27.9753077,83.8561227 C33.3622308,86.0966046 39.0837692,87.2319737 44.983,87.2319737 C50.8822308,87.2319737 56.6037692,86.0966046 61.9906923,83.8561227 C67.1937692,81.6920381 71.8660769,78.5945455 75.8791538,74.6483625 C79.8922308,70.7021796 83.043,66.1069982 85.2437692,60.9906514 C87.5222308,55.6935229 88.6768462,50.0673568 88.6768462,44.2664603 C88.6768462,38.4663202 87.5222308,32.8393977 85.2437692,27.5422692 C83.043,22.4266788 79.8922308,17.8314974 75.8791538,13.8853145 C71.8660769,9.93913153 67.1937692,6.84088248 61.9906923,4.67755428 C56.6037692,2.43707242 50.8822308,1.30094691 44.983,1.30094691 M44.983,88.4997142 C38.9106923,88.4997142 33.0199231,87.3295504 27.4737692,85.0240174 C22.1168462,82.795638 17.3060769,79.6058636 13.1753077,75.5439501 C9.04453846,71.4820367 5.80069231,66.7514582 3.53530769,61.4838297 C1.18915385,56.0301247 -7.69230769e-05,50.2375487 -7.69230769e-05,44.2664603 C-7.69230769e-05,38.2953719 1.18915385,32.5027959 3.53530769,27.0490909 C5.80069231,21.7814624 9.04453846,17.0508839 13.1753077,12.9889704 C17.3060769,8.92705701 22.1168462,5.73728253 27.4737692,3.50965962 C33.0199231,1.20337022 38.9106923,0.0332063314 44.983,0.0332063314 C51.0553077,0.0332063314 56.9468462,1.20337022 62.4922308,3.50965962 C67.8491538,5.73728253 72.6599231,8.92705701 76.7906923,12.9889704 C80.9214615,17.0508839 84.1653077,21.7814624 86.4306923,27.0490909 C88.7768462,32.5027959 89.9660769,38.2953719 89.9660769,44.2664603 C89.9660769,50.2375487 88.7768462,56.0301247 86.4306923,61.4838297 C84.1653077,66.7514582 80.9214615,71.4820367 76.7906923,75.5439501 C72.6599231,79.6058636 67.8491538,82.795638 62.4922308,85.0240174 C56.9468462,87.3295504 51.0553077,88.4997142 44.983,88.4997142" id="Fill-1" fill="#313131" mask="url(#mask-2)"></path>
                </g>
                <path d="M44.983,15.0787757 C40.8760769,15.0787757 36.8922308,15.8692226 33.143,17.4281804 C29.5214615,18.9349461 26.2676154,21.0914666 23.4737692,23.8394985 C20.6799231,26.5867741 18.4868462,29.7856254 16.9545385,33.3467965 C15.3683846,37.0335313 14.5645385,40.9509707 14.5645385,44.9894355 C14.5645385,49.0286567 15.3683846,52.9460961 16.9545385,56.6328309 C18.4868462,60.194002 20.6799231,63.3928533 23.4737692,66.1401289 C26.2676154,68.8881608 29.5214615,71.0446813 33.143,72.5506906 C36.8922308,74.1104048 40.8760769,74.9008517 44.983,74.9008517 C49.0899231,74.9008517 53.0737692,74.1104048 56.823,72.5506906 C60.4445385,71.0446813 63.6983846,68.8881608 66.4922308,66.1401289 C69.2860769,63.3928533 71.4791538,60.194002 73.0114615,56.6328309 C74.5976154,52.9460961 75.4014615,49.0286567 75.4014615,44.9894355 C75.4014615,40.9509707 74.5976154,37.0335313 73.0114615,33.3467965 C71.4791538,29.7856254 69.2860769,26.5867741 66.4922308,23.8394985 C63.6983846,21.0914666 60.4445385,18.9349461 56.823,17.4281804 C53.0737692,15.8692226 49.0899231,15.0787757 44.983,15.0787757 M44.983,77.4355764 C40.5291538,77.4355764 36.2076154,76.5778092 32.1391538,74.8849671 C28.2099231,73.2511248 24.6806923,70.9115534 21.6514615,67.9328169 C18.6214615,64.953324 16.2422308,61.4836784 14.5806923,57.6191876 C12.8599231,53.6185432 11.9868462,49.3697969 11.9868462,44.9894355 C11.9868462,40.6105869 12.8599231,36.3610842 14.5806923,32.3604398 C16.2422308,28.495949 18.6214615,25.0263034 21.6514615,22.0468105 C24.6806923,19.0673176 28.2099231,16.7285026 32.1391538,15.0946603 C36.2076154,13.4018182 40.5291538,12.5432946 44.983,12.5432946 C49.4368462,12.5432946 53.7583846,13.4018182 57.8268462,15.0946603 C61.7560769,16.7285026 65.2845385,19.0673176 68.3145385,22.0468105 C71.3445385,25.0263034 73.7237692,28.495949 75.3853077,32.3604398 C77.1068462,36.3610842 77.9791538,40.6105869 77.9791538,44.9894355 C77.9791538,49.3697969 77.1068462,53.6185432 75.3853077,57.6191876 C73.7237692,61.4836784 71.3445385,64.953324 68.3145385,67.9328169 C65.2845385,70.9115534 61.7560769,73.2511248 57.8268462,74.8849671 C53.7583846,76.5778092 49.4368462,77.4355764 44.983,77.4355764" id="Fill-4" fill="#313131"></path>
                <path d="M69.5561538,46.0331279 C63.3984615,46.0331279 57.7369231,45.0732456 52.6553846,43.1633142 C47.0346154,41.049909 42.1123077,37.7784424 38.0261538,33.4381706 C34.3946154,29.5804875 32.11,25.5760611 30.8330769,22.8961059 C29.4453846,19.9831769 28.9230769,17.9998739 28.9015385,17.9174254 L30.15,17.6035159 C30.1553846,17.6224261 30.6746154,19.5853061 32.0238462,22.407466 C33.2661538,25.0049727 35.4861538,28.8861045 39.0107692,32.6182238 C42.9623077,36.8026754 47.72,39.9568987 53.1507692,41.9923939 C59.9546154,44.5430032 67.85,45.3395013 76.6176923,44.3599524 L76.7630769,45.6193725 C74.2930769,45.8947051 71.8884615,46.0331279 69.5561538,46.0331279" id="Fill-6" fill="#313131"></path>
                <path d="M47.7738462,61.8623365 C39.0384615,61.8623365 31.1884615,59.1528814 26.0576923,56.8254125 C23.0184615,55.4464799 20.1284615,53.830035 17.7,52.1500518 C15.4792308,50.6145427 13.7253846,49.0737386 12.7607692,47.8128057 L13.7907692,47.0511024 C15.43,49.194764 20.0253846,52.6923967 26.5976923,55.6741588 C31.8184615,58.0424737 39.9153846,60.81698 48.8415385,60.5817369 C54.1253846,60.4418014 59.0069231,59.2391119 63.3492308,57.0084634 C68.3030769,54.4631489 72.6084615,50.5434403 76.1461538,45.3597731 L77.2161538,46.0655022 C73.5576923,51.4276817 69.0930769,55.4865695 63.9461538,58.1317299 C59.4284615,60.4531475 54.3584615,61.7034907 48.8761538,61.8479647 C48.5076923,61.857798 48.1392308,61.8623365 47.7738462,61.8623365" id="Fill-8" fill="#313131"></path>
                <path d="M60.5037692,18.3910127 L60.4399231,17.7609245 L60.5037692,18.3910127 Z M28.893,72.3403334 C27.0614615,63.1416501 26.8060769,54.8362852 28.1353077,47.6549433 C29.2722308,41.5113938 31.5814615,36.1045861 34.9976154,31.5850455 C37.2291538,28.6327833 39.9514615,26.0352766 43.0899231,23.8651408 C45.5968462,22.132209 48.373,20.6662894 51.3406923,19.5089845 C56.3976154,17.5355148 60.2160769,17.1459644 60.3760769,17.1300798 L60.5037692,18.3910127 C60.4483846,18.397064 56.6583846,18.7911528 51.7706923,20.7048662 C48.9014615,21.8273764 46.2199231,23.2471551 43.7999231,24.9241126 C40.7822308,27.0148256 38.1653077,29.515512 36.0214615,32.3550693 C32.7283846,36.7172769 30.5006923,41.9448158 29.4014615,47.8932119 C28.1037692,54.9149517 28.3583846,63.0592016 30.1583846,72.0975263 L28.893,72.3403334 Z" id="Fill-10" fill="#313131"></path>
                <path d="M29.5258462,72.2193837 L29.4766154,71.5870262 L29.5258462,72.2193837 Z M29.5750769,72.8509847 L29.4766154,71.5870262 C29.5358462,71.5824877 34.1812308,71.2080656 40.0443077,69.1657627 C43.4812308,67.9676117 46.6596923,66.4381538 49.4904615,64.6197479 C53.0173846,62.3543045 56.012,59.6304777 58.3912308,56.5246645 C65.2166154,47.6141729 67.1004615,35.5396246 63.9896923,20.6376215 L65.252,20.3827119 C68.4412308,35.6621628 66.4773846,48.0816333 59.4135385,57.2962011 C56.9389231,60.5245525 53.8289231,63.3504945 50.1681538,65.6983863 C47.2473846,67.5704973 43.972,69.1445833 40.4335385,70.3745034 C34.4104615,72.4674856 29.7696923,72.8358566 29.5750769,72.8509847 Z" id="Fill-12" fill="#313131"></path>
                <path d="M68.6716154,35.4655722 C68.6716154,36.8845945 67.5016154,38.0343353 66.0593077,38.0343353 C64.6162308,38.0343353 63.4462308,36.8845945 63.4462308,35.4655722 C63.4462308,34.0465499 64.6162308,32.8968091 66.0593077,32.8968091 C67.5016154,32.8968091 68.6716154,34.0465499 68.6716154,35.4655722" id="Fill-14" fill="#313131"></path>
                <path d="M31.7466154,46.3640566 C31.7466154,47.7830789 30.5766154,48.9328197 29.1343077,48.9328197 C27.6912308,48.9328197 26.5212308,47.7830789 26.5212308,46.3640566 C26.5212308,44.9457907 27.6912308,43.7952935 29.1343077,43.7952935 C30.5766154,43.7952935 31.7466154,44.9457907 31.7466154,46.3640566" id="Fill-16" fill="#313131"></path>
                <path d="M45.9561538,61.2285418 C45.9561538,62.6475641 44.7861538,63.7973049 43.3438462,63.7973049 C41.9007692,63.7973049 40.7307692,62.6475641 40.7307692,61.2285418 C40.7307692,59.8095195 41.9007692,58.6597787 43.3438462,58.6597787 C44.7861538,58.6597787 45.9561538,59.8095195 45.9561538,61.2285418" id="Fill-18" fill="#313131"></path>
            </g>
        </g>
    </g>
</svg>