<?xml version="1.0" encoding="UTF-8"?>
<svg width="70px" height="70px" viewBox="0 0 70 70" version="1.1" xmlns="http://www.w3.org/2000/svg" xmlns:xlink="http://www.w3.org/1999/xlink">
    <!-- Generator: Sketch 52.2 (67145) - http://www.bohemiancoding.com/sketch -->
    <title>新材料icon_slice</title>
    <desc>Created with Sketch.</desc>
    <defs>
        <polygon id="path-1" points="0 0.976056338 70 0.976056338 70 69.9901408 0 69.9901408"></polygon>
    </defs>
    <g id="Page-1" stroke="none" stroke-width="1" fill="none" fill-rule="evenodd">
        <g id="画板" transform="translate(-7.000000, 0.000000)">
            <g id="新材料icon" transform="translate(7.000000, 0.000000)">
                <g id="Clip-2-Copy-4">
                    <mask id="mask-2" fill="white">
                        <use xlink:href="#path-1"></use>
                    </mask>
                    <g id="Clip-2-Copy"></g>
                </g>
                <path d="M19.9304147,44.0572451 C19.9543693,44.0572451 19.9789893,44.0578917 20.0029439,44.059185 C20.4953443,44.0869897 20.9305198,44.3921945 21.1121756,44.8370694 L24.6807474,53.5651522 C25.1019493,54.5952186 26.3069994,55.1002291 27.3663256,54.6902718 L34.8082252,51.8173371 C34.2220026,51.2916347 33.7342601,50.6657061 33.3656252,49.9583033 C32.6543063,48.5939342 32.4367186,46.9948418 32.7361512,45.3349671 C32.8632438,44.6301508 33.1640072,43.9537858 33.6065022,43.3789403 C34.4728606,42.2525274 35.527529,41.4261465 36.7412293,40.9211359 C37.8644345,40.4549226 39.0934392,40.2900344 40.2964931,40.4445767 C42.7298824,40.7581876 44.8039526,42.3288287 45.7095701,44.5441503 C46.088186,45.4694642 46.2425602,46.4542671 46.173358,47.4293707 L53.6179192,44.5551429 C54.6779108,44.1458321 55.1969274,42.9748025 54.7763909,41.9447361 L51.207819,33.2166533 C51.0254978,32.772425 51.1266395,32.259655 51.4646657,31.9117732 C51.8026919,31.5638914 52.3223739,31.4358606 52.7901542,31.5871698 C53.8022366,31.9137131 54.9068104,31.8820287 55.899596,31.4985828 C57.4380145,30.9049852 58.5239569,29.5444958 58.7335597,27.9466966 C58.9578015,26.2434984 58.1566528,24.6043155 56.5350587,23.4488048 C56.2555882,23.2496457 55.9302047,23.1125622 55.5948401,23.0524265 C54.3798089,22.8332221 53.2253297,22.9541402 52.2558333,23.404188 C51.3821554,23.809619 50.6768251,24.462059 50.2170296,25.2923197 C49.9834722,25.7139162 49.5150264,25.9680381 49.0232914,25.9402334 C48.5315565,25.9124287 48.096381,25.6078705 47.9147252,25.162349 L44.3461534,16.4349128 C43.9249514,15.4048464 42.7199014,14.8998359 41.6599098,15.3091466 L34.2599307,18.1665624 C34.8328452,18.6954979 35.3066142,19.3220731 35.661941,20.0255962 C36.3446474,21.3757396 36.5495924,22.9515537 36.2534868,24.5842703 C36.1270597,25.2858535 35.8262962,25.959632 35.3857975,26.5325377 C34.519439,27.6595972 33.4647707,28.4866247 32.2504049,28.9909887 C31.1271998,29.4584953 29.8981951,29.6233835 28.6951412,29.4681946 C26.2617518,29.1545836 24.1870162,27.583296 23.2813988,25.3686209 C22.9174218,24.4788712 22.760386,23.5289857 22.8122876,22.5862131 L15.4089816,25.4449221 C14.34899,25.8542329 13.829308,27.0246159 14.2505099,28.0546823 L17.8190818,36.7827651 C18.0007376,37.2276399 17.9002613,37.7397633 17.5622351,38.0882918 C17.2235435,38.4361736 16.7031961,38.5635578 16.2360811,38.4128952 C15.3284675,38.1199762 14.3676214,38.1115701 13.4573461,38.3870304 C12.4499216,38.6922353 11.5329922,39.3492016 10.806369,40.2861547 C10.5614996,40.6010588 10.396479,40.9663994 10.3286076,41.3414392 C9.98459271,43.2470297 10.5688191,44.9579874 11.930905,46.0352571 C13.2098151,47.0465714 14.9551748,47.3078061 16.4862738,46.716795 C17.4790594,46.3333491 18.3041627,45.6194801 18.8098712,44.7070987 C19.0321167,44.3068406 19.4659614,44.0572451 19.9304147,44.0572451 M26.6077629,57 C24.8976697,57 23.2774064,56.001618 22.6086734,54.3650217 L19.6755642,47.1914144 C19.0121546,47.8567869 18.2070134,48.3837825 17.3093809,48.7310177 C15.0290348,49.6110681 12.4286286,49.2218026 10.5235715,47.7158236 C9.58202214,46.9709168 8.86138755,45.9880538 8.44085102,44.8732801 C7.98637879,43.667333 7.88257547,42.3534002 8.13276809,40.967046 C8.26052602,40.2557635 8.56993977,39.5696992 9.02574281,38.9812746 C10.0351636,37.6809209 11.3380283,36.7601334 12.7939364,36.3184916 C13.5511683,36.0889413 14.3330203,35.9913016 15.1102144,36.0255725 L12.178436,28.8545518 C11.3034272,26.7148847 12.3827156,24.2816519 14.5858745,23.4313461 L23.6074477,19.9480017 C24.0679086,19.7695345 24.5969063,19.8704072 24.9555601,20.2021235 C25.3142138,20.5351331 25.4413064,21.0433767 25.2802781,21.4985975 C24.9262822,22.4963329 24.952233,23.586535 25.3541382,24.5681048 C25.9616538,26.0553318 27.3543483,27.1093232 28.9885852,27.3194748 C30.7272908,27.5444987 32.4087715,26.7840731 33.5991827,25.2360637 C33.8320748,24.9327987 33.9911068,24.5771575 34.0576474,24.2085838 C34.3770422,22.4458965 33.9239008,20.1575067 31.694791,19.0226878 C31.2556231,18.7989572 30.9887953,18.3437364 31.0140808,17.8626508 C31.0400316,17.3822118 31.3547686,16.9567355 31.8152295,16.7782683 L40.8368027,13.2955705 C43.0392962,12.444618 45.5432186,13.494083 46.4182274,15.6350433 L49.3500057,22.8054175 C49.9049543,22.2480306 50.5597137,21.7895767 51.2949872,21.4481611 C52.693005,20.8002475 54.3205878,20.6179005 56.0027339,20.9218121 C56.6654782,21.0414369 57.3049333,21.3110776 57.8532277,21.7016364 C59.0309962,22.5403031 59.8980201,23.5664897 60.4303448,24.7504518 C60.9220797,25.8445336 61.1004085,27.0446611 60.9460344,28.2215103 C60.6326282,30.600427 59.0150264,32.6275821 56.7233685,33.5121588 C55.825736,33.859394 54.8668861,34.0126431 53.9153556,33.9712594 L56.8484648,41.1448666 C57.7234736,43.2851803 56.6435198,45.718413 54.4410263,46.5687189 L45.3409352,50.0824544 C44.8744857,50.2628616 44.3414955,50.1594023 43.9828418,49.8186333 C43.6235226,49.4778643 43.5037495,48.9625078 43.6780859,48.5047006 C44.0666829,47.481747 44.052044,46.3592139 43.6374961,45.3440198 C43.0293151,43.8574394 41.637286,42.8040947 40.0030491,42.5926498 C38.263678,42.3689191 36.5835282,43.1280515 35.3924516,44.6760609 C35.1588941,44.9806191 34.9998621,45.336907 34.9326561,45.7093604 C34.6086034,47.5063186 35.0823724,49.8231596 37.3860077,50.9347002 C37.8351566,51.151318 38.1126309,51.6058922 38.0920033,52.0927974 C38.0713757,52.5797026 37.7566388,53.0109985 37.2901892,53.1907589 L28.1900981,56.7044945 C27.6710815,56.9049468 27.1354298,57 26.6077629,57" id="Fill-4" fill="#313131"></path>
            </g>
        </g>
    </g>
</svg>