<?xml version="1.0" encoding="UTF-8"?>
<svg width="90px" height="91px" viewBox="0 0 90 91" version="1.1" xmlns="http://www.w3.org/2000/svg" xmlns:xlink="http://www.w3.org/1999/xlink">
    <!-- Generator: Sketch 51 (57462) - http://www.bohemiancoding.com/sketch -->
    <title>ai_icon_slice</title>
    <desc>Created with Sketch.</desc>
    <defs>
        <polygon id="path-1" points="0 0.27834293 89.966 0.27834293 89.966 89.3195023 0 89.3195023"></polygon>
    </defs>
    <g id="Page-1" stroke="none" stroke-width="1" fill="none" fill-rule="evenodd">
        <g id="Artboard">
            <g id="AI-icon">
                <g id="Group-3" transform="translate(0.000000, 0.721657)">
                    <mask id="mask-2" fill="white">
                        <use xlink:href="#path-1"></use>
                    </mask>
                    <g id="Clip-2"></g>
                    <path d="M44.9829231,2.29792591 C39.0836923,2.29792591 33.3621538,3.43174277 27.9752308,5.66767189 C22.7721538,7.827359 18.0998462,10.9193123 14.0867692,14.8574765 C10.0736923,18.7948858 6.92292308,23.3807296 4.72215385,28.4866798 C2.44369231,33.7722895 1.28907692,39.3877779 1.28907692,45.1768868 C1.28907692,50.9659956 2.44369231,56.5807292 4.72215385,61.8663388 C6.92292308,66.9730439 10.0736923,71.5581329 14.0867692,75.496297 C18.0998462,79.4344612 22.7721538,82.5256596 27.9752308,84.6861016 C33.3621538,86.9220307 39.0836923,88.0550927 44.9829231,88.0550927 C50.8821538,88.0550927 56.6036923,86.9220307 61.9906154,84.6861016 C67.1936923,82.5256596 71.866,79.4344612 75.8790769,75.496297 C79.8921538,71.5581329 83.0429231,66.9730439 85.2436923,61.8663388 C87.5221538,56.5807292 88.6767692,50.9659956 88.6767692,45.1768868 C88.6767692,39.3877779 87.5221538,33.7722895 85.2436923,28.4866798 C83.0429231,23.3807296 79.8921538,18.7948858 75.8790769,14.8574765 C71.866,10.9193123 67.1936923,7.827359 61.9906154,5.66767189 C56.6036923,3.43174277 50.8821538,2.29792591 44.9829231,2.29792591 M44.9829231,89.3195023 C38.9106154,89.3195023 33.0198462,88.1524711 27.4736923,85.8508682 C22.1167692,83.627017 17.306,80.4444791 13.1752308,76.3900648 C9.04446154,72.3364053 5.80061538,67.6154395 3.53523077,62.3592698 C1.18907692,56.916647 -0.000153846154,51.1358417 -0.000153846154,45.1768868 C-0.000153846154,39.217177 1.18907692,33.4363717 3.53523077,27.9937488 C5.80061538,22.7375791 9.04446154,18.0166133 13.1752308,13.9629538 C17.306,9.90853949 22.1167692,6.72600161 27.4736923,4.5029053 C33.0198462,2.20054749 38.9106154,1.03351629 44.9829231,1.03351629 C51.0552308,1.03351629 56.946,2.20054749 62.4921538,4.5029053 C67.8490769,6.72600161 72.6598462,9.90853949 76.7906154,13.9629538 C80.9213846,18.0166133 84.1652308,22.7375791 86.4306154,27.9937488 C88.7767692,33.4363717 89.966,39.217177 89.966,45.1768868 C89.966,51.1358417 88.7767692,56.916647 86.4306154,62.3592698 C84.1652308,67.6154395 80.9213846,72.3364053 76.7906154,76.3900648 C72.6598462,80.4444791 67.8490769,83.627017 62.4921538,85.8508682 C56.946,88.1524711 51.0552308,89.3195023 44.9829231,89.3195023" id="Fill-1" fill="#313131" mask="url(#mask-2)"></path>
                </g>
                <path d="M29.6966923,44.7549891 C28.9720769,44.7549891 28.4420769,44.0831536 28.6243846,43.3947108 L32.8128462,27.5605281 C32.9136154,27.1785632 33.1774615,27.1242124 33.2859231,27.1189283 C33.4136154,27.1113796 33.649,27.1506329 33.7782308,27.4865507 L39.8559231,43.2837447 C40.129,43.9948336 39.5936154,44.7549891 38.819,44.7549891 L29.6966923,44.7549891 Z M71.379,26.0304037 C71.379,25.4295261 70.8828462,24.9433889 70.2713077,24.9433889 L53.0405385,24.9433889 C52.429,24.9433889 51.9328462,25.4295261 51.9328462,26.0304037 C51.9328462,26.6305265 52.429,27.1181734 53.0405385,27.1181734 L59.4405385,27.1181734 C60.0520769,27.1181734 60.5482308,27.6043106 60.5482308,28.2051883 L60.5482308,63.5920503 C60.5482308,64.1921731 60.0520769,64.6790652 59.4405385,64.6790652 L51.2213077,64.6790652 C50.7605385,64.6790652 50.3474615,64.398253 50.1843846,63.975525 L35.8513077,26.7180916 C35.4128462,25.5797455 34.3597692,24.8845089 33.1674615,24.9471633 C31.9643846,25.0105725 30.9828462,25.8220592 30.6674615,27.0140012 L20.9205385,63.8645589 C20.7943846,64.3439023 20.3536154,64.6790652 19.8482308,64.6790652 L13.8005385,64.6790652 C13.1882308,64.6790652 12.6920769,65.1659572 12.6920769,65.76608 C12.6920769,66.3669577 13.1882308,66.8530949 13.8005385,66.8530949 L29.8159231,66.8530949 C30.4274615,66.8530949 30.9236154,66.3669577 30.9236154,65.76608 C30.9236154,65.1659572 30.4274615,64.6790652 29.8159231,64.6790652 L24.4266923,64.6790652 C23.7020769,64.6790652 23.1728462,64.0072296 23.3543846,63.3187869 L27.4743846,47.743525 C27.6005385,47.2641817 28.0420769,46.9297737 28.5466923,46.9297737 L40.4920769,46.9297737 C40.9528462,46.9297737 41.3659231,47.209831 41.529,47.6333138 L48.6528462,66.1503096 C48.8151538,66.5730376 49.2282308,66.8530949 49.689,66.8530949 L70.2713077,66.8530949 C70.8828462,66.8530949 71.379,66.3669577 71.379,65.76608 C71.379,65.1659572 70.8828462,64.6790652 70.2713077,64.6790652 L63.8720769,64.6790652 C63.2597692,64.6790652 62.7636154,64.1921731 62.7636154,63.5920503 L62.7636154,28.2051883 C62.7636154,27.6043106 63.2597692,27.1181734 63.8720769,27.1181734 L70.2713077,27.1181734 C70.8828462,27.1181734 71.379,26.6305265 71.379,26.0304037 Z" id="Fill-4" fill="#313131"></path>
                <ellipse id="Oval-2-Copy-4" stroke="#313131" stroke-width="3" cx="45" cy="45.5374133" rx="43.5" ry="43.0374133"></ellipse>
            </g>
        </g>
    </g>
</svg>