<?xml version="1.0" encoding="UTF-8"?>
<svg width="70px" height="71px" viewBox="0 0 70 71" version="1.1" xmlns="http://www.w3.org/2000/svg" xmlns:xlink="http://www.w3.org/1999/xlink">
    <!-- Generator: Sketch 52.2 (67145) - http://www.bohemiancoding.com/sketch -->
    <title>虚拟现实_icon copy_slice</title>
    <desc>Created with Sketch.</desc>
    <defs>
        <polygon id="path-1" points="0 0.99 70 0.99 70 70.99 0 70.99"></polygon>
    </defs>
    <g id="Page-1" stroke="none" stroke-width="1" fill="none" fill-rule="evenodd">
        <g id="画板" transform="translate(-9.000000, 0.000000)">
            <g id="虚拟现实-icon-copy" transform="translate(9.000000, 0.000000)">
                <g id="Group-3">
                    <mask id="mask-2" fill="white">
                        <use xlink:href="#path-1"></use>
                    </mask>
                    <g id="Clip-2"></g>
                </g>
                <path d="M34.3899931,39.8945061 L34.4338629,39.8945061 C36.0091884,39.9125073 37.3319301,40.9167154 37.7254291,42.3928112 L39.7421116,49.9635885 C39.8803681,50.4830508 40.3636008,50.8450029 40.9179559,50.8450029 L55.8901951,50.8450029 C56.9277829,50.8450029 57.7719447,50.0285213 57.7719447,49.0243133 L57.7719447,23.9744009 C57.7719447,22.9708358 56.9277829,22.1537113 55.8901951,22.1537113 L13.1098049,22.1537113 C12.0715524,22.1537113 11.2273906,22.9708358 11.2273906,23.9744009 L11.2273906,49.0243133 C11.2273906,50.0285213 12.0715524,50.8450029 13.1098049,50.8450029 L27.6632867,50.8450029 C28.2036832,50.8450029 28.6842572,50.4939801 28.8311546,49.9912332 L31.0811448,42.3156634 C31.5072139,40.8627119 32.833279,39.8945061 34.3899931,39.8945061 M55.8901951,53 L40.9179559,53 C39.3472832,53 37.9766836,51.9720047 37.5851786,50.501052 L35.5678314,42.9302747 C35.3531351,42.1227937 34.6252949,42.0514319 34.4072751,42.0495032 C34.1885907,42.0450029 33.4594211,42.1009351 33.2241193,42.9032729 L30.9741291,50.5788428 C30.556701,52.0041496 29.1947424,53 27.6632867,53 L13.1098049,53 C10.8431973,53 9,51.2159556 9,49.0243133 L9,23.9744009 C9,21.7827586 10.8431973,20 13.1098049,20 L55.8901951,20 C58.156138,20 60,21.7827586 60,23.9744009 L60,49.0243133 C60,51.2159556 58.156138,53 55.8901951,53" id="Fill-4" fill="#009FDE"></path>
                <path d="M26,33.4995931 C26,35.9858034 23.9851718,38 21.5,38 C19.0148282,38 17,35.9858034 17,33.4995931 C17,31.0141966 19.0148282,29 21.5,29 C23.9851718,29 26,31.0141966 26,33.4995931" id="Fill-6" fill="#009FDE"></path>
                <path d="M52,33.4995931 C52,35.9858034 49.9851718,38 47.5,38 C45.0148282,38 43,35.9858034 43,33.4995931 C43,31.0141966 45.0148282,29 47.5,29 C49.9851718,29 52,31.0141966 52,33.4995931" id="Fill-10" fill="#009FDE"></path>
                <path d="M48.8415868,17 L19.1584132,17 C17.9713182,17 17,17.9004923 17,19.0002984 C17,20.0995077 17.9713182,21 19.1584132,21 L48.8415868,21 C50.0286818,21 51,20.0995077 51,19.0002984 C51,17.9004923 50.0286818,17 48.8415868,17" id="Fill-14" fill="#009FDE"></path>
                <path d="M18.148957,20 L49.851043,20 L49.851043,17.9994032 L18.148957,17.9994032 L18.148957,20 Z M50.2813474,22 L17.7192939,22 C16.7714698,22 16,21.2826022 16,20.3998806 L16,17.6001194 C16,16.7173978 16.7714698,16 17.7192939,16 L50.2813474,16 C51.2291715,16 52,16.7173978 52,17.6001194 L52,20.3998806 C52,21.2826022 51.2291715,22 50.2813474,22 Z" id="Fill-16" fill="#009FDE"></path>
            </g>
        </g>
    </g>
</svg>