<?xml version="1.0" encoding="UTF-8"?>
<svg width="90px" height="90px" viewBox="0 0 90 90" version="1.1" xmlns="http://www.w3.org/2000/svg" xmlns:xlink="http://www.w3.org/1999/xlink">
    <!-- Generator: Sketch 51 (57462) - http://www.bohemiancoding.com/sketch -->
    <title>产业升级icon_slice</title>
    <desc>Created with Sketch.</desc>
    <defs>
        <polygon id="path-1" points="0 0.0331864407 89.9216492 0.0331864407 89.9216492 88.2456873 0 88.2456873"></polygon>
    </defs>
    <g id="Page-1" stroke="none" stroke-width="1" fill="none" fill-rule="evenodd">
        <g id="Artboard">
            <g id="产业升级icon">
                <g id="Group-3" transform="translate(0.000000, 1.000000)">
                    <mask id="mask-2" fill="white">
                        <use xlink:href="#path-1"></use>
                    </mask>
                    <g id="Clip-2"></g>
                    <path d="M44.9607862,1.29721271 C39.0644686,1.29721271 33.3457556,2.43007712 27.9614927,4.66412797 C22.7609852,6.82124661 18.0909848,9.91060254 14.0798897,13.8454585 C10.0687945,17.7803144 6.91958123,22.3623059 4.7198988,27.4632127 C2.44256243,32.7451364 1.28851723,38.3559076 1.28851723,44.1393992 C1.28851723,49.9236449 2.44256243,55.5336619 4.7198988,60.8155856 C6.91958123,65.9172466 10.0687945,70.4992381 14.0798897,74.4340941 C18.0909848,78.36895 22.7609852,81.4575517 27.9614927,83.6154246 C33.3457556,85.8494754 39.0644686,86.9815856 44.9607862,86.9815856 C50.8571037,86.9815856 56.5758168,85.8494754 61.9600796,83.6154246 C67.1605871,81.4575517 71.8305875,78.36895 75.8416827,74.4340941 C79.8527778,70.4992381 83.0019911,65.9172466 85.2016735,60.8155856 C87.4790099,55.5336619 88.6330551,49.9236449 88.6330551,44.1393992 C88.6330551,38.3559076 87.4790099,32.7451364 85.2016735,27.4632127 C83.0019911,22.3623059 79.8527778,17.7803144 75.8416827,13.8454585 C71.8305875,9.91060254 67.1605871,6.82124661 61.9600796,4.66412797 C56.5758168,2.43007712 50.8571037,1.29721271 44.9607862,1.29721271 M44.9607862,88.2456873 C38.8914772,88.2456873 33.0036169,87.0788822 27.4602019,84.7799669 C22.1059243,82.5579839 17.2975307,79.3773653 13.1688014,75.327111 C9.04007202,71.2768568 5.79782777,66.5598568 3.53356186,61.3073483 C1.18856661,55.8692975 -7.68850902e-05,50.0933483 -7.68850902e-05,44.1393992 C-7.68850902e-05,38.18545 1.18856661,32.4095008 3.53356186,26.97145 C5.79782777,21.7189415 9.04007202,17.0019415 13.1688014,12.9516873 C17.2975307,8.90143305 22.1059243,5.72081441 27.4602019,3.49958559 C33.0036169,1.1999161 38.8914772,0.0331110169 44.9607862,0.0331110169 C51.0300952,0.0331110169 56.9179554,1.1999161 62.4613704,3.49958559 C67.8156481,5.72081441 72.6240416,8.90143305 76.752771,12.9516873 C80.8815003,17.0019415 84.1237446,21.7189415 86.3880105,26.97145 C88.7330057,32.4095008 89.9216492,38.18545 89.9216492,44.1393992 C89.9216492,50.0933483 88.7330057,55.8692975 86.3880105,61.3073483 C84.1237446,66.5598568 80.8815003,71.2768568 76.752771,75.327111 C72.6240416,79.3773653 67.8156481,82.5579839 62.4613704,84.7799669 C56.9179554,87.0788822 51.0300952,88.2456873 44.9607862,88.2456873" id="Fill-1" fill="#313131" mask="url(#mask-2)"></path>
                </g>
                <path d="M45.2232485,17.6777911 L26.682092,39.6259376 C26.5613179,39.7682357 26.5884146,39.9090118 26.6333179,40.001848 C26.6774469,40.0946842 26.7695759,40.2050223 26.9584791,40.2050223 L31.3241553,40.2050223 C32.9530581,40.2050223 34.2784772,41.5070116 34.2784772,43.1088162 L34.2784772,61.0969671 C34.2784772,61.2910099 34.4395094,61.4500489 34.6377029,61.4500489 L56.3615682,61.4500489 C56.5605358,61.4500489 56.7215681,61.2910099 56.7215681,61.0969671 L56.7215681,43.1088162 C56.7215681,41.5070116 58.0469871,40.2050223 59.6758899,40.2050223 L64.0415662,40.2050223 C64.2304693,40.2050223 64.3225983,40.0946842 64.3667274,40.001848 C64.4116306,39.9090118 64.4387273,39.7682357 64.3179532,39.6259376 L45.7767967,17.6777911 C45.6831193,17.566692 45.5631194,17.5499511 45.4996355,17.5499511 C45.4369258,17.5499511 45.3169259,17.566692 45.2232485,17.6777911 M56.3615682,64 L34.6377029,64 C33.0088001,64 31.6833811,62.6972497 31.6833811,61.0969671 L31.6833811,43.1088162 C31.6833811,42.9140124 31.5223488,42.7549734 31.3241553,42.7549734 L26.9584791,42.7549734 C25.80106,42.7549734 24.776028,42.1150125 24.2844152,41.0854441 C23.7928025,40.0551147 23.9460928,38.8725948 24.6854474,37.9967388 L43.227378,16.0485922 C43.7902166,15.381998 44.6186035,15 45.4996355,15 C46.3814417,15 47.2098286,15.381998 47.7726672,16.0485922 L66.3138236,37.9967388 C67.0539525,38.8725948 67.2072427,40.0551147 66.71563,41.0854441 C66.223243,42.1150125 65.1989852,42.7549734 64.0415662,42.7549734 L59.6758899,42.7549734 C59.4776964,42.7549734 59.31589,42.9140124 59.31589,43.1088162 L59.31589,61.0969671 C59.31589,62.6972497 57.9912452,64 56.3615682,64" id="Fill-4" fill="#313131"></path>
                <path d="M35.6489203,68.4103578 C35.0658972,68.4103578 34.5911278,68.852005 34.5911278,69.3943535 L34.5911278,70.6063658 C34.5911278,71.1487143 35.0658972,71.5903614 35.6489203,71.5903614 L55.3510797,71.5903614 C55.934876,71.5903614 56.4088722,71.1487143 56.4088722,70.6063658 L56.4088722,69.3943535 C56.4088722,68.852005 55.934876,68.4103578 55.3510797,68.4103578 L35.6489203,68.4103578 Z M55.3510797,74 L35.6489203,74 C33.6369494,74 32,72.4772523 32,70.6063658 L32,69.3943535 C32,67.523467 33.6369494,66 35.6489203,66 L55.3510797,66 C57.3638238,66 59,67.523467 59,69.3943535 L59,70.6063658 C59,72.4772523 57.3638238,74 55.3510797,74 Z" id="Fill-6" fill="#313131"></path>
                <ellipse id="Oval-2-Copy-9" stroke="#313131" stroke-width="3" cx="45" cy="44.5" rx="43.5" ry="43"></ellipse>
            </g>
        </g>
    </g>
</svg>