<?xml version="1.0" encoding="UTF-8"?>
<svg width="68px" height="71px" viewBox="0 0 68 71" version="1.1" xmlns="http://www.w3.org/2000/svg" xmlns:xlink="http://www.w3.org/1999/xlink">
    <!-- Generator: Sketch 52.2 (67145) - http://www.bohemiancoding.com/sketch -->
    <title>ai_icon copy_slice</title>
    <desc>Created with Sketch.</desc>
    <defs>
        <polygon id="path-1" points="0 0.431405353 68 0.431405353 68 69.4454899 0 69.4454899"></polygon>
    </defs>
    <g id="Page-1" stroke="none" stroke-width="1" fill="none" fill-rule="evenodd">
        <g id="画板" transform="translate(-7.000000, 0.000000)">
            <g id="AI-icon-Copy" transform="translate(7.000000, 0.000000)">
                <g id="Group-3-Copy" transform="translate(0.000000, 0.562432)">
                    <mask id="mask-2" fill="white">
                        <use xlink:href="#path-1"></use>
                    </mask>
                    <g id="Clip-2"></g>
                </g>
                <path d="M21.6465731,33.4361862 C20.9798278,33.4361862 20.4921552,32.8109968 20.6599033,32.1703532 L24.513861,17.4355524 C24.6065825,17.0801077 24.8493571,17.0295306 24.9491565,17.0246133 C25.0666509,17.0175887 25.283237,17.0541167 25.402147,17.3667114 L30.9944556,32.0670916 C31.2457237,32.7288089 30.7530966,33.4361862 30.0403445,33.4361862 L21.6465731,33.4361862 Z M60,16.011666 C60,15.4525079 59.5434706,15.0001236 58.9807715,15.0001236 L43.1261059,15.0001236 C42.5634069,15.0001236 42.1068774,15.4525079 42.1068774,16.011666 C42.1068774,16.5701217 42.5634069,17.0239109 43.1261059,17.0239109 L49.0149817,17.0239109 C49.5776808,17.0239109 50.0342102,17.4762951 50.0342102,18.0354533 L50.0342102,50.9653728 C50.0342102,51.5238285 49.5776808,51.9769152 49.0149817,51.9769152 L41.4521647,51.9769152 C41.0281939,51.9769152 40.6481066,51.7156001 40.4980536,51.3222225 L27.3096614,16.6516071 C26.9062168,15.5922974 25.9372419,14.9453318 24.8401557,15.0036359 C23.7331603,15.0626426 22.8300106,15.8177871 22.5398136,16.9269714 L13.5713106,51.2189609 C13.4552318,51.665023 13.0496638,51.9769152 12.5846408,51.9769152 L7.0199363,51.9769152 C6.45652943,51.9769152 6,52.4300019 6,52.9884576 C6,53.5476158 6.45652943,54 7.0199363,54 L21.7562817,54 C22.3189808,54 22.7755102,53.5476158 22.7755102,52.9884576 C22.7755102,52.4300019 22.3189808,51.9769152 21.7562817,51.9769152 L16.7974519,51.9769152 C16.1307066,51.9769152 15.6437419,51.3517258 15.8107821,50.7110823 L19.6017459,36.2172253 C19.7178247,35.7711632 20.1241005,35.4599734 20.5884157,35.4599734 L31.5798042,35.4599734 C32.0037749,35.4599734 32.3838622,35.7205861 32.5339153,36.1146661 L39.0888286,53.3460097 C39.2381739,53.7393873 39.6182612,54 40.0422319,54 L58.9807715,54 C59.5434706,54 60,53.5476158 60,52.9884576 C60,52.4300019 59.5434706,51.9769152 58.9807715,51.9769152 L53.0926035,51.9769152 C52.5291966,51.9769152 52.0726672,51.5238285 52.0726672,50.9653728 L52.0726672,18.0354533 C52.0726672,17.4762951 52.5291966,17.0239109 53.0926035,17.0239109 L58.9807715,17.0239109 C59.5434706,17.0239109 60,16.5701217 60,16.011666 Z" id="Fill-4" fill="#009FDE"></path>
            </g>
        </g>
    </g>
</svg>