<?xml version="1.0" encoding="UTF-8"?>
<svg width="70px" height="70px" viewBox="0 0 70 70" version="1.1" xmlns="http://www.w3.org/2000/svg" xmlns:xlink="http://www.w3.org/1999/xlink">
    <!-- Generator: Sketch 52.2 (67145) - http://www.bohemiancoding.com/sketch -->
    <title>大数据_slice</title>
    <desc>Created with Sketch.</desc>
    <defs>
        <polygon id="path-1" points="0 0.976056338 70 0.976056338 70 69.9901408 0 69.9901408"></polygon>
    </defs>
    <g id="Page-1" stroke="none" stroke-width="1" fill="none" fill-rule="evenodd">
        <g id="画板" transform="translate(-12.000000, 0.000000)">
            <g id="大数据" transform="translate(12.000000, 0.000000)">
                <g id="Clip-2-Copy-6">
                    <mask id="mask-2" fill="white">
                        <use xlink:href="#path-1"></use>
                    </mask>
                    <g id="Clip-2-Copy"></g>
                </g>
                <path d="M26.2594536,17.4143659 L25.2741516,31.3889042 L34.7560754,27.95331 L26.2594536,17.4143659 Z M37.5338823,28.7150899 L40.4640554,32.3498681 L46.5587072,25.4443831 L37.5338823,28.7150899 Z M16.9522432,36.1739371 L23.080077,38.3214308 L23.3956445,33.8384717 L16.9522432,36.1739371 Z M24.7445941,38.9051322 L32.3310812,41.5637769 L39.3331589,33.6307135 L35.8592074,29.3218756 L25.1461639,33.2039849 L24.7445941,38.9051322 Z M34.0457099,42.1639671 L51.0044171,48.1078287 L40.4044633,34.9603657 L34.0457099,42.1639671 Z M24.6233782,40.6239186 L23.8825394,51.1358212 L31.1439785,42.9092582 L24.6233782,40.6239186 Z M21.8340593,56 L22.9588611,40.0408767 L12,36.1996595 L23.5236322,32.023391 L24.8644556,13 L36.4307503,27.3465243 L52.1542747,21.6480152 L41.5353598,33.6782011 L56,51.6199307 L32.85793,43.5094484 L21.8340593,56 Z" id="Fill-4" fill="#313131"></path>
                <path d="M15.4927786,36.4115713 L23.1767321,52.6047542 L51.4391272,49.1331346 L47.6271921,24.5443674 L25.7202475,16.7414827 L15.4927786,36.4115713 Z M21.842221,55 L13,36.3673006 L24.6300741,14 L49.6373036,22.9070105 L54,51.0499919 L21.842221,55 Z" id="Fill-6" fill="#313131"></path>
                <path d="M29,16 C29,17.6566502 27.6572238,19 26.0003695,19 C24.3435152,19 23,17.6566502 23,16 C23,14.3433498 24.3435152,13 26.0003695,13 C27.6572238,13 29,14.3433498 29,16" id="Fill-8" fill="#313131"></path>
                <path d="M26,13.337925 C25.0835222,13.337925 24.3372276,14.0835222 24.3372276,15.0006975 C24.3372276,15.9171752 25.0835222,16.6634699 26,16.6634699 C26.9164778,16.6634699 27.6627724,15.9171752 27.6627724,15.0006975 C27.6627724,14.0835222 26.9164778,13.337925 26,13.337925 M26,19 C23.7945946,19 22,17.2061029 22,15.0006975 C22,12.7952921 23.7945946,11 26,11 C28.2054054,11 30,12.7952921 30,15.0006975 C30,17.2061029 28.2054054,19 26,19" id="Fill-10" fill="#313131"></path>
                <path d="M53,24 C53,25.6566502 51.6572238,27 50.0003695,27 C48.3435152,27 47,25.6566502 47,24 C47,22.3433498 48.3435152,21 50.0003695,21 C51.6572238,21 53,22.3433498 53,24" id="Fill-12" fill="#313131"></path>
                <path d="M50,21.3372276 C49.0835222,21.3372276 48.3372276,22.0828248 48.3372276,23 C48.3372276,23.9164778 49.0835222,24.6627724 50,24.6627724 C50.9164778,24.6627724 51.6627724,23.9164778 51.6627724,23 C51.6627724,22.0828248 50.9164778,21.3372276 50,21.3372276 M50,27 C47.7945946,27 46,25.2054054 46,23 C46,20.7945946 47.7945946,19 50,19 C52.2054054,19 54,20.7945946 54,23 C54,25.2054054 52.2054054,27 50,27" id="Fill-14" fill="#313131"></path>
                <path d="M58,51 C58,52.6566502 56.6572238,54 55.0003695,54 C53.3435152,54 52,52.6566502 52,51 C52,49.3433498 53.3435152,48 55.0003695,48 C56.6572238,48 58,49.3433498 58,51" id="Fill-16" fill="#313131"></path>
                <path d="M55,49.337925 C54.0835222,49.337925 53.3372276,50.0835222 53.3372276,51.0006975 C53.3372276,51.9171752 54.0835222,52.6634699 55,52.6634699 C55.9164778,52.6634699 56.6627724,51.9171752 56.6627724,51.0006975 C56.6627724,50.0835222 55.9164778,49.337925 55,49.337925 M55,55 C52.7945946,55 51,53.2061029 51,51.0006975 C51,48.7952921 52.7945946,47 55,47 C57.2054054,47 59,48.7952921 59,51.0006975 C59,53.2061029 57.2054054,55 55,55" id="Fill-18" fill="#313131"></path>
                <path d="M25,54 C25,55.6566502 23.6572238,57 22.0003695,57 C20.3435152,57 19,55.6566502 19,54 C19,52.3440887 20.3435152,51 22.0003695,51 C23.6572238,51 25,52.3440887 25,54" id="Fill-20" fill="#313131"></path>
                <path d="M17,38 C17,39.6566502 15.6572238,41 14.0003695,41 C12.3435152,41 11,39.6566502 11,38 C11,36.3440887 12.3435152,35 14.0003695,35 C15.6572238,35 17,36.3440887 17,38" id="Fill-20-Copy" fill="#313131"></path>
                <path d="M22,52.3372276 C21.0835222,52.3372276 20.3372276,53.0828248 20.3372276,54 C20.3372276,54.9164778 21.0835222,55.6627724 22,55.6627724 C22.9164778,55.6627724 23.6627724,54.9164778 23.6627724,54 C23.6627724,53.0828248 22.9164778,52.3372276 22,52.3372276 M22,58 C19.7945946,58 18,56.2054054 18,54 C18,51.7945946 19.7945946,50 22,50 C24.2054054,50 26,51.7945946 26,54 C26,56.2054054 24.2054054,58 22,58" id="Fill-22" fill="#313131"></path>
                <path d="M14,36.3372276 C13.0835222,36.3372276 12.3372276,37.0828248 12.3372276,38 C12.3372276,38.9164778 13.0835222,39.6627724 14,39.6627724 C14.9164778,39.6627724 15.6627724,38.9164778 15.6627724,38 C15.6627724,37.0828248 14.9164778,36.3372276 14,36.3372276 M14,42 C11.7945946,42 10,40.2054054 10,38 C10,35.7945946 11.7945946,34 14,34 C16.2054054,34 18,35.7945946 18,38 C18,40.2054054 16.2054054,42 14,42" id="Fill-22-Copy" fill="#313131"></path>
            </g>
        </g>
    </g>
</svg>