<?xml version="1.0" encoding="UTF-8"?>
<svg width="70px" height="71px" viewBox="0 0 70 71" version="1.1" xmlns="http://www.w3.org/2000/svg" xmlns:xlink="http://www.w3.org/1999/xlink">
    <!-- Generator: Sketch 52.2 (67145) - http://www.bohemiancoding.com/sketch -->
    <title>新能源icon_copy_slice</title>
    <desc>Created with Sketch.</desc>
    <defs>
        <polygon id="path-1" points="0 0.99 70 0.99 70 70.99 0 70.99"></polygon>
    </defs>
    <g id="Page-1" stroke="none" stroke-width="1" fill="none" fill-rule="evenodd">
        <g id="画板" transform="translate(-9.000000, 0.000000)">
            <g id="新能源icon-copy" transform="translate(9.000000, 0.000000)">
                <g id="Clip-2-Copy-3">
                    <mask id="mask-2" fill="white">
                        <use xlink:href="#path-1"></use>
                    </mask>
                    <g id="Clip-2-Copy"></g>
                </g>
                <path d="M24.6416679,38.511115 L24.6348547,38.511115 L24.6471185,31.234261 C24.6471185,31.1065406 24.5374249,31.0032091 24.4018408,31.0025672 L22.6099504,31 C22.473685,31 22.3639913,31.1033316 22.36331,31.231052 L22.3517274,38.4007235 C22.3517274,38.4835171 22.3047159,38.5605345 22.2277259,38.6016104 L14.124021,42.9601494 C14.0061514,43.0230469 13.9652718,43.1642453 14.0320418,43.2752786 L14.9211737,44.7411751 C14.9879438,44.8522084 15.1378358,44.8907171 15.2557053,44.8278196 L21.9913054,41.2054379 C22.1548239,41.1175098 22.3585407,41.2285431 22.3585407,41.4063248 L22.3585407,52.768948 C22.3585407,52.8966684 22.4682344,53 22.6038185,53 L24.3963902,53 C24.5319743,53 24.6416679,52.8966684 24.6416679,52.768948 L24.6416679,41.4063248 C24.6416679,41.2285431 24.8453847,41.1175098 25.0089033,41.2054379 L31.7445033,44.8278196 C31.8616916,44.8907171 32.0122649,44.8522084 32.0790349,44.7411751 L32.9674855,43.2752786 C33.0349369,43.1642453 32.9940572,43.0230469 32.8761877,42.9601494 L24.6416679,38.5310111 L24.6416679,38.511115 Z" id="Fill-4" fill="#009FDE"></path>
                <path d="M55.8805505,35.1686221 L47.9680968,30.6695577 C47.8944401,30.6277364 47.8486535,30.5499748 47.8486535,30.4656786 L47.8605978,23.0789794 C47.8605978,22.9489411 47.7537624,22.8430808 47.6217113,22.8430808 L45.8765122,22.8404669 C45.744461,22.8398135 45.6369621,22.9450203 45.6362985,23.0750587 L45.6250178,30.4735201 C45.6250178,30.5571628 45.5792312,30.6355779 45.5055745,30.6773992 L37.6063922,35.1686221 C37.4922575,35.233968 37.4524431,35.3770755 37.5188004,35.4901239 L38.3914,36.9787032 C38.4577573,37.0910981 38.6037436,37.1296522 38.7178783,37.0643063 L45.2726601,33.3382838 C45.4319178,33.2481065 45.6316535,33.3605014 45.6316535,33.5421629 L45.6316535,51.5743606 C45.6316535,51.7050524 45.5248181,51.8102593 45.3921034,51.8102593 L33.5990701,51.8102593 C33.4670189,51.8102593 33.3601836,51.7050524 33.3601836,51.5743606 L33.3601836,20.6971218 C33.3601836,20.5161137 33.5592557,20.4024119 33.719177,20.4932426 L40.2819217,24.2251463 C40.3960564,24.2898387 40.5427062,24.2512846 40.6084,24.1382363 L41.4816631,22.6503104 C41.5473569,22.537262 41.508206,22.3935011 41.3934078,22.3288086 L33.4816176,17.8297443 C33.4072973,17.7872694 33.3615107,17.7095078 33.3621743,17.6252116 L33.373455,10.2391659 C33.3741186,10.1084742 33.2666197,10.0026138 33.1345685,10.0026138 L31.3893694,10 C31.2573183,10 31.1498193,10.1058603 31.1498193,10.2352452 L31.137875,17.6343601 L31.1365478,17.6343601 C31.1365478,17.7186563 31.0907612,17.7964179 31.0171045,17.8382392 L23.1192494,22.3288086 C23.0051147,22.3935011 22.9659639,22.537262 23.0323212,22.6503104 L23.9042572,24.1382363 C23.9706146,24.2512846 24.1172644,24.2898387 24.2313991,24.2251463 L30.7775544,20.5030445 C30.9368121,20.4122137 31.1365478,20.5259156 31.1365478,20.7069237 L31.1365478,53.7641013 C31.1365478,53.8941397 31.2433832,54 31.3754344,54 L47.6164027,54 C47.7484539,54 47.8552892,53.8941397 47.8552892,53.7641013 L47.8552892,33.5421629 C47.8552892,33.3605014 48.0543614,33.2481065 48.2142826,33.3382838 L54.7684009,37.0643063 C54.8831991,37.1296522 55.0291854,37.0910981 55.0955428,36.9787032 L55.9681423,35.4901239 C56.0338361,35.3770755 55.9946852,35.233968 55.8805505,35.1686221" id="Fill-6" fill="#009FDE"></path>
            </g>
        </g>
    </g>
</svg>