<?xml version="1.0" encoding="UTF-8"?>
<svg width="70px" height="70px" viewBox="0 0 70 70" version="1.1" xmlns="http://www.w3.org/2000/svg" xmlns:xlink="http://www.w3.org/1999/xlink">
    <!-- Generator: Sketch 52.2 (67145) - http://www.bohemiancoding.com/sketch -->
    <title>云计算_copy_slice</title>
    <desc>Created with Sketch.</desc>
    <defs>
        <polygon id="path-1" points="0 0.976056338 70 0.976056338 70 69.9901408 0 69.9901408"></polygon>
    </defs>
    <g id="Page-1" stroke="none" stroke-width="1" fill="none" fill-rule="evenodd">
        <g id="画板" transform="translate(-10.000000, 0.000000)">
            <g id="云计算-copy" transform="translate(10.000000, 0.000000)">
                <g id="Clip-2-Copy-7">
                    <mask id="mask-2" fill="white">
                        <use xlink:href="#path-1"></use>
                    </mask>
                    <g id="Clip-2-Copy"></g>
                </g>
                <path d="M51.1939794,34.8454311 C48.9051904,34.8421127 46.767963,35.4586804 44.9562087,36.5258935 C44.9562087,36.5258935 44.9555103,36.5252298 44.9555103,36.5252298 C45.0211637,35.9737037 45.0553872,35.4128858 45.0553872,34.8454311 C45.0553872,25.7542092 36.4554913,18.5710952 26.5641791,20.2429297 C20.9501156,21.192006 15.3381474,26.3329466 14.1661645,31.6358276 C13.6053169,34.1724497 13.7296393,36.6281017 14.3917608,38.8687183 C14.3924592,38.8687183 14.3917608,38.869382 14.3917608,38.869382 C9.71570264,39.1043281 6,42.7811692 6,47.2829767 C6,49.3291321 6.76758594,51.2047193 8.04433489,52.6648367 C8.30694846,52.7816461 8.53254469,52.8831906 8.79515826,53 L21.378958,53 L41.8649117,53 L60.004106,53 C60.284879,52.8619525 60.5181581,52.7471342 60.7989311,52.6090867 C62.1483178,50.8164608 62.9571117,48.6322579 62.9983197,46.2708498 C63.1086733,40.0242021 57.7690969,34.8540591 51.1939794,34.8454311" id="Fill-4" fill="#009FDE"></path>
                <path d="M9.44598017,52.8830448 L59.3456342,52.8830448 L59.8752586,52.6185202 C61.1261029,50.8832388 61.8062666,48.8490446 61.8425328,46.7268959 C61.8918002,43.8660622 60.7689143,41.1586529 58.6791559,39.101974 C56.5914503,37.0479405 53.8126327,35.9137912 50.8545365,35.9098233 L50.8394826,35.9098233 C48.7921489,35.9098233 46.7940825,36.4573893 45.0601441,37.4936644 L44.7645398,37.6907353 L44.1240637,37.3157716 L44.1692255,36.959986 C44.2321783,36.4230011 44.2636547,35.8820482 44.2636547,35.3516764 C44.2636547,31.1292023 42.3408579,27.1507522 38.9886227,24.4360684 C37.3573247,23.114768 35.4947437,22.1704152 33.4535684,21.6268171 C31.3097527,21.0567666 29.0804033,20.9641829 26.8264202,21.3517115 C24.2754643,21.7894997 21.6458174,23.1749474 19.4212579,25.2527882 C17.1946457,27.3312903 15.6755678,29.8231121 15.1438906,32.2686421 C14.6313729,34.626879 14.7032212,36.96197 15.3560141,39.2097678 L15.3608039,39.2256393 L15.4292309,39.4895026 L15.0816221,39.9193551 L14.8154413,39.9193551 C10.5189144,40.1461849 7.15573084,43.581037 7.15573084,47.7446543 C7.15573084,49.5295341 7.79073274,51.2687834 8.94577931,52.6555537 L9.44598017,52.8830448 Z M59.6268689,54 L9.18732637,54 L8.21908532,53.5589052 L8.13697301,53.4636764 C6.75885465,51.8613185 6,49.8304309 6,47.7446543 C6,43.2100412 9.49251048,39.4326298 14.0709563,38.8652245 C13.5303836,36.6425565 13.5105398,34.3504508 14.0134777,32.0385057 C15.210949,26.5284581 20.8678032,21.2412725 26.6238765,20.2519504 C29.0482426,19.8353242 31.4493436,19.9358435 33.760121,20.5502019 C35.9620996,21.1361239 37.9711142,22.155205 39.7310549,23.57967 C43.3460495,26.5072961 45.4193855,30.7978853 45.4193855,35.3516764 C45.4193855,35.5765223 45.4139113,35.8040135 45.4036473,36.0315046 C47.0842127,35.2187528 48.9426881,34.7935295 50.8394826,34.7935295 L50.855905,34.7935295 C54.126028,34.7974973 57.1977129,36.0500214 59.5043847,38.3196425 C61.8117407,40.5905863 63.0530052,43.5830209 62.9982637,46.7454126 C62.9565232,49.1400216 62.1744034,51.4327887 60.7353851,53.3763832 L60.6546413,53.4854996 L59.6268689,54 Z" id="Fill-6" fill="#009FDE"></path>
                <path d="M53.9796308,29.9380318 C52.017303,29.9893991 50.1873357,30.5591095 48.6241254,31.5117399 C48.6234466,31.5117399 48.6234466,31.5117399 48.6234466,31.5110728 C48.6824997,30.9933969 48.714402,30.4677157 48.714402,29.9340291 C48.714402,21.3656918 40.8454066,14.6038834 31.8225,16.2476379 C29.7943314,16.6165487 27.7675204,17.6152097 26,18.998792 C26.8124892,18.6665721 27.6399114,18.4170737 28.4673336,18.2663072 C38.1289639,16.5064759 46.5552306,23.7479351 46.5552306,32.9233408 C46.5552306,33.4937183 46.521292,34.0574247 46.4581663,34.6117916 C46.4581663,34.6124587 46.4581663,34.6124587 46.458845,34.6124587 C48.132695,33.5924503 50.0923077,32.9820463 52.1937836,32.9266764 C58.7025213,32.7565638 64.0899289,37.9866918 63.9935434,44.3862605 C63.9901496,44.5923969 63.9806468,44.796532 63.9663926,45 C64.6071527,43.6757903 64.9750467,42.1988128 64.9988037,40.6391139 C65.0890803,34.663826 60.0580276,29.77926 53.9796308,29.9380318" id="Fill-8" fill="#009FDE"></path>
            </g>
        </g>
    </g>
</svg>