<?xml version="1.0" encoding="UTF-8"?>
<svg width="89px" height="89px" viewBox="0 0 89 89" version="1.1" xmlns="http://www.w3.org/2000/svg" xmlns:xlink="http://www.w3.org/1999/xlink">
    <!-- Generator: Sketch 51 (57462) - http://www.bohemiancoding.com/sketch -->
    <title>增强现实_slice</title>
    <desc>Created with Sketch.</desc>
    <defs>
        <polygon id="path-1" points="0 0.0330940171 88.9664538 0.0330940171 88.9664538 87.9999248 0 87.9999248"></polygon>
    </defs>
    <g id="Page-1" stroke="none" stroke-width="1" fill="none" fill-rule="evenodd">
        <g id="Artboard">
            <g id="增强现实">
                <g id="Group-3" transform="translate(0.000000, 1.000000)">
                    <mask id="mask-2" fill="white">
                        <use xlink:href="#path-1"></use>
                    </mask>
                    <g id="Clip-2"></g>
                    <path d="M44.4831889,1.2936 C38.6495051,1.2936 32.9915393,2.4233094 27.6644709,4.65113846 C22.519206,6.80224957 17.8988128,9.88300171 13.9303256,13.8068991 C9.96183846,17.7307966 6.84607778,22.3000274 4.66976154,27.3867282 C2.41661624,32.6539419 1.27482991,38.2490872 1.27482991,44.0164718 C1.27482991,49.7846085 2.41661624,55.3790017 4.66976154,60.6462154 C6.84607778,65.7336684 9.96183846,70.3028991 13.9303256,74.2267966 C17.8988128,78.150694 22.519206,81.230694 27.6644709,83.3825573 C32.9915393,85.6103863 38.6495051,86.7393436 44.4831889,86.7393436 C50.316112,86.7393436 55.9748385,85.6103863 61.3019068,83.3825573 C66.4471718,81.230694 71.067565,78.150694 75.0360521,74.2267966 C79.0045393,70.3028991 82.1203,65.7336684 84.2966162,60.6462154 C86.5497615,55.3790017 87.6915479,49.7846085 87.6915479,44.0164718 C87.6915479,38.2490872 86.5497615,32.6539419 84.2966162,27.3867282 C82.1203,22.3000274 79.0045393,17.7307966 75.0360521,13.8068991 C71.067565,9.88300171 66.4471718,6.80224957 61.3019068,4.65113846 C55.9748385,2.4233094 50.316112,1.2936 44.4831889,1.2936 M44.4831889,87.9999248 C38.4783513,87.9999248 32.653035,86.8363692 27.1685051,84.5438564 C21.8711034,82.3280615 17.1137872,79.1563009 13.0289154,75.1173265 C8.94404359,71.0783521 5.73624017,66.3744889 3.4960265,61.1366085 C1.17594103,55.7137026 -7.60683761e-05,49.9538393 -7.60683761e-05,44.0164718 C-7.60683761e-05,38.0791043 1.17594103,32.319241 3.4960265,26.896335 C5.73624017,21.6584547 8.94404359,16.9545915 13.0289154,12.9156171 C17.1137872,8.87664274 21.8711034,5.70488205 27.1685051,3.48983932 C32.653035,1.19657436 38.4783513,0.0330188034 44.4831889,0.0330188034 C50.4880265,0.0330188034 56.3133427,1.19657436 61.7978726,3.48983932 C67.0952744,5.70488205 71.8525906,8.87664274 75.9374624,12.9156171 C80.0223342,16.9545915 83.2301376,21.6584547 85.4703513,26.896335 C87.7904368,32.319241 88.9664538,38.0791043 88.9664538,44.0164718 C88.9664538,49.9538393 87.7904368,55.7137026 85.4703513,61.1366085 C83.2301376,66.3744889 80.0223342,71.0783521 75.9374624,75.1173265 C71.8525906,79.1563009 67.0952744,82.3280615 61.7978726,84.5438564 C56.3133427,86.8363692 50.4880265,87.9999248 44.4831889,87.9999248" id="Fill-1" fill="#313131" mask="url(#mask-2)"></path>
                </g>
                <path d="M14.2876788,43.9291443 C14.7036585,44.1015973 15.171162,44.2770496 15.5227368,44.4097634 C17.4973141,45.1505617 18.9240712,45.6859159 19.0703082,46.9433235 C19.7863387,53.1118936 22.7656319,58.8058431 27.4588521,62.973958 C32.1884422,67.1743141 38.2962963,69.488184 44.6572236,69.488184 C51.0280011,69.488184 57.1434323,67.1683158 61.8752954,62.9559629 C66.5723042,58.7751014 69.5470512,53.0676557 70.2502007,46.8855892 C70.3911337,45.6484261 71.8178909,45.090578 73.6242578,44.3842704 C73.9015776,44.2762998 74.2561832,44.1375875 74.5933616,43.9966259 C74.2546678,43.8526651 73.8985468,43.7124533 73.6204693,43.6029831 C71.8156178,42.8929265 70.390376,42.3320792 70.2479276,41.0941663 C69.5402318,34.9158488 66.5639695,29.2144014 61.8684761,25.0380387 C57.1373707,20.8294348 51.0249703,18.5125658 44.6572236,18.5125658 C38.3660051,18.5125658 32.3081595,20.7814479 27.6013005,24.9008261 C22.9338422,28.9849639 19.9219678,34.5836893 19.1188012,40.6645333 C18.9513486,41.9346874 17.4738253,42.5600171 15.6030534,43.3510517 C15.2279898,43.5085088 14.7241165,43.7222007 14.2876788,43.9291443 M44.6572236,72 C37.6689172,72 30.9586882,69.458942 25.76311,64.8446985 C20.6970992,60.3451739 17.4495787,54.2260902 16.5910998,47.5828993 C16.1736047,47.3407153 15.2234436,46.9838124 14.6218264,46.7581239 C12.598756,45.9993305 11,45.3987441 11,44.0003749 C11,42.5645159 12.6707379,41.8574585 14.6051569,41.0394312 C15.2385977,40.7725039 16.2539214,40.3428709 16.6380775,40.070695 C17.5723268,33.4919866 20.8615211,27.4456331 25.9191971,23.0188386 C31.0912864,18.4923213 37.7454453,16 44.6572236,16 C51.6523494,16 58.3678824,18.5455568 63.5657337,23.1695476 C68.6370483,27.6795694 71.8822957,33.8113996 72.7301668,40.4688366 C73.1203845,40.7027729 74.0008369,41.0491786 74.5585072,41.2681189 C75.2381679,41.5365459 75.9413175,41.8124707 76.4989878,42.1056409 C76.9096636,42.3215821 78,42.8951759 78,44.0003749 C78,45.1048241 76.9073904,45.6754187 76.4967147,45.8906101 C75.9390444,46.1815309 75.2366525,46.4559562 74.5569918,46.7221337 C74.0015946,46.9388247 73.124173,47.2822312 72.7324399,47.5139181 C71.8891151,54.1743543 68.6453831,60.3099335 63.5733107,64.8237043 C58.3747017,69.4521938 51.656138,72 44.6572236,72" id="Fill-4" fill="#313131"></path>
                <path d="M44.0003786,26.5382493 C39.0692689,26.5382493 34.4327233,28.4585955 30.9456594,31.9456594 C27.4585955,35.4327233 25.5382493,40.0685117 25.5382493,45.0003786 C25.5382493,49.9322456 27.4585955,54.5687911 30.9456594,58.0550978 C34.4327233,61.542919 39.0692689,63.4632651 44.0003786,63.4632651 C48.9314883,63.4632651 53.5680339,61.542919 57.0550978,58.0550978 C60.5421617,54.5687911 62.4625079,49.9322456 62.4625079,45.0003786 C62.4625079,40.0685117 60.5421617,35.4327233 57.0550978,31.9456594 C53.5680339,28.4585955 48.9314883,26.5382493 44.0003786,26.5382493 M44.0003786,66 C38.390787,66 33.1174074,63.8161363 29.1510142,59.8497431 C25.1846209,55.8833499 23,50.6099703 23,45.0003786 C23,39.3915442 25.1846209,34.1174074 29.1510142,30.1510142 C33.1174074,26.1846209 38.390787,24 44.0003786,24 C49.609213,24 54.8833499,26.1846209 58.8497431,30.1510142 C62.8161363,34.1174074 65,39.3915442 65,45.0003786 C65,50.6099703 62.8161363,55.8833499 58.8497431,59.8497431 C54.8833499,63.8161363 49.609213,66 44.0003786,66" id="Fill-6" fill="#313131"></path>
                <path d="M55,44.5 C55,50.298496 50.2992626,55 44.5,55 C38.7007374,55 34,50.298496 34,44.5 C34,38.701504 38.7007374,34 44.5,34 C50.2992626,34 55,38.701504 55,44.5" id="Fill-8" fill="#313131"></path>
                <path d="M44,35.268343 C38.6335741,35.268343 34.2683867,39.6341371 34.2683867,44.9996216 C34.2683867,50.3658629 38.6335741,54.731657 44,54.731657 C49.3664259,54.731657 53.7316133,50.3658629 53.7316133,44.9996216 C53.7316133,39.6341371 49.3664259,35.268343 44,35.268343 M44,56 C37.9342965,56 33,51.0651164 33,44.9996216 C33,38.9348836 37.9342965,34 44,34 C50.0657035,34 55,38.9348836 55,44.9996216 C55,51.0651164 50.0657035,56 44,56" id="Fill-10" fill="#313131"></path>
                <circle id="Oval-2-Copy-6" stroke="#313131" stroke-width="3" cx="44.5" cy="44.5" r="43"></circle>
            </g>
        </g>
    </g>
</svg>