<?xml version="1.0" encoding="UTF-8"?>
<svg width="70px" height="70px" viewBox="0 0 70 70" version="1.1" xmlns="http://www.w3.org/2000/svg" xmlns:xlink="http://www.w3.org/1999/xlink">
    <!-- Generator: Sketch 52.2 (67145) - http://www.bohemiancoding.com/sketch -->
    <title>数据服务icon_slice</title>
    <desc>Created with Sketch.</desc>
    <defs>
        <polygon id="path-1" points="-2.13162821e-14 0.979839361 70 0.979839361 70 69.0218945 -2.13162821e-14 69.0218945"></polygon>
    </defs>
    <g id="Page-1" stroke="none" stroke-width="1" fill="none" fill-rule="evenodd">
        <g id="画板" transform="translate(-9.000000, 0.000000)">
            <g id="数据服务icon" transform="translate(9.000000, 0.000000)">
                <g id="Clip-3">
                    <mask id="mask-2" fill="white">
                        <use xlink:href="#path-1"></use>
                    </mask>
                    <g id="Clip-2"></g>
                </g>
                <path d="M42.2070847,26.9655882 L57.5922542,26.9655882 C57.8224237,26.9655882 58.0098814,26.7802941 58.0098814,26.5514706 L58.0098814,23.2567647 C58.0098814,23.0285294 57.8224237,22.8426471 57.5922542,22.8426471 L42.2070847,22.8426471 L42.2070847,26.9655882 Z M57.5922542,28.9526471 L40.2031864,28.9526471 L40.2031864,20.8555882 L57.5922542,20.8555882 C58.9275932,20.8555882 60.0137797,21.9326471 60.0137797,23.2567647 L60.0137797,26.5514706 C60.0137797,27.8755882 58.9275932,28.9526471 57.5922542,28.9526471 Z" id="Fill-4" fill="#313131"></path>
                <path d="M48.9690254,38.3195882 L57.5920763,38.3195882 C57.8222458,38.3195882 58.0097034,38.1342941 58.0097034,37.9054706 L58.0097034,34.6107647 C58.0097034,34.3825294 57.8222458,34.1966471 57.5920763,34.1966471 L48.9690254,34.1966471 L48.9690254,38.3195882 Z M57.5920763,40.3066471 L46.9657203,40.3066471 L46.9657203,32.2095882 L57.5920763,32.2095882 C58.9274153,32.2095882 60.0136017,33.2866471 60.0136017,34.6107647 L60.0136017,37.9054706 C60.0136017,39.2295882 58.9274153,40.3066471 57.5920763,40.3066471 Z" id="Fill-6" fill="#313131"></path>
                <path d="M34.2429237,49.6741176 L57.5920763,49.6741176 C57.8222458,49.6741176 58.0097034,49.4882353 58.0097034,49.2594118 L58.0097034,45.9647059 C58.0097034,45.7364706 57.8222458,45.5505882 57.5920763,45.5505882 L34.2429237,45.5505882 L34.2429237,49.6741176 Z M57.5920763,51.6605882 L32.2390254,51.6605882 L32.2390254,43.5635294 L57.5920763,43.5635294 C58.9274153,43.5635294 60.0136017,44.6405882 60.0136017,45.9647059 L60.0136017,49.2594118 C60.0136017,50.5835294 58.9274153,51.6605882 57.5920763,51.6605882 Z" id="Fill-8" fill="#313131"></path>
                <path d="M15.3888983,27.177 C14.1229661,27.177 13.0966949,26.1593529 13.0966949,24.9040588 C13.0966949,23.6487647 14.1229661,22.6311176 15.3888983,22.6311176 C16.6548305,22.6311176 17.6811017,23.6487647 17.6811017,24.9040588 C17.6811017,26.1593529 16.6548305,27.177 15.3888983,27.177 Z M12.4500847,21.8487647 C11.6664407,21.8487647 11.0305085,22.4799412 11.0305085,23.257 L11.0305085,26.5517059 C11.0305085,27.3287647 11.6664407,27.9593529 12.4500847,27.9593529 L43.0833898,27.9593529 L43.0833898,21.8487647 L12.4500847,21.8487647 Z" id="Fill-10" fill="#313131"></path>
                <path d="M15.3888983,23.6251765 C14.6776271,23.6251765 14.0986441,24.1987059 14.0986441,24.904 C14.0986441,25.6092941 14.6776271,26.1834118 15.3888983,26.1834118 C16.1001695,26.1834118 16.6791525,25.6092941 16.6791525,24.904 C16.6791525,24.1987059 16.1001695,23.6251765 15.3888983,23.6251765 Z M12.4500847,22.8428235 C12.2199153,22.8428235 12.0324576,23.0281176 12.0324576,23.2569412 L12.0324576,26.5516471 C12.0324576,26.7798824 12.2199153,26.9657647 12.4500847,26.9657647 L12.8362712,26.9657647 C12.3729661,26.4034118 12.095339,25.6851765 12.095339,24.904 C12.095339,24.1234118 12.3729661,23.4051765 12.8362712,22.8428235 L12.4500847,22.8428235 Z M17.9415254,26.9657647 L42.0814407,26.9657647 L42.0814407,22.8428235 L17.9415254,22.8428235 C18.4048305,23.4051765 18.6824576,24.1234118 18.6824576,24.904 C18.6824576,25.6851765 18.4048305,26.4034118 17.9415254,26.9657647 Z M44.085339,28.9528235 L12.4500847,28.9528235 C11.1147458,28.9528235 10.0285593,27.8757647 10.0285593,26.5516471 L10.0285593,23.2569412 C10.0285593,21.9328235 11.1147458,20.8557647 12.4500847,20.8557647 L44.085339,20.8557647 L44.085339,28.9528235 Z" id="Fill-12" fill="#313131"></path>
                <path d="M15.3888983,38.5309412 C14.1229661,38.5309412 13.0966949,37.5138824 13.0966949,36.2585882 C13.0966949,35.0032941 14.1229661,33.9850588 15.3888983,33.9850588 C16.6548305,33.9850588 17.6811017,35.0032941 17.6811017,36.2585882 C17.6811017,37.5138824 16.6548305,38.5309412 15.3888983,38.5309412 Z M12.4500847,33.2027059 C11.6664407,33.2027059 11.0305085,33.8338824 11.0305085,34.6109412 L11.0305085,37.9056471 C11.0305085,38.6827059 11.6664407,39.3132941 12.4500847,39.3132941 L48.9034746,39.3132941 L48.9034746,33.2027059 L12.4500847,33.2027059 Z" id="Fill-14" fill="#313131"></path>
                <path d="M15.3888983,34.9791765 C14.6776271,34.9791765 14.0986441,35.5532941 14.0986441,36.2585882 C14.0986441,36.9632941 14.6776271,37.5374118 15.3888983,37.5374118 C16.1001695,37.5374118 16.6791525,36.9632941 16.6791525,36.2585882 C16.6791525,35.5532941 16.1001695,34.9791765 15.3888983,34.9791765 Z M12.4500847,34.1968235 C12.2199153,34.1968235 12.0324576,34.3821176 12.0324576,34.6109412 L12.0324576,37.9056471 C12.0324576,38.1338824 12.2199153,38.3197647 12.4500847,38.3197647 L12.8362712,38.3197647 C12.3729661,37.7574118 12.095339,37.0391765 12.095339,36.2585882 C12.095339,35.4774118 12.3729661,34.7591765 12.8362712,34.1968235 L12.4500847,34.1968235 Z M17.9415254,38.3197647 L47.9015254,38.3197647 L47.9015254,34.1968235 L17.9415254,34.1968235 C18.4048305,34.7591765 18.6824576,35.4774118 18.6824576,36.2585882 C18.6824576,37.0391765 18.4048305,37.7574118 17.9415254,38.3197647 Z M49.9054237,40.3068235 L12.4500847,40.3068235 C11.1147458,40.3068235 10.0285593,39.2297647 10.0285593,37.9056471 L10.0285593,34.6109412 C10.0285593,33.2868235 11.1147458,32.2097647 12.4500847,32.2097647 L49.9054237,32.2097647 L49.9054237,40.3068235 Z" id="Fill-16" fill="#313131"></path>
                <path d="M15.3888983,49.8849412 C14.1229661,49.8849412 13.0966949,48.8678824 13.0966949,47.6125882 C13.0966949,46.3572941 14.1229661,45.3390588 15.3888983,45.3390588 C16.6548305,45.3390588 17.6811017,46.3572941 17.6811017,47.6125882 C17.6811017,48.8678824 16.6548305,49.8849412 15.3888983,49.8849412 Z M12.4500847,44.5567059 C11.6664407,44.5567059 11.0305085,45.1878824 11.0305085,45.9649412 L11.0305085,49.2596471 C11.0305085,50.0367059 11.6664407,50.6672941 12.4500847,50.6672941 L33.2412712,50.6672941 L33.2412712,44.5567059 L12.4500847,44.5567059 Z" id="Fill-18" fill="#313131"></path>
                <path d="M15.3888983,46.3331176 C14.6776271,46.3331176 14.0986441,46.9072353 14.0986441,47.6125294 C14.0986441,48.3172353 14.6776271,48.8919412 15.3888983,48.8919412 C16.1001695,48.8919412 16.6791525,48.3172353 16.6791525,47.6125294 C16.6791525,46.9072353 16.1001695,46.3331176 15.3888983,46.3331176 Z M12.4500847,45.5507647 C12.2199153,45.5507647 12.0324576,45.7360588 12.0324576,45.9648824 L12.0324576,49.2595882 C12.0324576,49.4878235 12.2199153,49.6742941 12.4500847,49.6742941 L12.8362712,49.6742941 C12.3729661,49.1113529 12.095339,48.3931176 12.095339,47.6125294 C12.095339,46.8313529 12.3729661,46.1131176 12.8362712,45.5507647 L12.4500847,45.5507647 Z M17.9415254,49.6742941 L32.239322,49.6742941 L32.239322,45.5507647 L17.9415254,45.5507647 C18.4048305,46.1131176 18.6824576,46.8313529 18.6824576,47.6125294 C18.6824576,48.3931176 18.4048305,49.1113529 17.9415254,49.6742941 Z M34.2426271,51.6607647 L12.4500847,51.6607647 C11.1147458,51.6607647 10.0285593,50.5837059 10.0285593,49.2595882 L10.0285593,45.9648824 C10.0285593,44.6407647 11.1147458,43.5637059 12.4500847,43.5637059 L34.2426271,43.5637059 L34.2426271,51.6607647 Z" id="Fill-20" fill="#313131"></path>
            </g>
        </g>
    </g>
</svg>