<?xml version="1.0" encoding="UTF-8"?>
<svg width="90px" height="90px" viewBox="0 0 90 90" version="1.1" xmlns="http://www.w3.org/2000/svg" xmlns:xlink="http://www.w3.org/1999/xlink">
    <!-- Generator: Sketch 51 (57462) - http://www.bohemiancoding.com/sketch -->
    <title>大数据_slice</title>
    <desc>Created with Sketch.</desc>
    <defs>
        <polygon id="path-1" points="0 0.033559322 89.966 0.033559322 89.966 89.2372119 0 89.2372119"></polygon>
    </defs>
    <g id="Page-1" stroke="none" stroke-width="1" fill="none" fill-rule="evenodd">
        <g id="Artboard">
            <g id="大数据">
                <g id="Group-3" transform="translate(0.000000, 0.729153)">
                    <mask id="mask-2" fill="white">
                        <use xlink:href="#path-1"></use>
                    </mask>
                    <g id="Clip-2"></g>
                    <path d="M44.9829231,1.31178814 C39.0844615,1.31178814 33.3621538,2.45738136 27.9752308,4.7165339 C22.7721538,6.89788983 18.0998462,10.0219576 14.0867692,14.0010254 C10.0736923,17.9800932 6.92292308,22.6135678 4.72215385,27.7717881 C2.44369231,33.1130593 1.28907692,38.7868729 1.28907692,44.6353475 C1.28907692,50.4845847 2.44369231,56.1576356 4.72215385,61.4989068 C6.92292308,66.6578898 10.0736923,71.2913644 14.0867692,75.2704322 C18.0998462,79.2495 22.7721538,82.3728051 27.9752308,84.5549237 C33.3621538,86.8140763 39.0844615,87.9589068 44.9829231,87.9589068 C50.8821538,87.9589068 56.6036923,86.8140763 61.9906154,84.5549237 C67.1936923,82.3728051 71.866,79.2495 75.8790769,75.2704322 C79.8921538,71.2913644 83.0429231,66.6578898 85.2436923,61.4989068 C87.5221538,56.1576356 88.6767692,50.4845847 88.6767692,44.6353475 C88.6767692,38.7868729 87.5221538,33.1130593 85.2436923,27.7717881 C83.0429231,22.6135678 79.8921538,17.9800932 75.8790769,14.0010254 C71.866,10.0219576 67.1936923,6.89788983 61.9906154,4.7165339 C56.6036923,2.45738136 50.8821538,1.31178814 44.9829231,1.31178814 M44.9829231,89.2372119 C38.9106154,89.2372119 33.0198462,88.0572966 27.4736923,85.7325508 C22.1167692,83.4856017 17.306,80.2692458 13.1752308,76.1734831 C9.04446154,72.0777203 5.80061538,67.3077203 3.53523077,61.9961949 C1.18907692,56.4970424 -0.000153846154,50.6561949 -0.000153846154,44.6353475 C-0.000153846154,38.6145 1.18907692,32.7736525 3.53523077,27.2745 C5.80061538,21.9629746 9.04446154,17.1929746 13.1752308,13.0972119 C17.306,9.00144915 22.1167692,5.78509322 27.4736923,3.53890678 C33.0198462,1.21339831 38.9106154,0.0334830508 44.9829231,0.0334830508 C51.0552308,0.0334830508 56.946,1.21339831 62.4929231,3.53890678 C67.8490769,5.78509322 72.6598462,9.00144915 76.7906154,13.0972119 C80.9213846,17.1929746 84.1652308,21.9629746 86.4306154,27.2745 C88.7767692,32.7736525 89.966,38.6145 89.966,44.6353475 C89.966,50.6561949 88.7767692,56.4970424 86.4306154,61.9961949 C84.1652308,67.3077203 80.9213846,72.0777203 76.7906154,76.1734831 C72.6598462,80.2692458 67.8490769,83.4856017 62.4929231,85.7325508 C56.946,88.0572966 51.0552308,89.2372119 44.9829231,89.2372119" id="Fill-1" fill="#313131" mask="url(#mask-2)"></path>
                </g>
                <path d="M36.4329231,25.533839 L35.3136923,41.694178 L46.0844615,37.7212119 L36.4329231,25.533839 Z M49.2398462,38.6021441 L52.5683077,42.8054492 L59.4913846,34.8198559 L49.2398462,38.6021441 Z M25.8606154,47.2276525 L32.8213846,49.7110424 L33.1798462,44.5268898 L25.8606154,47.2276525 Z M34.7121538,50.3860424 L43.3298462,53.4605339 L51.2836923,44.2866356 L47.3375385,39.303839 L35.1683077,43.793161 L34.7121538,50.3860424 Z M45.2775385,54.1546017 L64.5413846,61.028161 L52.5006154,45.8242627 L45.2775385,54.1546017 Z M34.5744615,52.3736695 L33.7329231,64.5297712 L41.9813846,55.0164661 L34.5744615,52.3736695 Z M31.406,70.1547712 L32.6836923,51.6994322 L20.2352308,47.2573983 L33.3252308,42.4279068 L34.8483077,20.4290085 L47.9867692,37.0195169 L65.8475385,30.4296864 L53.7852308,44.3415508 L70.216,65.0896017 L43.9283077,55.7105339 L31.406,70.1547712 Z" id="Fill-4" fill="#313131"></path>
                <path d="M24.4840769,47.2680763 L33.3379231,65.9598559 L65.9033077,61.9525678 L61.511,33.5697712 L36.2686923,24.5629068 L24.4840769,47.2680763 Z M31.8002308,68.7246864 L21.6117692,47.2169746 L35.0125385,21.3984153 L63.8271538,31.6797712 L68.8540769,64.1651949 L31.8002308,68.7246864 Z" id="Fill-6" fill="#313131"></path>
                <path d="M38.7633077,22.9812712 C38.7633077,24.6912712 37.3656154,26.0778814 35.641,26.0778814 C33.9163846,26.0778814 32.5179231,24.6912712 32.5179231,22.9812712 C32.5179231,21.2712712 33.9163846,19.884661 35.641,19.884661 C37.3656154,19.884661 38.7633077,21.2712712 38.7633077,22.9812712" id="Fill-8" fill="#313131"></path>
                <path d="M35.6407692,21.1631186 C34.63,21.1631186 33.8069231,21.9784576 33.8069231,22.9814237 C33.8069231,23.9836271 34.63,24.7997288 35.6407692,24.7997288 C36.6515385,24.7997288 37.4746154,23.9836271 37.4746154,22.9814237 C37.4746154,21.9784576 36.6515385,21.1631186 35.6407692,21.1631186 M35.6407692,27.3548136 C33.2084615,27.3548136 31.2292308,25.3931186 31.2292308,22.9814237 C31.2292308,20.5697288 33.2084615,18.6065085 35.6407692,18.6065085 C38.0730769,18.6065085 40.0523077,20.5697288 40.0523077,22.9814237 C40.0523077,25.3931186 38.0730769,27.3548136 35.6407692,27.3548136" id="Fill-10" fill="#313131"></path>
                <path d="M66.8156154,31.9140763 C66.8156154,33.6240763 65.4179231,35.0106864 63.6933077,35.0106864 C61.9686923,35.0106864 60.5702308,33.6240763 60.5702308,31.9140763 C60.5702308,30.2040763 61.9686923,28.8174661 63.6933077,28.8174661 C65.4179231,28.8174661 66.8156154,30.2040763 66.8156154,31.9140763" id="Fill-12" fill="#313131"></path>
                <path d="M63.6930769,30.0959237 C62.6823077,30.0959237 61.8592308,30.9112627 61.8592308,31.9142288 C61.8592308,32.9164322 62.6823077,33.7325339 63.6930769,33.7325339 C64.7038462,33.7325339 65.5269231,32.9164322 65.5269231,31.9142288 C65.5269231,30.9112627 64.7038462,30.0959237 63.6930769,30.0959237 M63.6930769,36.2883814 C61.2607692,36.2883814 59.2815385,34.3259237 59.2815385,31.9142288 C59.2815385,29.5025339 61.2607692,27.5400763 63.6930769,27.5400763 C66.1253846,27.5400763 68.1046154,29.5025339 68.1046154,31.9142288 C68.1046154,34.3259237 66.1253846,36.2883814 63.6930769,36.2883814" id="Fill-14" fill="#313131"></path>
                <path d="M71.1155385,63.3834153 C71.1155385,65.0934153 69.7178462,66.4800254 67.9932308,66.4800254 C66.2686154,66.4800254 64.8701538,65.0934153 64.8701538,63.3834153 C64.8701538,61.6734153 66.2686154,60.2868051 67.9932308,60.2868051 C69.7178462,60.2868051 71.1155385,61.6734153 71.1155385,63.3834153" id="Fill-16" fill="#313131"></path>
                <path d="M67.9929231,61.5652627 C66.9821538,61.5652627 66.1590769,62.3806017 66.1590769,63.3835678 C66.1590769,64.3857712 66.9821538,65.2018729 67.9929231,65.2018729 C69.0036923,65.2018729 69.8267692,64.3857712 69.8267692,63.3835678 C69.8267692,62.3806017 69.0036923,61.5652627 67.9929231,61.5652627 M67.9929231,67.7569576 C65.5606154,67.7569576 63.5813846,65.7952627 63.5813846,63.3835678 C63.5813846,60.9718729 65.5606154,59.0086525 67.9929231,59.0086525 C70.4252308,59.0086525 72.4044615,60.9718729 72.4044615,63.3835678 C72.4044615,65.7952627 70.4252308,67.7569576 67.9929231,67.7569576" id="Fill-18" fill="#313131"></path>
                <path d="M35.4953846,67.5966102 C35.4953846,69.3066102 34.0976923,70.6932203 32.3730769,70.6932203 C30.6484615,70.6932203 29.25,69.3066102 29.25,67.5966102 C29.25,65.8873729 30.6484615,64.5 32.3730769,64.5 C34.0976923,64.5 35.4953846,65.8873729 35.4953846,67.5966102" id="Fill-20" fill="#313131"></path>
                <path d="M25.7453846,48.0966102 C25.7453846,49.8066102 24.3476923,51.1932203 22.6230769,51.1932203 C20.8984615,51.1932203 19.5,49.8066102 19.5,48.0966102 C19.5,46.3873729 20.8984615,45 22.6230769,45 C24.3476923,45 25.7453846,46.3873729 25.7453846,48.0966102" id="Fill-20-Copy" fill="#313131"></path>
                <path d="M32.1615385,65.5558475 C31.1507692,65.5558475 30.3276923,66.3711864 30.3276923,67.3741525 C30.3276923,68.3763559 31.1507692,69.1924576 32.1615385,69.1924576 C33.1723077,69.1924576 33.9953846,68.3763559 33.9953846,67.3741525 C33.9953846,66.3711864 33.1723077,65.5558475 32.1615385,65.5558475 M32.1615385,71.7483051 C29.7292308,71.7483051 27.75,69.7858475 27.75,67.3741525 C27.75,64.9624576 29.7292308,63 32.1615385,63 C34.5938462,63 36.5730769,64.9624576 36.5730769,67.3741525 C36.5730769,69.7858475 34.5938462,71.7483051 32.1615385,71.7483051" id="Fill-22" fill="#313131"></path>
                <path d="M22.4115385,46.0558475 C21.4007692,46.0558475 20.5776923,46.8711864 20.5776923,47.8741525 C20.5776923,48.8763559 21.4007692,49.6924576 22.4115385,49.6924576 C23.4223077,49.6924576 24.2453846,48.8763559 24.2453846,47.8741525 C24.2453846,46.8711864 23.4223077,46.0558475 22.4115385,46.0558475 M22.4115385,52.2483051 C19.9792308,52.2483051 18,50.2858475 18,47.8741525 C18,45.4624576 19.9792308,43.5 22.4115385,43.5 C24.8438462,43.5 26.8230769,45.4624576 26.8230769,47.8741525 C26.8230769,50.2858475 24.8438462,52.2483051 22.4115385,52.2483051" id="Fill-22-Copy" fill="#313131"></path>
                <circle id="Oval-2-Copy-10" stroke="#313131" stroke-width="3" cx="45" cy="45" r="43.5"></circle>
            </g>
        </g>
    </g>
</svg>