<?xml version="1.0" encoding="UTF-8"?>
<svg width="70px" height="71px" viewBox="0 0 70 71" version="1.1" xmlns="http://www.w3.org/2000/svg" xmlns:xlink="http://www.w3.org/1999/xlink">
    <!-- Generator: Sketch 52.2 (67145) - http://www.bohemiancoding.com/sketch -->
    <title>增强现实_slice</title>
    <desc>Created with Sketch.</desc>
    <defs>
        <polygon id="path-1" points="0 0.99 70 0.99 70 70.99 0 70.99"></polygon>
    </defs>
    <g id="Page-1" stroke="none" stroke-width="1" fill="none" fill-rule="evenodd">
        <g id="画板" transform="translate(-9.000000, 0.000000)">
            <g id="增强现实" transform="translate(9.000000, 0.000000)">
                <g id="Clip-2-Copy-2">
                    <mask id="mask-2" fill="white">
                        <use xlink:href="#path-1"></use>
                    </mask>
                    <g id="Clip-2-Copy"></g>
                </g>
                <path d="M8.84605033,34.4380013 C9.20615211,34.5888977 9.61085666,34.7424184 9.91520498,34.858543 C11.6245406,35.5067415 12.8596438,35.9751764 12.9862369,37.075408 C13.6060843,42.4729069 16.1851739,47.4551127 20.2479615,51.1022132 C24.3422335,54.7775249 29.6296296,56.802161 35.136104,56.802161 C40.6511055,56.802161 45.9450608,54.7722763 50.0413005,51.0864675 C54.1073678,47.4282137 56.6825219,42.4341987 57.2912185,37.0248905 C57.4132202,35.9423728 58.6483234,35.4542558 60.2120441,34.8362366 C60.452112,34.7417623 60.759084,34.6203891 61.0509697,34.4970477 C60.7577721,34.371082 60.4494883,34.2483966 60.2087645,34.1526102 C58.6463557,33.5313107 57.4125643,33.0405693 57.2892508,31.9573955 C56.6766186,26.5513677 54.1001527,21.5626013 50.0353972,17.9082839 C45.9398134,14.2257555 40.6484818,12.1984951 35.136104,12.1984951 C29.6899746,12.1984951 24.4458694,14.1837669 20.3712751,17.7882229 C16.3307888,21.3618434 13.7234945,26.2607281 13.028216,31.5814667 C12.883257,32.6928515 11.604207,33.240015 9.98473282,33.9321703 C9.66005089,34.0699452 9.22386203,34.2569256 8.84605033,34.4380013 M35.136104,59 C29.0865253,59 23.2776703,56.7765742 18.7800057,52.7391112 C14.3945038,48.8020271 11.5832174,43.4478289 10.8400565,37.6350369 C10.4786429,37.4231258 9.65611535,37.1108359 9.13531241,36.9133584 C7.38399774,36.2494142 6,35.7239011 6,34.500328 C6,33.2439514 7.44631043,32.6252762 9.1208821,31.9095023 C9.66923381,31.6759409 10.5481708,31.3000121 10.8807238,31.0618582 C11.689477,25.3054882 14.5368391,20.014929 18.9151258,16.1414838 C23.3924569,12.1807811 29.1527735,10 35.136104,10 C41.1915861,10 47.0050325,12.2273622 51.504665,16.2733541 C55.8947583,20.2196232 58.7040769,25.5849746 59.4380548,31.410232 C59.7758552,31.6149263 60.5380379,31.9180313 61.0207973,32.1096041 C61.6091603,32.3444776 62.2178569,32.5859119 62.7006163,32.8424358 C63.0561267,33.0313843 64,33.5332789 64,34.500328 C64,35.4667211 63.0541589,35.9659914 62.6986486,36.1542839 C62.2158892,36.4088396 61.6078485,36.6489617 61.0194854,36.881867 C60.5386938,37.0714716 59.7791349,37.3719523 59.4400226,37.5746783 C58.7099802,43.40256 55.9019734,48.7711918 51.5112242,52.7207412 C47.0109358,56.7706696 41.1948657,59 35.136104,59" id="Fill-4" fill="#313131"></path>
                <path d="M35.0003245,18.1756423 C30.7736591,18.1756423 26.7994771,19.8216533 23.8105652,22.8105652 C20.8216533,25.7994771 19.1756423,29.77301 19.1756423,34.0003245 C19.1756423,38.2276391 20.8216533,42.201821 23.8105652,45.1900838 C26.7994771,48.1796448 30.7736591,49.8256558 35.0003245,49.8256558 C39.22699,49.8256558 43.2011719,48.1796448 46.1900838,45.1900838 C49.1789958,42.201821 50.8250068,38.2276391 50.8250068,34.0003245 C50.8250068,29.77301 49.1789958,25.7994771 46.1900838,22.8105652 C43.2011719,19.8216533 39.22699,18.1756423 35.0003245,18.1756423 M35.0003245,52 C30.1921031,52 25.6720635,50.1281168 22.2722978,46.7283512 C18.8725322,43.3285856 17,38.8085459 17,34.0003245 C17,29.1927522 18.8725322,24.6720635 22.2722978,21.2722978 C25.6720635,17.8725322 30.1921031,16 35.0003245,16 C39.8078969,16 44.3285856,17.8725322 47.7283512,21.2722978 C51.1281168,24.6720635 53,29.1927522 53,34.0003245 C53,38.8085459 51.1281168,43.3285856 47.7283512,46.7283512 C44.3285856,50.1281168 39.8078969,52 35.0003245,52" id="Fill-6" fill="#313131"></path>
                <path d="M45,34 C45,39.5223772 40.5231072,44 35,44 C29.4768928,44 25,39.5223772 25,34 C25,28.4776228 29.4768928,24 35,24 C40.5231072,24 45,28.4776228 45,34" id="Fill-8" fill="#313131"></path>
                <path d="M35,25.1530391 C30.121431,25.1530391 26.1530788,29.1219428 26.1530788,33.999656 C26.1530788,38.8780572 30.121431,42.8469609 35,42.8469609 C39.878569,42.8469609 43.8469212,38.8780572 43.8469212,33.999656 C43.8469212,29.1219428 39.878569,25.1530391 35,25.1530391 M35,44 C29.4857241,44 25,39.5137422 25,33.999656 C25,28.4862578 29.4857241,24 35,24 C40.5142759,24 45,28.4862578 45,33.999656 C45,39.5137422 40.5142759,44 35,44" id="Fill-10" fill="#313131"></path>
            </g>
        </g>
    </g>
</svg>