<?xml version="1.0" encoding="UTF-8"?>
<svg width="90px" height="90px" viewBox="0 0 90 90" version="1.1" xmlns="http://www.w3.org/2000/svg" xmlns:xlink="http://www.w3.org/1999/xlink">
    <!-- Generator: Sketch 51 (57462) - http://www.bohemiancoding.com/sketch -->
    <title>云计算_slice</title>
    <desc>Created with Sketch.</desc>
    <defs>
        <polygon id="path-1" points="0.000152542373 0.0925714286 89.9069492 0.0925714286 89.9069492 89.2432437 0.000152542373 89.2432437"></polygon>
    </defs>
    <g id="Page-1" stroke="none" stroke-width="1" fill="none" fill-rule="evenodd">
        <g id="Artboard">
            <g id="云计算">
                <g id="Group-3" transform="translate(0.000000, 0.664034)">
                    <mask id="mask-2" fill="white">
                        <use xlink:href="#path-1"></use>
                    </mask>
                    <g id="Clip-2"></g>
                    <path d="M44.9536271,1.36921008 C39.0586271,1.36921008 33.3398136,2.5142521 27.9573559,4.77181513 C22.7571864,6.9529916 18.0878644,10.0750084 14.0775254,14.0516471 C10.0671864,18.0275294 6.91871186,22.6583697 4.71905085,27.8148403 C2.44235593,33.1520672 1.28837288,38.8220672 1.28837288,44.6682857 C1.28837288,50.5129916 2.44235593,56.1845042 4.71905085,61.5217311 C6.91871186,66.6774454 10.0671864,71.3082857 14.0775254,75.2841681 C18.0878644,79.2608067 22.7571864,82.3835798 27.9573559,84.564 C33.3398136,86.821563 39.0586271,87.966605 44.9536271,87.966605 C50.8486271,87.966605 56.5674407,86.821563 61.9498983,84.564 C67.1493051,82.3835798 71.8193898,79.2608067 75.8297288,75.2841681 C79.8400678,71.3082857 82.9885424,66.6774454 85.1874407,61.5217311 C87.4648983,56.1845042 88.6188814,50.5129916 88.6188814,44.6682857 C88.6188814,38.8220672 87.4648983,33.1520672 85.1874407,27.8148403 C82.9885424,22.6583697 79.8400678,18.0275294 75.8297288,14.0516471 C71.8193898,10.0750084 67.1493051,6.9529916 61.9498983,4.77181513 C56.5674407,2.5142521 50.8486271,1.36921008 44.9536271,1.36921008 M44.9536271,89.2432437 C38.8847288,89.2432437 32.9981186,88.0649244 27.4554915,85.7408067 C22.1020169,83.4953445 17.2946441,80.2810588 13.1668475,76.1879496 C9.03828814,72.0948403 5.79676271,67.3271092 3.5330339,62.0186218 C1.18845763,56.5233277 0.000152542373,50.6854286 0.000152542373,44.6682857 C0.000152542373,38.6503866 1.18845763,32.8124874 3.5330339,27.3171933 C5.79676271,22.0087059 9.03828814,17.2417311 13.1668475,13.1478655 C17.2946441,9.0547563 22.1020169,5.84047059 27.4554915,3.5950084 C32.9981186,1.27089076 38.8847288,0.0925714286 44.9536271,0.0925714286 C51.0217627,0.0925714286 56.9091356,1.27089076 62.4517627,3.5950084 C67.8044746,5.84047059 72.6126102,9.0547563 76.7404068,13.1478655 C80.8689661,17.2417311 84.1097288,22.0087059 86.3742203,27.3171933 C88.7187966,32.8124874 89.9071017,38.6503866 89.9071017,44.6682857 C89.9071017,50.6854286 88.7187966,56.5233277 86.3742203,62.0186218 C84.1097288,67.3271092 80.8689661,72.0948403 76.7404068,76.1879496 C72.6126102,80.2810588 67.8044746,83.4953445 62.4517627,85.7408067 C56.9091356,88.0649244 51.0217627,89.2432437 44.9536271,89.2432437" id="Fill-1" fill="#313131" mask="url(#mask-2)"></path>
                </g>
                <path d="M62.9557627,43.8448235 C60.4563559,43.841042 58.1224576,44.5436471 56.1439831,45.7597815 C56.1439831,45.7597815 56.1432203,45.7590252 56.1432203,45.7590252 C56.2149153,45.1305378 56.2522881,44.4914622 56.2522881,43.8448235 C56.2522881,33.4849916 46.8610169,25.2995294 36.0594915,27.2046555 C29.9288136,28.2861681 23.8004237,34.1444874 22.5205932,40.1873445 C21.9081356,43.0779328 22.0438983,45.8762521 22.7669492,48.4295294 C22.7677119,48.4295294 22.7669492,48.4302857 22.7669492,48.4302857 C17.6605932,48.6980168 13.6029661,52.8879328 13.6029661,58.0179328 C13.6029661,60.3496134 14.4411864,62.4869244 15.8354237,64.1507899 C16.1222034,64.2838992 16.3685593,64.3996134 16.655339,64.5327227 L30.3971186,64.5327227 L52.7682203,64.5327227 L72.5766102,64.5327227 C72.8832203,64.3754118 73.1379661,64.2445714 73.4445763,64.0872605 C74.9181356,62.0444874 75.8013559,59.5554958 75.8463559,56.8645714 C75.9668644,49.7462521 70.1359322,43.8546555 62.9557627,43.8448235" id="Fill-4" fill="#313131"></path>
                <path d="M16.7994153,63.8941765 L72.4194153,63.8941765 L73.0097542,63.5916555 C74.4039915,61.6071176 75.1621271,59.2807311 75.2025508,56.8537563 C75.2574661,53.5819916 74.0058559,50.4856891 71.6765339,48.1335882 C69.3495,45.7845126 66.2521271,44.4874538 62.9549237,44.482916 L62.9381441,44.482916 C60.6561102,44.482916 58.4289915,45.1091345 56.4962797,46.2942605 L56.1667881,46.5196387 L55.4528898,46.0908151 L55.5032288,45.6839244 C55.5733983,45.0698067 55.6084831,44.4511513 55.6084831,43.8445966 C55.6084831,39.015605 53.4652627,34.4656891 49.7287373,31.3610672 C47.9104322,29.8499748 45.8343305,28.7699748 43.559161,28.1482941 C41.1695847,27.4963613 38.6846695,27.390479 36.1722966,27.8336723 C33.3289068,28.3343445 30.3978051,29.9187983 27.9182288,32.2951008 C25.4363644,34.6721597 23.7431441,37.5219076 23.1505169,40.3187143 C22.5792458,43.0156891 22.6593305,45.6861933 23.3869576,48.2568655 L23.3922966,48.2750168 L23.4685678,48.5767815 L23.0811102,49.0683782 L22.7844153,49.0683782 C17.9953475,49.3277899 14.2466186,53.2560252 14.2466186,58.0177059 C14.2466186,60.0589664 14.9544153,62.048042 16.2418729,63.6340084 L16.7994153,63.8941765 Z M72.7328898,65.1715714 L16.5111102,65.1715714 L15.4318729,64.6671176 L15.3403475,64.5582101 C13.8042458,62.7256891 12.9583983,60.403084 12.9583983,58.0177059 C12.9583983,52.8317395 16.8512797,48.5117395 21.9545847,47.8628319 C21.3520424,45.3208992 21.3299237,42.6995546 21.8905169,40.055521 C23.2252627,33.7540084 29.5306017,27.7073697 35.9465339,26.5759412 C38.648822,26.0994706 41.325178,26.2144286 43.9008559,26.9170336 C46.3552627,27.5871176 48.5945847,28.7525798 50.5562797,30.3816555 C54.5856864,33.7298067 56.8967034,38.6366975 56.8967034,43.8445966 C56.8967034,44.1017395 56.8906017,44.3619076 56.879161,44.6220756 C58.7523814,43.6925798 60.8239068,43.2062773 62.9381441,43.2062773 L62.9564492,43.2062773 C66.6014492,43.2108151 70.0252627,44.6432521 72.5963644,47.2388824 C75.1682288,49.8360252 76.5517881,53.2582941 76.4907712,56.8749328 C76.4442458,59.6135042 75.5724661,62.235605 73.9684831,64.4583782 L73.8784831,64.5831681 L72.7328898,65.1715714 Z" id="Fill-6" fill="#313131"></path>
                <path d="M66.7065508,37.0638908 C64.5015508,37.1221261 62.4452797,37.7680084 60.6887542,38.8480084 C60.6879915,38.8480084 60.6879915,38.8480084 60.6879915,38.8472521 C60.7543475,38.2603613 60.7901949,37.664395 60.7901949,37.0593529 C60.7901949,27.3454034 51.9480763,19.679521 41.8093475,21.5430504 C39.5303644,21.9612857 37.2529068,23.0934706 35.2668051,24.662042 C36.1797712,24.2854034 37.1095169,24.0025462 38.0392627,23.8316218 C48.8957034,21.8364958 58.3640085,30.0461597 58.3640085,40.4483445 C58.3640085,41.0949832 58.3258729,41.7340588 58.2549407,42.3625462 C58.2549407,42.3633025 58.2549407,42.3633025 58.2557034,42.3633025 C60.1365508,41.206916 62.3385,40.5148992 64.6998559,40.4521261 C72.0135,40.2592689 78.0671441,46.1886807 77.958839,53.4438908 C77.9550254,53.6775882 77.9443475,53.9090168 77.9283305,54.1396891 C78.6483305,52.6384286 79.0617203,50.9639748 79.0884153,49.1957395 C79.1898559,42.4215378 73.5366356,36.8838908 66.7065508,37.0638908" id="Fill-8" fill="#313131"></path>
                <circle id="Oval-2-Copy-11" stroke="#313131" stroke-width="3" cx="45" cy="45" r="43.5"></circle>
            </g>
        </g>
    </g>
</svg>