<?xml version="1.0" encoding="UTF-8"?>
<svg width="70px" height="70px" viewBox="0 0 70 70" version="1.1" xmlns="http://www.w3.org/2000/svg" xmlns:xlink="http://www.w3.org/1999/xlink">
    <!-- Generator: Sketch 52.2 (67145) - http://www.bohemiancoding.com/sketch -->
    <title>产业升级icon_slice</title>
    <desc>Created with Sketch.</desc>
    <defs>
        <polygon id="path-1" points="0 0.976056338 70 0.976056338 70 69.9901408 0 69.9901408"></polygon>
    </defs>
    <g id="Page-1" stroke="none" stroke-width="1" fill="none" fill-rule="evenodd">
        <g id="画板" transform="translate(-8.000000, 0.000000)">
            <g id="产业升级icon" transform="translate(8.000000, 0.000000)">
                <g id="Clip-2-Copy-5">
                    <mask id="mask-2" fill="white">
                        <use xlink:href="#path-1"></use>
                    </mask>
                    <g id="Clip-2-Copy"></g>
                </g>
                <path d="M34.7811732,13.0766543 L20.1207239,30.0976659 C20.0252281,30.2080195 20.0466534,30.3171929 20.0821583,30.3891883 C20.117051,30.4611837 20.1898972,30.546752 20.3392625,30.546752 L23.7911926,30.546752 C25.0791623,30.546752 26.127168,31.556458 26.127168,32.7986738 L26.127168,46.7486683 C26.127168,46.8991505 26.2544958,47.0224869 26.4112069,47.0224869 L43.5882167,47.0224869 C43.74554,47.0224869 43.8728678,46.8991505 43.8728678,46.7486683 L43.8728678,32.7986738 C43.8728678,31.556458 44.9208735,30.546752 46.2088432,30.546752 L49.6607732,30.546752 C49.8101385,30.546752 49.8829847,30.4611837 49.9178774,30.3891883 C49.9533823,30.3171929 49.9748077,30.2080195 49.8793118,30.0976659 L35.2188625,13.0766543 C35.144792,12.9904959 35.0499083,12.9775131 34.9997118,12.9775131 C34.9501274,12.9775131 34.8552437,12.9904959 34.7811732,13.0766543 M43.5882167,49 L26.4112069,49 C25.1232373,49 24.0752315,47.9897038 24.0752315,46.7486683 L24.0752315,32.7986738 C24.0752315,32.6476014 23.9479037,32.5242651 23.7911926,32.5242651 L20.3392625,32.5242651 C19.424094,32.5242651 18.6136036,32.0279689 18.2248865,31.2295281 C17.8361694,30.4304971 17.9573757,29.5134409 18.5419817,28.8342056 L33.2030431,11.813194 C33.6480782,11.2962434 34.3030818,11 34.9997118,11 C35.6969539,11 36.3519575,11.2962434 36.7969926,11.813194 L51.4574419,28.8342056 C52.0426601,29.5134409 52.1638664,30.4304971 51.7751493,31.2295281 C51.38582,32.0279689 50.5759418,32.5242651 49.6607732,32.5242651 L46.2088432,32.5242651 C46.052132,32.5242651 45.9241921,32.6476014 45.9241921,32.7986738 L45.9241921,46.7486683 C45.9241921,47.9897038 44.8767985,49 43.5882167,49" id="Fill-4" fill="#313131"></path>
                <path d="M26.9731943,52.8077684 C26.4981385,52.8077684 26.1112893,53.1390038 26.1112893,53.5457652 L26.1112893,54.4547743 C26.1112893,54.8615357 26.4981385,55.1927711 26.9731943,55.1927711 L43.0268057,55.1927711 C43.5024916,55.1927711 43.8887107,54.8615357 43.8887107,54.4547743 L43.8887107,53.5457652 C43.8887107,53.1390038 43.5024916,52.8077684 43.0268057,52.8077684 L26.9731943,52.8077684 Z M43.0268057,57 L26.9731943,57 C25.3338106,57 24,55.8579392 24,54.4547743 L24,53.5457652 C24,52.1426003 25.3338106,51 26.9731943,51 L43.0268057,51 C44.6668194,51 46,52.1426003 46,53.5457652 L46,54.4547743 C46,55.8579392 44.6668194,57 43.0268057,57 Z" id="Fill-6" fill="#313131"></path>
            </g>
        </g>
    </g>
</svg>