<?xml version="1.0" encoding="UTF-8"?>
<svg width="89px" height="89px" viewBox="0 0 89 89" version="1.1" xmlns="http://www.w3.org/2000/svg" xmlns:xlink="http://www.w3.org/1999/xlink">
    <!-- Generator: Sketch 51 (57462) - http://www.bohemiancoding.com/sketch -->
    <title>新能源icon_slice</title>
    <desc>Created with Sketch.</desc>
    <defs>
        <polygon id="path-1" points="0 0.0327179487 86.9672821 0.0327179487 86.9672821 86.9999256 0 86.9999256"></polygon>
    </defs>
    <g id="Page-1" stroke="none" stroke-width="1" fill="none" fill-rule="evenodd">
        <g id="Artboard">
            <g id="新能源icon">
                <g id="Group-3" transform="translate(0.000000, 1.000000)">
                    <mask id="mask-2" fill="white">
                        <use xlink:href="#path-1"></use>
                    </mask>
                    <g id="Clip-2"></g>
                    <path d="M43.483641,1.2789 C37.7810513,1.2789 32.2502308,2.39577179 27.0428718,4.59828462 C22.0132308,6.72495128 17.4959231,9.77069487 13.617359,13.6500026 C9.73805128,17.5293103 6.69230769,22.0466179 4.56489744,27.0755154 C2.36238462,32.2828744 1.24551282,37.8144385 1.24551282,43.5162846 C1.24551282,49.2188744 2.36238462,54.7496949 4.56489744,59.9570538 C6.69230769,64.9866949 9.73805128,69.5040026 13.617359,73.3833103 C17.4959231,77.2626179 22.0132308,80.3076179 27.0428718,82.4350282 C32.2502308,84.637541 37.7810513,85.7536692 43.483641,85.7536692 C49.1854872,85.7536692 54.7170513,84.637541 59.9244103,82.4350282 C64.9540513,80.3076179 69.4706154,77.2626179 73.3499231,73.3833103 C77.2292308,69.5040026 80.2749744,64.9866949 82.4023846,59.9570538 C84.6048974,54.7496949 85.7210256,49.2188744 85.7210256,43.5162846 C85.7210256,37.8144385 84.6048974,32.2828744 82.4023846,27.0755154 C80.2749744,22.0466179 77.2292308,17.5293103 73.3499231,13.6500026 C69.4706154,9.77069487 64.9540513,6.72495128 59.9244103,4.59828462 C54.7170513,2.39577179 49.1854872,1.2789 43.483641,1.2789 M43.483641,86.9999256 C37.6137436,86.9999256 31.9193333,85.8495923 26.5573077,83.5831308 C21.3796923,81.3925154 16.7292821,78.2567974 12.7362051,74.2637205 C8.74312821,70.2706436 5.60741026,65.6202333 3.41753846,60.4418744 C1.14958974,55.0805923 0,49.3861821 0,43.5162846 C0,37.6463872 1.14958974,31.9519769 3.41753846,26.5906949 C5.60741026,21.4123359 8.74312821,16.7619256 12.7362051,12.7688487 C16.7292821,8.77577179 21.3796923,5.64005385 26.5573077,3.45018205 C31.9193333,1.18297692 37.6137436,0.0326435897 43.483641,0.0326435897 C49.3535385,0.0326435897 55.0479487,1.18297692 60.4092308,3.45018205 C65.5875897,5.64005385 70.238,8.77577179 74.2310769,12.7688487 C78.2241538,16.7619256 81.3598718,21.4123359 83.5497436,26.5906949 C85.8169487,31.9519769 86.9672821,37.6463872 86.9672821,43.5162846 C86.9672821,49.3861821 85.8169487,55.0805923 83.5497436,60.4418744 C81.3598718,65.6202333 78.2241538,70.2706436 74.2310769,74.2637205 C70.238,78.2567974 65.5875897,81.3925154 60.4092308,83.5831308 C55.0479487,85.8495923 49.3535385,86.9999256 43.483641,86.9999256" id="Fill-1" fill="#313131" mask="url(#mask-2)"></path>
                </g>
                <path d="M32.7618435,52.535358 L32.754313,52.535358 L32.7678679,44.2662057 C32.7678679,44.1210689 32.6466275,44.0036467 32.4967714,44.0029173 L30.516261,44 C30.3656518,44 30.2444115,44.1174223 30.2436584,44.2625591 L30.2308566,52.4099131 C30.2308566,52.5039967 30.1788965,52.5915164 30.0938023,52.6381936 L21.1370758,57.5910788 C21.0067989,57.6625532 20.9616161,57.823006 21.0354146,57.9491802 L22.0181394,59.6149717 C22.0919379,59.7411459 22.2576079,59.7849058 22.3878849,59.7134314 L29.8324954,55.5970885 C30.0132264,55.4971702 30.2383871,55.6233444 30.2383871,55.825369 L30.2383871,68.7374409 C30.2383871,68.8825777 30.3596275,69 30.5094836,69 L32.490747,69 C32.6406031,69 32.7618435,68.8825777 32.7618435,68.7374409 L32.7618435,55.825369 C32.7618435,55.6233444 32.9870042,55.4971702 33.1677352,55.5970885 L40.6123457,59.7134314 C40.7418696,59.7849058 40.9082927,59.7411459 40.9820912,59.6149717 L41.9640629,57.9491802 C42.0386144,57.823006 41.9934317,57.6625532 41.8631548,57.5910788 L32.7618435,52.5579672 L32.7618435,52.535358 Z" id="Fill-4" fill="#313131"></path>
                <path d="M69.8660718,47.6007069 L60.9945327,42.4881338 C60.911948,42.4406095 60.8606115,42.352244 60.8606115,42.2564529 L60.8740036,33.8624766 C60.8740036,33.7147058 60.7542185,33.59441 60.6061611,33.59441 L58.6494228,33.5914397 C58.5013654,33.5906971 58.3808363,33.7102504 58.3800923,33.8580212 L58.3674441,42.2653637 C58.3674441,42.3604123 58.3161077,42.4495203 58.2335229,42.4970446 L49.376864,47.6007069 C49.2488948,47.6749636 49.2042543,47.8375858 49.278655,47.9660498 L50.2570242,49.6576173 C50.3314249,49.7853388 50.4951064,49.8291502 50.6230756,49.7548935 L57.9723764,45.520777 C58.1509381,45.4183028 58.3748842,45.5460243 58.3748842,45.7524579 L58.3748842,66.2435916 C58.3748842,66.392105 58.2550991,66.5116583 58.1062977,66.5116583 L44.8838059,66.5116583 C44.7357485,66.5116583 44.6159634,66.392105 44.6159634,66.2435916 L44.6159634,31.1558202 C44.6159634,30.9501292 44.8391655,30.8209226 45.0184712,30.9241394 L52.3767001,35.164939 C52.5046693,35.2384531 52.6690948,35.1946416 52.7427515,35.0661776 L53.7218646,33.3753527 C53.7955213,33.2468886 53.7516249,33.0835239 53.6229117,33.0100098 L44.7521167,27.8974367 C44.6687879,27.8491698 44.6174514,27.7608043 44.6181954,27.6650132 L44.6308435,19.2717795 C44.6315875,19.1232661 44.5110584,19.0029703 44.363001,19.0029703 L42.4062627,19 C42.2582053,19 42.1376762,19.1202958 42.1376762,19.2673241 L42.1242841,27.6754092 L42.122796,27.6754092 C42.122796,27.7712003 42.0714596,27.8595657 41.9888748,27.90709 L33.1337039,33.0100098 C33.0057347,33.0835239 32.9618383,33.2468886 33.036239,33.3753527 L34.0138641,35.0661776 C34.0882648,35.1946416 34.2526904,35.2384531 34.3806596,35.164939 L41.7202883,30.9352779 C41.8988499,30.8320611 42.122796,30.9612677 42.122796,31.1669587 L42.122796,68.7319333 C42.122796,68.8797042 42.2425812,69 42.3906386,69 L60.6002091,69 C60.7482664,69 60.8680516,68.8797042 60.8680516,68.7319333 L60.8680516,45.7524579 C60.8680516,45.5460243 61.0912537,45.4183028 61.2705593,45.520777 L68.6191161,49.7548935 C68.7478293,49.8291502 68.9115109,49.7853388 68.9859116,49.6576173 L69.9642807,47.9660498 C70.0379374,47.8375858 69.994041,47.6749636 69.8660718,47.6007069" id="Fill-6" fill="#313131"></path>
                <circle id="Oval-2-Copy-7" stroke="#313131" stroke-width="3" cx="44.5" cy="44.5" r="43"></circle>
            </g>
        </g>
    </g>
</svg>