<?xml version="1.0" encoding="UTF-8"?>
<svg width="90px" height="90px" viewBox="0 0 90 90" version="1.1" xmlns="http://www.w3.org/2000/svg" xmlns:xlink="http://www.w3.org/1999/xlink">
    <!-- Generator: Sketch 51 (57462) - http://www.bohemiancoding.com/sketch -->
    <title>数据服务icon_slice</title>
    <desc>Created with Sketch.</desc>
    <defs>
        <polygon id="path-1" points="7.62711864e-05 0.0925714286 89.9069492 0.0925714286 89.9069492 89.2432437 7.62711864e-05 89.2432437"></polygon>
    </defs>
    <g id="Page-1" stroke="none" stroke-width="1" fill="none" fill-rule="evenodd">
        <g id="Artboard">
            <g id="数据服务icon">
                <g id="Group-3" transform="translate(0.000000, 0.664034)">
                    <mask id="mask-2" fill="white">
                        <use xlink:href="#path-1"></use>
                    </mask>
                    <g id="Clip-2"></g>
                    <path d="M44.9535508,1.36921008 C39.0585508,1.36921008 33.3397373,2.5142521 27.9572797,4.77181513 C22.7578729,6.9529916 18.0877881,10.0750084 14.0774492,14.0516471 C10.0671102,18.0275294 6.91863559,22.6583697 4.71897458,27.8148403 C2.44227966,33.1520672 1.28829661,38.8220672 1.28829661,44.6682857 C1.28829661,50.5129916 2.44227966,56.1845042 4.71897458,61.5217311 C6.91863559,66.6774454 10.0671102,71.3082857 14.0774492,75.2841681 C18.0877881,79.2608067 22.7578729,82.3835798 27.9572797,84.564 C33.3397373,86.821563 39.0585508,87.966605 44.9535508,87.966605 C50.8485508,87.966605 56.5673644,86.821563 61.949822,84.564 C67.1492288,82.3835798 71.8193136,79.2608067 75.8296525,75.2841681 C79.8399915,71.3082857 82.9884661,66.6774454 85.1881271,61.5217311 C87.464822,56.1845042 88.6188051,50.5129916 88.6188051,44.6682857 C88.6188051,38.8220672 87.464822,33.1520672 85.1881271,27.8148403 C82.9884661,22.6583697 79.8399915,18.0275294 75.8296525,14.0516471 C71.8193136,10.0750084 67.1492288,6.9529916 61.949822,4.77181513 C56.5673644,2.5142521 50.8485508,1.36921008 44.9535508,1.36921008 M44.9535508,89.2432437 C38.8854153,89.2432437 32.9980424,88.0649244 27.4554153,85.7408067 C22.1027034,83.4953445 17.2945678,80.2810588 13.1667712,76.1879496 C9.03821186,72.0948403 5.79744915,67.3271092 3.53295763,62.0186218 C1.18838136,56.5233277 7.62711864e-05,50.6854286 7.62711864e-05,44.6682857 C7.62711864e-05,38.6503866 1.18838136,32.8124874 3.53295763,27.3171933 C5.79744915,22.0087059 9.03821186,17.2417311 13.1667712,13.1478655 C17.2945678,9.0547563 22.1027034,5.84047059 27.4554153,3.5950084 C32.9980424,1.27089076 38.8854153,0.0925714286 44.9535508,0.0925714286 C51.0224492,0.0925714286 56.9090593,1.27089076 62.4516864,3.5950084 C67.805161,5.84047059 72.6125339,9.0547563 76.7403305,13.1478655 C80.8688898,17.2417311 84.1096525,22.0087059 86.3741441,27.3171933 C88.7187203,32.8124874 89.9070254,38.6503866 89.9070254,44.6682857 C89.9070254,50.6854286 88.7187203,56.5233277 86.3741441,62.0186218 C84.1096525,67.3271092 80.8688898,72.0948403 76.7403305,76.1879496 C72.6125339,80.2810588 67.805161,83.4953445 62.4516864,85.7408067 C56.9090593,88.0649244 51.0224492,89.2432437 44.9535508,89.2432437" id="Fill-1" fill="#313131" mask="url(#mask-2)"></path>
                </g>
                <path d="M55.5519661,33.3843277 L75.3328983,33.3843277 C75.6288305,33.3843277 75.8698475,33.1460924 75.8698475,32.8518908 L75.8698475,28.6158403 C75.8698475,28.322395 75.6288305,28.0834034 75.3328983,28.0834034 L55.5519661,28.0834034 L55.5519661,33.3843277 Z M75.3328983,35.9391176 L52.9755254,35.9391176 L52.9755254,25.5286134 L75.3328983,25.5286134 C77.0497627,25.5286134 78.4462881,26.9134034 78.4462881,28.6158403 L78.4462881,32.8518908 C78.4462881,34.5543277 77.0497627,35.9391176 75.3328983,35.9391176 Z" id="Fill-4" fill="#313131"></path>
                <path d="M64.2458898,47.9823277 L75.3326695,47.9823277 C75.6286017,47.9823277 75.8696186,47.7440924 75.8696186,47.4498908 L75.8696186,43.2138403 C75.8696186,42.920395 75.6286017,42.6814034 75.3326695,42.6814034 L64.2458898,42.6814034 L64.2458898,47.9823277 Z M75.3326695,50.5371176 L61.6702119,50.5371176 L61.6702119,40.1266134 L75.3326695,40.1266134 C77.0495339,40.1266134 78.4460593,41.5114034 78.4460593,43.2138403 L78.4460593,47.4498908 C78.4460593,49.1523277 77.0495339,50.5371176 75.3326695,50.5371176 Z" id="Fill-6" fill="#313131"></path>
                <path d="M45.3123305,62.5810084 L75.3326695,62.5810084 C75.6286017,62.5810084 75.8696186,62.3420168 75.8696186,62.0478151 L75.8696186,57.8117647 C75.8696186,57.5183193 75.6286017,57.2793277 75.3326695,57.2793277 L45.3123305,57.2793277 L45.3123305,62.5810084 Z M75.3326695,65.135042 L42.7358898,65.135042 L42.7358898,54.7245378 L75.3326695,54.7245378 C77.0495339,54.7245378 78.4460593,56.1093277 78.4460593,57.8117647 L78.4460593,62.0478151 C78.4460593,63.7502521 77.0495339,65.135042 75.3326695,65.135042 Z" id="Fill-8" fill="#313131"></path>
                <path d="M21.0714407,33.6561429 C19.4438136,33.6561429 18.124322,32.3477395 18.124322,30.7337899 C18.124322,29.1198403 19.4438136,27.811437 21.0714407,27.811437 C22.6990678,27.811437 24.0185593,29.1198403 24.0185593,30.7337899 C24.0185593,32.3477395 22.6990678,33.6561429 21.0714407,33.6561429 Z M17.2929661,26.8055546 C16.2854237,26.8055546 15.4677966,27.6170672 15.4677966,28.6161429 L15.4677966,32.8521933 C15.4677966,33.8512689 16.2854237,34.6620252 17.2929661,34.6620252 L56.6786441,34.6620252 L56.6786441,26.8055546 L17.2929661,26.8055546 Z" id="Fill-10" fill="#313131"></path>
                <path d="M21.0714407,29.0895126 C20.1569492,29.0895126 19.4125424,29.8269076 19.4125424,30.7337143 C19.4125424,31.640521 20.1569492,32.3786723 21.0714407,32.3786723 C21.9859322,32.3786723 22.730339,31.640521 22.730339,30.7337143 C22.730339,29.8269076 21.9859322,29.0895126 21.0714407,29.0895126 Z M17.2929661,28.0836303 C16.9970339,28.0836303 16.7560169,28.3218655 16.7560169,28.6160672 L16.7560169,32.8521176 C16.7560169,33.145563 16.9970339,33.3845546 17.2929661,33.3845546 L17.7894915,33.3845546 C17.1938136,32.6615294 16.8368644,31.738084 16.8368644,30.7337143 C16.8368644,29.7301008 17.1938136,28.8066555 17.7894915,28.0836303 L17.2929661,28.0836303 Z M24.3533898,33.3845546 L55.3904237,33.3845546 L55.3904237,28.0836303 L24.3533898,28.0836303 C24.9490678,28.8066555 25.3060169,29.7301008 25.3060169,30.7337143 C25.3060169,31.738084 24.9490678,32.6615294 24.3533898,33.3845546 Z M57.9668644,35.9393445 L17.2929661,35.9393445 C15.5761017,35.9393445 14.1795763,34.5545546 14.1795763,32.8521176 L14.1795763,28.6160672 C14.1795763,26.9136303 15.5761017,25.5288403 17.2929661,25.5288403 L57.9668644,25.5288403 L57.9668644,35.9393445 Z" id="Fill-12" fill="#313131"></path>
                <path d="M21.0714407,48.2540672 C19.4438136,48.2540672 18.124322,46.9464202 18.124322,45.3324706 C18.124322,43.718521 19.4438136,42.4093613 21.0714407,42.4093613 C22.6990678,42.4093613 24.0185593,43.718521 24.0185593,45.3324706 C24.0185593,46.9464202 22.6990678,48.2540672 21.0714407,48.2540672 Z M17.2929661,41.403479 C16.2854237,41.403479 15.4677966,42.2149916 15.4677966,43.2140672 L15.4677966,47.4501176 C15.4677966,48.4491933 16.2854237,49.2599496 17.2929661,49.2599496 L64.1616102,49.2599496 L64.1616102,41.403479 L17.2929661,41.403479 Z" id="Fill-14" fill="#313131"></path>
                <path d="M21.0714407,43.6875126 C20.1569492,43.6875126 19.4125424,44.4256639 19.4125424,45.3324706 C19.4125424,46.238521 20.1569492,46.9766723 21.0714407,46.9766723 C21.9859322,46.9766723 22.730339,46.238521 22.730339,45.3324706 C22.730339,44.4256639 21.9859322,43.6875126 21.0714407,43.6875126 Z M17.2929661,42.6816303 C16.9970339,42.6816303 16.7560169,42.9198655 16.7560169,43.2140672 L16.7560169,47.4501176 C16.7560169,47.743563 16.9970339,47.9825546 17.2929661,47.9825546 L17.7894915,47.9825546 C17.1938136,47.2595294 16.8368644,46.336084 16.8368644,45.3324706 C16.8368644,44.3281008 17.1938136,43.4046555 17.7894915,42.6816303 L17.2929661,42.6816303 Z M24.3533898,47.9825546 L62.8733898,47.9825546 L62.8733898,42.6816303 L24.3533898,42.6816303 C24.9490678,43.4046555 25.3060169,44.3281008 25.3060169,45.3324706 C25.3060169,46.336084 24.9490678,47.2595294 24.3533898,47.9825546 Z M65.4498305,50.5373445 L17.2929661,50.5373445 C15.5761017,50.5373445 14.1795763,49.1525546 14.1795763,47.4501176 L14.1795763,43.2140672 C14.1795763,41.5116303 15.5761017,40.1268403 17.2929661,40.1268403 L65.4498305,40.1268403 L65.4498305,50.5373445 Z" id="Fill-16" fill="#313131"></path>
                <path d="M21.0714407,62.8520672 C19.4438136,62.8520672 18.124322,61.5444202 18.124322,59.9304706 C18.124322,58.316521 19.4438136,57.0073613 21.0714407,57.0073613 C22.6990678,57.0073613 24.0185593,58.316521 24.0185593,59.9304706 C24.0185593,61.5444202 22.6990678,62.8520672 21.0714407,62.8520672 Z M17.2929661,56.001479 C16.2854237,56.001479 15.4677966,56.8129916 15.4677966,57.8120672 L15.4677966,62.0481176 C15.4677966,63.0471933 16.2854237,63.8579496 17.2929661,63.8579496 L44.0244915,63.8579496 L44.0244915,56.001479 L17.2929661,56.001479 Z" id="Fill-18" fill="#313131"></path>
                <path d="M21.0714407,58.285437 C20.1569492,58.285437 19.4125424,59.0235882 19.4125424,59.930395 C19.4125424,60.8364454 20.1569492,61.5753529 21.0714407,61.5753529 C21.9859322,61.5753529 22.730339,60.8364454 22.730339,59.930395 C22.730339,59.0235882 21.9859322,58.285437 21.0714407,58.285437 Z M17.2929661,57.2795546 C16.9970339,57.2795546 16.7560169,57.5177899 16.7560169,57.8119916 L16.7560169,62.048042 C16.7560169,62.3414874 16.9970339,62.5812353 17.2929661,62.5812353 L17.7894915,62.5812353 C17.1938136,61.8574538 16.8368644,60.9340084 16.8368644,59.930395 C16.8368644,58.9260252 17.1938136,58.0025798 17.7894915,57.2795546 L17.2929661,57.2795546 Z M24.3533898,62.5812353 L42.7362712,62.5812353 L42.7362712,57.2795546 L24.3533898,57.2795546 C24.9490678,58.0025798 25.3060169,58.9260252 25.3060169,59.930395 C25.3060169,60.9340084 24.9490678,61.8574538 24.3533898,62.5812353 Z M45.3119492,65.1352689 L17.2929661,65.1352689 C15.5761017,65.1352689 14.1795763,63.750479 14.1795763,62.048042 L14.1795763,57.8119916 C14.1795763,56.1095546 15.5761017,54.7247647 17.2929661,54.7247647 L45.3119492,54.7247647 L45.3119492,65.1352689 Z" id="Fill-20" fill="#313131"></path>
                <circle id="Oval-2-Copy-12" stroke="#313131" stroke-width="3" cx="45" cy="45" r="43.5"></circle>
            </g>
        </g>
    </g>
</svg>