<?xml version="1.0" encoding="UTF-8"?>
<svg width="89px" height="89px" viewBox="0 0 89 89" version="1.1" xmlns="http://www.w3.org/2000/svg" xmlns:xlink="http://www.w3.org/1999/xlink">
    <!-- Generator: Sketch 51 (57462) - http://www.bohemiancoding.com/sketch -->
    <title>新材料icon_slice</title>
    <desc>Created with Sketch.</desc>
    <defs>
        <polygon id="path-1" points="0 0.0330940171 88.9664538 0.0330940171 88.9664538 87.9999248 0 87.9999248"></polygon>
    </defs>
    <g id="Page-1" stroke="none" stroke-width="1" fill="none" fill-rule="evenodd">
        <g id="Artboard">
            <g id="新材料icon">
                <g id="Group-3" transform="translate(0.000000, 1.000000)">
                    <mask id="mask-2" fill="white">
                        <use xlink:href="#path-1"></use>
                    </mask>
                    <g id="Clip-2"></g>
                    <path d="M44.4831889,1.2936 C38.6495051,1.2936 32.9915393,2.4233094 27.6644709,4.65113846 C22.519206,6.80224957 17.8988128,9.88300171 13.9303256,13.8068991 C9.96183846,17.7307966 6.84607778,22.3000274 4.66976154,27.3867282 C2.41661624,32.6539419 1.27482991,38.2490872 1.27482991,44.0164718 C1.27482991,49.7846085 2.41661624,55.3790017 4.66976154,60.6462154 C6.84607778,65.7336684 9.96183846,70.3028991 13.9303256,74.2267966 C17.8988128,78.150694 22.519206,81.230694 27.6644709,83.3825573 C32.9915393,85.6103863 38.6495051,86.7393436 44.4831889,86.7393436 C50.3168726,86.7393436 55.9748385,85.6103863 61.3019068,83.3825573 C66.4471718,81.230694 71.067565,78.150694 75.0360521,74.2267966 C79.0045393,70.3028991 82.1203,65.7336684 84.2966162,60.6462154 C86.5497615,55.3790017 87.6915479,49.7846085 87.6915479,44.0164718 C87.6915479,38.2490872 86.5497615,32.6539419 84.2966162,27.3867282 C82.1203,22.3000274 79.0045393,17.7307966 75.0360521,13.8068991 C71.067565,9.88300171 66.4471718,6.80224957 61.3019068,4.65113846 C55.9748385,2.4233094 50.3168726,1.2936 44.4831889,1.2936 M44.4831889,87.9999248 C38.4783513,87.9999248 32.653035,86.8363692 27.1685051,84.5438564 C21.8711034,82.3280615 17.1137872,79.1563009 13.0289154,75.1173265 C8.94404359,71.0783521 5.73624017,66.3744889 3.4960265,61.1366085 C1.17594103,55.7137026 -7.60683761e-05,49.9538393 -7.60683761e-05,44.0164718 C-7.60683761e-05,38.0791043 1.17594103,32.319241 3.4960265,26.896335 C5.73624017,21.6584547 8.94404359,16.9545915 13.0289154,12.9156171 C17.1137872,8.87664274 21.8711034,5.70488205 27.1685051,3.48983932 C32.653035,1.19657436 38.4783513,0.0330188034 44.4831889,0.0330188034 C50.4880265,0.0330188034 56.3133427,1.19657436 61.7978726,3.48983932 C67.0952744,5.70488205 71.8525906,8.87664274 75.9374624,12.9156171 C80.0223342,16.9545915 83.2301376,21.6584547 85.4703513,26.896335 C87.7904368,32.319241 88.9664538,38.0791043 88.9664538,44.0164718 C88.9664538,49.9538393 87.7904368,55.7137026 85.4703513,61.1366085 C83.2301376,66.3744889 80.0223342,71.0783521 75.9374624,75.1173265 C71.8525906,79.1563009 67.0952744,82.3280615 61.7978726,84.5438564 C56.3133427,86.8363692 50.4880265,87.9999248 44.4831889,87.9999248" id="Fill-1" fill="#313131" mask="url(#mask-2)"></path>
                </g>
                <path d="M29.731232,54.9981705 C29.7588024,54.9981705 29.7871387,54.99892 29.8147091,55.0004189 C30.381434,55.0326471 30.8822963,55.3864073 31.0913719,55.9020577 L35.1985961,66.0186991 C35.6833757,67.2126397 37.0703201,67.7979928 38.2895446,67.322815 L46.8547498,63.9928226 C46.1800407,63.3834857 45.6186767,62.6579775 45.1943988,61.8380334 C44.375711,60.2566055 44.1252799,58.4031121 44.4699099,56.4791664 C44.6161862,55.6622203 44.9623479,54.8782518 45.4716346,54.2119535 C46.4687641,52.9063386 47.6826277,51.948488 49.0795281,51.3631348 C50.3722737,50.8227512 51.7867885,50.6316308 53.1714354,50.8107593 C55.9721289,51.1742629 58.3592662,52.9947787 59.4015806,55.5625379 C59.8373462,56.6350607 60.0150221,57.7765369 59.9353743,58.9067706 L68.5036428,55.5752792 C69.7236332,55.1008509 70.3209919,53.7435211 69.8369782,52.5495805 L65.729754,42.432939 C65.5199126,41.9180381 65.6363209,41.3236911 66.02537,40.9204644 C66.414419,40.5172378 67.0125435,40.3688384 67.5509322,40.5442195 C68.7157818,40.9227129 69.9870837,40.8859878 71.1297237,40.4415391 C72.9003563,39.7535056 74.1502145,38.1765746 74.3914556,36.3245802 C74.6495452,34.3504186 73.7274684,32.4504567 71.8611052,31.1111147 C71.5394505,30.8802712 71.1649526,30.7213789 70.7789669,30.6516761 C69.3805348,30.3975984 68.0517946,30.5377534 66.9359591,31.0593997 C65.9304052,31.5293311 65.11861,32.2855684 64.5894115,33.247916 C64.3206,33.7365847 63.7814455,34.031135 63.2154864,33.9989069 C62.6495273,33.9666787 62.148665,33.6136681 61.9395894,33.0972682 L57.8323652,22.9813762 C57.3475856,21.7874356 55.9606412,21.2020825 54.7406509,21.6765108 L46.2236939,24.9885155 C46.883086,25.6015998 47.4283673,26.3278575 47.8373283,27.1433046 C48.6230848,28.7082437 48.8589649,30.5347554 48.5181641,32.4272224 C48.3726536,33.2404211 48.0264919,34.0213916 47.5195028,34.6854415 C46.5223732,35.9918058 45.3085097,36.9504059 43.9108434,37.5350096 C42.6180979,38.0768922 41.203583,38.2680127 39.8189361,38.0881346 C37.0182427,37.724631 34.6303394,35.9033658 33.588025,33.3363561 C33.1691081,32.3050552 32.9883688,31.2040517 33.0481046,30.1112925 L24.5273185,33.4247961 C23.3073281,33.8992245 22.7092035,35.2558048 23.1939831,36.4497453 L27.3012073,46.5663868 C27.5102829,47.0820372 27.3946404,47.6756348 27.0055913,48.0796109 C26.6157765,48.4828375 26.0168861,48.6304874 25.4792632,48.4558558 C24.4346513,48.116336 23.3287718,48.1065926 22.2810965,48.4258761 C21.1216078,48.7796363 20.0662741,49.5411201 19.2299719,50.6271338 C18.9481411,50.9921364 18.7582116,51.4155993 18.6800955,51.8503046 C18.2841539,54.0590571 18.9565654,56.0422127 20.5242491,57.2908661 C21.9962023,58.4630714 24.0050125,58.7658662 25.7672207,58.0808306 C26.9098608,57.6363819 27.859508,56.8089429 28.4415498,55.7514098 C28.6973419,55.2874743 29.1966725,54.9981705 29.731232,54.9981705 M37.4164818,70 C35.4482614,70 33.58343,68.8427845 32.8137562,66.9458206 L29.4379136,58.6309576 C28.6743666,59.4021848 27.7476947,60.0130207 26.7145704,60.4154978 C24.0900212,61.4355563 21.0971008,60.9843621 18.9044879,59.2387955 C17.8208179,58.3753809 16.9914083,57.2361532 16.5073946,55.9440292 C15.9843228,54.5462269 15.864851,53.0232594 16.1528086,51.4163488 C16.2998507,50.5919077 16.6559684,49.7966968 17.1805719,49.1146592 C18.3423581,47.607431 19.8418816,46.5401546 21.5175495,46.0282516 C22.3890805,45.762182 23.2889479,45.6490087 24.1834543,45.6887318 L20.8091433,37.3768668 C19.8020577,34.8967982 21.0442575,32.0764602 23.5799688,31.0908784 L33.9632889,27.0533656 C34.4932533,26.8465058 35.1020997,26.9634266 35.5148899,27.3479159 C35.9276801,27.7339042 36.0739564,28.3230049 35.888622,28.8506471 C35.4811927,30.0071131 35.5110606,31.2707564 35.9736307,32.4084851 C36.6728468,34.1323164 38.2757594,35.3539882 40.1566735,35.5975731 C42.1578253,35.8583962 44.0931144,34.9769938 45.4632103,33.1827102 C45.7312558,32.8311985 45.9142927,32.418978 45.9908771,31.9917676 C46.3584825,29.9486528 45.8369424,27.296201 43.2713632,25.9808427 C42.7659058,25.7215185 42.4588022,25.1938762 42.4879043,24.6362543 C42.5177722,24.0793818 42.8800167,23.5862162 43.4099811,23.3793564 L53.7933012,19.3425931 C56.3282466,18.3562618 59.2101195,19.5726871 60.2172051,22.0542547 L63.591516,30.3653702 C64.2302304,29.7193082 64.9838214,29.1879185 65.8300796,28.7921868 C67.4391189,28.0411959 69.3123747,27.8298392 71.2484296,28.1821004 C72.0112108,28.3207564 72.7471874,28.6332945 73.3782432,29.0859876 C74.7337881,30.0580786 75.7316835,31.2475222 76.3443591,32.6198418 C76.9103182,33.8879821 77.1155645,35.279039 76.9378886,36.6431143 C76.5771758,39.4004949 74.7154078,41.7501519 72.0778392,42.7754568 C71.044715,43.177934 69.941133,43.3555636 68.8459753,43.3075961 L72.221818,51.622459 C73.2289036,54.1032772 71.9859379,56.9236151 69.4509925,57.9091969 L58.9773028,61.9819358 C58.4404458,62.1910441 57.8270043,62.0711254 57.4142141,61.6761431 C57.0006581,61.2811609 56.862806,60.6838159 57.0634573,60.1531756 C57.5107105,58.9674795 57.4938619,57.6663616 57.0167408,56.4896593 C56.3167589,54.7665775 54.7146121,53.5456552 52.833698,53.3005714 C50.8317804,53.0412472 48.898023,53.9211506 47.5271613,55.7154342 C47.2583498,56.0684449 47.075313,56.4814149 46.9979627,56.9131222 C46.6249964,58.9959602 47.1702777,61.6813896 49.8216315,62.9697661 C50.3385765,63.2208459 50.6579337,63.7477387 50.6341925,64.3121061 C50.6104513,64.8764735 50.2482069,65.3763846 49.7113499,65.5847433 L39.2376601,69.6574822 C38.6403014,69.8898247 38.0237965,70 37.4164818,70" id="Fill-4" fill="#313131"></path>
                <circle id="Oval-2-Copy-8" stroke="#313131" stroke-width="3" cx="44.5" cy="44.5" r="43"></circle>
            </g>
        </g>
    </g>
</svg>