<?xml version="1.0" encoding="UTF-8"?>
<svg width="70px" height="71px" viewBox="0 0 70 71" version="1.1" xmlns="http://www.w3.org/2000/svg" xmlns:xlink="http://www.w3.org/1999/xlink">
    <!-- Generator: Sketch 52.2 (67145) - http://www.bohemiancoding.com/sketch -->
    <title>智能家居icon_copy_slice</title>
    <desc>Created with Sketch.</desc>
    <defs>
        <polygon id="path-1" points="0 70.99 70 70.99 70 0.99 0 0.99"></polygon>
    </defs>
    <g id="Page-1" stroke="none" stroke-width="1" fill="none" fill-rule="evenodd">
        <g id="画板" transform="translate(-8.000000, 0.000000)">
            <g id="智能家居icon-copy" transform="translate(8.000000, 0.000000)">
                <path d="M42.1225598,53.0221774 L17.9452094,53.0221774 C16.0890128,53.0221774 14.5790983,51.5396654 14.5790983,49.7179085 L14.5790983,19.3505992 C14.5790983,17.5288424 16.0890128,16.0469427 17.9452094,16.0469427 L33.7475256,16.0469427 C35.6037222,16.0469427 37.1136368,17.5288424 37.1136368,19.3505992 L37.1136368,47.9788196 L35.0228419,47.9788196 L35.0228419,19.3505992 C35.0228419,18.6610872 34.4506966,18.0995575 33.7475256,18.0995575 L17.9452094,18.0995575 C17.2420385,18.0995575 16.6698932,18.6610872 16.6698932,19.3505992 L16.6698932,49.7179085 C16.6698932,50.4080329 17.2420385,50.9695626 17.9452094,50.9695626 L42.1225598,50.9695626 C42.8257308,50.9695626 43.3972521,50.4080329 43.3972521,49.7179085 L43.3972521,41.7640261 C43.3972521,39.9428816 44.9077906,38.4609819 46.7633632,38.4609819 L50.8289017,38.4609819 L50.8289017,40.5129844 L46.7633632,40.5129844 C46.0608162,40.5129844 45.4886709,41.0739018 45.4886709,41.7640261 L45.4886709,49.7179085 C45.4886709,51.5396654 43.9787564,53.0221774 42.1225598,53.0221774" id="Fill-4" fill="#009FDE"></path>
                <path d="M55.7209624,53.0221774 L47.037706,53.0221774 L47.037706,50.9695626 L55.7209624,50.9695626 C56.4216376,50.9695626 56.9937829,50.4098699 56.9962786,49.7228073 L57.0461932,35.4953454 L59.136988,35.5020814 L59.0870735,49.7295433 C59.0808342,51.5451766 57.5709197,53.0221774 55.7209624,53.0221774" id="Fill-6" fill="#009FDE"></path>
                <path d="M62.7098701,40.4091289 L49.4893829,29.5826881 C48.9808786,29.1668989 48.2433915,29.1975166 47.7741949,29.6555584 L36.804853,40.3485057 L35.3311265,38.8929373 L46.3004684,28.1999899 C47.5402205,26.9912007 49.4868872,26.9085327 50.8289641,28.007098 L64.0494513,38.8335389 L62.7098701,40.4091289 Z" id="Fill-8" fill="#009FDE"></path>
                <mask id="mask-2" fill="white">
                    <use xlink:href="#path-1"></use>
                </mask>
                <g id="Clip-11"></g>
                <polygon id="Fill-10" fill="#009FDE" mask="url(#mask-2)" points="20.9123162 25.4904404 30.8989658 25.4904404 30.8989658 23.438438 20.9123162 23.438438"></polygon>
                <path d="M25.9055162,33.3873737 C23.7286188,33.3873737 21.9572769,35.1252379 21.9572769,37.2617454 C21.9572769,39.3982529 23.7286188,41.1361171 25.9055162,41.1361171 C28.0824137,41.1361171 29.8531316,39.3982529 29.8531316,37.2617454 C29.8531316,35.1252379 28.0824137,33.3873737 25.9055162,33.3873737 M25.9055162,43.1887319 C22.5755932,43.1887319 19.8664821,40.5298854 19.8664821,37.2617454 C19.8664821,33.9936054 22.5755932,31.3347589 25.9055162,31.3347589 C29.2354393,31.3347589 31.9439265,33.9936054 31.9439265,37.2617454 C31.9439265,40.5298854 29.2354393,43.1887319 25.9055162,43.1887319" id="Fill-12" fill="#009FDE" mask="url(#mask-2)"></path>
            </g>
        </g>
    </g>
</svg>