<?xml version="1.0" encoding="UTF-8"?>
<svg width="90px" height="90px" viewBox="0 0 90 90" version="1.1" xmlns="http://www.w3.org/2000/svg" xmlns:xlink="http://www.w3.org/1999/xlink">
    <!-- Generator: Sketch 51 (57462) - http://www.bohemiancoding.com/sketch -->
    <title>智能家居icon_slice</title>
    <desc>Created with Sketch.</desc>
    <defs>
        <polygon id="path-1" points="0 0.0332181753 89.966 0.0332181753 89.966 88.3300724 0 88.3300724"></polygon>
        <polygon id="path-3" points="0 89.0518882 89.9661538 89.0518882 89.9661538 0.0518882077 0 0.0518882077"></polygon>
    </defs>
    <g id="Page-1" stroke="none" stroke-width="1" fill="none" fill-rule="evenodd">
        <g id="Artboard">
            <g id="智能家居icon">
                <g id="Group-3" transform="translate(0.000000, 0.721740)">
                    <mask id="mask-2" fill="white">
                        <use xlink:href="#path-1"></use>
                    </mask>
                    <g id="Clip-2"></g>
                    <path d="M44.9829231,1.29845317 C39.0844615,1.29845317 33.3621538,2.43240088 27.9752308,4.66858805 C22.7721538,6.82776944 18.0998462,9.92007957 14.0867692,13.8586982 C10.0736923,17.7973169 6.92292308,22.3836899 4.72215385,27.4894745 C2.44369231,32.776449 1.28907692,38.3925855 1.28907692,44.1816075 C1.28907692,49.9713845 2.44369231,55.586766 4.72215385,60.8737406 C6.92292308,65.9802801 10.0736923,70.5666531 14.0867692,74.5052718 C18.0998462,78.4438904 22.7721538,81.5354456 27.9752308,83.695382 C33.3621538,85.9315691 39.0844615,87.0647619 44.9829231,87.0647619 C50.8821538,87.0647619 56.6036923,85.9315691 61.9906154,83.695382 C67.1936923,81.5354456 71.866,78.4438904 75.8790769,74.5052718 C79.8921538,70.5666531 83.0429231,65.9802801 85.2436923,60.8737406 C87.5221538,55.586766 88.6767692,49.9713845 88.6767692,44.1816075 C88.6767692,38.3925855 87.5221538,32.776449 85.2436923,27.4894745 C83.0429231,22.3836899 79.8921538,17.7973169 75.8790769,13.8586982 C71.866,9.92007957 67.1936923,6.82776944 61.9906154,4.66858805 C56.6036923,2.43240088 50.8821538,1.29845317 44.9829231,1.29845317 M44.9829231,88.3300724 C38.9106154,88.3300724 33.0198462,87.1621515 27.4736923,84.8610379 C22.1167692,82.6369301 17.306,79.45327 13.1752308,75.3991427 C9.04446154,71.3450154 5.80061538,66.6235047 3.53523077,61.3659735 C1.18907692,55.9227226 -0.000153846154,50.1412501 -0.000153846154,44.1816075 C-0.000153846154,38.2219649 1.18907692,32.4404925 3.53523077,26.9972415 C5.80061538,21.7397103 9.04446154,17.0181997 13.1752308,12.9640724 C17.306,8.90994506 22.1167692,5.72628494 27.4736923,3.50293208 C33.0198462,1.20106352 38.9106154,0.0331426794 44.9829231,0.0331426794 C51.0552308,0.0331426794 56.946,1.20106352 62.4921538,3.50293208 C67.8490769,5.72628494 72.6598462,8.90994506 76.7906154,12.9640724 C80.9213846,17.0181997 84.1652308,21.7397103 86.4306154,26.9972415 C88.7767692,32.4404925 89.966,38.2219649 89.966,44.1816075 C89.966,50.1412501 88.7767692,55.9227226 86.4306154,61.3659735 C84.1652308,66.6235047 80.9213846,71.3450154 76.7906154,75.3991427 C72.6598462,79.45327 67.8490769,82.6369301 62.4921538,84.8610379 C56.946,87.1621515 51.0552308,88.3300724 44.9829231,88.3300724" id="Fill-1" fill="#313131" mask="url(#mask-2)"></path>
                </g>
                <path d="M51.9319231,69.0684379 L22.1242308,69.0684379 C19.8357692,69.0684379 17.9742308,67.2406833 17.9742308,64.9946817 L17.9742308,27.5555333 C17.9742308,25.3095317 19.8357692,23.4825321 22.1242308,23.4825321 L41.6065385,23.4825321 C43.895,23.4825321 45.7565385,25.3095317 45.7565385,27.5555333 L45.7565385,62.8505995 L43.1788462,62.8505995 L43.1788462,27.5555333 C43.1788462,26.70545 42.4734615,26.013153 41.6065385,26.013153 L22.1242308,26.013153 C21.2573077,26.013153 20.5519231,26.70545 20.5519231,27.5555333 L20.5519231,64.9946817 C20.5519231,65.84552 21.2573077,66.5378169 22.1242308,66.5378169 L51.9319231,66.5378169 C52.7988462,66.5378169 53.5034615,65.84552 53.5034615,64.9946817 L53.5034615,55.1885254 C53.5034615,52.9432787 55.3657692,51.1162791 57.6534615,51.1162791 L62.6657692,51.1162791 L62.6657692,53.6461451 L57.6534615,53.6461451 C56.7873077,53.6461451 56.0819231,54.3376871 56.0819231,55.1885254 L56.0819231,64.9946817 C56.0819231,67.2406833 54.2203846,69.0684379 51.9319231,69.0684379" id="Fill-4" fill="#313131"></path>
                <path d="M68.6970769,69.0684379 L57.9916923,69.0684379 L57.9916923,66.5378169 L68.6970769,66.5378169 C69.5609231,66.5378169 70.2663077,65.8477849 70.2693846,65.0007214 L70.3309231,47.4600149 L72.9086154,47.4683195 L72.8470769,65.0090259 C72.8393846,67.247478 70.9778462,69.0684379 68.6970769,69.0684379" id="Fill-6" fill="#313131"></path>
                <path d="M77.3135385,53.5181041 L61.0143077,40.1704374 C60.3873846,39.6578205 59.4781538,39.6955684 58.8996923,40.2602774 L45.3758462,53.4433633 L43.5589231,51.6488268 L57.0827692,38.465741 C58.6112308,36.9754529 61.0112308,36.8735335 62.6658462,38.2279291 L78.9650769,51.5755959 L77.3135385,53.5181041 Z" id="Fill-8" fill="#313131"></path>
                <mask id="mask-4" fill="white">
                    <use xlink:href="#path-3"></use>
                </mask>
                <g id="Clip-11"></g>
                <polygon id="Fill-10" fill="#313131" mask="url(#mask-4)" points="25.7823077 35.1252005 38.0946154 35.1252005 38.0946154 32.5953345 25.7823077 32.5953345"></polygon>
                <path d="M31.9383077,44.8611457 C29.2544615,44.8611457 27.0706154,47.003718 27.0706154,49.6377683 C27.0706154,52.2718186 29.2544615,54.4143909 31.9383077,54.4143909 C34.6221538,54.4143909 36.8052308,52.2718186 36.8052308,49.6377683 C36.8052308,47.003718 34.6221538,44.8611457 31.9383077,44.8611457 M31.9383077,56.9450119 C27.8329231,56.9450119 24.4929231,53.666982 24.4929231,49.6377683 C24.4929231,45.6085546 27.8329231,42.3305247 31.9383077,42.3305247 C36.0436923,42.3305247 39.3829231,45.6085546 39.3829231,49.6377683 C39.3829231,53.666982 36.0436923,56.9450119 31.9383077,56.9450119" id="Fill-12" fill="#313131" mask="url(#mask-4)"></path>
                <ellipse id="Oval-2-Copy-2" stroke="#313131" stroke-width="3" mask="url(#mask-4)" cx="45" cy="44.5425532" rx="43.5" ry="43.0425532"></ellipse>
            </g>
        </g>
    </g>
</svg>