<?xml version="1.0" encoding="UTF-8"?>
<svg width="93px" height="91px" viewBox="0 0 93 91" version="1.1" xmlns="http://www.w3.org/2000/svg" xmlns:xlink="http://www.w3.org/1999/xlink">
    <!-- Generator: Sketch 51 (57462) - http://www.bohemiancoding.com/sketch -->
    <title>审核反馈_slice</title>
    <desc>Created with Sketch.</desc>
    <defs>
        <polygon id="path-1" points="1.68812229e-06 0.00448024851 92.5895056 0.00448024851 92.5895056 90.0217271 1.68812229e-06 90.0217271"></polygon>
        <polygon id="path-3" points="0 90.1214491 92.5895056 90.1214491 92.5895056 0.104191826 0 0.104191826"></polygon>
    </defs>
    <g id="Page-1" stroke="none" stroke-width="1" fill="none" fill-rule="evenodd">
        <g id="Artboard" transform="translate(-788.000000, -157.000000)">
            <g id="审核反馈" transform="translate(788.000000, 157.000000)">
                <path d="M40.6927011,4.29827749 L5.9593607,29.9202978 C2.61890797,32.3844344 1.22113497,36.75226 2.49709925,40.7393686 L15.7640903,82.1967751 C17.0399519,86.1837795 20.6993444,88.8832855 24.8284239,88.8832855 L67.7611227,88.8832855 C71.8902022,88.8832855 75.5495947,86.1837795 76.8254564,82.1967751 L90.0924474,40.7393686 C91.3684117,36.75226 89.9706387,32.3844344 86.630186,29.9202978 L51.8968456,4.29827749 C48.5563928,1.83414081 44.0331538,1.83414081 40.6927011,4.29827749" id="Fill-1" fill="#F9F9F9"></path>
                <g id="Group-5" transform="translate(0.000000, 0.099712)">
                    <mask id="mask-2" fill="white">
                        <use xlink:href="#path-1"></use>
                    </mask>
                    <g id="Clip-4"></g>
                    <path d="M44.1171577,3.20284631 L3.968409,32.8196854 C2.66596903,33.7805424 2.12506443,35.470638 2.62266382,37.02518 L17.9580428,84.9463349 C18.4555396,86.5009811 19.8714761,87.5455041 21.4814652,87.5455041 L71.108102,87.5455041 C72.7180911,87.5455041 74.1340276,86.5009811 74.6314218,84.9463349 L89.967006,37.02518 C90.4645028,35.470638 89.9237008,33.7805424 88.6211582,32.8196854 L48.4724095,3.20284631 C47.1698669,2.24198929 45.4195977,2.24198929 44.1171577,3.20284631 M71.108102,90.0217271 L21.4814652,90.0217271 C18.8116274,90.0217271 16.4635001,88.2896422 15.6385462,85.7115196 L0.303167225,37.7903648 C-0.521991918,35.2123465 0.375000505,32.4096905 2.5349246,30.8163891 L42.6836733,1.19944588 C44.8435974,-0.393855521 47.7460724,-0.393855521 49.9058939,1.19944588 L90.0546426,30.8163891 C92.2145667,32.4096905 93.1114565,35.2123465 92.2864,37.7903648 L76.951021,85.7115196 C76.1259645,88.2896422 73.7779398,90.0217271 71.108102,90.0217271" id="Fill-3" fill="#00A0DE" mask="url(#mask-2)"></path>
                </g>
                <path d="M30.7553468,63.0050784 L30.7553468,35.8227855 C30.7553468,32.6225336 33.3195896,30.0190924 36.4715313,30.0190924 L55.5879063,30.0190924 C58.7397453,30.0190924 61.3039882,32.6225336 61.3039882,35.8227855 L61.3039882,47.8101593 L63.4248144,47.8101593 L63.4248144,35.8227855 C63.4248144,31.4352677 59.9091911,27.86576 55.5879063,27.86576 L36.4715313,27.86576 C32.1501438,27.86576 28.6345205,31.4352677 28.6345205,35.8227855 L28.6345205,63.0050784 C28.6345205,67.392492 32.1501438,70.9619997 36.4715313,70.9619997 L47.7344764,70.9619997 L47.7344764,68.8087715 L36.4715313,68.8087715 C33.3195896,68.8087715 30.7553468,66.2052261 30.7553468,63.0050784" id="Fill-6" fill="#00A0DE"></path>
                <mask id="mask-4" fill="white">
                    <use xlink:href="#path-3"></use>
                </mask>
                <g id="Clip-9"></g>
                <polygon id="Fill-8" fill="#00A0DE" mask="url(#mask-4)" points="32.9984641 40.5406227 56.7274592 40.5406227 56.7274592 38.3873944 32.9984641 38.3873944"></polygon>
                <polygon id="Fill-10" fill="#00A0DE" mask="url(#mask-4)" points="32.9984641 56.0433244 45.7789385 56.0433244 45.7789385 53.8900961 32.9984641 53.8900961"></polygon>
                <polygon id="Fill-11" fill="#00A0DE" mask="url(#mask-4)" points="32.9984641 48.1304762 52.8366609 48.1304762 52.8366609 45.9772479 32.9984641 45.9772479"></polygon>
                <path d="M61.9057663,63.1463104 C61.3064716,63.6592468 60.54391,63.9417108 59.758567,63.9417108 C57.9202508,63.9417108 56.4246819,62.4233233 56.4246819,60.5567268 C56.4246819,58.6902344 57.9202508,57.1717427 59.758567,57.1717427 C61.5968832,57.1717427 63.0924521,58.6902344 63.0924521,60.5567268 C63.0924521,61.5569683 62.6599132,62.5009462 61.9057663,63.1463104 M65.2131758,60.5567268 C65.2131758,57.5029685 62.7662264,55.0185145 59.758567,55.0185145 C56.7509076,55.0185145 54.3038556,57.5029685 54.3038556,60.5567268 C54.3038556,63.6105892 56.7509076,66.0950433 59.758567,66.0950433 C60.6876792,66.0950433 61.5969859,65.8520679 62.4004924,65.4006047 L64.6939238,67.9685165 L66.2649176,66.5220214 L64.0223852,64.0111026 C64.7879228,63.0381593 65.2131758,61.8252622 65.2131758,60.5567268" id="Fill-12" fill="#00F9E6" mask="url(#mask-4)"></path>
                <path d="M60.466053,71.0283595 C55.0765046,71.0283595 50.6918012,66.576347 50.6918012,61.1041923 C50.6918012,55.6320376 55.0765046,51.1801293 60.466053,51.1801293 C65.8557039,51.1801293 70.2404073,55.6320376 70.2404073,61.1041923 C70.2404073,66.576347 65.8557039,71.0283595 60.466053,71.0283595 M68.8771143,52.5642135 C66.6304772,50.283246 63.6433415,49.026901 60.466053,49.026901 C57.2887644,49.026901 54.3016288,50.283246 52.0549917,52.5642135 C49.8083545,54.8453893 48.570975,57.878205 48.570975,61.1041923 C48.570975,64.3302838 49.8083545,67.3630995 52.0549917,69.6442753 C54.3016288,71.9253469 57.2887644,73.1815878 60.466053,73.1815878 C63.6433415,73.1815878 66.6304772,71.9253469 68.8771143,69.6442753 C71.1237514,67.3630995 72.361131,64.3302838 72.361131,61.1041923 C72.361131,57.878205 71.1237514,54.8453893 68.8771143,52.5642135" id="Fill-13" fill="#00A0DE" mask="url(#mask-4)"></path>
            </g>
        </g>
    </g>
</svg>