<?xml version="1.0" encoding="UTF-8"?>
<svg width="93px" height="91px" viewBox="0 0 93 91" version="1.1" xmlns="http://www.w3.org/2000/svg" xmlns:xlink="http://www.w3.org/1999/xlink">
    <!-- Generator: Sketch 51 (57462) - http://www.bohemiancoding.com/sketch -->
    <title>提交表格_slice</title>
    <desc>Created with Sketch.</desc>
    <defs>
        <polygon id="path-1" points="0 0.0045349489 92.5895056 0.0045349489 92.5895056 90.0217271 0 90.0217271"></polygon>
        <polygon id="path-3" points="0 90.1214491 92.5895056 90.1214491 92.5895056 0.104191826 0 0.104191826"></polygon>
    </defs>
    <g id="Page-1" stroke="none" stroke-width="1" fill="none" fill-rule="evenodd">
        <g id="Artboard" transform="translate(-452.000000, -157.000000)">
            <g id="提交表格" transform="translate(452.000000, 157.000000)">
                <path d="M40.6927011,4.29832958 L5.9593607,29.9203499 C2.61890797,32.3844865 1.22113497,36.7523121 2.49709925,40.7394207 L15.7640903,82.1968272 C17.0399519,86.1838316 20.6993444,88.8833376 24.8284239,88.8833376 L67.7611227,88.8833376 C71.8902022,88.8833376 75.5495947,86.1838316 76.8254564,82.1968272 L90.0924474,40.7394207 C91.3684117,36.7523121 89.9706387,32.3844865 86.630186,29.9203499 L51.8968456,4.29832958 C48.5563928,1.8341929 44.0331538,1.8341929 40.6927011,4.29832958" id="Fill-1" fill="#F9F9F9"></path>
                <g id="Group-5" transform="translate(0.000000, 0.099712)">
                    <mask id="mask-2" fill="white">
                        <use xlink:href="#path-1"></use>
                    </mask>
                    <g id="Clip-4"></g>
                    <path d="M46.2947528,2.48225564 C45.5315755,2.48225564 44.7683982,2.72252199 44.1171782,3.2029505 L3.96842953,32.8196854 C2.66588693,33.7805424 2.12508496,35.470638 2.62258173,37.0252842 L17.9580633,84.9462307 C18.4555601,86.5009811 19.8714967,87.5455041 21.4814857,87.5455041 L71.1080199,87.5455041 C72.718009,87.5455041 74.1340481,86.5009811 74.6314423,84.9462307 L89.9670265,37.0252842 C90.4644207,35.470638 89.9236187,33.7805424 88.6210761,32.8196854 L48.4723274,3.2029505 C47.8211074,2.72252199 47.0579301,2.48225564 46.2947528,2.48225564 M71.1080199,90.0217271 L21.4814857,90.0217271 C18.8116479,90.0217271 16.4636233,88.289538 15.6385667,85.7115196 L0.30308513,37.790469 C-0.521971395,35.2123465 0.37491841,32.4096905 2.53494512,30.8163891 L42.6836938,1.19955007 C44.8436179,-0.393855521 47.7459903,-0.393751329 49.9059144,1.19955007 L90.0546631,30.8163891 C92.2145872,32.4096905 93.111477,35.2123465 92.2865231,37.790469 L76.9510415,85.7115196 C76.125985,88.289538 73.7778577,90.0217271 71.1080199,90.0217271" id="Fill-3" fill="#00A0DE" mask="url(#mask-2)"></path>
                </g>
                <path d="M49.6347027,28.6545963 C45.972129,28.6545963 42.9924846,31.6800143 42.9924846,35.3987248 L42.9924846,55.0414888 C42.9924846,58.7601992 45.972129,61.7856173 49.6347027,61.7856173 L62.3836732,61.7856173 C66.0462468,61.7856173 69.0258913,58.7601992 69.0258913,55.0414888 L69.0258913,35.3987248 C69.0258913,31.6800143 66.0462468,28.6545963 62.3836732,28.6545963 L49.6347027,28.6545963 Z M62.3836732,63.9388455 L49.6347027,63.9388455 C44.8027859,63.9388455 40.8716583,59.9475693 40.8716583,55.0414888 L40.8716583,35.3987248 C40.8716583,30.4926443 44.8027859,26.5012638 49.6347027,26.5012638 L62.3836732,26.5012638 C67.21559,26.5012638 71.1467175,30.4926443 71.1467175,35.3987248 L71.1467175,55.0414888 C71.1467175,59.9475693 67.21559,63.9388455 62.3836732,63.9388455 Z" id="Fill-6" fill="#00A0DE"></path>
                <path d="M47.8588404,35.9828242 C47.5811534,35.9828242 47.3551865,36.2122546 47.3551865,36.4943018 L47.3551865,36.5752589 C47.3551865,36.857202 47.5811534,37.0866324 47.8588404,37.0866324 L52.7435034,37.0866324 C53.0211903,37.0866324 53.2471573,36.857202 53.2471573,36.5752589 L53.2471573,36.4943018 C53.2471573,36.2122546 53.0211903,35.9828242 52.7435034,35.9828242 L47.8588404,35.9828242 Z M52.7435034,39.2398606 L47.8588404,39.2398606 C46.4117076,39.2398606 45.2344628,38.0444678 45.2344628,36.5752589 L45.2344628,36.4943018 C45.2344628,35.0249887 46.4117076,33.8295959 47.8588404,33.8295959 L52.7435034,33.8295959 C54.1906361,33.8295959 55.3679836,35.0249887 55.3679836,36.4943018 L55.3679836,36.5752589 C55.3679836,38.0444678 54.1906361,39.2398606 52.7435034,39.2398606 Z" id="Fill-8" fill="#00F9E6"></path>
                <path d="M48.6840713,72.8956229 L30.2390297,72.8956229 C26.9774909,72.8956229 24.3240722,70.2016391 24.3240722,66.8900061 L24.3240722,41.463658 C24.3240722,38.1521292 26.9774909,35.4581454 30.2390297,35.4581454 L41.9320509,35.4581454 L41.9320509,37.6113737 L30.2390297,37.6113737 C28.1468341,37.6113737 26.4447959,39.3394993 26.4447959,41.463658 L26.4447959,66.8900061 C26.4447959,69.014269 28.1468341,70.7423946 30.2390297,70.7423946 L48.6840713,70.7423946 C50.7761643,70.7423946 52.4783052,69.014269 52.4783052,66.8900061 L52.4783052,62.8622626 L54.5990288,62.8622626 L54.5990288,66.8900061 C54.5990288,70.2016391 51.9456101,72.8956229 48.6840713,72.8956229" id="Fill-10" fill="#00A0DE"></path>
                <path d="M31.311203,44.9396536 C31.0334134,44.9396536 30.8075491,45.169084 30.8075491,45.4510271 L30.8075491,45.5319842 C30.8075491,45.8140314 31.0334134,46.0433576 31.311203,46.0433576 L36.195866,46.0433576 C36.4735529,46.0433576 36.6995199,45.8140314 36.6995199,45.5319842 L36.6995199,45.4510271 C36.6995199,45.169084 36.4735529,44.9396536 36.195866,44.9396536 L31.311203,44.9396536 Z M36.195866,48.1966901 L31.311203,48.1966901 C29.8640702,48.1966901 28.6867228,47.0011931 28.6867228,45.5319842 L28.6867228,45.4510271 C28.6867228,43.9818182 29.8640702,42.7864254 31.311203,42.7864254 L36.195866,42.7864254 C37.6429987,42.7864254 38.8203461,43.9818182 38.8203461,45.4510271 L38.8203461,45.5319842 C38.8203461,47.0011931 37.6429987,48.1966901 36.195866,48.1966901 Z" id="Fill-12" fill="#00F9E6"></path>
                <mask id="mask-4" fill="white">
                    <use xlink:href="#path-3"></use>
                </mask>
                <g id="Clip-15"></g>
                <polygon id="Fill-14" fill="#00A0DE" mask="url(#mask-4)" points="29.7470846 54.0321096 35.1603379 54.0321096 35.1603379 51.8788813 29.7470846 51.8788813"></polygon>
                <polygon id="Fill-16" fill="#00A0DE" mask="url(#mask-4)" points="29.7470846 63.5317993 37.6107763 63.5317993 37.6107763 61.3784669 29.7470846 61.3784669"></polygon>
                <polygon id="Fill-17" fill="#00A0DE" mask="url(#mask-4)" points="29.7470846 58.7819024 39.9721415 58.7819024 39.9721415 56.6286741 29.7470846 56.6286741"></polygon>
                <polygon id="Fill-18" fill="#00A0DE" mask="url(#mask-4)" points="46.2947015 46.2967001 51.7079548 46.2967001 51.7079548 44.1434718 46.2947015 44.1434718"></polygon>
                <polygon id="Fill-19" fill="#00A0DE" mask="url(#mask-4)" points="46.2948041 55.7963898 54.1584958 55.7963898 54.1584958 53.6430573 46.2948041 53.6430573"></polygon>
                <polygon id="Fill-20" fill="#00A0DE" mask="url(#mask-4)" points="46.2948041 51.0464928 56.5197584 51.0464928 56.5197584 48.8932646 46.2948041 48.8932646"></polygon>
            </g>
        </g>
    </g>
</svg>