<?xml version="1.0" encoding="UTF-8"?>
<svg width="93px" height="90px" viewBox="0 0 93 90" version="1.1" xmlns="http://www.w3.org/2000/svg" xmlns:xlink="http://www.w3.org/1999/xlink">
    <!-- Generator: Sketch 51 (57462) - http://www.bohemiancoding.com/sketch -->
    <title>填写表格_slice</title>
    <desc>Created with Sketch.</desc>
    <defs>
        <polygon id="path-1" points="0 0.00447269103 92.9243706 0.00447269103 92.9243706 89.5574647 0 89.5574647"></polygon>
        <polygon id="path-3" points="0 89.2307692 93 89.2307692 93 0 0 0"></polygon>
    </defs>
    <g id="Page-1" stroke="none" stroke-width="1" fill="none" fill-rule="evenodd">
        <g id="Artboard" transform="translate(-116.000000, -157.000000)">
            <g id="填写表格" transform="translate(116.000000, 157.000000)">
                <path d="M41.2373809,4.14982362 L6.24553184,29.6890594 C2.88021722,32.1452345 1.47204106,36.4989477 2.75750192,40.473174 L16.1232347,81.7966321 C17.4085922,85.7707545 21.0953237,88.4615385 25.2550312,88.4615385 L68.5072638,88.4615385 C72.6670747,88.4615385 76.3537029,85.7707545 77.6391637,81.7966321 L91.0047932,40.473174 C92.290254,36.4989477 90.8820779,32.1452345 87.5167632,29.6890594 L52.5249141,4.14982362 C49.1595995,1.69364854 44.6026956,1.69364854 41.2373809,4.14982362" id="Fill-1" fill="#F9F9F9"></path>
                <g id="Group-5">
                    <mask id="mask-2" fill="white">
                        <use xlink:href="#path-1"></use>
                    </mask>
                    <g id="Clip-4"></g>
                    <path d="M46.4621821,2.46945409 C45.6962452,2.46945409 44.9303083,2.70848133 44.2767336,3.18643216 L3.98280997,32.6504268 C2.67555748,33.6063285 2.1328,35.2877079 2.63209568,36.8343365 L18.0230292,84.5081438 C18.5223249,86.054876 19.9433814,87.0940122 21.559192,87.0940122 L71.3651721,87.0940122 C72.9809827,87.0940122 74.4020392,86.054876 74.9013349,84.5081438 L90.2922684,36.8343365 C90.7915641,35.2877079 90.2488066,33.6063285 88.9415542,32.6504268 L48.6476306,3.18643216 C47.9940558,2.70848133 47.2281189,2.46945409 46.4621821,2.46945409 M71.3651721,89.5574647 L21.559192,89.5574647 C18.8797003,89.5574647 16.5230824,87.8342089 15.6950425,85.269486 L0.30421196,37.595575 C-0.523827907,35.0307484 0.376304983,32.2425464 2.5440392,30.6574621 L42.8379628,1.19336372 C45.005697,-0.391824319 47.9186671,-0.391824319 50.0864013,1.19336372 L90.3803249,30.6574621 C92.5480591,32.2425464 93.448192,35.0307484 92.6201522,37.595575 L77.2293216,85.269486 C76.4012817,87.8342089 74.0446638,89.5574647 71.3651721,89.5574647" id="Fill-3" fill="#00A0DE" mask="url(#mask-2)"></path>
                </g>
                <path d="M55.9349204,75.3846154 L33.2536041,75.3846154 C29.2087982,75.3846154 25.9180328,72.1080146 25.9180328,68.0803881 L25.9180328,34.996535 C25.9180328,30.969012 29.2087982,27.6923077 33.2536041,27.6923077 L55.9349204,27.6923077 C59.9798304,27.6923077 63.2704918,30.969012 63.2704918,34.996535 L63.2704918,39.5268124 L61.1217049,39.5268124 L61.1217049,34.996535 C61.1217049,32.1487664 58.7949095,29.8319131 55.9349204,29.8319131 L33.2536041,29.8319131 C30.3936151,29.8319131 28.0669237,32.1487664 28.0669237,34.996535 L28.0669237,68.0803881 C28.0669237,70.9281567 30.3936151,73.24501 33.2536041,73.24501 L55.9349204,73.24501 C58.7949095,73.24501 61.1217049,70.9281567 61.1217049,68.0803881 L61.1217049,51.2060183 L63.2704918,51.2060183 L63.2704918,68.0803881 C63.2704918,72.1080146 59.9798304,75.3846154 55.9349204,75.3846154" id="Fill-6" fill="#00A0DE"></path>
                <path d="M52.5948787,53.7801788 L52.0814866,53.2910144 C52.0526807,53.2637132 52.05529,53.2150636 52.0872269,53.1827331 L65.6886194,39.3769238 C65.7205564,39.3444908 65.7698186,39.3403853 65.7986245,39.3677892 L66.3119122,39.8569536 C66.3407181,39.8843575 66.3382132,39.9329045 66.3061719,39.9653375 L52.7048838,53.7710442 C52.6729468,53.8035799 52.6236846,53.8076854 52.5948787,53.7801788 M69.838547,39.2935832 L67.6294688,37.1889239 C67.2085479,36.7878214 66.4884005,36.8473504 66.0210353,37.3218379 L49.7521751,53.8350892 C49.6208787,53.9685164 49.5188056,54.1262683 49.4542011,54.2959261 L48.1055424,57.8384168 C47.7626897,58.73905 48.564245,59.5028691 49.4689171,59.1372787 L53.026654,57.6996525 C53.1970889,57.6307836 53.3541645,57.5253762 53.4855653,57.3920517 L69.7543211,40.8788003 C70.2217907,40.4043128 70.259468,39.6945831 69.838547,39.2935832" id="Fill-8" fill="#00F9E6"></path>
                <mask id="mask-4" fill="white">
                    <use xlink:href="#path-3"></use>
                </mask>
                <g id="Clip-11"></g>
                <polygon id="Fill-10" fill="#00A0DE" mask="url(#mask-4)" points="34.3032787 31.5384615 36.5901639 31.5384615 36.5901639 25.3846154 34.3032787 25.3846154"></polygon>
                <polygon id="Fill-12" fill="#00A0DE" mask="url(#mask-4)" points="43.4508197 31.5384615 45.7377049 31.5384615 45.7377049 25.3846154 43.4508197 25.3846154"></polygon>
                <polygon id="Fill-13" fill="#00A0DE" mask="url(#mask-4)" points="51.0737705 31.5384615 53.3606557 31.5384615 53.3606557 25.3846154 51.0737705 25.3846154"></polygon>
                <polygon id="Fill-14" fill="#00A0DE" mask="url(#mask-4)" points="32.7786885 39.2307692 54.8852459 39.2307692 54.8852459 36.9230769 32.7786885 36.9230769"></polygon>
                <polygon id="Fill-15" fill="#00A0DE" mask="url(#mask-4)" points="32.7786885 67.6923077 54.8852459 67.6923077 54.8852459 65.3846154 32.7786885 65.3846154"></polygon>
                <polygon id="Fill-16" fill="#00A0DE" mask="url(#mask-4)" points="32.7786885 49.2307692 49.5491803 49.2307692 49.5491803 46.9230769 32.7786885 46.9230769"></polygon>
                <polygon id="Fill-17" fill="#00A0DE" mask="url(#mask-4)" points="32.7786885 58.4615385 45.7377049 58.4615385 45.7377049 56.1538462 32.7786885 56.1538462"></polygon>
            </g>
        </g>
    </g>
</svg>