<?xml version="1.0" encoding="UTF-8"?>
<svg width="93px" height="91px" viewBox="0 0 93 91" version="1.1" xmlns="http://www.w3.org/2000/svg" xmlns:xlink="http://www.w3.org/1999/xlink">
    <!-- Generator: Sketch 51 (57462) - http://www.bohemiancoding.com/sketch -->
    <title>申请成功_slice</title>
    <desc>Created with Sketch.</desc>
    <defs>
        <polygon id="path-1" points="3.4586961e-05 0.00448024851 92.5895056 0.00448024851 92.5895056 90.0217271 3.4586961e-05 90.0217271"></polygon>
        <polygon id="path-3" points="0 90.1214491 92.5895056 90.1214491 92.5895056 0.104191826 0 0.104191826"></polygon>
    </defs>
    <g id="Page-1" stroke="none" stroke-width="1" fill="none" fill-rule="evenodd">
        <g id="Artboard" transform="translate(-1124.000000, -157.000000)">
            <g id="申请成功" transform="translate(1124.000000, 157.000000)">
                <path d="M40.6926908,4.29827749 L5.95935044,29.9202978 C2.6188977,32.3844344 1.2211247,36.75226 2.49708899,40.7393686 L15.76408,82.1967751 C17.0399417,86.1837795 20.6993342,88.8832855 24.8284137,88.8832855 L67.7611125,88.8832855 C71.8900894,88.8832855 75.5495845,86.1837795 76.8254461,82.1967751 L90.0924372,40.7393686 C91.3684014,36.75226 89.9706284,32.3844344 86.6301757,29.9202978 L51.8968353,4.29827749 C48.5563826,1.83414081 44.0331436,1.83414081 40.6926908,4.29827749" id="Fill-1" fill="#F9F9F9"></path>
                <g id="Group-5" transform="translate(0.000000, 0.099712)">
                    <mask id="mask-2" fill="white">
                        <use xlink:href="#path-1"></use>
                    </mask>
                    <g id="Clip-4"></g>
                    <path d="M44.1171475,3.20284631 L3.96839874,32.8196854 C2.66585615,33.7805424 2.12505417,35.470638 2.62255094,37.02518 L17.9580325,84.9463349 C18.4555293,86.5009811 19.8714659,87.5455041 21.4814549,87.5455041 L71.1080918,87.5455041 C72.7179782,87.5455041 74.1339147,86.5009811 74.6314115,84.9463349 L89.9668931,37.02518 C90.4643899,35.470638 89.9235879,33.7805424 88.6210453,32.8196854 L48.4723992,3.20284631 C47.1698566,2.24198929 45.4196901,2.24198929 44.1171475,3.20284631 Z M71.1080918,90.0217271 L21.4814549,90.0217271 C18.8116171,90.0217271 16.4634899,88.2896422 15.6385359,85.7115196 L0.303156963,37.7903648 C-0.521899561,35.2123465 0.374990243,32.4096905 2.53491434,30.8163891 L42.6835604,1.19944588 L43.4004566,2.20114609 L42.6835604,1.19944588 C44.8435872,-0.393855521 47.7458569,-0.393855521 49.9058836,1.19944588 L90.0545297,30.8163891 C92.2145564,32.4096905 93.1114462,35.2123465 92.2863897,37.7903648 L76.9509081,85.7115196 C76.1259542,88.2896422 73.7778269,90.0217271 71.1080918,90.0217271 Z" id="Fill-3" fill="#00A0DE" mask="url(#mask-2)"></path>
                </g>
                <mask id="mask-4" fill="white">
                    <use xlink:href="#path-3"></use>
                </mask>
                <g id="Clip-7"></g>
                <polygon id="Fill-6" fill="#00A0DE" mask="url(#mask-4)" points="35.8943714 39.0037932 55.8467831 39.0037932 55.8467831 36.8504608 35.8943714 36.8504608"></polygon>
                <polygon id="Fill-8" fill="#00A0DE" mask="url(#mask-4)" points="35.8944741 53.3788269 44.7325329 53.3788269 44.7325329 51.2254944 35.8944741 51.2254944"></polygon>
                <polygon id="Fill-9" fill="#00A0DE" mask="url(#mask-4)" points="35.8943714 46.1913621 47.9092058 46.1913621 47.9092058 44.0380297 35.8943714 44.0380297"></polygon>
                <path d="M56.2122093,63.2167128 L50.6869987,58.7307338 C50.4586715,58.5453765 50.421626,58.207274 50.6041852,57.975343 L51.2675142,57.1330563 C51.4500733,56.9013337 51.7831745,56.8636162 52.0113991,57.0490777 L55.8765426,60.1871271 C56.1051777,60.3727969 56.438792,60.3346627 56.6211459,60.1020024 L64.9219944,49.5116326 C65.1039379,49.2793891 65.4370391,49.2409423 65.6656741,49.4258828 L66.4968878,50.0973991 C66.7256255,50.2821312 66.7633893,50.6203378 66.5813432,50.8524772 L56.9569152,63.1316923 C56.7745613,63.3642484 56.440947,63.4023827 56.2122093,63.2167128" id="Fill-10" fill="#00F9E6" mask="url(#mask-4)"></path>
                <path d="M58.5085551,44.492056 C52.6444966,44.492056 47.8737406,49.335934 47.8737406,55.2898716 C47.8737406,61.2438093 52.6444966,66.0876873 58.5085551,66.0876873 C64.3726135,66.0876873 69.1433695,61.2438093 69.1433695,55.2898716 C69.1433695,49.335934 64.3726135,44.492056 58.5085551,44.492056 M58.5085551,68.2409156 C55.1014,68.2409156 51.8981488,66.8938195 49.4889632,64.447708 C47.0797777,62.0014923 45.753017,58.7491445 45.753017,55.2898716 C45.753017,51.8304946 47.0797777,48.5781468 49.4889632,46.1321395 C51.8981488,43.6859238 55.1014,42.3387235 58.5085551,42.3387235 C61.9157101,42.3387235 65.1189613,43.6859238 67.5281469,46.1321395 C69.9373324,48.5781468 71.2640931,51.8304946 71.2640931,55.2898716 C71.2640931,58.7491445 69.9373324,62.0014923 67.5281469,64.447708 C65.1189613,66.8938195 61.9157101,68.2409156 58.5085551,68.2409156" id="Fill-11" fill="#00A0DE" mask="url(#mask-4)"></path>
                <path d="M61.4436731,76.6960302 C61.040791,76.6961344 60.6410901,76.5684994 60.2992664,76.3188558 L47.2663492,67.9230784 L47.2306378,67.8954676 C46.9810685,67.7029211 46.6456071,67.7029211 46.3960377,67.8954676 L46.3603263,67.9230784 L46.3224599,67.9473551 L33.3274092,76.3188558 C32.7344768,76.7520854 31.9670921,76.8174136 31.3119726,76.4874381 C30.6228862,76.1403752 30.1948625,75.4326001 30.1948625,74.6403254 L30.1948625,31.5162665 C30.1948625,29.3052117 31.9174245,27.5062357 34.0347618,27.5062357 L59.5920164,27.5062357 C61.7093536,27.5062357 63.4319157,29.3052117 63.4319157,31.5162665 L63.4319157,41.5683812 L61.3110894,41.5683812 L61.3110894,31.5162665 C61.3110894,30.4924776 60.5399078,29.6595681 59.5920164,29.6595681 L34.0347618,29.6595681 C33.0867677,29.6595681 32.3155861,30.4924776 32.3155861,31.5162665 L32.3155861,74.4205849 L45.1527063,66.1508797 C46.1521124,65.4064291 47.4745631,65.4064291 48.4740719,66.1508797 L61.3110894,74.4205849 L61.3110894,69.391558 L63.4319157,69.391558 L63.4319157,74.6403254 C63.4319157,75.4326001 63.003892,76.1403752 62.3147029,76.4874381 C62.0372212,76.6272636 61.7396262,76.6960302 61.4436731,76.6960302" id="Fill-12" fill="#00A0DE" mask="url(#mask-4)"></path>
            </g>
        </g>
    </g>
</svg>