<?xml version="1.0" encoding="UTF-8"?>
<svg width="80px" height="80px" viewBox="0 0 80 80" version="1.1" xmlns="http://www.w3.org/2000/svg" xmlns:xlink="http://www.w3.org/1999/xlink">
    <!-- Generator: Sketch 52.2 (67145) - http://www.bohemiancoding.com/sketch -->
    <title>研究院培训icon_slice</title>
    <desc>Created with Sketch.</desc>
    <defs>
        <polygon id="path-1" points="0 0.0482431259 29.8079303 0.0482431259 29.8079303 51.1721795 0 51.1721795"></polygon>
        <polygon id="path-3" points="0.0406037736 0.0487525326 9.8019971 0.0487525326 9.8019971 15.5137482 0.0406037736 15.5137482"></polygon>
        <polygon id="path-5" points="0 79.8932562 79.943106 79.8932562 79.943106 0 0 0"></polygon>
    </defs>
    <g id="Page-1" stroke="none" stroke-width="1" fill="none" fill-rule="evenodd">
        <g id="画板" transform="translate(-140.000000, -35.000000)">
            <g id="研究院培训icon" transform="translate(140.000000, 35.000000)">
                <g id="Group-3" transform="translate(0.000000, 28.721042)">
                    <mask id="mask-2" fill="white">
                        <use xlink:href="#path-1"></use>
                    </mask>
                    <g id="Clip-2"></g>
                    <path d="M4.42099274,1.42572504 C2.74494049,1.42572504 1.38145718,2.78537771 1.38145718,4.4564631 L1.38145718,46.7639595 C1.38145718,48.4351606 2.74494049,49.7946975 4.42099274,49.7946975 L25.3867983,49.7946975 C27.0628505,49.7946975 28.4264499,48.4351606 28.4264499,46.7639595 L28.4264499,4.4564631 C28.4264499,2.78537771 27.0628505,1.42572504 25.3867983,1.42572504 L4.42099274,1.42572504 Z M25.3867983,51.1721795 L4.42099274,51.1721795 C1.98325689,51.1721795 -2.3222061e-05,49.1946397 -2.3222061e-05,46.7639595 L-2.3222061e-05,4.4564631 C-2.3222061e-05,2.02578292 1.98325689,0.0482431259 4.42099274,0.0482431259 L25.3867983,0.0482431259 C27.8245341,0.0482431259 29.8079303,2.02578292 29.8079303,4.4564631 L29.8079303,46.7639595 C29.8079303,49.1946397 27.8245341,51.1721795 25.3867983,51.1721795 Z" id="Fill-1" fill="#727272" mask="url(#mask-2)"></path>
                </g>
                <g id="Group-6" transform="translate(10.449927, 64.379508)">
                    <mask id="mask-4" fill="white">
                        <use xlink:href="#path-3"></use>
                    </mask>
                    <g id="Clip-5"></g>
                    <path d="M1.42208418,14.1362779 L8.42040058,14.1362779 L8.42040058,2.29928799 C8.42040058,1.8178987 8.02771553,1.42623444 7.54481277,1.42623444 L2.29767199,1.42623444 C1.81488534,1.42623444 1.42208418,1.8178987 1.42208418,2.29928799 L1.42208418,14.1362779 Z M9.8019971,15.5137598 L0.0406037736,15.5137598 L0.0406037736,2.29928799 C0.0406037736,1.05830391 1.05308563,0.0487525326 2.29767199,0.0487525326 L7.54481277,0.0487525326 C8.78939913,0.0487525326 9.8019971,1.05830391 9.8019971,2.29928799 L9.8019971,15.5137598 Z" id="Fill-4" fill="#727272" mask="url(#mask-4)"></path>
                </g>
                <path d="M43.3492366,79.8932562 L33.527582,79.8932562 L33.527582,78.5157742 L43.3492366,78.5157742 C44.686479,78.5157742 45.7743164,77.4310854 45.7743164,76.0977135 L45.7743164,44.5105644 C45.7743164,43.1771925 44.686479,42.0925036 43.3492366,42.0925036 L29.1171321,42.0925036 L29.1171321,40.7150217 L43.3492366,40.7150217 C45.4481626,40.7150217 47.1557968,42.4177135 47.1557968,44.5105644 L47.1557968,76.0977135 C47.1557968,78.1905644 45.4481626,79.8932562 43.3492366,79.8932562" id="Fill-7" fill="#727272"></path>
                <mask id="mask-6" fill="white">
                    <use xlink:href="#path-5"></use>
                </mask>
                <g id="Clip-10"></g>
                <polygon id="Fill-9" fill="#727272" mask="url(#mask-6)" points="11.1811901 37.5972214 19.561103 37.5972214 19.561103 36.2197395 11.1811901 36.2197395"></polygon>
                <polygon id="Fill-11" fill="#727272" mask="url(#mask-6)" points="11.1811901 43.478437 19.561103 43.478437 19.561103 42.1009551 11.1811901 42.1009551"></polygon>
                <polygon id="Fill-12" fill="#727272" mask="url(#mask-6)" points="33.6011611 49.0427786 41.981074 49.0427786 41.981074 47.6652967 33.6011611 47.6652967"></polygon>
                <polygon id="Fill-13" fill="#727272" mask="url(#mask-6)" points="33.6011611 54.9239942 41.981074 54.9239942 41.981074 53.5465123 33.6011611 53.5465123"></polygon>
                <polygon id="Fill-14" fill="#727272" mask="url(#mask-6)" points="33.6011611 60.8052098 41.981074 60.8052098 41.981074 59.4277279 33.6011611 59.4277279"></polygon>
                <path d="M59.2655327,19.5273748 C56.668029,19.5273748 54.5548215,21.634466 54.5548215,24.2243357 C54.5548215,26.8143213 56.668029,28.9214124 59.2655327,28.9214124 C61.8629202,28.9214124 63.9761277,26.8143213 63.9761277,24.2243357 C63.9761277,21.634466 61.8629202,19.5273748 59.2655327,19.5273748 M59.2655327,30.2988944 C55.9062293,30.2988944 53.1733411,27.5739161 53.1733411,24.2243357 C53.1733411,20.8748712 55.9062293,18.1498929 59.2655327,18.1498929 C62.6247199,18.1498929 65.3576081,20.8748712 65.3576081,24.2243357 C65.3576081,27.5739161 62.6247199,30.2988944 59.2655327,30.2988944" id="Fill-15" fill="#727272" mask="url(#mask-6)"></path>
                <path d="M62.7525922,29.4481621 C61.8116343,30.2422576 60.5947983,30.7212156 59.2655675,30.7212156 C57.9363367,30.7212156 56.7193846,30.2422576 55.7784267,29.4481621 C53.5652482,30.1078437 51.9518955,32.1532272 51.9518955,34.5745297 L51.9518955,39.8480463 C51.9518955,42.8029522 54.3542177,45.1983213 57.3175849,45.1983213 L61.2133179,45.1983213 C64.1768012,45.1983213 66.5791234,42.8029522 66.5791234,39.8480463 L66.5791234,34.5745297 C66.5791234,32.1532272 64.9657707,30.1078437 62.7525922,29.4481621" id="Fill-16" fill="#727272" mask="url(#mask-6)"></path>
                <polygon id="Fill-17" fill="#727272" mask="url(#mask-6)" points="50.6764354 41.8961274 40.5793672 29.0257366 41.6674369 28.1769957 51.7645051 41.0473864"></polygon>
                <path d="M72.2890566,43.4184544 L68.2369231,43.4184544 L68.2369231,42.0409725 L72.2890566,42.0409725 C75.7477504,42.0409725 78.5615675,39.2352996 78.5615675,35.7866165 L78.5615675,7.63182634 C78.5615675,4.18314327 75.7477504,1.37747033 72.2890566,1.37747033 L33.9912337,1.37747033 C30.5325399,1.37747033 27.7188389,4.18314327 27.7188389,7.63182634 L27.7188389,27.245835 L26.3372424,27.245835 L26.3372424,7.63182634 C26.3372424,3.42366425 29.7708563,-1.1577424e-05 33.9912337,-1.1577424e-05 L72.2890566,-1.1577424e-05 C76.5095501,-1.1577424e-05 79.9430479,3.42366425 79.9430479,7.63182634 L79.9430479,35.7866165 C79.9430479,39.9947786 76.5095501,43.4184544 72.2890566,43.4184544" id="Fill-18" fill="#727272" mask="url(#mask-6)"></path>
                <polygon id="Fill-19" fill="#727272" mask="url(#mask-6)" points="32.2913208 18.3932851 33.6726851 18.3932851 33.6726851 10.7896961 32.2913208 10.7896961"></polygon>
                <polygon id="Fill-20" fill="#727272" mask="url(#mask-6)" points="37.1003774 18.3932851 38.4817417 18.3932851 38.4817417 10.7896961 37.1003774 10.7896961"></polygon>
                <polygon id="Fill-21" fill="#727272" mask="url(#mask-6)" points="41.7404935 18.3932851 43.1218578 18.3932851 43.1218578 10.7896961 41.7404935 10.7896961"></polygon>
                <path d="M56.5864964,51.0145181 L55.2051321,51.0145181 C55.2051321,50.0929551 54.93982,49.2341418 54.4580784,48.59611 C54.0203425,48.0164284 53.4568592,47.6972388 52.8711988,47.6972388 C52.2854224,47.6972388 51.721939,48.0164284 51.2842032,48.59611 C50.8025776,49.2341418 50.5371495,50.0929551 50.5371495,51.0145181 L49.1557852,51.0145181 C49.1557852,49.7959942 49.5196749,48.6428828 50.1805747,47.7676295 C50.8854804,46.834026 51.8410682,46.3197569 52.8711988,46.3197569 C53.9013295,46.3197569 54.8569173,46.834026 55.5617068,47.7676295 C56.2226067,48.6428828 56.5864964,49.7959942 56.5864964,51.0145181" id="Fill-22" fill="#727272" mask="url(#mask-6)"></path>
                <path d="M65.033521,51.0145181 L63.6521567,51.0145181 C63.6521567,50.0929551 63.3867286,49.2341418 62.905103,48.59611 C62.4673672,48.0164284 61.9038839,47.6972388 61.3181074,47.6972388 C60.732447,47.6972388 60.1689637,48.0164284 59.7312279,48.59611 C59.2496023,49.2341418 58.9841742,50.0929551 58.9841742,51.0145181 L57.6028099,51.0145181 C57.6028099,49.7959942 57.9666996,48.6428828 58.6275994,47.7676295 C59.3325051,46.834026 60.2880929,46.3197569 61.3181074,46.3197569 C62.348238,46.3197569 63.3039419,46.834026 64.0087315,47.7676295 C64.6695152,48.6428828 65.033521,49.7959942 65.033521,51.0145181" id="Fill-23" fill="#727272" mask="url(#mask-6)"></path>
                <path d="M73.4541306,51.0145181 L72.0726502,51.0145181 C72.0726502,50.0929551 71.8073382,49.2341418 71.3255965,48.59611 C70.8879768,48.0164284 70.3244935,47.6972388 69.738717,47.6972388 C69.1530566,47.6972388 68.5895733,48.0164284 68.1518374,48.59611 C67.6702119,49.2341418 67.4047837,50.0929551 67.4047837,51.0145181 L66.0234194,51.0145181 C66.0234194,49.7959942 66.3873091,48.6428828 67.048209,47.7676295 C67.7531147,46.834026 68.7087025,46.3197569 69.738717,46.3197569 C70.7688476,46.3197569 71.7244354,46.834026 72.4293411,47.7676295 C73.0901248,48.6428828 73.4541306,49.7959942 73.4541306,51.0145181" id="Fill-24" fill="#727272" mask="url(#mask-6)"></path>
            </g>
        </g>
    </g>
</svg>