<?xml version="1.0" encoding="UTF-8"?>
<svg width="80px" height="81px" viewBox="0 0 80 81" version="1.1" xmlns="http://www.w3.org/2000/svg" xmlns:xlink="http://www.w3.org/1999/xlink">
    <!-- Generator: Sketch 52.2 (67145) - http://www.bohemiancoding.com/sketch -->
    <title>资源服务icon_按钮_slice</title>
    <desc>Created with Sketch.</desc>
    <defs>
        <polygon id="path-1" points="0.0444244373 0.0447845659 6.52789711 0.0447845659 6.52789711 6.68810289 0.0444244373 6.68810289"></polygon>
        <polygon id="path-3" points="0 79.9753055 79.4963344 79.9753055 79.4963344 0 0 0"></polygon>
    </defs>
    <g id="Page-1" stroke="none" stroke-width="1" fill="none" fill-rule="evenodd">
        <g id="画板" transform="translate(-139.000000, -35.000000)">
            <g id="资源服务ICON-按钮" transform="translate(139.000000, 35.000000)">
                <path d="M45.060746,47.321865 L43.6869839,47.321865 C43.6869839,42.1586495 41.7383023,37.3056592 38.19991,33.6566559 C34.6671768,30.0134405 29.9718714,28.0070096 24.9784309,28.0070096 C19.9852476,28.0070096 15.2898135,30.0134405 11.7570804,33.6566559 C8.21881672,37.3056592 6.27013505,42.1586495 6.27013505,47.321865 L4.89650161,47.321865 C4.89650161,44.5317685 5.42653376,41.8246302 6.47206431,39.2756913 C7.48209646,36.8125402 8.92852733,34.6003215 10.7708424,32.7003859 C12.614701,30.7989068 14.7624823,29.3057878 17.1543794,28.2623151 C19.6327074,27.1814148 22.265119,26.6332476 24.9784309,26.6332476 C27.692,26.6332476 30.3244116,27.1814148 32.8026109,28.2623151 C35.1946367,29.3057878 37.342418,30.7989068 39.1861479,32.7003859 C41.0285916,34.6003215 42.4750225,36.8125402 43.4851833,39.2756913 C44.5307138,41.8246302 45.060746,44.5317685 45.060746,47.321865" id="Fill-1" fill="#009FDE"></path>
                <path d="M39.4999357,47.321865 L38.1261736,47.321865 C38.1261736,43.6904823 36.7560129,40.277492 34.26791,37.7115756 C31.7855949,35.1515756 28.4864309,33.7415434 24.9785209,33.7415434 C21.4706109,33.7415434 18.1715756,35.1515756 15.6891318,37.7115756 C13.2010289,40.277492 11.8308682,43.6904823 11.8308682,47.321865 L10.4571061,47.321865 C10.4571061,43.3315113 11.9648875,39.5788424 14.7028939,36.7553055 C17.4464309,33.9259807 21.0956913,32.36791 24.9785209,32.36791 C28.8613505,32.36791 32.5106109,33.9259807 35.2541479,36.7553055 C37.9921543,39.5788424 39.4999357,43.3315113 39.4999357,47.321865" id="Fill-3" fill="#009FDE"></path>
                <path d="M3.37943408,47.9316527 C2.27345338,47.9316527 1.3736463,48.8313312 1.3736463,49.9373119 L1.3736463,64.3629068 C1.3736463,65.4688875 2.27345338,66.3685659 3.37943408,66.3685659 L11.5947395,66.3685659 C12.7007203,66.3685659 13.6003987,65.4688875 13.6003987,64.3629068 L13.6003987,49.9373119 C13.6003987,48.8313312 12.7007203,47.9316527 11.5947395,47.9316527 L3.37943408,47.9316527 Z M11.5947395,67.742328 L3.37943408,67.742328 C1.51602572,67.742328 1.28617363e-05,66.2263151 1.28617363e-05,64.3629068 L1.28617363e-05,49.9373119 C1.28617363e-05,48.0739035 1.51602572,46.5578907 3.37943408,46.5578907 L11.5947395,46.5578907 C13.4581479,46.5578907 14.9740322,48.0739035 14.9740322,49.9373119 L14.9740322,64.3629068 C14.9740322,66.2263151 13.4581479,67.742328 11.5947395,67.742328 Z" id="Fill-5" fill="#009FDE"></path>
                <path d="M37.1217621,47.9316527 C36.0157814,47.9316527 35.1161029,48.8313312 35.1161029,49.9373119 L35.1161029,64.3629068 C35.1161029,65.4688875 36.0157814,66.3685659 37.1217621,66.3685659 L45.3370675,66.3685659 C46.4430482,66.3685659 47.3428553,65.4688875 47.3428553,64.3629068 L47.3428553,49.9373119 C47.3428553,48.8313312 46.4430482,47.9316527 45.3370675,47.9316527 L37.1217621,47.9316527 Z M45.3370675,67.742328 L37.1217621,67.742328 C35.2584823,67.742328 33.7424695,66.2263151 33.7424695,64.3629068 L33.7424695,49.9373119 C33.7424695,48.0739035 35.2584823,46.5578907 37.1217621,46.5578907 L45.3370675,46.5578907 C47.2004759,46.5578907 48.7164887,48.0739035 48.7164887,49.9373119 L48.7164887,64.3629068 C48.7164887,66.2263151 47.2004759,67.742328 45.3370675,67.742328 Z" id="Fill-7" fill="#009FDE"></path>
                <path d="M33.561672,77.3386881 L33.460836,75.9686559 C36.606045,75.7370161 38.7502251,74.192836 39.833955,71.379074 C40.6650804,69.2206174 40.545209,67.1191383 40.5439228,67.0981736 L41.9149839,67.0126431 C41.9211576,67.1105209 42.0536334,69.4374662 41.1157556,71.8727074 C40.2281672,74.1777878 38.1969132,76.997209 33.561672,77.3386881" id="Fill-9" fill="#009FDE"></path>
                <path d="M30.9564244,76.6536463 C30.9564244,75.1984695 32.1003473,74.0189196 33.5112797,74.0189196 C34.9223408,74.0189196 36.0662637,75.1984695 36.0662637,76.6536463 C36.0662637,78.1088232 34.9223408,79.288373 33.5112797,79.288373 C32.1003473,79.288373 30.9564244,78.1088232 30.9564244,76.6536463" id="Fill-11" fill="#009FDE"></path>
                <g id="Group-15" transform="translate(30.225080, 73.287203)">
                    <mask id="mask-2" fill="white">
                        <use xlink:href="#path-1"></use>
                    </mask>
                    <g id="Clip-14"></g>
                    <path d="M3.28622508,1.41854662 C2.25612862,1.41854662 1.4181865,2.29237299 1.4181865,3.36645659 C1.4181865,4.44054019 2.25612862,5.31436656 3.28622508,5.31436656 C4.31632154,5.31436656 5.15413505,4.44054019 5.15413505,3.36645659 C5.15413505,2.29237299 4.31632154,1.41854662 3.28622508,1.41854662 M3.28622508,6.68812862 C1.49870096,6.68812862 0.0444244373,5.19796785 0.0444244373,3.36645659 C0.0444244373,1.53494534 1.49870096,0.0447845659 3.28622508,0.0447845659 C5.07362058,0.0447845659 6.52789711,1.53494534 6.52789711,3.36645659 C6.52789711,5.19796785 5.07362058,6.68812862 3.28622508,6.68812862" id="Fill-13" fill="#009FDE" mask="url(#mask-2)"></path>
                </g>
                <path d="M56.5975048,41.2677685 L45.1106881,41.2677685 L45.1106881,39.8940064 L56.5226495,39.8940064 L56.5226495,22.9080257 L39.5366688,22.9080257 L39.5366688,30.3614019 L38.1629068,30.3614019 L38.1629068,22.8331704 C38.1629068,22.1169003 38.7455434,21.5342637 39.4618135,21.5342637 L56.5975048,21.5342637 C57.3137749,21.5342637 57.8965402,22.1169003 57.8965402,22.8331704 L57.8965402,39.9688617 C57.8965402,40.6851318 57.3137749,41.2677685 56.5975048,41.2677685" id="Fill-16" fill="#009FDE"></path>
                <path d="M76.6415949,40.5809003 L61.3686688,40.5809003 C60.5197942,40.5809003 59.8252605,39.8863666 59.8252605,39.037492 L59.8252605,23.7645659 C59.8252605,22.9156913 60.5197942,22.2211576 61.3686688,22.2211576 L76.6415949,22.2211576 C77.4905981,22.2211576 78.1850032,22.9156913 78.1850032,23.7645659 L78.1850032,39.037492 C78.1850032,39.8863666 77.4905981,40.5809003 76.6415949,40.5809003" id="Fill-18" fill="#009FDE"></path>
                <mask id="mask-4" fill="white">
                    <use xlink:href="#path-3"></use>
                </mask>
                <g id="Clip-21"></g>
                <path d="M60.5121543,39.8940193 L77.4980064,39.8940193 L77.4980064,22.9080386 L60.5121543,22.9080386 L60.5121543,39.8940193 Z M77.5255305,41.2677814 L60.4846302,41.2677814 C59.7423794,41.2677814 59.1382637,40.6637942 59.1382637,39.9215434 L59.1382637,22.8805145 C59.1382637,22.138135 59.7423794,21.5342765 60.4846302,21.5342765 L77.5255305,21.5342765 C78.2680386,21.5342765 78.8718971,22.138135 78.8718971,22.8805145 L78.8718971,39.9215434 C78.8718971,40.6637942 78.2680386,41.2677814 77.5255305,41.2677814 Z" id="Fill-20" fill="#009FDE" mask="url(#mask-4)"></path>
                <path d="M55.6661608,19.6711511 L40.3932347,19.6711511 C39.5442315,19.6711511 38.8498264,18.9766174 38.8498264,18.1277428 L38.8498264,2.85481672 C38.8498264,2.00594212 39.5442315,1.31140836 40.3932347,1.31140836 L55.6661608,1.31140836 C56.5150354,1.31140836 57.2095691,2.00594212 57.2095691,2.85481672 L57.2095691,18.1277428 C57.2095691,18.9766174 56.5150354,19.6711511 55.6661608,19.6711511" id="Fill-22" fill="#009FDE" mask="url(#mask-4)"></path>
                <path d="M39.5365916,18.9843087 L56.5225723,18.9843087 L56.5225723,1.99832797 L39.5365916,1.99832797 L39.5365916,18.9843087 Z M56.5500965,20.3580707 L39.5090675,20.3580707 C38.7668167,20.3580707 38.1628296,19.7540836 38.1628296,19.0117042 L38.1628296,1.97080386 C38.1628296,1.22842444 38.7668167,0.624565916 39.5090675,0.624565916 L56.5500965,0.624565916 C57.2926045,0.624565916 57.896463,1.22842444 57.896463,1.97080386 L57.896463,19.0117042 C57.896463,19.7540836 57.2926045,20.3580707 56.5500965,20.3580707 Z" id="Fill-23" fill="#009FDE" mask="url(#mask-4)"></path>
                <path d="M69.0051833,1.37373633 C63.9776592,1.37373633 59.8874984,5.46389711 59.8874984,10.4912926 C59.8874984,15.5186881 63.9776592,19.6088489 69.0051833,19.6088489 C74.0325788,19.6088489 78.1227395,15.5186881 78.1227395,10.4912926 C78.1227395,5.46389711 74.0325788,1.37373633 69.0051833,1.37373633 M69.0051833,20.9824823 C63.2202315,20.9824823 58.513865,16.2761158 58.513865,10.4912926 C58.513865,4.70634084 63.2202315,-2.57234727e-05 69.0051833,-2.57234727e-05 C74.790135,-2.57234727e-05 79.496373,4.70634084 79.496373,10.4912926 C79.496373,16.2761158 74.790135,20.9824823 69.0051833,20.9824823" id="Fill-24" fill="#009FDE" mask="url(#mask-4)"></path>
                <polygon id="Fill-25" fill="#009FDE" mask="url(#mask-4)" points="0.68681672 60.637299 11.1439228 60.637299 11.1439228 59.263537 0.68681672 59.263537"></polygon>
                <polygon id="Fill-26" fill="#009FDE" mask="url(#mask-4)" points="0.68681672 52.7864952 11.1439228 52.7864952 11.1439228 51.4127331 0.68681672 51.4127331"></polygon>
                <polygon id="Fill-27" fill="#009FDE" mask="url(#mask-4)" points="37.5724759 60.637299 48.029582 60.637299 48.029582 59.263537 37.5724759 59.263537"></polygon>
                <polygon id="Fill-28" fill="#009FDE" mask="url(#mask-4)" points="37.5724759 52.4940193 48.029582 52.4940193 48.029582 51.1202572 37.5724759 51.1202572"></polygon>
                <polygon id="Fill-29" fill="#009FDE" mask="url(#mask-4)" points="0.686945338 56.7118971 7.48720257 56.7118971 7.48720257 55.338135 0.686945338 55.338135"></polygon>
                <polygon id="Fill-30" fill="#009FDE" mask="url(#mask-4)" points="41.2374277 56.7118971 48.0376849 56.7118971 48.0376849 55.338135 41.2374277 55.338135"></polygon>
            </g>
        </g>
    </g>
</svg>