<?xml version="1.0" encoding="UTF-8"?>
<svg width="80px" height="80px" viewBox="0 0 80 80" version="1.1" xmlns="http://www.w3.org/2000/svg" xmlns:xlink="http://www.w3.org/1999/xlink">
    <!-- Generator: Sketch 52.2 (67145) - http://www.bohemiancoding.com/sketch -->
    <title>资本资源_按下_slice</title>
    <desc>Created with Sketch.</desc>
    <defs>
        <polygon id="path-1" points="0 0.0563134978 31.4951696 0.0563134978 31.4951696 12.048418 0 12.048418"></polygon>
        <polygon id="path-3" points="0 0.104685051 31.4951696 0.104685051 31.4951696 9.34218868 0 9.34218868"></polygon>
        <polygon id="path-5" points="0 0.0378055152 31.4951696 0.0378055152 31.4951696 9.27530914 0 9.27530914"></polygon>
        <polygon id="path-7" points="0 0.032011611 31.4951696 0.032011611 31.4951696 9.26951524 0 9.26951524"></polygon>
        <polygon id="path-9" points="0 0.0513207547 31.4951696 0.0513207547 31.4951696 9.28882438 0 9.28882438"></polygon>
        <polygon id="path-11" points="0.106748538 0.000696661829 35.7122456 0.000696661829 35.7122456 33.1579448 0.106748538 33.1579448"></polygon>
        <polygon id="path-13" points="0 79.9993033 79.9392982 79.9993033 79.9392982 0.116110305 0 0.116110305"></polygon>
    </defs>
    <g id="Page-1" stroke="none" stroke-width="1" fill="none" fill-rule="evenodd">
        <g id="画板" transform="translate(-139.000000, -35.000000)">
            <g id="资本资源-按下" transform="translate(139.000000, 35.000000)">
                <g id="Group-3" transform="translate(0.000000, 46.791756)">
                    <mask id="mask-2" fill="white">
                        <use xlink:href="#path-1"></use>
                    </mask>
                    <g id="Clip-2"></g>
                    <path d="M15.7475673,1.4377939 C11.8044094,1.4377939 8.10721637,1.97550073 5.33715789,2.95187228 C2.86651462,3.82269956 1.39154386,4.98171263 1.39154386,6.05236575 C1.39154386,7.12301887 2.86651462,8.28214804 5.33715789,9.15297533 C8.10721637,10.1292308 11.8044094,10.6670537 15.7475673,10.6670537 C19.6907251,10.6670537 23.3879181,10.1292308 26.1580936,9.15297533 C28.6286199,8.28214804 30.1035906,7.12301887 30.1035906,6.05236575 C30.1035906,4.98171263 28.6286199,3.82269956 26.1580936,2.95187228 C23.3879181,1.97550073 19.6907251,1.4377939 15.7475673,1.4377939 M15.7475673,12.048418 C11.6499064,12.048418 7.78721637,11.4824964 4.87154386,10.4548041 C3.41072515,9.93985486 2.25318129,9.33143687 1.43130994,8.64650218 C0.481602339,7.85509434 -3.50877193e-05,6.98229318 -3.50877193e-05,6.05236575 C-3.50877193e-05,5.12255443 0.481602339,4.24975327 1.43130994,3.45822932 C2.25318129,2.77329463 3.41072515,2.16499274 4.87154386,1.65004354 C7.78721637,0.622351234 11.6499064,0.0563134978 15.7475673,0.0563134978 C19.845345,0.0563134978 23.7079181,0.622351234 26.6235906,1.65004354 C28.0844094,2.16499274 29.2419532,2.77329463 30.0638246,3.45822932 C31.0135322,4.24975327 31.4951696,5.12255443 31.4951696,6.05236575 C31.4951696,6.98229318 31.0135322,7.85509434 30.0638246,8.64650218 C29.2419532,9.33143687 28.0844094,9.93985486 26.6235906,10.4548041 C23.7079181,11.4824964 19.845345,12.048418 15.7475673,12.048418" id="Fill-1" fill="#009FDE" mask="url(#mask-2)"></path>
                </g>
                <g id="Group-6" transform="translate(0.000000, 54.803367)">
                    <mask id="mask-4" fill="white">
                        <use xlink:href="#path-3"></use>
                    </mask>
                    <g id="Clip-5"></g>
                    <path d="M15.7475673,9.34218868 C11.6499064,9.34218868 7.78721637,8.77615094 4.87154386,7.74845864 C3.41072515,7.23362554 2.25318129,6.62520755 1.43130994,5.94027286 C0.481602339,5.14874891 -3.50877193e-05,4.27606386 -3.50877193e-05,3.34613643 C-3.50877193e-05,1.8483135 1.27563743,0.756644412 2.34557895,0.104685051 L3.07364912,1.28204354 C1.68335673,2.12906821 1.39154386,2.87205806 1.39154386,3.34613643 C1.39154386,4.41678955 2.86651462,5.57580261 5.33715789,6.4466299 C8.10721637,7.42300145 11.8044094,7.96070827 15.7475673,7.96070827 C19.6907251,7.96070827 23.3879181,7.42300145 26.1580936,6.4466299 C28.6286199,5.57580261 30.1035906,4.41678955 30.1035906,3.34613643 C30.1035906,2.87205806 29.8117778,2.12906821 28.4216023,1.28215965 L29.1496725,0.104685051 C30.219614,0.756644412 31.4951696,1.8483135 31.4951696,3.34613643 C31.4951696,4.27606386 31.0135322,5.14874891 30.0638246,5.94027286 C29.2419532,6.62520755 28.0844094,7.23362554 26.6235906,7.74845864 C23.7079181,8.77615094 19.845345,9.34218868 15.7475673,9.34218868" id="Fill-4" fill="#009FDE" mask="url(#mask-4)"></path>
                </g>
                <g id="Group-9" transform="translate(0.000000, 60.144441)">
                    <mask id="mask-6" fill="white">
                        <use xlink:href="#path-5"></use>
                    </mask>
                    <g id="Clip-8"></g>
                    <path d="M15.7475673,9.27530914 C11.6499064,9.27530914 7.78721637,8.70927141 4.87154386,7.6815791 C3.41072515,7.16674601 2.25318129,6.55832801 1.43130994,5.87339332 C0.481602339,5.08186938 -3.50877193e-05,4.20918433 -3.50877193e-05,3.27925689 C-3.50877193e-05,1.78143396 1.27563743,0.689764877 2.34569591,0.0378055152 L3.07353216,1.21516401 C1.68335673,2.06218868 1.39154386,2.80517852 1.39154386,3.27925689 C1.39154386,4.34991001 2.86651462,5.50892308 5.33715789,6.37975036 C8.10721637,7.35612192 11.8044094,7.89382874 15.7475673,7.89382874 C19.6907251,7.89382874 23.3879181,7.35612192 26.1580936,6.37975036 C28.6286199,5.50892308 30.1035906,4.34991001 30.1035906,3.27925689 C30.1035906,2.80517852 29.8117778,2.06218868 28.4216023,1.21528012 L29.1496725,0.0379216255 C30.219614,0.689880987 31.4951696,1.78143396 31.4951696,3.27925689 C31.4951696,4.20918433 31.0135322,5.08186938 30.0638246,5.87339332 C29.2419532,6.55832801 28.0844094,7.16674601 26.6235906,7.6815791 C23.7079181,8.70927141 19.845345,9.27530914 15.7475673,9.27530914" id="Fill-7" fill="#009FDE" mask="url(#mask-6)"></path>
                </g>
                <g id="Group-12" transform="translate(0.000000, 65.485515)">
                    <mask id="mask-8" fill="white">
                        <use xlink:href="#path-7"></use>
                    </mask>
                    <g id="Clip-11"></g>
                    <path d="M15.7475673,9.26951524 C11.6499064,9.26951524 7.78721637,8.7034775 4.87154386,7.6757852 C3.41072515,7.1609521 2.25318129,6.55253411 1.43130994,5.86759942 C0.481602339,5.07619158 -3.50877193e-05,4.20339042 -3.50877193e-05,3.27346299 C-3.50877193e-05,1.77564006 1.27563743,0.683970972 2.34557895,0.032011611 L3.07364912,1.2093701 C1.68335673,2.05639478 1.39154386,2.79938462 1.39154386,3.27346299 C1.39154386,4.34411611 2.86651462,5.50312917 5.33715789,6.37395646 C8.10721637,7.35032801 11.8044094,7.88803483 15.7475673,7.88803483 C19.6907251,7.88803483 23.3879181,7.35032801 26.1580936,6.37395646 C28.6286199,5.50312917 30.1035906,4.34411611 30.1035906,3.27346299 C30.1035906,2.79938462 29.8117778,2.05639478 28.4216023,1.20948621 L29.1496725,0.0321277213 C30.219614,0.683970972 31.4951696,1.77564006 31.4951696,3.27346299 C31.4951696,4.20339042 31.0135322,5.07619158 30.0638246,5.86759942 C29.2419532,6.55253411 28.0844094,7.1609521 26.6235906,7.6757852 C23.7079181,8.7034775 19.845345,9.26951524 15.7475673,9.26951524" id="Fill-10" fill="#009FDE" mask="url(#mask-8)"></path>
                </g>
                <g id="Group-15" transform="translate(0.000000, 70.710479)">
                    <mask id="mask-10" fill="white">
                        <use xlink:href="#path-9"></use>
                    </mask>
                    <g id="Clip-14"></g>
                    <path d="M15.7475673,9.28882438 C11.6499064,9.28882438 7.78721637,8.72278665 4.87154386,7.69509434 C3.41072515,7.18026125 2.25318129,6.57184325 1.43130994,5.88690856 C0.481602339,5.09550073 -3.50877193e-05,4.22269956 -3.50877193e-05,3.29277213 C-3.50877193e-05,1.7949492 1.27563743,0.703280116 2.34557895,0.0513207547 L3.07364912,1.22867925 C1.68335673,2.07570392 1.39154386,2.81869376 1.39154386,3.29277213 C1.39154386,4.36342525 2.86651462,5.52243832 5.33715789,6.3932656 C8.10721637,7.36963716 11.8044094,7.90734398 15.7475673,7.90734398 C19.6907251,7.90734398 23.3879181,7.36963716 26.1580936,6.3932656 C28.6286199,5.52243832 30.1035906,4.36342525 30.1035906,3.29277213 C30.1035906,2.81869376 29.8117778,2.07570392 28.4216023,1.22879536 L29.1496725,0.051436865 C30.219614,0.703280116 31.4951696,1.7949492 31.4951696,3.29277213 C31.4951696,4.22269956 31.0135322,5.09550073 30.0638246,5.88690856 C29.2419532,6.57184325 28.0844094,7.18026125 26.6235906,7.69509434 C23.7079181,8.72278665 19.845345,9.28882438 15.7475673,9.28882438" id="Fill-13" fill="#009FDE" mask="url(#mask-10)"></path>
                </g>
                <path d="M34.0114503,37.1645864 C30.0682924,37.1645864 26.3712164,37.7022932 23.6010409,38.6786647 C21.1303977,39.549492 19.6555439,40.7085051 19.6555439,41.7791582 C19.6555439,42.8498113 21.1303977,44.0089405 23.6010409,44.8797678 C26.3712164,45.8561393 30.0682924,46.3938462 34.0114503,46.3938462 C37.9547251,46.3938462 41.6518012,45.8561393 44.4219766,44.8797678 C46.8926199,44.0089405 48.3674737,42.8498113 48.3674737,41.7791582 C48.3674737,40.7085051 46.8926199,39.549492 44.4219766,38.6786647 C41.6518012,37.7022932 37.9547251,37.1645864 34.0114503,37.1645864 M34.0114503,47.7752104 C29.9137895,47.7752104 26.0510994,47.2092888 23.1354269,46.1815965 C21.6746082,45.6666473 20.5171813,45.0582293 19.695193,44.3732946 C18.7454854,43.5818868 18.263848,42.7090856 18.263848,41.7791582 C18.263848,40.8493469 18.7454854,39.9765457 19.695193,39.1850218 C20.5171813,38.5000871 21.6746082,37.8917852 23.1354269,37.376836 C26.0510994,36.3491437 29.9137895,35.783106 34.0114503,35.783106 C38.1092281,35.783106 41.9719181,36.3491437 44.8874737,37.376836 C46.3484094,37.8917852 47.5058363,38.5000871 48.3278246,39.1850218 C49.2775322,39.9765457 49.7591696,40.8493469 49.7591696,41.7791582 C49.7591696,42.7090856 49.2775322,43.5818868 48.3278246,44.3732946 C47.5058363,45.0582293 46.3484094,45.6666473 44.8874737,46.1815965 C41.9719181,47.2092888 38.1092281,47.7752104 34.0114503,47.7752104" id="Fill-16" fill="#009FDE"></path>
                <path d="M18.3843977,47.8702932 C18.3043977,47.6122961 18.2639298,47.3479129 18.2639298,47.0845747 C18.2639298,45.5867518 19.5394854,44.4950827 20.6095439,43.8430073 L21.3374971,45.0204819 C19.9472047,45.8675065 19.6555088,46.6104964 19.6555088,47.0845747 C19.6555088,47.21009 19.6752749,47.3378113 19.7144561,47.4640232 L18.3843977,47.8702932 Z" id="Fill-18" fill="#009FDE"></path>
                <path d="M34.0114503,53.0805922 C32.8790526,53.0805922 31.749462,53.0368186 30.6541404,52.9503164 L30.7643158,51.5732482 C31.8232632,51.6567315 32.9157778,51.6991118 34.0114503,51.6991118 C37.9547251,51.6991118 41.6518012,51.1614049 44.4219766,50.1850334 C46.8926199,49.3142061 48.3674737,48.155193 48.3674737,47.0845399 C48.3674737,46.6104615 48.0757778,45.8675878 46.6856023,45.0205631 L47.4135556,43.8432046 C49.352152,45.0243948 49.7591696,46.2578345 49.7591696,47.0845399 C49.7591696,48.0144673 49.2775322,48.8872685 48.3278246,49.6786763 C47.5058363,50.363611 46.3484094,50.972029 44.8874737,51.4868621 C41.9719181,52.5145544 38.1092281,53.0805922 34.0114503,53.0805922" id="Fill-20" fill="#009FDE"></path>
                <path d="M34.0114503,58.3547866 C32.9108655,58.3547866 31.8120351,58.3133353 30.7458363,58.2317097 L30.8529708,56.8542932 C31.883731,56.9332482 32.9464211,56.9733062 34.0114503,56.9733062 C37.9547251,56.9733062 41.6518012,56.4355994 44.4219766,55.4592279 C46.8926199,54.5884006 48.3674737,53.4293875 48.3674737,52.3587344 C48.3674737,51.884656 48.0757778,51.1417823 46.6856023,50.2947576 L47.4135556,49.1173991 C49.352152,50.2985893 49.7591696,51.532029 49.7591696,52.3587344 C49.7591696,53.2886618 49.2775322,54.161463 48.3278246,54.9528708 C47.5058363,55.6378055 46.3484094,56.2462235 44.8874737,56.7610566 C41.9719181,57.7887489 38.1092281,58.3547866 34.0114503,58.3547866" id="Fill-22" fill="#009FDE"></path>
                <path d="M34.0114503,63.6900668 C32.9140234,63.6900668 31.8183509,63.6488476 30.7549591,63.5676865 L30.8616257,62.19027 C31.8896959,62.2687605 32.9495789,62.3085864 34.0114503,62.3085864 C37.9547251,62.3085864 41.6518012,61.7708795 44.4219766,60.794508 C46.8926199,59.9236807 48.3674737,58.7646676 48.3674737,57.6940145 C48.3674737,57.2199361 48.0757778,56.4770624 46.6856023,55.6300377 L47.4135556,54.4526792 C49.352152,55.6338694 49.7591696,56.8673091 49.7591696,57.6940145 C49.7591696,58.6239419 49.2775322,59.4967431 48.3278246,60.2881509 C47.5058363,60.9730856 46.3484094,61.5815036 44.8874737,62.0963367 C41.9719181,63.124029 38.1092281,63.6900668 34.0114503,63.6900668" id="Fill-24" fill="#009FDE"></path>
                <g id="Group-28" transform="translate(34.970760, 0.115414)">
                    <mask id="mask-12" fill="white">
                        <use xlink:href="#path-11"></use>
                    </mask>
                    <g id="Clip-27"></g>
                    <path d="M1.49821053,33.1579448 L0.106748538,33.1579448 L0.106748538,5.49977358 C0.106748538,2.46755298 2.59166082,0.000673439768 5.64604678,0.000673439768 L35.7122456,0.000673439768 L35.7122456,1.38215385 L5.64604678,1.38215385 C3.35891228,1.38215385 1.49821053,3.22923657 1.49821053,5.49977358 L1.49821053,33.1579448 Z" id="Fill-26" fill="#009FDE" mask="url(#mask-12)"></path>
                </g>
                <path d="M74.3995673,48.2295501 L52.0265848,48.2295501 L52.0265848,46.8480697 L74.3995673,46.8480697 C76.6869357,46.8480697 78.5477544,45.0007547 78.5477544,42.7299855 L78.5477544,8.04876633 C78.5477544,5.7779971 76.6869357,3.93068215 74.3995673,3.93068215 L40.6962924,3.93068215 L40.6962924,2.54920174 L74.3995673,2.54920174 C77.4540702,2.54920174 79.9392164,5.0163135 79.9392164,8.04876633 L79.9392164,42.7299855 C79.9392164,45.7624383 77.4540702,48.2295501 74.3995673,48.2295501" id="Fill-29" fill="#009FDE"></path>
                <mask id="mask-14" fill="white">
                    <use xlink:href="#path-13"></use>
                </mask>
                <g id="Clip-32"></g>
                <polygon id="Fill-31" fill="#009FDE" mask="url(#mask-14)" points="71.8723977 41.0927141 73.2638596 41.0927141 73.2638596 10.7528592 71.8723977 10.7528592"></polygon>
                <polygon id="Fill-33" fill="#009FDE" mask="url(#mask-14)" points="67.7233918 13.7113498 72.5680702 13.7113498 72.5680702 12.3298694 67.7233918 12.3298694"></polygon>
                <polygon id="Fill-34" fill="#009FDE" mask="url(#mask-14)" points="67.2224561 21.7502467 72.0672515 21.7502467 72.0672515 20.3687663 67.2224561 20.3687663"></polygon>
                <polygon id="Fill-35" fill="#009FDE" mask="url(#mask-14)" points="63.6842105 17.7308563 72.5680702 17.7308563 72.5680702 16.3493759 63.6842105 16.3493759"></polygon>
                <polygon id="Fill-36" fill="#009FDE" mask="url(#mask-14)" points="67.2224561 29.7890276 72.0672515 29.7890276 72.0672515 28.4075472 67.2224561 28.4075472"></polygon>
                <polygon id="Fill-37" fill="#009FDE" mask="url(#mask-14)" points="63.6842105 25.7696372 72.5680702 25.7696372 72.5680702 24.3881567 63.6842105 24.3881567"></polygon>
                <polygon id="Fill-38" fill="#009FDE" mask="url(#mask-14)" points="67.2224561 37.8278084 72.0672515 37.8278084 72.0672515 36.446328 67.2224561 36.446328"></polygon>
                <polygon id="Fill-39" fill="#009FDE" mask="url(#mask-14)" points="63.6842105 33.808418 72.5680702 33.808418 72.5680702 32.4269376 63.6842105 32.4269376"></polygon>
                <path d="M54.9545497,27.4424383 L44.9691696,13.1579681 C44.8495205,12.9867054 44.8923275,12.751582 45.0647251,12.6328012 C45.2372398,12.5139042 45.4740819,12.5564006 45.593848,12.7276633 L55.5792281,27.0121335 C55.6988772,27.1832801 55.6560702,27.4185196 55.4835556,27.5373004 C55.3111579,27.6561974 55.0741988,27.613701 54.9545497,27.4424383 M58.9470643,30.2148041 L45.3360702,10.3907112 C45.2178246,10.2184035 44.9813333,10.1739332 44.8077661,10.2913208 L41.756538,12.3561103 C41.5830877,12.4734978 41.5382924,12.7082729 41.656538,12.8804644 L55.2487018,32.6771553 C55.2906901,32.7382293 55.3497544,32.7857184 55.4186433,32.8138171 L59.1396959,34.3283599 C59.4175906,34.4414514 59.7117427,34.2049347 59.6579415,33.9116401 L59.0069474,30.3598258 C58.9973567,30.3078084 58.9771228,30.2584615 58.9470643,30.2148041" id="Fill-40" fill="#009FDE" mask="url(#mask-14)"></path>
            </g>
        </g>
    </g>
</svg>