<?xml version="1.0" encoding="UTF-8"?>
<svg width="80px" height="80px" viewBox="0 0 80 80" version="1.1" xmlns="http://www.w3.org/2000/svg" xmlns:xlink="http://www.w3.org/1999/xlink">
    <!-- Generator: Sketch 52.2 (67145) - http://www.bohemiancoding.com/sketch -->
    <title>资源服务icon_slice</title>
    <desc>Created with Sketch.</desc>
    <defs>
        <polygon id="path-1" points="0.0444244373 0.0443321966 6.52789711 0.0443321966 6.52789711 6.6205463 0.0444244373 6.6205463"></polygon>
        <polygon id="path-3" points="0 79.1674741 79.4963344 79.1674741 79.4963344 0 0 0"></polygon>
    </defs>
    <g id="Page-1" stroke="none" stroke-width="1" fill="none" fill-rule="evenodd">
        <g id="画板" transform="translate(-139.000000, -52.000000)">
            <g id="资源服务ICON" transform="translate(139.000000, 52.000000)">
                <path d="M45.060746,46.8438663 L43.6869839,46.8438663 C43.6869839,41.7328046 41.7383023,36.9288343 38.19991,33.3166897 C34.6671768,29.7102744 29.9718714,27.7241106 24.9784309,27.7241106 C19.9852476,27.7241106 15.2898135,29.7102744 11.7570804,33.3166897 C8.21881672,36.9288343 6.27013505,41.7328046 6.27013505,46.8438663 L4.89650161,46.8438663 C4.89650161,44.0819526 5.42653376,41.4021592 6.47206431,38.8789672 C7.48209646,36.4406964 8.92852733,34.2508233 10.7708424,32.3700789 C12.614701,30.4878067 14.7624823,29.0097697 17.1543794,27.9768372 C19.6327074,26.906855 22.265119,26.3642249 24.9784309,26.3642249 C27.692,26.3642249 30.3244116,26.906855 32.8026109,27.9768372 C35.1946367,29.0097697 37.342418,30.4878067 39.1861479,32.3700789 C41.0285916,34.2508233 42.4750225,36.4406964 43.4851833,38.8789672 C44.5307138,41.4021592 45.060746,44.0819526 45.060746,46.8438663" id="Fill-1" fill="#727272"></path>
                <path d="M39.4999357,46.8438663 L38.1261736,46.8438663 C38.1261736,43.2491643 36.7560129,39.8706486 34.26791,37.3306506 C31.7855949,34.7965091 28.4864309,33.4007197 24.9785209,33.4007197 C21.4706109,33.4007197 18.1715756,34.7965091 15.6891318,37.3306506 C13.2010289,39.8706486 11.8308682,43.2491643 11.8308682,46.8438663 L10.4571061,46.8438663 C10.4571061,42.8938192 11.9648875,39.1790562 14.7028939,36.3840398 C17.4464309,33.583294 21.0956913,32.0409614 24.9785209,32.0409614 C28.8613505,32.0409614 32.5106109,33.583294 35.2541479,36.3840398 C37.9921543,39.1790562 39.4999357,42.8938192 39.4999357,46.8438663" id="Fill-3" fill="#727272"></path>
                <path d="M3.37943408,47.4474946 C2.27345338,47.4474946 1.3736463,48.3380854 1.3736463,49.4328946 L1.3736463,63.7127764 C1.3736463,64.8075856 2.27345338,65.6981764 3.37943408,65.6981764 L11.5947395,65.6981764 C12.7007203,65.6981764 13.6003987,64.8075856 13.6003987,63.7127764 L13.6003987,49.4328946 C13.6003987,48.3380854 12.7007203,47.4474946 11.5947395,47.4474946 L3.37943408,47.4474946 Z M11.5947395,67.058062 L3.37943408,67.058062 C1.51602572,67.058062 1.28617363e-05,65.5573624 1.28617363e-05,63.7127764 L1.28617363e-05,49.4328946 C1.28617363e-05,47.5883086 1.51602572,46.087609 3.37943408,46.087609 L11.5947395,46.087609 C13.4581479,46.087609 14.9740322,47.5883086 14.9740322,49.4328946 L14.9740322,63.7127764 C14.9740322,65.5573624 13.4581479,67.058062 11.5947395,67.058062 Z" id="Fill-5" fill="#727272"></path>
                <path d="M37.1217621,47.4474946 C36.0157814,47.4474946 35.1161029,48.3380854 35.1161029,49.4328946 L35.1161029,63.7127764 C35.1161029,64.8075856 36.0157814,65.6981764 37.1217621,65.6981764 L45.3370675,65.6981764 C46.4430482,65.6981764 47.3428553,64.8075856 47.3428553,63.7127764 L47.3428553,49.4328946 C47.3428553,48.3380854 46.4430482,47.4474946 45.3370675,47.4474946 L37.1217621,47.4474946 Z M45.3370675,67.058062 L37.1217621,67.058062 C35.2584823,67.058062 33.7424695,65.5573624 33.7424695,63.7127764 L33.7424695,49.4328946 C33.7424695,47.5883086 35.2584823,46.087609 37.1217621,46.087609 L45.3370675,46.087609 C47.2004759,46.087609 48.7164887,47.5883086 48.7164887,49.4328946 L48.7164887,63.7127764 C48.7164887,65.5573624 47.2004759,67.058062 45.3370675,67.058062 Z" id="Fill-7" fill="#727272"></path>
                <path d="M33.561672,76.5574892 L33.460836,75.2012958 C36.606045,74.9719957 38.7502251,73.4434134 39.833955,70.6580732 C40.6650804,68.5214192 40.545209,66.4411672 40.5439228,66.4204143 L41.9149839,66.3357477 C41.9211576,66.4326369 42.0536334,68.7360777 41.1157556,71.1467205 C40.2281672,73.4285172 38.1969132,76.2194594 33.561672,76.5574892" id="Fill-9" fill="#727272"></path>
                <path d="M30.9564244,75.879367 C30.9564244,74.438889 32.1003473,73.2712538 33.5112797,73.2712538 C34.9223408,73.2712538 36.0662637,74.438889 36.0662637,75.879367 C36.0662637,77.3198451 34.9223408,78.4874803 33.5112797,78.4874803 C32.1003473,78.4874803 30.9564244,77.3198451 30.9564244,75.879367" id="Fill-11" fill="#727272"></path>
                <g id="Group-15" transform="translate(30.225080, 72.546928)">
                    <mask id="mask-2" fill="white">
                        <use xlink:href="#path-1"></use>
                    </mask>
                    <g id="Clip-14"></g>
                    <path d="M3.28622508,1.40421787 C2.25612862,1.40421787 1.4181865,2.26921771 1.4181865,3.33245198 C1.4181865,4.39568625 2.25612862,5.26068609 3.28622508,5.26068609 C4.31632154,5.26068609 5.15413505,4.39568625 5.15413505,3.33245198 C5.15413505,2.26921771 4.31632154,1.40421787 3.28622508,1.40421787 M3.28622508,6.62057176 C1.49870096,6.62057176 0.0444244373,5.14546312 0.0444244373,3.33245198 C0.0444244373,1.51944084 1.49870096,0.0443321966 3.28622508,0.0443321966 C5.07362058,0.0443321966 6.52789711,1.51944084 6.52789711,3.33245198 C6.52789711,5.14546312 5.07362058,6.62057176 3.28622508,6.62057176" id="Fill-13" fill="#727272" mask="url(#mask-2)"></path>
                </g>
                <path d="M56.5975048,40.8509223 L45.1106881,40.8509223 L45.1106881,39.4910367 L56.5226495,39.4910367 L56.5226495,22.6766315 L39.5366688,22.6766315 L39.5366688,30.0547211 L38.1629068,30.0547211 L38.1629068,22.6025323 C38.1629068,21.8934973 38.7455434,21.3167459 39.4618135,21.3167459 L56.5975048,21.3167459 C57.3137749,21.3167459 57.8965402,21.8934973 57.8965402,22.6025323 L57.8965402,39.5651359 C57.8965402,40.2741709 57.3137749,40.8509223 56.5975048,40.8509223" id="Fill-16" fill="#727272"></path>
                <path d="M76.6415949,40.1709922 L61.3686688,40.1709922 C60.5197942,40.1709922 59.8252605,39.483474 59.8252605,38.6431739 L59.8252605,23.5245198 C59.8252605,22.6842197 60.5197942,21.9967014 61.3686688,21.9967014 L76.6415949,21.9967014 C77.4905981,21.9967014 78.1850032,22.6842197 78.1850032,23.5245198 L78.1850032,38.6431739 C78.1850032,39.483474 77.4905981,40.1709922 76.6415949,40.1709922" id="Fill-18" fill="#727272"></path>
                <mask id="mask-4" fill="white">
                    <use xlink:href="#path-3"></use>
                </mask>
                <g id="Clip-21"></g>
                <path d="M60.5121543,39.4910494 L77.4980064,39.4910494 L77.4980064,22.6766443 L60.5121543,22.6766443 L60.5121543,39.4910494 Z M77.5255305,40.8509351 L60.4846302,40.8509351 C59.7423794,40.8509351 59.1382637,40.2530488 59.1382637,39.5182955 L59.1382637,22.6493982 C59.1382637,21.9145175 59.7423794,21.3167586 60.4846302,21.3167586 L77.5255305,21.3167586 C78.2680386,21.3167586 78.8718971,21.9145175 78.8718971,22.6493982 L78.8718971,39.5182955 C78.8718971,40.2530488 78.2680386,40.8509351 77.5255305,40.8509351 Z" id="Fill-20" fill="#727272" mask="url(#mask-4)"></path>
                <path d="M55.6661608,19.4724526 L40.3932347,19.4724526 C39.5442315,19.4724526 38.8498264,18.7849344 38.8498264,17.9446343 L38.8498264,2.82598019 C38.8498264,1.98568008 39.5442315,1.29816181 40.3932347,1.29816181 L55.6661608,1.29816181 C56.5150354,1.29816181 57.2095691,1.98568008 57.2095691,2.82598019 L57.2095691,17.9446343 C57.2095691,18.7849344 56.5150354,19.4724526 55.6661608,19.4724526" id="Fill-22" fill="#727272" mask="url(#mask-4)"></path>
                <path d="M39.5365916,18.792548 L56.5225723,18.792548 L56.5225723,1.97814284 L39.5365916,1.97814284 L39.5365916,18.792548 Z M56.5500965,20.1524337 L39.5090675,20.1524337 C38.7668167,20.1524337 38.1628296,19.5545474 38.1628296,18.8196668 L38.1628296,1.95089675 C38.1628296,1.21601611 38.7668167,0.61825717 39.5090675,0.61825717 L56.5500965,0.61825717 C57.2926045,0.61825717 57.896463,1.21601611 57.896463,1.95089675 L57.896463,18.8196668 C57.896463,19.5545474 57.2926045,20.1524337 56.5500965,20.1524337 Z" id="Fill-23" fill="#727272" mask="url(#mask-4)"></path>
                <path d="M69.0051833,1.35986021 C63.9776592,1.35986021 59.8874984,5.40870623 59.8874984,10.38532 C59.8874984,15.3619337 63.9776592,19.4107797 69.0051833,19.4107797 C74.0325788,19.4107797 78.1227395,15.3619337 78.1227395,10.38532 C78.1227395,5.40870623 74.0325788,1.35986021 69.0051833,1.35986021 M69.0051833,20.770538 C63.2202315,20.770538 58.513865,16.1117105 58.513865,10.38532 C58.513865,4.65880204 63.2202315,-2.54636396e-05 69.0051833,-2.54636396e-05 C74.790135,-2.54636396e-05 79.496373,4.65880204 79.496373,10.38532 C79.496373,16.1117105 74.790135,20.770538 69.0051833,20.770538" id="Fill-24" fill="#727272" mask="url(#mask-4)"></path>
                <polygon id="Fill-25" fill="#727272" mask="url(#mask-4)" points="0.68681672 60.0248011 11.1439228 60.0248011 11.1439228 58.6649154 0.68681672 58.6649154"></polygon>
                <polygon id="Fill-26" fill="#727272" mask="url(#mask-4)" points="0.68681672 52.2532983 11.1439228 52.2532983 11.1439228 50.8934126 0.68681672 50.8934126"></polygon>
                <polygon id="Fill-27" fill="#727272" mask="url(#mask-4)" points="37.5724759 60.0248011 48.029582 60.0248011 48.029582 58.6649154 37.5724759 58.6649154"></polygon>
                <polygon id="Fill-28" fill="#727272" mask="url(#mask-4)" points="37.5724759 51.9637767 48.029582 51.9637767 48.029582 50.603891 37.5724759 50.603891"></polygon>
                <polygon id="Fill-29" fill="#727272" mask="url(#mask-4)" points="0.686945338 56.1390497 7.48720257 56.1390497 7.48720257 54.779164 0.686945338 54.779164"></polygon>
                <polygon id="Fill-30" fill="#727272" mask="url(#mask-4)" points="41.2374277 56.1390497 48.0376849 56.1390497 48.0376849 54.779164 41.2374277 54.779164"></polygon>
            </g>
        </g>
    </g>
</svg>