<?xml version="1.0" encoding="UTF-8"?>
<svg width="80px" height="80px" viewBox="0 0 80 80" version="1.1" xmlns="http://www.w3.org/2000/svg" xmlns:xlink="http://www.w3.org/1999/xlink">
    <!-- Generator: Sketch 52.2 (67145) - http://www.bohemiancoding.com/sketch -->
    <title>技术支持icon_slice</title>
    <desc>Created with Sketch.</desc>
    <defs>
        <polygon id="path-1" points="0 0.10251094 8.97597589 0.10251094 8.97597589 17.0889206 0 17.0889206"></polygon>
        <polygon id="path-3" points="0.0117139988 0.0149113192 56.5675415 0.0149113192 56.5675415 57.0592896 0.0117139988 57.0592896"></polygon>
        <polygon id="path-5" points="0 79.1752577 80 79.1752577 80 0 0 0"></polygon>
    </defs>
    <g id="Page-1" stroke="none" stroke-width="1" fill="none" fill-rule="evenodd">
        <g id="画板" transform="translate(-139.000000, -52.000000)">
            <g id="技术支持icon" transform="translate(139.000000, 52.000000)">
                <path d="M23.9175833,36.0148701 C20.5452962,36.0148701 17.372936,37.4111512 14.9847458,39.9465008 C12.5867721,42.4921434 11.2660105,45.8795101 11.2660105,49.4845361 C11.2660105,53.0894464 12.5867721,56.4768131 14.9847458,59.0225714 C17.372936,61.5579209 20.5452962,62.9542021 23.9175833,62.9542021 C27.2897554,62.9542021 30.4621155,61.5579209 32.8503058,59.0225714 C35.2483945,56.4768131 36.5690411,53.0894464 36.5690411,49.4845361 C36.5690411,45.8795101 35.2483945,42.4921434 32.8503058,39.9465008 C30.4621155,37.4111512 27.2897554,36.0148701 23.9175833,36.0148701 M23.9175833,64.3298969 C20.1652391,64.3298969 16.6398702,62.7808379 13.99029,59.9682677 C11.3506083,57.1659905 9.89690722,53.442767 9.89690722,49.4845361 C9.89690722,45.5263052 11.3506083,41.8030816 13.99029,39.0008045 C16.6398702,36.1881186 20.1652391,34.6391753 23.9175833,34.6391753 C27.6698125,34.6391753 31.1951814,36.1881186 33.8447616,39.0008045 C36.4844433,41.8030816 37.9381443,45.5263052 37.9381443,49.4845361 C37.9381443,53.442767 36.4844433,57.1659905 33.8447616,59.9682677 C31.1951814,62.7808379 27.6698125,64.3298969 23.9175833,64.3298969" id="Fill-1" fill="#727272"></path>
                <path d="M11.2895631,80 L9.89690722,80 C9.89690722,76.9376119 10.7639221,73.1948644 12.215815,69.9880822 C13.8474093,66.3848682 16.0362532,63.7895678 18.3792773,62.6804124 L18.9690722,63.957909 C16.9245747,64.9257527 14.9758398,67.2760099 13.481802,70.5758539 C12.1090479,73.607419 11.2895631,77.1303745 11.2895631,80" id="Fill-3" fill="#727272"></path>
                <path d="M37.9381443,80 L36.5453986,80 C36.5453986,77.1304538 35.7258609,73.60745 34.3532524,70.575962 C32.8592352,67.2761913 30.9104917,64.9257834 28.8659794,63.9579265 L29.4559294,62.6804124 C31.7988706,63.7897015 33.9877386,66.3850375 35.6192039,69.9881822 C37.0713076,73.1950083 37.9381443,76.9376885 37.9381443,80" id="Fill-5" fill="#727272"></path>
                <path d="M9.16404822,63.5051546 C4.09805769,61.0880178 0.824742268,55.6758302 0.824742268,49.7168561 C0.824742268,45.6967129 2.27856438,41.9152528 4.91814181,39.0691441 C7.5677329,36.2124638 11.0933465,34.6391753 14.8453608,34.6391753 L14.8453608,36.0365054 C11.4731749,36.0365054 8.30080178,37.4546264 5.91260171,40.0296324 C3.51461819,42.6150925 2.19385113,46.0554424 2.19385113,49.7168561 C2.19385113,55.1356216 5.15743372,60.0510617 9.74391963,62.2393821 L9.16404822,63.5051546 Z" id="Fill-7" fill="#727272"></path>
                <g id="Group-11" transform="translate(0.000000, 61.855670)">
                    <mask id="mask-2" fill="white">
                        <use xlink:href="#path-1"></use>
                    </mask>
                    <g id="Clip-10"></g>
                    <path d="M1.34322619,17.0889206 L-5.64594253e-05,17.0889206 C-5.64594253e-05,14.0831863 0.861853127,10.4103544 2.30552063,7.26391426 C3.92624489,3.73167147 6.09869066,1.18833989 8.42289936,0.10251094 L8.97597589,1.36827993 C6.94140404,2.31877435 5.00349073,4.62401525 3.51905952,7.85931612 C2.15658067,10.8287354 1.34322619,14.2791236 1.34322619,17.0889206" id="Fill-9" fill="#727272" mask="url(#mask-2)"></path>
                </g>
                <path d="M37.0215188,63.5051546 L36.4416474,62.2393821 C41.0281333,60.0510617 43.9917159,55.1356216 43.9917159,49.7168561 C43.9917159,46.0554424 42.6710639,42.6150925 40.2729653,40.0296324 C37.8847652,37.4546264 34.7123921,36.0365054 31.3402062,36.0365054 L31.3402062,34.6391753 C35.0923356,34.6391753 38.6178341,36.2124638 41.2674252,39.0691441 C43.9070026,41.9152528 45.3608247,45.6965954 45.3608247,49.7168561 C45.3608247,55.6758302 42.0875093,61.0880178 37.0215188,63.5051546" id="Fill-12" fill="#727272"></path>
                <path d="M46.185567,79.1752577 L44.8278808,79.1752577 C44.8278808,76.3103483 44.005805,72.7922829 42.628831,69.7646202 C41.1283686,66.4658609 39.1696758,64.1154042 37.1134021,63.1462664 L37.6722949,61.8556701 C40.0214252,62.9627969 42.2171654,65.5560144 43.8552681,69.15754 C45.3145296,72.3656956 46.185567,76.1105678 46.185567,79.1752577" id="Fill-14" fill="#727272"></path>
                <g id="Group-18" transform="translate(23.092784, 0.000000)">
                    <mask id="mask-4" fill="white">
                        <use xlink:href="#path-3"></use>
                    </mask>
                    <g id="Clip-17"></g>
                    <path d="M51.8850307,57.0592896 L23.5485761,57.0592896 L23.5485761,55.67033 L51.8850307,55.67033 C53.7025072,55.67033 55.1810353,54.0876517 55.1810353,52.1424076 L55.1810353,4.93167652 C55.1810353,2.98643246 53.7025072,1.40387092 51.8850307,1.40387092 L4.69428305,1.40387092 C2.87680659,1.40387092 1.39827848,2.98643246 1.39827848,4.93167652 L1.39827848,30.74122 L0.0117139988,30.74122 L0.0117139988,4.93167652 C0.0117139988,2.22054881 2.1123079,0.0149113192 4.69428305,0.0149113192 L51.8850307,0.0149113192 C54.4670059,0.0149113192 56.5675998,2.22054881 56.5675998,4.93167652 L56.5675998,52.1424076 C56.5675998,54.8536521 54.4670059,57.0592896 51.8850307,57.0592896" id="Fill-16" fill="#727272" mask="url(#mask-4)"></path>
                </g>
                <path d="M56.0824742,14.0206186 L41.7988391,14.0206186 C40.1220827,14.0206186 38.7628866,12.7282257 38.7628866,11.1340206 C38.7628866,9.53981554 40.1220827,8.24742268 41.7988391,8.24742268 L56.0824742,8.24742268 L56.0824742,14.0206186 Z" id="Fill-19" fill="#727272"></path>
                <path d="M41.0126247,8.83128563 C40.5314474,8.83128563 40.1398615,9.23178187 40.1398615,9.72417199 L40.1398615,12.5438692 C40.1398615,13.0361409 40.5314474,13.4367556 41.0126247,13.4367556 L55.5303573,13.4367556 L55.5303573,8.83128563 L41.0126247,8.83128563 Z M56.9072165,14.8453608 L41.0126247,14.8453608 C39.7721203,14.8453608 38.7628866,13.8128573 38.7628866,12.5438692 L38.7628866,9.72417199 C38.7628866,8.45506547 39.7721203,7.42268041 41.0126247,7.42268041 L56.9072165,7.42268041 L56.9072165,14.8453608 Z" id="Fill-21" fill="#727272"></path>
                <path d="M57.4836993,13.4367556 L72.7623056,13.4367556 C73.2519569,13.4367556 73.6504391,13.0362594 73.6504391,12.5438692 L73.6504391,9.72417199 C73.6504391,9.23190029 73.2519569,8.83128563 72.7623056,8.83128563 L57.4836993,8.83128563 L57.4836993,13.4367556 Z M72.7623056,14.8453608 L56.0824742,14.8453608 L56.0824742,7.42268041 L72.7623056,7.42268041 C74.0246567,7.42268041 75.0515464,8.45518389 75.0515464,9.72417199 L75.0515464,12.5438692 C75.0515464,13.8129758 74.0246567,14.8453608 72.7623056,14.8453608 Z" id="Fill-23" fill="#727272"></path>
                <path d="M52.7835052,23.9175258 L41.725372,23.9175258 C40.0891393,23.9175258 38.7628866,22.6251329 38.7628866,21.0309278 C38.7628866,19.4367228 40.0891393,18.1443299 41.725372,18.1443299 L52.7835052,18.1443299 L52.7835052,23.9175258 Z" id="Fill-25" fill="#727272"></path>
                <path d="M41.0688978,18.7281928 C40.5756848,18.7281928 40.174304,19.1286891 40.174304,19.6210792 L40.174304,22.4407765 C40.174304,22.9330482 40.5756848,23.3336628 41.0688978,23.3336628 L53.0215723,23.3336628 L53.0215723,18.7281928 L41.0688978,18.7281928 Z M54.4329897,24.742268 L41.0688978,24.742268 C39.7973645,24.742268 38.7628866,23.7097646 38.7628866,22.4407765 L38.7628866,19.6210792 C38.7628866,18.3519727 39.7973645,17.3195876 41.0688978,17.3195876 L54.4329897,17.3195876 L54.4329897,24.742268 Z" id="Fill-27" fill="#727272"></path>
                <path d="M54.1649587,23.3336628 L72.7946072,23.3336628 C73.2773495,23.3336628 73.670209,22.9331666 73.670209,22.4407765 L73.670209,19.6210792 C73.670209,19.1288075 73.2773495,18.7281928 72.7946072,18.7281928 L54.1649587,18.7281928 L54.1649587,23.3336628 Z M72.7946072,24.742268 L52.7835052,24.742268 L52.7835052,17.3195876 L72.7946072,17.3195876 C74.0391463,17.3195876 75.0515464,18.3520911 75.0515464,19.6210792 L75.0515464,22.4407765 C75.0515464,23.709883 74.0391463,24.742268 72.7946072,24.742268 Z" id="Fill-29" fill="#727272"></path>
                <path d="M67.628866,33.814433 L41.7435821,33.814433 C40.0973442,33.814433 38.7628866,32.5220401 38.7628866,30.9278351 C38.7628866,29.33363 40.0973442,28.0412371 41.7435821,28.0412371 L67.628866,28.0412371 L67.628866,33.814433 Z" id="Fill-31" fill="#727272"></path>
                <path d="M41.0013229,29.4498423 C40.5225628,29.4498423 40.1329441,29.8503386 40.1329441,30.3427287 L40.1329441,33.1624259 C40.1329441,33.6546976 40.5225628,34.0553123 41.0013229,34.0553123 L67.0836659,34.0553123 L67.0836659,29.4498423 L41.0013229,29.4498423 Z M68.4536082,35.4639175 L41.0013229,35.4639175 C39.7670503,35.4639175 38.7628866,34.431414 38.7628866,33.1624259 L38.7628866,30.3427287 C38.7628866,29.0736222 39.7670503,28.0412371 41.0013229,28.0412371 L68.4536082,28.0412371 L68.4536082,35.4639175 Z" id="Fill-33" fill="#727272"></path>
                <path d="M54.1649587,34.0553123 L72.7946072,34.0553123 C73.2773495,34.0553123 73.670209,33.6548161 73.670209,33.1624259 L73.670209,30.3427287 C73.670209,29.850457 73.2773495,29.4498423 72.7946072,29.4498423 L54.1649587,29.4498423 L54.1649587,34.0553123 Z M72.7946072,35.4639175 L52.7835052,35.4639175 L52.7835052,28.0412371 L72.7946072,28.0412371 C74.0391463,28.0412371 75.0515464,29.0737406 75.0515464,30.3427287 L75.0515464,33.1624259 C75.0515464,34.4315325 74.0391463,35.4639175 72.7946072,35.4639175 Z" id="Fill-35" fill="#727272"></path>
                <mask id="mask-6" fill="white">
                    <use xlink:href="#path-5"></use>
                </mask>
                <g id="Clip-38"></g>
                <polygon id="Fill-37" fill="#727272" mask="url(#mask-6)" points="65.1546392 51.9587629 66.8041237 51.9587629 66.8041237 45.3608247 65.1546392 45.3608247"></polygon>
                <polygon id="Fill-39" fill="#727272" mask="url(#mask-6)" points="69.2783505 51.9587629 70.9278351 51.9587629 70.9278351 41.2371134 69.2783505 41.2371134"></polygon>
                <polygon id="Fill-40" fill="#727272" mask="url(#mask-6)" points="72.5773196 51.9587629 74.2268041 51.9587629 74.2268041 47.8350515 72.5773196 47.8350515"></polygon>
            </g>
        </g>
    </g>
</svg>