<?xml version="1.0" encoding="UTF-8"?>
<svg width="97px" height="98px" viewBox="0 0 97 98" version="1.1" xmlns="http://www.w3.org/2000/svg" xmlns:xlink="http://www.w3.org/1999/xlink">
    <!-- Generator: Sketch 51 (57462) - http://www.bohemiancoding.com/sketch -->
    <title>资本资源_slice</title>
    <desc>Created with Sketch.</desc>
    <defs>
        <polygon id="path-1" points="0 0.0682828658 37.9122943 0.0682828658 37.9122943 14.6092951 0 14.6092951"></polygon>
        <polygon id="path-3" points="0 0.126935736 37.9122943 0.126935736 37.9122943 11.3278599 0 11.3278599"></polygon>
        <polygon id="path-5" points="0 0.0458410332 37.9122943 0.0458410332 37.9122943 11.2467652 0 11.2467652"></polygon>
        <polygon id="path-7" points="0 0.0388156414 37.9122943 0.0388156414 37.9122943 11.2397398 0 11.2397398"></polygon>
        <polygon id="path-9" points="0 0.062228921 37.9122943 0.062228921 37.9122943 11.2631531 0 11.2631531"></polygon>
        <polygon id="path-11" points="0.128498498 0.000844736484 42.9885974 0.000844736484 42.9885974 40.2056272 0.128498498 40.2056272"></polygon>
        <polygon id="path-13" points="0 97.0030615 96.2268895 97.0030615 96.2268895 0.140789414 0 0.140789414"></polygon>
    </defs>
    <g id="Page-1" stroke="none" stroke-width="1" fill="none" fill-rule="evenodd">
        <g id="Artboard" transform="translate(-139.000000, -44.000000)">
            <g id="资本资源" transform="translate(139.000000, 44.000000)">
                <g id="Group-3" transform="translate(0.000000, 56.737289)">
                    <mask id="mask-2" fill="white">
                        <use xlink:href="#path-1"></use>
                    </mask>
                    <g id="Clip-2"></g>
                    <path d="M18.956126,1.74339531 C14.2095517,1.74339531 9.75905757,2.39539109 6.42460109,3.57928927 C3.45056551,4.63520988 1.67507021,6.04056981 1.67507021,7.33878899 C1.67507021,8.63700818 3.45056551,10.0425089 6.42460109,11.0984295 C9.75905757,12.2821869 14.2095517,12.9343235 18.956126,12.9343235 C23.7027003,12.9343235 28.1531945,12.2821869 31.4877918,11.0984295 C34.4616866,10.0425089 36.2371819,8.63700818 36.2371819,7.33878899 C36.2371819,6.04056981 34.4616866,4.63520988 31.4877918,3.57928927 C28.1531945,2.39539109 23.7027003,1.74339531 18.956126,1.74339531 M18.956126,14.6092951 C14.0235689,14.6092951 9.37385774,13.9230875 5.86411844,12.6769604 C4.10565865,12.0525594 2.71226582,11.3148228 1.72293861,10.4843061 C0.57972857,9.52468544 -4.22368242e-05,8.46637141 -4.22368242e-05,7.33878899 C-4.22368242e-05,6.21134737 0.57972857,5.15303334 1.72293861,4.19327191 C2.71226582,3.36275515 4.10565865,2.62515941 5.86411844,2.00075836 C9.37385774,0.754631259 14.0235689,0.0682828658 18.956126,0.0682828658 C23.888824,0.0682828658 28.5383944,0.754631259 32.0481337,2.00075836 C33.8065934,2.62515941 35.1999863,3.36275515 36.1893135,4.19327191 C37.3325235,5.15303334 37.9122943,6.21134737 37.9122943,7.33878899 C37.9122943,8.46637141 37.3325235,9.52468544 36.1893135,10.4843061 C35.1999863,11.3148228 33.8065934,12.0525594 32.0481337,12.6769604 C28.5383944,13.9230875 23.888824,14.6092951 18.956126,14.6092951" id="Fill-1" fill="#727272" mask="url(#mask-2)"></path>
                </g>
                <g id="Group-6" transform="translate(0.000000, 66.451759)">
                    <mask id="mask-4" fill="white">
                        <use xlink:href="#path-3"></use>
                    </mask>
                    <g id="Clip-5"></g>
                    <path d="M18.956126,11.3278599 C14.0235689,11.3278599 9.37385774,10.6415115 5.86411844,9.39538444 C4.10565865,8.77112418 2.71226582,8.03338765 1.72293861,7.20287089 C0.57972857,6.24310946 -4.22368242e-05,5.18493622 -4.22368242e-05,4.05735381 C-4.22368242e-05,2.24117037 1.5355479,0.917468295 2.82348946,0.126935736 L3.69990356,1.55454039 C2.0263398,2.58159917 1.67507021,3.48251063 1.67507021,4.05735381 C1.67507021,5.35557299 3.45056551,6.76093292 6.42460109,7.81685353 C9.75905757,9.00075171 14.2095517,9.65274749 18.956126,9.65274749 C23.7027003,9.65274749 28.1531945,9.00075171 31.4877918,7.81685353 C34.4616866,6.76093292 36.2371819,5.35557299 36.2371819,4.05735381 C36.2371819,3.48251063 35.8859123,2.58159917 34.2124893,1.55468118 L35.0889034,0.126935736 C36.376845,0.917468295 37.9122943,2.24117037 37.9122943,4.05735381 C37.9122943,5.18493622 37.3325235,6.24310946 36.1893135,7.20287089 C35.1999863,8.03338765 33.8065934,8.77112418 32.0481337,9.39538444 C28.5383944,10.6415115 23.888824,11.3278599 18.956126,11.3278599" id="Fill-4" fill="#727272" mask="url(#mask-4)"></path>
                </g>
                <g id="Group-9" transform="translate(0.000000, 72.928072)">
                    <mask id="mask-6" fill="white">
                        <use xlink:href="#path-5"></use>
                    </mask>
                    <g id="Clip-8"></g>
                    <path d="M18.956126,11.2467652 C14.0235689,11.2467652 9.37385774,10.5604168 5.86411844,9.31428974 C4.10565865,8.69002947 2.71226582,7.95229294 1.72293861,7.12177619 C0.57972857,6.16201476 -4.22368242e-05,5.10384152 -4.22368242e-05,3.9762591 C-4.22368242e-05,2.16007566 1.5355479,0.836373593 2.82363025,0.0458410332 L3.69976277,1.47344569 C2.0263398,2.50050447 1.67507021,3.40141593 1.67507021,3.9762591 C1.67507021,5.27447829 3.45056551,6.67983822 6.42460109,7.73575883 C9.75905757,8.91965701 14.2095517,9.57165278 18.956126,9.57165278 C23.7027003,9.57165278 28.1531945,8.91965701 31.4877918,7.73575883 C34.4616866,6.67983822 36.2371819,5.27447829 36.2371819,3.9762591 C36.2371819,3.40141593 35.8859123,2.50050447 34.2124893,1.47358648 L35.0889034,0.0459818226 C36.376845,0.836514382 37.9122943,2.16007566 37.9122943,3.9762591 C37.9122943,5.10384152 37.3325235,6.16201476 36.1893135,7.12177619 C35.1999863,7.95229294 33.8065934,8.69002947 32.0481337,9.31428974 C28.5383944,10.5604168 23.888824,11.2467652 18.956126,11.2467652" id="Fill-7" fill="#727272" mask="url(#mask-6)"></path>
                </g>
                <g id="Group-12" transform="translate(0.000000, 79.404385)">
                    <mask id="mask-8" fill="white">
                        <use xlink:href="#path-7"></use>
                    </mask>
                    <g id="Clip-11"></g>
                    <path d="M18.956126,11.2397398 C14.0235689,11.2397398 9.37385774,10.5533914 5.86411844,9.30726434 C4.10565865,8.68300408 2.71226582,7.94526755 1.72293861,7.1147508 C0.57972857,6.15513015 -4.22368242e-05,5.09681613 -4.22368242e-05,3.96923371 C-4.22368242e-05,2.15305027 1.5355479,0.829348201 2.82348946,0.0388156414 L3.69990356,1.4664203 C2.0263398,2.49347907 1.67507021,3.39439053 1.67507021,3.96923371 C1.67507021,5.2674529 3.45056551,6.67281283 6.42460109,7.72873343 C9.75905757,8.91263162 14.2095517,9.56462739 18.956126,9.56462739 C23.7027003,9.56462739 28.1531945,8.91263162 31.4877918,7.72873343 C34.4616866,6.67281283 36.2371819,5.2674529 36.2371819,3.96923371 C36.2371819,3.39439053 35.8859123,2.49347907 34.2124893,1.46656109 L35.0889034,0.0389564309 C36.376845,0.829348201 37.9122943,2.15305027 37.9122943,3.96923371 C37.9122943,5.09681613 37.3325235,6.15513015 36.1893135,7.1147508 C35.1999863,7.94526755 33.8065934,8.68300408 32.0481337,9.30726434 C28.5383944,10.5533914 23.888824,11.2397398 18.956126,11.2397398" id="Fill-10" fill="#727272" mask="url(#mask-8)"></path>
                </g>
                <g id="Group-15" transform="translate(0.000000, 85.739908)">
                    <mask id="mask-10" fill="white">
                        <use xlink:href="#path-9"></use>
                    </mask>
                    <g id="Clip-14"></g>
                    <path d="M18.956126,11.2631531 C14.0235689,11.2631531 9.37385774,10.5768047 5.86411844,9.33067762 C4.10565865,8.70641736 2.71226582,7.96868083 1.72293861,7.13816408 C0.57972857,6.17854343 -4.22368242e-05,5.12022941 -4.22368242e-05,3.99264699 C-4.22368242e-05,2.17646355 1.5355479,0.852761481 2.82348946,0.062228921 L3.69990356,1.48983358 C2.0263398,2.51689235 1.67507021,3.41780381 1.67507021,3.99264699 C1.67507021,5.29086618 3.45056551,6.69622611 6.42460109,7.75214671 C9.75905757,8.9360449 14.2095517,9.58804067 18.956126,9.58804067 C23.7027003,9.58804067 28.1531945,8.9360449 31.4877918,7.75214671 C34.4616866,6.69622611 36.2371819,5.29086618 36.2371819,3.99264699 C36.2371819,3.41780381 35.8859123,2.51689235 34.2124893,1.48997437 L35.0889034,0.0623697104 C36.376845,0.852761481 37.9122943,2.17646355 37.9122943,3.99264699 C37.9122943,5.12022941 37.3325235,6.17854343 36.1893135,7.13816408 C35.1999863,7.96868083 33.8065934,8.70641736 32.0481337,9.33067762 C28.5383944,10.5768047 23.888824,11.2631531 18.956126,11.2631531" id="Fill-13" fill="#727272" mask="url(#mask-10)"></path>
                </g>
                <path d="M40.9412659,45.0638756 C36.1946916,45.0638756 31.7443383,45.7158714 28.409741,46.8997696 C25.4357054,47.9556902 23.6603509,49.3610501 23.6603509,50.6592693 C23.6603509,51.9574885 25.4357054,53.3629892 28.409741,54.4189098 C31.7443383,55.602808 36.1946916,56.2548038 40.9412659,56.2548038 C45.687981,56.2548038 50.1383344,55.602808 53.4729317,54.4189098 C56.4469673,53.3629892 58.2223218,51.9574885 58.2223218,50.6592693 C58.2223218,49.3610501 56.4469673,47.9556902 53.4729317,46.8997696 C50.1383344,45.7158714 45.687981,45.0638756 40.9412659,45.0638756 M40.9412659,57.9297754 C36.0087088,57.9297754 31.3589976,57.2435678 27.8492583,55.9974407 C26.0907985,55.3730397 24.6975465,54.6353032 23.7080785,53.8047864 C22.5648685,52.8451658 21.9850977,51.7868517 21.9850977,50.6592693 C21.9850977,49.5318277 22.5648685,48.4735137 23.7080785,47.5137522 C24.6975465,46.6832355 26.0907985,45.9456397 27.8492583,45.3212387 C31.3589976,44.0751116 36.0087088,43.3887632 40.9412659,43.3887632 C45.8739638,43.3887632 50.523675,44.0751116 54.0332735,45.3212387 C55.7918741,45.9456397 57.1851262,46.6832355 58.1745942,47.5137522 C59.3178042,48.4735137 59.897575,49.5318277 59.897575,50.6592693 C59.897575,51.7868517 59.3178042,52.8451658 58.1745942,53.8047864 C57.1851262,54.6353032 55.7918741,55.3730397 54.0332735,55.9974407 C50.523675,57.2435678 45.8739638,57.9297754 40.9412659,57.9297754" id="Fill-16" fill="#727272"></path>
                <path d="M22.1302093,58.0450679 C22.0339093,57.7322338 21.9851962,57.4116563 21.9851962,57.0923459 C21.9851962,55.2761625 23.5206456,53.9524604 24.8087279,53.1617871 L25.6850012,54.5895325 C24.0114375,55.6165913 23.6603087,56.5175028 23.6603087,57.0923459 C23.6603087,57.2445393 23.6841021,57.3994076 23.7312665,57.5524457 L22.1302093,58.0450679 Z" id="Fill-18" fill="#727272"></path>
                <path d="M40.9412659,64.3628098 C39.5781428,64.3628098 38.2183987,64.3097322 36.8999058,64.2048441 L37.0325294,62.5350817 C38.3072368,62.6363092 39.6223507,62.6876974 40.9412659,62.6876974 C45.687981,62.6876974 50.1383344,62.0357016 53.4729317,60.8518034 C56.4469673,59.7958828 58.2223218,58.3905229 58.2223218,57.0923037 C58.2223218,56.5174605 57.871193,55.6166898 56.19777,54.5896311 L57.0740433,53.1620264 C59.4076278,54.5942771 59.897575,56.0898831 59.897575,57.0923037 C59.897575,58.2198861 59.3178042,59.2782001 58.1745942,60.2378208 C57.1851262,61.0683375 55.7918741,61.8060741 54.0332735,62.4303343 C50.523675,63.6764614 45.8739638,64.3628098 40.9412659,64.3628098" id="Fill-20" fill="#727272"></path>
                <path d="M40.9412659,70.7580282 C39.6164375,70.7580282 38.293721,70.7077663 37.0102847,70.6087914 L37.1392478,68.9386066 C38.3800249,69.0343434 39.6592375,69.0829157 40.9412659,69.0829157 C45.687981,69.0829157 50.1383344,68.4309199 53.4729317,67.2470218 C56.4469673,66.1911012 58.2223218,64.7857412 58.2223218,63.487522 C58.2223218,62.9126789 57.871193,62.0119082 56.19777,60.9848494 L57.0740433,59.5572448 C59.4076278,60.9894955 59.897575,62.4851014 59.897575,63.487522 C59.897575,64.6151045 59.3178042,65.6734185 58.1745942,66.6330391 C57.1851262,67.4635559 55.7918741,68.2012924 54.0332735,68.8255527 C50.523675,70.0716798 45.8739638,70.7580282 40.9412659,70.7580282" id="Fill-22" fill="#727272"></path>
                <path d="M40.9412659,77.2273158 C39.6202389,77.2273158 38.3013236,77.1773356 37.0212663,77.0789238 L37.1496662,75.408739 C38.3872052,75.5039126 39.6630388,75.5522034 40.9412659,75.5522034 C45.687981,75.5522034 50.1383344,74.9002076 53.4729317,73.7163094 C56.4469673,72.6603888 58.2223218,71.2550289 58.2223218,69.9568097 C58.2223218,69.3819665 57.871193,68.4811958 56.19777,67.4541371 L57.0740433,66.0265324 C59.4076278,67.4587831 59.897575,68.9543891 59.897575,69.9568097 C59.897575,71.0843921 59.3178042,72.1427061 58.1745942,73.1023268 C57.1851262,73.9328435 55.7918741,74.6705801 54.0332735,75.2948403 C50.523675,76.5409674 45.8739638,77.2273158 40.9412659,77.2273158" id="Fill-24" fill="#727272"></path>
                <g id="Group-28" transform="translate(42.096035, 0.139945)">
                    <mask id="mask-12" fill="white">
                        <use xlink:href="#path-11"></use>
                    </mask>
                    <g id="Clip-27"></g>
                    <path d="M1.80347016,40.2056272 L0.128498498,40.2056272 L0.128498498,6.66874402 C0.128498498,2.99202847 3.11971039,0.000816578601 6.79642593,0.000816578601 L42.9885974,0.000816578601 L42.9885974,1.67592903 L6.79642593,1.67592903 C4.04328894,1.67592903 1.80347016,3.91560702 1.80347016,6.66874402 L1.80347016,40.2056272 Z" id="Fill-26" fill="#727272" mask="url(#mask-12)"></path>
                </g>
                <path d="M89.5584411,58.4806844 L62.6269749,58.4806844 L62.6269749,56.805572 L89.5584411,56.805572 C92.3118597,56.805572 94.5518193,54.5656124 94.5518193,51.8121938 L94.5518193,9.75952218 C94.5518193,7.00610361 92.3118597,4.76614403 89.5584411,4.76614403 L48.9881412,4.76614403 L48.9881412,3.09103158 L89.5584411,3.09103158 C93.2352975,3.09103158 96.2267909,6.08252505 96.2267909,9.75952218 L96.2267909,51.8121938 C96.2267909,55.489191 93.2352975,58.4806844 89.5584411,58.4806844" id="Fill-29" fill="#727272"></path>
                <mask id="mask-14" fill="white">
                    <use xlink:href="#path-13"></use>
                </mask>
                <g id="Clip-32"></g>
                <polygon id="Fill-31" fill="#727272" mask="url(#mask-14)" points="86.516362 49.8269223 88.1913337 49.8269223 88.1913337 13.0383668 86.516362 13.0383668"></polygon>
                <polygon id="Fill-33" fill="#727272" mask="url(#mask-14)" points="81.5219983 16.6256811 87.3537774 16.6256811 87.3537774 14.9505687 81.5219983 14.9505687"></polygon>
                <polygon id="Fill-34" fill="#727272" mask="url(#mask-14)" points="80.9189973 26.3732362 86.7509172 26.3732362 86.7509172 24.6981237 80.9189973 24.6981237"></polygon>
                <polygon id="Fill-35" fill="#727272" mask="url(#mask-14)" points="76.6598359 21.499529 87.3537774 21.499529 87.3537774 19.8244166 76.6598359 19.8244166"></polygon>
                <polygon id="Fill-36" fill="#727272" mask="url(#mask-14)" points="80.9189973 36.1206505 86.7509172 36.1206505 86.7509172 34.445538 80.9189973 34.445538"></polygon>
                <polygon id="Fill-37" fill="#727272" mask="url(#mask-14)" points="76.6598359 31.2469433 87.3537774 31.2469433 87.3537774 29.5718309 76.6598359 29.5718309"></polygon>
                <polygon id="Fill-38" fill="#727272" mask="url(#mask-14)" points="80.9189973 45.8680648 86.7509172 45.8680648 86.7509172 44.1929523 80.9189973 44.1929523"></polygon>
                <polygon id="Fill-39" fill="#727272" mask="url(#mask-14)" points="76.6598359 40.9943576 87.3537774 40.9943576 87.3537774 39.3192452 76.6598359 39.3192452"></polygon>
                <path d="M66.1515112,33.2752964 L54.1316149,15.9546788 C53.9875874,15.7470144 54.0391163,15.4619158 54.2466399,15.3178882 C54.4543043,15.1737199 54.7394028,15.2252488 54.8835712,15.4329132 L66.9034674,32.7535309 C67.047495,32.9610544 66.9959661,33.2462938 66.7883017,33.3903214 C66.5807781,33.5344897 66.2955387,33.4829608 66.1515112,33.2752964 M70.9574986,36.6369253 L54.5732713,12.5992447 C54.4309332,12.3903132 54.146257,12.3363908 53.9373256,12.4787289 L50.2644113,14.9823871 C50.0556206,15.1247252 50.0016983,15.4094014 50.1440364,15.6181921 L66.5055965,39.6226464 C66.5561399,39.6967016 66.6272386,39.7542845 66.7101636,39.7883555 L71.1893788,41.6248126 C71.5238944,41.7619415 71.8779798,41.4751535 71.8132167,41.1195194 L71.0295828,36.8127712 C71.0180381,36.7496976 70.9936815,36.6898621 70.9574986,36.6369253" id="Fill-40" fill="#727272" mask="url(#mask-14)"></path>
            </g>
        </g>
    </g>
</svg>