<?xml version="1.0" encoding="UTF-8"?>
<svg width="97px" height="97px" viewBox="0 0 97 97" version="1.1" xmlns="http://www.w3.org/2000/svg" xmlns:xlink="http://www.w3.org/1999/xlink">
    <!-- Generator: Sketch 51 (57462) - http://www.bohemiancoding.com/sketch -->
    <title>技术支持icon_按下_slice</title>
    <desc>Created with Sketch.</desc>
    <defs>
        <polygon id="path-1" points="0 0.124294515 10.8833708 0.124294515 10.8833708 20.7203162 0 20.7203162"></polygon>
        <polygon id="path-3" points="0.0142032236 0.0180799745 68.5881441 0.0180799745 68.5881441 69.1843886 0.0142032236 69.1843886"></polygon>
        <polygon id="path-5" points="0 96 97 96 97 0 0 0"></polygon>
    </defs>
    <g id="Page-1" stroke="none" stroke-width="1" fill="none" fill-rule="evenodd">
        <g id="Artboard" transform="translate(-139.000000, -29.000000)">
            <g id="技术支持icon-按下" transform="translate(139.000000, 29.000000)">
                <path d="M29.0000698,43.66803 C24.9111716,43.66803 21.0646849,45.3610209 18.1690043,48.4351322 C15.2614612,51.5217239 13.6600377,55.628906 13.6600377,60 C13.6600377,64.3709538 15.2614612,68.4781359 18.1690043,71.5648678 C21.0646849,74.6389791 24.9111716,76.33197 29.0000698,76.33197 C33.0888284,76.33197 36.9353151,74.6389791 39.8309957,71.5648678 C42.7386784,68.4781359 44.3399623,64.3709538 44.3399623,60 C44.3399623,55.628906 42.7386784,51.5217239 39.8309957,48.4351322 C36.9353151,45.3610209 33.0888284,43.66803 29.0000698,43.66803 M29.0000698,78 C24.4503524,78 20.1758426,76.121766 16.9632266,72.7115245 C13.7626125,69.3137635 12,64.7993549 12,60 C12,55.2006451 13.7626125,50.6862365 16.9632266,47.2884755 C20.1758426,43.8780938 24.4503524,42 29.0000698,42 C33.5496476,42 37.8241574,43.8780938 41.0367734,47.2884755 C44.2373875,50.6862365 46,55.2006451 46,60 C46,64.7993549 44.2373875,69.3137635 41.0367734,72.7115245 C37.8241574,76.121766 33.5496476,78 29.0000698,78" id="Fill-1" fill="#009FDE"></path>
                <path d="M13.6885952,97 L12,97 C12,93.2868544 13.0512556,88.7487731 14.8116757,84.8605496 C16.7899837,80.4916527 19.443957,77.344851 22.2848737,76 L23,77.5489647 C20.5210468,78.7224751 18.1582058,81.5721619 16.3466849,85.5732229 C14.6822206,89.2489955 13.6885952,93.5205791 13.6885952,97" id="Fill-3" fill="#009FDE"></path>
                <path d="M46,97 L44.3112958,97 C44.3112958,93.5206752 43.3176064,89.2490332 41.6533185,85.573354 C39.8418227,81.572382 37.4789712,78.7225124 35,77.5489859 L35.7153144,76 C38.5561305,77.3450131 41.2101331,80.4918579 43.1882848,84.8606709 C44.9489605,88.7489476 46,93.2869474 46,97" id="Fill-5" fill="#009FDE"></path>
                <path d="M11.1114085,77 C4.96889495,74.0692216 1,67.5069441 1,60.2816881 C1,55.4072644 2.76275931,50.822244 5.96324694,47.3713372 C9.17587614,43.9076123 13.4506826,42 18,42 L18,43.6942628 C13.9112246,43.6942628 10.0647222,45.4137345 7.16902958,48.5359292 C4.26147456,51.6707996 2.66004449,55.8422239 2.66004449,60.2816881 C2.66004449,66.8519412 6.25338839,72.8119123 11.8145026,75.4652508 L11.1114085,77 Z" id="Fill-7" fill="#009FDE"></path>
                <g id="Group-11" transform="translate(0.000000, 75.000000)">
                    <mask id="mask-2" fill="white">
                        <use xlink:href="#path-1"></use>
                    </mask>
                    <g id="Clip-10"></g>
                    <path d="M1.62866175,20.7203162 L-6.84570532e-05,20.7203162 C-6.84570532e-05,17.0758634 1.04499692,12.6225547 2.79544377,8.80749605 C4.76057193,4.52465166 7.39466242,1.44086212 10.2127655,0.124294515 L10.8833708,1.65903941 C8.4164524,2.8115139 6.06673251,5.60661849 4.26685967,9.52942079 C2.61485406,13.1298417 1.62866175,17.3134374 1.62866175,20.7203162" id="Fill-9" fill="#009FDE" mask="url(#mask-2)"></path>
                </g>
                <path d="M44.8885915,77 L44.1854974,75.4652508 C49.7466116,72.8119123 53.3399555,66.8519412 53.3399555,60.2816881 C53.3399555,55.8422239 51.738665,51.6707996 48.8309704,48.5359292 C45.9352778,45.4137345 42.0887754,43.6942628 38,43.6942628 L38,42 C42.549457,42 46.8241239,43.9076123 50.0367531,47.3713372 C53.2372407,50.822244 55,55.407122 55,60.2816881 C55,67.5069441 51.0311051,74.0692216 44.8885915,77" id="Fill-12" fill="#009FDE"></path>
                <path d="M56,96 L54.3538055,96 C54.3538055,92.5262973 53.3570386,88.260643 51.6874575,84.5896021 C49.8681469,80.5898564 47.4932319,77.7399275 45,76.564848 L45.6776576,75 C48.5259781,76.3423913 51.188313,79.4866674 53.1745125,83.8535172 C54.9438672,87.7434059 56,92.2840635 56,96" id="Fill-14" fill="#009FDE"></path>
                <g id="Group-18" transform="translate(28.000000, 0.000000)">
                    <mask id="mask-4" fill="white">
                        <use xlink:href="#path-3"></use>
                    </mask>
                    <g id="Clip-17"></g>
                    <path d="M62.9105998,69.1843886 L28.5526485,69.1843886 L28.5526485,67.5002751 L62.9105998,67.5002751 C65.11429,67.5002751 66.9070053,65.5812777 66.9070053,63.2226693 L66.9070053,5.97965778 C66.9070053,3.62104936 65.11429,1.70219349 62.9105998,1.70219349 L5.6918182,1.70219349 C3.48812799,1.70219349 1.69541266,3.62104936 1.69541266,5.97965778 L1.69541266,37.2737292 L0.0142032236,37.2737292 L0.0142032236,5.97965778 C0.0142032236,2.69241543 2.56117333,0.0180799745 5.6918182,0.0180799745 L62.9105998,0.0180799745 C66.0412446,0.0180799745 68.5882147,2.69241543 68.5882147,5.97965778 L68.5882147,63.2226693 C68.5882147,66.5100532 66.0412446,69.1843886 62.9105998,69.1843886" id="Fill-16" fill="#009FDE" mask="url(#mask-4)"></path>
                </g>
                <path d="M68,17 L50.6810924,17 C48.6480253,17 47,15.4329737 47,13.5 C47,11.5670263 48.6480253,10 50.6810924,10 L68,10 L68,17 Z" id="Fill-19" fill="#009FDE"></path>
                <path d="M49.7278074,10.7079338 C49.14438,10.7079338 48.6695821,11.1935355 48.6695821,11.7905585 L48.6695821,15.2094415 C48.6695821,15.8063209 49.14438,16.2920662 49.7278074,16.2920662 L67.3305583,16.2920662 L67.3305583,10.7079338 L49.7278074,10.7079338 Z M69,18 L49.7278074,18 C48.2236959,18 47,16.7480895 47,15.2094415 L47,11.7905585 C47,10.2517669 48.2236959,9 49.7278074,9 L69,9 L69,18 Z" id="Fill-21" fill="#009FDE"></path>
                <path d="M69.6989854,16.2920662 L88.2242955,16.2920662 C88.8179978,16.2920662 89.3011575,15.8064645 89.3011575,15.2094415 L89.3011575,11.7905585 C89.3011575,11.1936791 88.8179978,10.7079338 88.2242955,10.7079338 L69.6989854,10.7079338 L69.6989854,16.2920662 Z M88.2242955,18 L68,18 L68,9 L88.2242955,9 C89.7548962,9 91,10.2519105 91,11.7905585 L91,15.2094415 C91,16.7482331 89.7548962,18 88.2242955,18 Z" id="Fill-23" fill="#009FDE"></path>
                <path d="M64,29 L50.5920135,29 C48.6080813,29 47,27.4329737 47,25.5 C47,23.5670263 48.6080813,22 50.5920135,22 L64,22 L64,29 Z" id="Fill-25" fill="#009FDE"></path>
                <path d="M49.7960386,22.7079338 C49.1980178,22.7079338 48.7113436,23.1935355 48.7113436,23.7905585 L48.7113436,27.2094415 C48.7113436,27.8063209 49.1980178,28.2920662 49.7960386,28.2920662 L64.2886564,28.2920662 L64.2886564,22.7079338 L49.7960386,22.7079338 Z M66,30 L49.7960386,30 C48.2543044,30 47,28.7480895 47,27.2094415 L47,23.7905585 C47,22.2517669 48.2543044,21 49.7960386,21 L66,21 L66,30 Z" id="Fill-27" fill="#009FDE"></path>
                <path d="M65.6750124,28.2920662 L88.2634612,28.2920662 C88.8487862,28.2920662 89.3251284,27.8064645 89.3251284,27.2094415 L89.3251284,23.7905585 C89.3251284,23.1936791 88.8487862,22.7079338 88.2634612,22.7079338 L65.6750124,22.7079338 L65.6750124,28.2920662 Z M88.2634612,30 L64,30 L64,21 L88.2634612,21 C89.7724649,21 91,22.2519105 91,23.7905585 L91,27.2094415 C91,28.7482331 89.7724649,30 88.2634612,30 Z" id="Fill-29" fill="#009FDE"></path>
                <path d="M82,41 L50.6140933,41 C48.6180298,41 47,39.4329737 47,37.5 C47,35.5670263 48.6180298,34 50.6140933,34 L82,34 L82,41 Z" id="Fill-31" fill="#009FDE"></path>
                <path d="M49.714104,35.7079338 C49.1336074,35.7079338 48.6611947,36.1935355 48.6611947,36.7905585 L48.6611947,40.2094415 C48.6611947,40.8063209 49.1336074,41.2920662 49.714104,41.2920662 L81.3389449,41.2920662 L81.3389449,35.7079338 L49.714104,35.7079338 Z M83,43 L49.714104,43 C48.2175485,43 47,41.7480895 47,40.2094415 L47,36.7905585 C47,35.2517669 48.2175485,34 49.714104,34 L83,34 L83,43 Z" id="Fill-33" fill="#009FDE"></path>
                <path d="M65.6750124,41.2920662 L88.2634612,41.2920662 C88.8487862,41.2920662 89.3251284,40.8064645 89.3251284,40.2094415 L89.3251284,36.7905585 C89.3251284,36.1936791 88.8487862,35.7079338 88.2634612,35.7079338 L65.6750124,35.7079338 L65.6750124,41.2920662 Z M88.2634612,43 L64,43 L64,34 L88.2634612,34 C89.7724649,34 91,35.2519105 91,36.7905585 L91,40.2094415 C91,41.7482331 89.7724649,43 88.2634612,43 Z" id="Fill-35" fill="#009FDE"></path>
                <mask id="mask-6" fill="white">
                    <use xlink:href="#path-5"></use>
                </mask>
                <g id="Clip-38"></g>
                <polygon id="Fill-37" fill="#009FDE" mask="url(#mask-6)" points="79 63 81 63 81 55 79 55"></polygon>
                <polygon id="Fill-39" fill="#009FDE" mask="url(#mask-6)" points="84 63 86 63 86 50 84 50"></polygon>
                <polygon id="Fill-40" fill="#009FDE" mask="url(#mask-6)" points="88 63 90 63 90 58 88 58"></polygon>
            </g>
        </g>
    </g>
</svg>