<?xml version="1.0" encoding="UTF-8"?>
<svg width="80px" height="80px" viewBox="0 0 80 80" version="1.1" xmlns="http://www.w3.org/2000/svg" xmlns:xlink="http://www.w3.org/1999/xlink">
    <!-- Generator: Sketch 52.2 (67145) - http://www.bohemiancoding.com/sketch -->
    <title>品牌建设icon_slice</title>
    <desc>Created with Sketch.</desc>
    <defs>
        <polygon id="path-1" points="0.115825844 0.101429876 17.9104642 0.101429876 17.9104642 36.0099093 0.115825844 36.0099093"></polygon>
        <polygon id="path-3" points="0.11297781 0.0454694804 40.1012914 0.0454694804 40.1012914 50.9087318 0.11297781 50.9087318"></polygon>
    </defs>
    <g id="Page-1" stroke="none" stroke-width="1" fill="none" fill-rule="evenodd">
        <g id="画板" transform="translate(-139.000000, -52.000000)">
            <g id="品牌建设icon" transform="translate(139.000000, 52.000000)">
                <path d="M8.63624778,34.8822099 C8.76405436,34.5832104 9.04320464,34.3900744 9.34742196,34.3900744 L17.8453826,34.3900744 C17.9037547,34.3900744 17.9434147,34.4511769 17.9211721,34.5069507 L11.0509213,51.7708892 C11.0383289,51.802743 11.0083191,51.8234657 10.9751317,51.8234657 L1.52591824,51.8234657 C1.46801692,51.8234657 1.42765075,51.7621264 1.45083482,51.7074184 C1.45107019,51.7070631 1.45118787,51.7067079 1.45142324,51.7063526 L8.63624778,34.8822099 Z M39.1986138,34.8822099 L46.3836737,51.7063526 C46.3839091,51.7067079 46.3840268,51.7070631 46.3841445,51.7074184 C46.4074462,51.7621264 46.3669624,51.8234657 46.3091787,51.8234657 L36.8599653,51.8234657 C36.8267779,51.8234657 36.7967681,51.802743 36.7841757,51.7708892 L29.9139248,34.5069507 C29.8916823,34.4511769 29.9313423,34.3900744 29.9895967,34.3900744 L38.4875573,34.3900744 C38.7918923,34.3900744 39.0710426,34.5832104 39.1986138,34.8822099 Z M36.8276017,53.223731 L45.776769,53.223731 C45.8474981,53.223731 45.8850398,53.3101744 45.8378478,53.364764 L26.331457,75.9345533 C26.2681421,76.0077342 26.1551639,75.9296983 26.1965893,75.8412418 L36.7538128,53.2715709 C36.7674644,53.2423222 36.796062,53.223731 36.8276017,53.223731 Z M35.2140142,53.3452255 L23.9913962,77.3375421 C23.9615041,77.4013682 23.8735929,77.4013682 23.8438184,77.3375421 L12.6210827,53.3452255 C12.5948388,53.288978 12.6344989,53.223731 12.6948716,53.223731 L35.1402254,53.223731 C35.2007158,53.223731 35.2403758,53.288978 35.2140142,53.3452255 Z M19.4688557,34.3900744 L28.3662413,34.3900744 C28.4062544,34.3900744 28.4397948,34.4199151 28.4468559,34.4606501 C28.4550939,34.5087269 28.4683924,34.5566852 28.4871044,34.6036963 L35.2932167,51.7065895 C35.3153415,51.7622448 35.2756815,51.8234657 35.2173094,51.8234657 L12.6177875,51.8234657 C12.5594155,51.8234657 12.5197554,51.7622448 12.541998,51.7065895 L19.3481102,34.6036963 C19.3668222,34.5566852 19.380003,34.5087269 19.388241,34.4606501 C19.3953022,34.4199151 19.4287249,34.3900744 19.4688557,34.3900744 Z M11.0812841,53.2715709 L21.63839,75.8411234 C21.6798153,75.9295799 21.5668372,76.0076158 21.5035223,75.9344349 L1.99724913,53.364764 C1.9500572,53.3101744 1.98759891,53.223731 2.05832797,53.223731 L11.0074953,53.223731 C11.039035,53.223731 11.0676326,53.2423222 11.0812841,53.2715709 Z M47.6237271,51.1410362 L40.4386672,34.3168935 C40.0944367,33.5107197 39.3285387,32.9896907 38.4875573,32.9896907 L9.34742196,32.9896907 C8.50655824,32.9896907 7.74077793,33.5106012 7.39642982,34.3168935 L0.211487595,51.1410362 C-0.180993934,52.0598234 -0.0183524129,53.1350376 0.625858649,53.8803459 L22.7188616,79.4428543 C23.0248442,79.7969171 23.4618109,80 23.9176073,80 C24.3734037,80 24.8103704,79.7969171 25.1162353,79.4429727 L47.209356,53.8803459 C47.8533317,53.1350376 48.0159732,52.0598234 47.6237271,51.1410362 Z" id="Fill-1" fill="#727272"></path>
                <g id="Group-5" transform="translate(61.855670, 14.845361)">
                    <mask id="mask-2" fill="white">
                        <use xlink:href="#path-1"></use>
                    </mask>
                    <g id="Clip-4"></g>
                    <path d="M17.9105347,36.0099093 L16.5123043,36.0099093 L16.5123043,14.6279603 C16.5123043,14.0538843 16.2260302,13.5061325 15.7268133,13.1251388 L0.115825844,1.21291611 L0.964071521,0.101429876 L16.575059,12.0136525 C17.4236572,12.6612948 17.9105347,13.6141316 17.9105347,14.6279603 L17.9105347,36.0099093 Z" id="Fill-3" fill="#727272" mask="url(#mask-2)"></path>
                </g>
                <g id="Group-8" transform="translate(37.113402, 0.000000)">
                    <mask id="mask-4" fill="white">
                        <use xlink:href="#path-3"></use>
                    </mask>
                    <g id="Clip-7"></g>
                    <path d="M23.62962,9.93158922 C23.62962,10.7082033 22.9527683,11.3378618 22.1178587,11.3378618 L18.0964105,11.3378618 C17.2616189,11.3378618 16.5846491,10.7082033 16.5846491,9.93158922 L16.5846491,6.19078694 C16.5846491,5.4141729 17.2616189,4.78463154 18.0964105,4.78463154 L22.1178587,4.78463154 C22.9527683,4.78463154 23.62962,5.4141729 23.62962,6.19090413 L23.62962,9.93158922 Z M23.62962,20.8241079 C23.62962,21.600722 22.9527683,22.2303805 22.1178587,22.2303805 L18.0964105,22.2303805 C17.2616189,22.2303805 16.5846491,21.600722 16.5846491,20.8241079 L16.5846491,17.0833057 C16.5846491,16.3066916 17.2616189,15.6771503 18.0964105,15.6771503 L22.1178587,15.6771503 C22.9527683,15.6771503 23.62962,16.3066916 23.62962,17.0833057 L23.62962,20.8241079 Z M23.62962,31.7166266 C23.62962,32.4932407 22.9527683,33.122782 22.1178587,33.122782 L18.0964105,33.122782 C17.2616189,33.122782 16.5846491,32.4932407 16.5846491,31.7166266 L16.5846491,27.9758244 C16.5846491,27.1992103 17.2616189,26.569669 18.0964105,26.569669 L22.1178587,26.569669 C22.9527683,26.569669 23.62962,27.1992103 23.62962,27.9758244 L23.62962,31.7166266 Z M12.1096844,9.93158922 C12.1096844,10.7082033 11.4329507,11.3378618 10.598041,11.3378618 L6.57659285,11.3378618 C5.74180121,11.3378618 5.06494951,10.7082033 5.06494951,9.93158922 L5.06494951,6.19078694 C5.06494951,5.4141729 5.74180121,4.78463154 6.57659285,4.78463154 L10.598041,4.78463154 C11.4329507,4.78463154 12.1096844,5.4141729 12.1096844,6.19090413 L12.1096844,9.93158922 Z M12.1096844,20.8241079 C12.1096844,21.600722 11.4329507,22.2303805 10.598041,22.2303805 L6.57659285,22.2303805 C5.74180121,22.2303805 5.06494951,21.600722 5.06494951,20.8241079 L5.06494951,17.0833057 C5.06494951,16.3066916 5.74180121,15.6771503 6.57659285,15.6771503 L10.598041,15.6771503 C11.4329507,15.6771503 12.1096844,16.3066916 12.1096844,17.0833057 L12.1096844,20.8241079 Z M12.1096844,31.7166266 C12.1096844,32.4932407 11.4329507,33.122782 10.598041,33.122782 L6.57659285,33.122782 C5.74180121,33.122782 5.06494951,32.4932407 5.06494951,31.7166266 L5.06494951,27.9758244 C5.06494951,27.1992103 5.74180121,26.569669 6.57659285,26.569669 L10.598041,26.569669 C11.4329507,26.569669 12.1096844,27.1992103 12.1096844,27.9758244 L12.1096844,31.7166266 Z M39.6135426,27.8780884 L26.9622943,18.1128144 L26.9622943,1.3005912 C26.9622943,0.607416007 26.3581563,0.0453757289 25.6130765,0.0453757289 L1.46231367,0.0453757289 C0.717115761,0.0453757289 0.11297781,0.607416007 0.11297781,1.3005912 L0.11297781,30.891965 C0.11297781,31.5063889 0.648533473,32.004561 1.30909541,32.004561 C2.72323621,32.004561 3.98947064,32.81891 4.48914159,34.0495157 L10.5021911,48.8637771 C11.0016259,50.0943828 12.2680965,50.9087318 13.6821192,50.9087318 L27.3942092,50.9087318 L27.3942092,41.8931182 C27.3942092,39.6185895 29.3763672,37.7747318 31.8213671,37.7747318 C34.266485,37.7747318 36.248643,39.6185895 36.248643,41.8931182 L36.248643,50.9087318 L38.7519555,50.9087318 C39.4971534,50.9087318 40.1012914,50.3468087 40.1012914,49.6536335 L40.1012914,28.8439633 C40.1012914,28.4705979 39.922458,28.1165688 39.6135426,27.8780884 Z" id="Fill-6" fill="#727272" mask="url(#mask-4)"></path>
                </g>
            </g>
        </g>
    </g>
</svg>