<?xml version="1.0" encoding="UTF-8"?>
<svg width="98px" height="99px" viewBox="0 0 98 99" version="1.1" xmlns="http://www.w3.org/2000/svg" xmlns:xlink="http://www.w3.org/1999/xlink">
    <!-- Generator: Sketch 51 (57462) - http://www.bohemiancoding.com/sketch -->
    <title>资源服务icon_slice</title>
    <desc>Created with Sketch.</desc>
    <defs>
        <polygon id="path-1" points="0.0544199357 0.0548610932 7.99667395 0.0548610932 7.99667395 8.19292605 0.0544199357 8.19292605"></polygon>
        <polygon id="path-3" points="0 97.9697492 97.3830096 97.9697492 97.3830096 0 0 0"></polygon>
    </defs>
    <g id="Page-1" stroke="none" stroke-width="1" fill="none" fill-rule="evenodd">
        <g id="Artboard" transform="translate(-138.000000, -43.000000)">
            <g id="资源服务ICON" transform="translate(138.000000, 43.000000)">
                <path d="M55.1994138,57.9692846 L53.5165553,57.9692846 C53.5165553,51.6443457 51.1294203,45.6994325 46.7948897,41.2294035 C42.4672916,36.7664646 36.7155424,34.3085868 30.5985778,34.3085868 C24.4819283,34.3085868 18.7300215,36.7664646 14.4024235,41.2294035 C10.0680505,45.6994325 7.68091543,51.6443457 7.68091543,57.9692846 L5.99821447,57.9692846 C5.99821447,54.5514164 6.64750386,51.235172 7.92827878,48.1127219 C9.16556817,45.0953617 10.937446,42.3853939 13.194282,40.0579727 C15.4530087,37.7286608 18.0840408,35.89959 21.0141148,34.621336 C24.0500666,33.2972331 27.2747707,32.6257283 30.5985778,32.6257283 C33.9227,32.6257283 37.1474042,33.2972331 40.1831984,34.621336 C43.1134299,35.89959 45.7444621,37.7286608 48.0030312,40.0579727 C50.2600248,42.3853939 52.0319026,45.0953617 53.2693495,48.1127219 C54.5501244,51.235172 55.1994138,54.5514164 55.1994138,57.9692846" id="Fill-1" fill="#727272"></path>
                <path d="M48.3874212,57.9692846 L46.7045627,57.9692846 C46.7045627,53.5208408 45.0261158,49.3399277 41.9781897,46.1966801 C38.9373537,43.0606801 34.8958778,41.3333907 30.5986881,41.3333907 C26.3014984,41.3333907 22.2601801,43.0606801 19.2191865,46.1966801 C16.1712605,49.3399277 14.4928135,53.5208408 14.4928135,57.9692846 L12.809955,57.9692846 C12.809955,53.0811013 14.6569871,48.484082 18.011045,45.0252492 C21.3718778,41.5593264 25.8422219,39.6506897 30.5986881,39.6506897 C35.3551543,39.6506897 39.8254984,41.5593264 43.1863312,45.0252492 C46.5403891,48.484082 48.3874212,53.0811013 48.3874212,57.9692846" id="Fill-3" fill="#727272"></path>
                <path d="M4.13980675,58.7162746 C2.78498039,58.7162746 1.68271672,59.8183807 1.68271672,61.1732071 L1.68271672,78.8445608 C1.68271672,80.1993871 2.78498039,81.3014932 4.13980675,81.3014932 L14.2035559,81.3014932 C15.5583823,81.3014932 16.6604884,80.1993871 16.6604884,78.8445608 L16.6604884,61.1732071 C16.6604884,59.8183807 15.5583823,58.7162746 14.2035559,58.7162746 L4.13980675,58.7162746 Z M14.2035559,82.9843518 L4.13980675,82.9843518 C1.85713151,82.9843518 1.5755627e-05,81.127236 1.5755627e-05,78.8445608 L1.5755627e-05,61.1732071 C1.5755627e-05,58.8905318 1.85713151,57.0334161 4.13980675,57.0334161 L14.2035559,57.0334161 C16.4862312,57.0334161 18.3431894,58.8905318 18.3431894,61.1732071 L18.3431894,78.8445608 C18.3431894,81.127236 16.4862312,82.9843518 14.2035559,82.9843518 Z" id="Fill-5" fill="#727272"></path>
                <path d="M45.4741585,58.7162746 C44.1193322,58.7162746 43.017226,59.8183807 43.017226,61.1732071 L43.017226,78.8445608 C43.017226,80.1993871 44.1193322,81.3014932 45.4741585,81.3014932 L55.5379077,81.3014932 C56.8927341,81.3014932 57.9949977,80.1993871 57.9949977,78.8445608 L57.9949977,61.1732071 C57.9949977,59.8183807 56.8927341,58.7162746 55.5379077,58.7162746 L45.4741585,58.7162746 Z M55.5379077,82.9843518 L45.4741585,82.9843518 C43.1916408,82.9843518 41.3345251,81.127236 41.3345251,78.8445608 L41.3345251,61.1732071 C41.3345251,58.8905318 43.1916408,57.0334161 45.4741585,57.0334161 L55.5379077,57.0334161 C57.820583,57.0334161 59.6776987,58.8905318 59.6776987,61.1732071 L59.6776987,78.8445608 C59.6776987,81.127236 57.820583,82.9843518 55.5379077,82.9843518 Z" id="Fill-7" fill="#727272"></path>
                <path d="M41.1130482,94.7398929 L40.9895241,93.0616035 C44.8424051,92.7778447 47.4690257,90.8862241 48.7965949,87.4393656 C49.8147235,84.7952563 49.667881,82.2209444 49.6663055,82.1952627 L51.3458553,82.0904878 C51.353418,82.2103881 51.515701,85.0608961 50.3668006,88.0440666 C49.2795048,90.86779 46.7912186,94.321581 41.1130482,94.7398929" id="Fill-9" fill="#727272"></path>
                <path d="M37.9216199,93.9007167 C37.9216199,92.1181251 39.3229254,90.6731765 41.0513177,90.6731765 C42.7798675,90.6731765 44.181173,92.1181251 44.181173,93.9007167 C44.181173,95.6833084 42.7798675,97.1282569 41.0513177,97.1282569 C39.3229254,97.1282569 37.9216199,95.6833084 37.9216199,93.9007167" id="Fill-11" fill="#727272"></path>
                <g id="Group-15" transform="translate(37.025723, 89.776823)">
                    <mask id="mask-2" fill="white">
                        <use xlink:href="#path-1"></use>
                    </mask>
                    <g id="Clip-14"></g>
                    <path d="M4.02562572,1.73771961 C2.76375756,1.73771961 1.73727846,2.80815691 1.73727846,4.12390932 C1.73727846,5.43966174 2.76375756,6.51009904 4.02562572,6.51009904 C5.28749389,6.51009904 6.31381543,5.43966174 6.31381543,4.12390932 C6.31381543,2.80815691 5.28749389,1.73771961 4.02562572,1.73771961 M4.02562572,8.19295756 C1.83590868,8.19295756 0.0544199357,6.36751061 0.0544199357,4.12390932 C0.0544199357,1.88030804 1.83590868,0.0548610932 4.02562572,0.0548610932 C6.21518521,0.0548610932 7.99667395,1.88030804 7.99667395,4.12390932 C7.99667395,6.36751061 6.21518521,8.19295756 4.02562572,8.19295756" id="Fill-13" fill="#727272" mask="url(#mask-2)"></path>
                </g>
                <path d="M69.3319434,50.5530164 L55.2605929,50.5530164 L55.2605929,48.8701579 L69.2402457,48.8701579 L69.2402457,28.0623315 L48.4324193,28.0623315 L48.4324193,37.1927174 L46.7495608,37.1927174 L46.7495608,27.9706338 C46.7495608,27.0932029 47.4632907,26.379473 48.3407215,26.379473 L69.3319434,26.379473 C70.2093743,26.379473 70.9232617,27.0932029 70.9232617,27.9706338 L70.9232617,48.9618556 C70.9232617,49.8392865 70.2093743,50.5530164 69.3319434,50.5530164" id="Fill-16" fill="#727272"></path>
                <path d="M93.8859537,49.7116029 L75.1766193,49.7116029 C74.1367479,49.7116029 73.2859441,48.860799 73.2859441,47.8209277 L73.2859441,29.1115932 C73.2859441,28.0717219 74.1367479,27.220918 75.1766193,27.220918 L93.8859537,27.220918 C94.9259826,27.220918 95.7766289,28.0717219 95.7766289,29.1115932 L95.7766289,47.8209277 C95.7766289,48.860799 94.9259826,49.7116029 93.8859537,49.7116029" id="Fill-18" fill="#727272"></path>
                <mask id="mask-4" fill="white">
                    <use xlink:href="#path-3"></use>
                </mask>
                <g id="Clip-21"></g>
                <path d="M74.1273891,48.8701736 L94.9350579,48.8701736 L94.9350579,28.0623473 L74.1273891,28.0623473 L74.1273891,48.8701736 Z M94.9687749,50.5530322 L74.093672,50.5530322 C73.1844148,50.5530322 72.444373,49.8131479 72.444373,48.9038907 L72.444373,28.0286302 C72.444373,27.1192154 73.1844148,26.3794887 74.093672,26.3794887 L94.9687749,26.3794887 C95.8783473,26.3794887 96.618074,27.1192154 96.618074,28.0286302 L96.618074,48.9038907 C96.618074,49.8131479 95.8783473,50.5530322 94.9687749,50.5530322 Z" id="Fill-20" fill="#727272" mask="url(#mask-4)"></path>
                <path d="M68.1910469,24.0971601 L49.4817125,24.0971601 C48.4416836,24.0971601 47.5910373,23.2463563 47.5910373,22.2064849 L47.5910373,3.49715048 C47.5910373,2.4572791 48.4416836,1.60647524 49.4817125,1.60647524 L68.1910469,1.60647524 C69.2309183,1.60647524 70.0817222,2.4572791 70.0817222,3.49715048 L70.0817222,22.2064849 C70.0817222,23.2463563 69.2309183,24.0971601 68.1910469,24.0971601" id="Fill-22" fill="#727272" mask="url(#mask-4)"></path>
                <path d="M48.4323248,23.2557781 L69.2401511,23.2557781 L69.2401511,2.44795177 L48.4323248,2.44795177 L48.4323248,23.2557781 Z M69.2738682,24.9386367 L48.3986077,24.9386367 C47.4893505,24.9386367 46.7494662,24.1987524 46.7494662,23.2893376 L46.7494662,2.41423473 C46.7494662,1.50481994 47.4893505,0.765093248 48.3986077,0.765093248 L69.2738682,0.765093248 C70.1834405,0.765093248 70.9231672,1.50481994 70.9231672,2.41423473 L70.9231672,23.2893376 C70.9231672,24.1987524 70.1834405,24.9386367 69.2738682,24.9386367 Z" id="Fill-23" fill="#727272" mask="url(#mask-4)"></path>
                <path d="M84.5313495,1.68282701 C78.3726325,1.68282701 73.3621855,6.69327395 73.3621855,12.8518334 C73.3621855,19.0103929 78.3726325,24.0208399 84.5313495,24.0208399 C90.689909,24.0208399 95.7003559,19.0103929 95.7003559,12.8518334 C95.7003559,6.69327395 90.689909,1.68282701 84.5313495,1.68282701 M84.5313495,25.7035408 C77.4447836,25.7035408 71.6794846,19.9382418 71.6794846,12.8518334 C71.6794846,5.76526752 77.4447836,-3.1511254e-05 84.5313495,-3.1511254e-05 C91.6179154,-3.1511254e-05 97.3830569,5.76526752 97.3830569,12.8518334 C97.3830569,19.9382418 91.6179154,25.7035408 84.5313495,25.7035408" id="Fill-24" fill="#727272" mask="url(#mask-4)"></path>
                <polygon id="Fill-25" fill="#727272" mask="url(#mask-4)" points="0.841350482 74.2806913 13.6513055 74.2806913 13.6513055 72.5978328 0.841350482 72.5978328"></polygon>
                <polygon id="Fill-26" fill="#727272" mask="url(#mask-4)" points="0.841350482 64.6634566 13.6513055 64.6634566 13.6513055 62.9805981 0.841350482 62.9805981"></polygon>
                <polygon id="Fill-27" fill="#727272" mask="url(#mask-4)" points="46.026283 74.2806913 58.8362379 74.2806913 58.8362379 72.5978328 46.026283 72.5978328"></polygon>
                <polygon id="Fill-28" fill="#727272" mask="url(#mask-4)" points="46.026283 64.3051736 58.8362379 64.3051736 58.8362379 62.6223151 46.026283 62.6223151"></polygon>
                <polygon id="Fill-29" fill="#727272" mask="url(#mask-4)" points="0.841508039 69.472074 9.17182315 69.472074 9.17182315 67.7892154 0.841508039 67.7892154"></polygon>
                <polygon id="Fill-30" fill="#727272" mask="url(#mask-4)" points="50.5158489 69.472074 58.846164 69.472074 58.846164 67.7892154 50.5158489 67.7892154"></polygon>
            </g>
        </g>
    </g>
</svg>