<?xml version="1.0" encoding="UTF-8"?>
<svg width="80px" height="80px" viewBox="0 0 80 80" version="1.1" xmlns="http://www.w3.org/2000/svg" xmlns:xlink="http://www.w3.org/1999/xlink">
    <!-- Generator: Sketch 52.2 (67145) - http://www.bohemiancoding.com/sketch -->
    <title>产业导师_icon_slice</title>
    <desc>Created with Sketch.</desc>
    <defs>
        <polygon id="path-1" points="0.0301988002 0.0692365747 47.0116609 0.0692365747 47.0116609 31.5470885 0.0301988002 31.5470885"></polygon>
    </defs>
    <g id="Page-1" stroke="none" stroke-width="1" fill="none" fill-rule="evenodd">
        <g id="画板" transform="translate(-139.000000, -35.000000)">
            <g id="产业导师-icon" transform="translate(139.000000, 35.000000)">
                <polygon id="Fill-1" fill="#727272" points="0 34.6762961 0 79.4663106 1.36925492 79.4663106 1.36925492 35.436238 20.2046233 23.388865 29.5608534 29.9463106 29.5608534 47.7243077 30.9302234 47.7243077 30.9302234 29.2239884 20.2390331 21.7310421"></polygon>
                <polygon id="Fill-2" fill="#727272" points="19.5372583 79.466357 20.9063981 79.466357 20.9063981 22.5598839 19.5372583 22.5598839"></polygon>
                <polygon id="Fill-3" fill="#727272" points="24.1528488 50.3981074 24.1528488 79.4663222 25.5219887 79.4663222 25.5219887 51.1580493 44.357242 39.1106763 53.7135871 45.6681219 53.7135871 79.4663222 55.0829571 79.4663222 55.0829571 44.9457997 44.3917669 37.4528534"></polygon>
                <polygon id="Fill-4" fill="#727272" points="43.6899115 79.466357 45.0590513 79.466357 45.0590513 38.2816836 43.6899115 38.2816836"></polygon>
                <g id="Group-36" transform="translate(2.646904, 0.046909)">
                    <path d="M54.9682311,63.3341771 L54.8493506,61.9579216 C59.7899694,61.523553 64.3689981,59.2494165 67.7432252,55.5543222 C71.1371315,51.8375152 73.0061909,47.0054688 73.0061909,41.9481684 C73.0061909,39.0268331 72.3986689,36.2103454 71.200427,33.5770798 C70.1111685,31.183582 68.5924211,29.0618984 66.682162,27.2641626 L53.1005527,35.4091843 L52.7473636,35.2008824 L39.512959,27.2641626 C37.7242273,28.9475298 36.2738391,30.9230305 35.1995413,33.1410856 C34.0176412,35.5810276 33.3498158,38.1997794 33.2143634,40.9245399 C33.2089545,41.0325225 33.2044662,41.1402729 33.2007836,41.247791 L31.8323343,41.2001858 C31.8362471,41.0853527 31.8410805,40.9704035 31.8468347,40.8552221 C31.9916088,37.9429434 32.7058126,35.1434078 33.9693064,32.5345254 C35.1944777,30.0050624 36.877103,27.7711001 38.9703437,25.8945254 L39.3479303,25.55618 L39.7793756,25.8167315 L53.0975605,33.8038433 L66.4132136,25.8182409 L66.8408612,25.5569927 L67.2223606,25.8924354 C69.4509386,27.8899971 71.2071018,30.2809405 72.4448171,33.0007083 C73.7259186,35.8160348 74.3755609,38.8264267 74.3755609,41.9481684 C74.3755609,47.3532192 72.3777239,52.5176894 68.7501996,56.4902874 C65.1443108,60.4393149 60.2497251,62.869852 54.9682311,63.3341771" id="Fill-5" fill="#727272"></path>
                    <g id="Group-9" transform="translate(29.576274, 0.000000)">
                        <mask id="mask-2" fill="white">
                            <use xlink:href="#path-1"></use>
                        </mask>
                        <g id="Clip-8"></g>
                        <path d="M23.5213091,1.45222642 C23.1630564,1.45222642 22.8045735,1.55254572 22.4851037,1.75330044 L2.32386658,14.4167547 C1.73798014,14.7848244 1.39238655,15.42018 1.3994066,16.1164935 C1.40665682,16.8126909 1.7650246,17.4408476 2.35816124,17.7966096 L22.5195135,29.8875239 C23.1373929,30.2580319 23.9051101,30.258148 24.5231047,29.8875239 L43.0707661,18.7642729 L43.0707661,27.5160871 C43.0707661,27.7543454 43.2629544,27.9481335 43.4991043,27.9481335 L44.7301448,27.9481335 C44.9662946,27.9481335 45.1583678,27.7543454 45.1583678,27.5160871 L45.1583678,17.7166096 L45.1427165,17.4417765 L45.2823119,17.2441567 C45.5939561,16.8030537 45.7109953,16.2398026 45.6038532,15.6986125 C45.497862,15.1639245 45.1834558,14.708656 44.7187516,14.4167547 L24.5575144,1.75330044 C24.2380446,1.55254572 23.8795618,1.45222642 23.5213091,1.45222642 M23.5213091,31.5470885 C22.9328908,31.5470885 22.3445876,31.3897591 21.8199252,31.074984 L1.65868811,18.9841858 C0.651023286,18.3798316 0.042350463,17.3131263 0.0303818539,16.1306589 C0.018298162,14.9480755 0.605105257,13.8690624 1.60022606,13.2440406 L21.7614632,0.580586357 C22.8470391,-0.101213353 24.1955791,-0.101213353 25.28127,0.580586357 L45.4423921,13.2440406 C46.2315147,13.7395994 46.7656139,14.5151001 46.946524,15.4277271 C47.111898,16.2622119 46.9591831,17.1306009 46.5276227,17.846537 L46.5276227,27.5160871 C46.5276227,28.516029 45.7212377,29.3296139 44.7301448,29.3296139 L43.4991043,29.3296139 C42.5078963,29.3296139 41.7016263,28.516029 41.7016263,27.5160871 L41.7016263,21.1924877 L25.2226929,31.074984 C24.6981456,31.389643 24.1094972,31.5470885 23.5213091,31.5470885" id="Fill-7" fill="#727272" mask="url(#mask-2)"></path>
                    </g>
                    <path d="M5.42329902,39.3845341 L1.22530937,42.1073208 C0.708702776,42.4424151 0.0293691254,42.0681916 0.0293691254,41.4485109 L0.0293691254,37.5087721 C0.0293691254,37.242299 0.16367073,36.9940552 0.204179868,36.9678142 L4.40216952,34.2450276 C5.10037674,33.7921974 5.77982547,34.1664209 5.77982547,34.7859855 L5.77982547,38.7257242 C5.77982547,38.9921974 5.64552387,39.2404412 5.42329902,39.3845341" id="Fill-10" fill="#727272"></path>
                    <path d="M5.42329902,47.8859797 L1.22530937,50.6087663 C0.708702776,50.9438607 0.0293691254,50.5696372 0.0293691254,49.9499565 L0.0293691254,46.0102177 C0.0293691254,45.7437446 0.16367073,45.4956168 0.204179868,45.4692598 L4.40216952,42.7464731 C5.10037674,42.293643 5.77982547,42.6678665 5.77982547,43.2874311 L5.77982547,47.2271698 C5.77982547,47.493643 5.64552387,47.7418868 5.42329902,47.8859797" id="Fill-12" fill="#727272"></path>
                    <path d="M5.42329902,56.3874136 L1.22530937,59.1102003 C0.708702776,59.4452946 0.0293691254,59.0710711 0.0293691254,58.4513904 L0.0293691254,54.5116517 C0.0293691254,54.2451785 0.16367073,53.9970508 0.204179868,53.9706938 L4.40216952,51.2479071 C5.10037674,50.7950769 5.77982547,51.1693004 5.77982547,51.788865 L5.77982547,55.7286038 C5.77982547,55.9950769 5.64552387,56.2433208 5.42329902,56.3874136" id="Fill-14" fill="#727272"></path>
                    <path d="M5.42329902,64.8888476 L1.22530937,67.6116343 C0.708702776,67.9467286 0.0293691254,67.5725051 0.0293691254,66.9528244 L0.0293691254,63.0130856 C0.0293691254,62.7466125 0.16367073,62.4984848 0.204179868,62.4721277 L4.40216952,59.7493411 C5.10037674,59.2965109 5.77982547,59.6707344 5.77982547,60.290299 L5.77982547,64.2300377 C5.77982547,64.4965109 5.64552387,64.7447547 5.42329902,64.8888476" id="Fill-16" fill="#727272"></path>
                    <path d="M13.0367499,35.1338171 L8.83876029,37.8566038 C8.32215369,38.1916981 7.64282004,37.8174746 7.64282004,37.1977939 L7.64282004,33.2580552 C7.64282004,32.991582 7.77712165,32.7434543 7.81763078,32.7170972 L12.0156204,29.9943106 C12.7138277,29.5414804 13.3932764,29.9157039 13.3932764,30.5352685 L13.3932764,34.4750073 C13.3932764,34.7414804 13.2589748,34.9897242 13.0367499,35.1338171" id="Fill-18" fill="#727272"></path>
                    <path d="M13.0367499,43.6352511 L8.83876029,46.3580377 C8.32215369,46.6931321 7.64282004,46.3189086 7.64282004,45.6992279 L7.64282004,41.7594891 C7.64282004,41.493016 7.77712165,41.2448882 7.81763078,41.2185312 L12.0156204,38.4957446 C12.7138277,38.0429144 13.3932764,38.4171379 13.3932764,39.0367025 L13.3932764,42.9764412 C13.3932764,43.2429144 13.2589748,43.4911582 13.0367499,43.6352511" id="Fill-20" fill="#727272"></path>
                    <path d="M13.0367499,52.1366967 L8.83876029,54.8594833 C8.32215369,55.1945776 7.64282004,54.8203541 7.64282004,54.2006734 L7.64282004,50.2609347 C7.64282004,49.9944615 7.77712165,49.7462177 7.81763078,49.7199768 L12.0156204,46.9971901 C12.7138277,46.5442438 13.3932764,46.9185835 13.3932764,47.538148 L13.3932764,51.4778868 C13.3932764,51.7443599 13.2589748,51.9926038 13.0367499,52.1366967" id="Fill-22" fill="#727272"></path>
                    <path d="M13.0367499,60.6381422 L8.83876029,63.3609289 C8.32215369,63.6960232 7.64282004,63.3217997 7.64282004,62.702119 L7.64282004,58.7623803 C7.64282004,58.4959071 7.77712165,58.2476633 7.81763078,58.2214224 L12.0156204,55.4986357 C12.7138277,55.0458055 13.3932764,55.420029 13.3932764,56.0395936 L13.3932764,59.9793324 C13.3932764,60.2458055 13.2589748,60.4940493 13.0367499,60.6381422" id="Fill-24" fill="#727272"></path>
                    <path d="M30.1174397,56.2307228 L25.9194501,58.9535094 C25.4028435,59.2886038 24.7233947,58.9143803 24.7233947,58.2946996 L24.7233947,54.3549608 C24.7233947,54.0884877 24.8578114,53.8402438 24.8983206,53.8140029 L29.0963102,51.0912163 C29.7945174,50.6383861 30.4739662,51.0126096 30.4739662,51.6321742 L30.4739662,55.5719129 C30.4739662,55.8383861 30.3396646,56.0866299 30.1174397,56.2307228" id="Fill-26" fill="#727272"></path>
                    <path d="M30.1174397,64.7321567 L25.9194501,67.4549434 C25.4028435,67.7900377 24.7233947,67.4158142 24.7233947,66.7961335 L24.7233947,62.8563948 C24.7233947,62.5899216 24.8578114,62.3417939 24.8983206,62.3154369 L29.0963102,59.5926502 C29.7945174,59.13982 30.4739662,59.5140435 30.4739662,60.1336081 L30.4739662,64.0733469 C30.4739662,64.33982 30.3396646,64.5880639 30.1174397,64.7321567" id="Fill-28" fill="#727272"></path>
                    <path d="M30.1174397,73.2336023 L25.9194501,75.956389 C25.4028435,76.2914833 24.7233947,75.9172598 24.7233947,75.2975791 L24.7233947,71.3578403 C24.7233947,71.0913672 24.8578114,70.8432395 24.8983206,70.8168824 L29.0963102,68.0940958 C29.7945174,67.6412656 30.4739662,68.0154891 30.4739662,68.6350537 L30.4739662,72.5747925 C30.4739662,72.8412656 30.3396646,73.0895094 30.1174397,73.2336023" id="Fill-30" fill="#727272"></path>
                    <polygon id="Fill-32" fill="#727272" points="46.744197 23.7461597 34.8324388 16.399164 35.5465274 15.2205283 47.4582856 22.5675239"></polygon>
                    <polygon id="Fill-34" fill="#727272" points="52.6135338 27.390537 48.4341876 24.8127721 49.1483913 23.6341364 53.3276225 26.2119013"></polygon>
                </g>
            </g>
        </g>
    </g>
</svg>