<?xml version="1.0" encoding="UTF-8"?>
<svg width="97px" height="97px" viewBox="0 0 97 97" version="1.1" xmlns="http://www.w3.org/2000/svg" xmlns:xlink="http://www.w3.org/1999/xlink">
    <!-- Generator: Sketch 51 (57462) - http://www.bohemiancoding.com/sketch -->
    <title>品牌建设icon按下_slice</title>
    <desc>Created with Sketch.</desc>
    <defs>
        <polygon id="path-1" points="0.140592941 0.123481858 21.7402676 0.123481858 21.7402676 43.8388639 0.140592941 43.8388639"></polygon>
        <polygon id="path-3" points="0.1365275 0.0555103245 48.4602157 0.0555103245 48.4602157 62.1507041 0.1365275 62.1507041"></polygon>
    </defs>
    <g id="Page-1" stroke="none" stroke-width="1" fill="none" fill-rule="evenodd">
        <g id="Artboard" transform="translate(-139.000000, -44.000000)">
            <g id="品牌建设icon按下" transform="translate(139.000000, 44.000000)">
                <path d="M10.468026,42.4338804 C10.6229407,42.0726341 10.9612996,41.8392904 11.3300422,41.8392904 L21.6304437,41.8392904 C21.7011966,41.8392904 21.7492687,41.9131134 21.7223084,41.9804984 L13.3948584,62.8385028 C13.3795951,62.8769881 13.3432201,62.9020249 13.3029937,62.9020249 L1.84957603,62.9020249 C1.77939368,62.9020249 1.73046574,62.8279158 1.75856721,62.7618184 C1.7588525,62.7613892 1.75899515,62.76096 1.75928044,62.7605308 L10.468026,42.4338804 Z M47.512754,42.4338804 L56.2217849,62.7605308 C56.2220701,62.76096 56.2222128,62.7613892 56.2223554,62.7618184 C56.2505996,62.8279158 56.201529,62.9020249 56.1314893,62.9020249 L44.6780716,62.9020249 C44.6378451,62.9020249 44.6014701,62.8769881 44.5862069,62.8385028 L36.2587569,41.9804984 C36.2317966,41.9131134 36.2798687,41.8392904 36.350479,41.8392904 L46.6508804,41.8392904 C47.0197657,41.8392904 47.3581246,42.0726341 47.512754,42.4338804 Z M44.6388437,64.5938022 L55.486154,64.5938022 C55.5718849,64.5938022 55.6173893,64.6982417 55.5601878,64.764196 L31.9164378,92.0326414 C31.8396937,92.1210574 31.7027525,92.0267757 31.7529643,91.919904 L44.549404,64.6516016 C44.565951,64.6162639 44.6006143,64.5938022 44.6388437,64.5938022 Z M42.6830099,64.7405898 L29.0800437,93.7277093 C29.0438113,93.8048229 28.937254,93.8048229 28.9011643,93.7277093 L15.2980554,64.7405898 C15.2662451,64.6726326 15.3143172,64.5938022 15.3874951,64.5938022 L42.5935701,64.5938022 C42.6668907,64.5938022 42.7149628,64.6726326 42.6830099,64.7405898 Z M23.5982599,41.8392904 L34.3828054,41.8392904 C34.4313054,41.8392904 34.4719599,41.8753435 34.4805187,41.9245588 C34.490504,41.9826444 34.5066231,42.0405869 34.529304,42.0973848 L42.7790113,62.760817 C42.805829,62.8280588 42.7577569,62.9020249 42.687004,62.9020249 L15.2940613,62.9020249 C15.2233084,62.9020249 15.1752363,62.8280588 15.2021966,62.760817 L23.451904,42.0973848 C23.4745849,42.0405869 23.4905613,41.9826444 23.5005466,41.9245588 C23.5091054,41.8753435 23.5496172,41.8392904 23.5982599,41.8392904 Z M13.4316613,64.6516016 L26.2279584,91.9197609 C26.2781701,92.0266326 26.141229,92.1209143 26.0644849,92.0324984 L2.4208775,64.764196 C2.36367603,64.6982417 2.40918044,64.5938022 2.49491132,64.5938022 L13.3422216,64.5938022 C13.380451,64.5938022 13.4151143,64.6162639 13.4316613,64.6516016 Z M57.7248569,62.0775249 L49.015826,41.7508745 C48.5985834,40.7768686 47.6702363,40.1473701 46.6508804,40.1473701 L11.3300422,40.1473701 C10.310829,40.1473701 9.38262456,40.7767255 8.96523926,41.7508745 L0.256351029,62.0775249 C-0.219376912,63.1875883 -0.0222386765,64.4866444 0.758611324,65.3871134 L27.537601,96.2713125 C27.9084834,96.6990854 28.4381319,96.9444468 28.990604,96.9444468 C29.543076,96.9444468 30.0727246,96.6990854 30.4434643,96.2714556 L57.2225966,65.3871134 C58.0031613,64.4866444 58.2002996,63.1875883 57.7248569,62.0775249 Z" id="Fill-1" fill="#009FDE"></path>
                <g id="Group-5" transform="translate(75.175000, 17.827971)">
                    <mask id="mask-2" fill="white">
                        <use xlink:href="#path-1"></use>
                    </mask>
                    <g id="Clip-4"></g>
                    <path d="M21.7403532,43.8388639 L20.0431385,43.8388639 L20.0431385,17.8082414 C20.0431385,17.109355 19.6956503,16.4425158 19.0896856,15.9786898 L0.140592941,1.47661755 L1.17021941,0.123481858 L20.1193121,14.6255541 C21.1493665,15.414001 21.7403532,16.5739951 21.7403532,17.8082414 L21.7403532,43.8388639 Z" id="Fill-3" fill="#009FDE" mask="url(#mask-2)"></path>
                </g>
                <g id="Group-8" transform="translate(45.076471, 0.087558)">
                    <mask id="mask-4" fill="white">
                        <use xlink:href="#path-3"></use>
                    </mask>
                    <g id="Clip-7"></g>
                    <path d="M28.5551025,12.1247425 C28.5551025,13.0728531 27.7371643,13.8415566 26.7282216,13.8415566 L21.8685216,13.8415566 C20.8597216,13.8415566 20.0416407,13.0728531 20.0416407,12.1247425 L20.0416407,7.55787375 C20.0416407,6.60976313 20.8597216,5.84120265 21.8685216,5.84120265 L26.7282216,5.84120265 C27.7371643,5.84120265 28.5551025,6.60976313 28.5551025,7.55801681 L28.5551025,12.1247425 Z M28.5551025,25.4226127 C28.5551025,26.3707233 27.7371643,27.1394268 26.7282216,27.1394268 L21.8685216,27.1394268 C20.8597216,27.1394268 20.0416407,26.3707233 20.0416407,25.4226127 L20.0416407,20.855744 C20.0416407,19.9076333 20.8597216,19.1390729 21.8685216,19.1390729 L26.7282216,19.1390729 C27.7371643,19.1390729 28.5551025,19.9076333 28.5551025,20.855744 L28.5551025,25.4226127 Z M28.5551025,38.7204829 C28.5551025,39.6685935 27.7371643,40.437154 26.7282216,40.437154 L21.8685216,40.437154 C20.8597216,40.437154 20.0416407,39.6685935 20.0416407,38.7204829 L20.0416407,34.1536142 C20.0416407,33.2055035 20.8597216,32.4369431 21.8685216,32.4369431 L26.7282216,32.4369431 C27.7371643,32.4369431 28.5551025,33.2055035 28.5551025,34.1536142 L28.5551025,38.7204829 Z M14.6338907,12.1247425 C14.6338907,13.0728531 13.8160951,13.8415566 12.8071525,13.8415566 L7.9474525,13.8415566 C6.9386525,13.8415566 6.12071426,13.0728531 6.12071426,12.1247425 L6.12071426,7.55787375 C6.12071426,6.60976313 6.9386525,5.84120265 7.9474525,5.84120265 L12.8071525,5.84120265 C13.8160951,5.84120265 14.6338907,6.60976313 14.6338907,7.55801681 L14.6338907,12.1247425 Z M14.6338907,25.4226127 C14.6338907,26.3707233 13.8160951,27.1394268 12.8071525,27.1394268 L7.9474525,27.1394268 C6.9386525,27.1394268 6.12071426,26.3707233 6.12071426,25.4226127 L6.12071426,20.855744 C6.12071426,19.9076333 6.9386525,19.1390729 7.9474525,19.1390729 L12.8071525,19.1390729 C13.8160951,19.1390729 14.6338907,19.9076333 14.6338907,20.855744 L14.6338907,25.4226127 Z M14.6338907,38.7204829 C14.6338907,39.6685935 13.8160951,40.437154 12.8071525,40.437154 L7.9474525,40.437154 C6.9386525,40.437154 6.12071426,39.6685935 6.12071426,38.7204829 L6.12071426,34.1536142 C6.12071426,33.2055035 6.9386525,32.4369431 7.9474525,32.4369431 L12.8071525,32.4369431 C13.8160951,32.4369431 14.6338907,33.2055035 14.6338907,34.1536142 L14.6338907,38.7204829 Z M47.8707981,34.0342956 L32.5824569,22.112595 L32.5824569,1.58779558 C32.5824569,0.741549263 31.8523893,0.0553958702 30.952001,0.0553958702 L1.76712603,0.0553958702 C0.866595147,0.0553958702 0.1365275,0.741549263 0.1365275,1.58779558 L0.1365275,37.7137145 C0.1365275,38.4638192 0.783717206,39.0720006 1.58197015,39.0720006 C3.29088191,39.0720006 4.82105691,40.0661791 5.42488191,41.5685345 L12.6913231,59.6541702 C13.2948628,61.1565257 14.8253231,62.1507041 16.5340922,62.1507041 L33.1044025,62.1507041 L33.1044025,51.1442086 C33.1044025,48.3674047 35.4997319,46.1163752 38.4543804,46.1163752 C41.4091716,46.1163752 43.804501,48.3674047 43.804501,51.1442086 L43.804501,62.1507041 L46.8296172,62.1507041 C47.7301481,62.1507041 48.4602157,61.4646938 48.4602157,60.6184475 L48.4602157,35.2134608 C48.4602157,34.7576466 48.2441054,34.3254386 47.8707981,34.0342956 Z" id="Fill-6" fill="#009FDE" mask="url(#mask-4)"></path>
                </g>
            </g>
        </g>
    </g>
</svg>