<?xml version="1.0" encoding="UTF-8"?>
<svg width="98px" height="99px" viewBox="0 0 98 99" version="1.1" xmlns="http://www.w3.org/2000/svg" xmlns:xlink="http://www.w3.org/1999/xlink">
    <!-- Generator: Sketch 51 (57462) - http://www.bohemiancoding.com/sketch -->
    <title>研究院培训icon_slice</title>
    <desc>Created with Sketch.</desc>
    <defs>
        <polygon id="path-1" points="0 0.0592693759 36.5147147 0.0592693759 36.5147147 62.8678819 0 62.8678819"></polygon>
        <polygon id="path-3" points="0.0497396226 0.0598952104 12.0074464 0.0598952104 12.0074464 19.0595065 0.0497396226 19.0595065"></polygon>
        <polygon id="path-5" points="0 98.1533295 97.9303048 98.1533295 97.9303048 0 0 0"></polygon>
    </defs>
    <g id="Page-1" stroke="none" stroke-width="1" fill="none" fill-rule="evenodd">
        <g id="Artboard" transform="translate(-138.000000, -43.000000)">
            <g id="研究院培训icon" transform="translate(138.000000, 43.000000)">
                <g id="Group-3" transform="translate(0.000000, 35.285405)">
                    <mask id="mask-2" fill="white">
                        <use xlink:href="#path-1"></use>
                    </mask>
                    <g id="Clip-2"></g>
                    <path d="M5.41571611,1.75158287 C3.3625521,1.75158287 1.69228505,3.42199216 1.69228505,5.47501393 L1.69228505,57.4521373 C1.69228505,59.5053013 3.3625521,61.1755684 5.41571611,61.1755684 L31.0988279,61.1755684 C33.1519919,61.1755684 34.8224012,59.5053013 34.8224012,57.4521373 L34.8224012,5.47501393 C34.8224012,3.42199216 33.1519919,1.75158287 31.0988279,1.75158287 L5.41571611,1.75158287 Z M31.0988279,62.8678819 L5.41571611,62.8678819 C2.4294897,62.8678819 -2.84470247e-05,60.4383637 -2.84470247e-05,57.4521373 L-2.84470247e-05,5.47501393 C-2.84470247e-05,2.48878752 2.4294897,0.0592693759 5.41571611,0.0592693759 L31.0988279,0.0592693759 C34.0850543,0.0592693759 36.5147147,2.48878752 36.5147147,5.47501393 L36.5147147,57.4521373 C36.5147147,60.4383637 34.0850543,62.8678819 31.0988279,62.8678819 Z" id="Fill-1" fill="#727272" mask="url(#mask-2)"></path>
                </g>
                <g id="Group-6" transform="translate(12.801161, 79.093823)">
                    <mask id="mask-4" fill="white">
                        <use xlink:href="#path-3"></use>
                    </mask>
                    <g id="Clip-5"></g>
                    <path d="M1.74205312,17.3672073 L10.3149907,17.3672073 L10.3149907,2.82480377 C10.3149907,2.23339013 9.83395152,1.75220871 9.24239565,1.75220871 L2.81464819,1.75220871 C2.22323454,1.75220871 1.74205312,2.23339013 1.74205312,2.82480377 L1.74205312,17.3672073 Z M12.0074464,19.0595208 L0.0497396226,19.0595208 L0.0497396226,2.82480377 C0.0497396226,1.30018549 1.2900299,0.0598952104 2.81464819,0.0598952104 L9.24239565,0.0598952104 C10.7670139,0.0598952104 12.0074464,1.30018549 12.0074464,2.82480377 L12.0074464,19.0595208 Z" id="Fill-4" fill="#727272" mask="url(#mask-4)"></path>
                </g>
                <path d="M53.1028148,98.1533295 L41.071288,98.1533295 L41.071288,96.461016 L53.1028148,96.461016 C54.7409367,96.461016 56.0735376,95.1284151 56.0735376,93.4902932 L56.0735376,54.6837155 C56.0735376,53.0455936 54.7409367,51.7129927 53.1028148,51.7129927 L35.6684868,51.7129927 L35.6684868,50.0206792 L53.1028148,50.0206792 C55.6739991,50.0206792 57.7658511,52.1125312 57.7658511,54.6837155 L57.7658511,93.4902932 C57.7658511,96.0614775 55.6739991,98.1533295 53.1028148,98.1533295" id="Fill-7" fill="#727272"></path>
                <mask id="mask-6" fill="white">
                    <use xlink:href="#path-5"></use>
                </mask>
                <g id="Clip-10"></g>
                <polygon id="Fill-9" fill="#727272" mask="url(#mask-6)" points="13.6969579 46.1902874 23.9623512 46.1902874 23.9623512 44.4979739 13.6969579 44.4979739"></polygon>
                <polygon id="Fill-11" fill="#727272" mask="url(#mask-6)" points="13.6969579 53.4156894 23.9623512 53.4156894 23.9623512 51.7233759 13.6969579 51.7233759"></polygon>
                <polygon id="Fill-12" fill="#727272" mask="url(#mask-6)" points="41.1614224 60.2517939 51.4268157 60.2517939 51.4268157 58.5594804 41.1614224 58.5594804"></polygon>
                <polygon id="Fill-13" fill="#727272" mask="url(#mask-6)" points="41.1614224 67.4771959 51.4268157 67.4771959 51.4268157 65.7848824 41.1614224 65.7848824"></polygon>
                <polygon id="Fill-14" fill="#727272" mask="url(#mask-6)" points="41.1614224 74.702598 51.4268157 74.702598 51.4268157 73.0102845 41.1614224 73.0102845"></polygon>
                <path d="M72.6002775,23.9904711 C69.4183356,23.9904711 66.8296563,26.5791504 66.8296563,29.7609501 C66.8296563,32.942892 69.4183356,35.5315713 72.6002775,35.5315713 C75.7820772,35.5315713 78.3707565,32.942892 78.3707565,29.7609501 C78.3707565,26.5791504 75.7820772,23.9904711 72.6002775,23.9904711 M72.6002775,37.2238848 C68.4851309,37.2238848 65.1373428,33.8760967 65.1373428,29.7609501 C65.1373428,25.6459457 68.4851309,22.2981576 72.6002775,22.2981576 C76.7152819,22.2981576 80.06307,25.6459457 80.06307,29.7609501 C80.06307,33.8760967 76.7152819,37.2238848 72.6002775,37.2238848" id="Fill-15" fill="#727272" mask="url(#mask-6)"></path>
                <path d="M76.8719254,36.1787126 C75.719252,37.1543033 74.2286279,37.74273 72.6003202,37.74273 C70.9720125,37.74273 69.4812462,37.1543033 68.3285727,36.1787126 C65.617429,36.9891684 63.641072,39.5020363 63.641072,42.4767417 L63.641072,48.9555515 C63.641072,52.5858186 66.5839167,55.5286633 70.2140415,55.5286633 L74.9863144,55.5286633 C78.6165814,55.5286633 81.5594261,52.5858186 81.5594261,48.9555515 L81.5594261,42.4767417 C81.5594261,39.5020363 79.5830691,36.9891684 76.8719254,36.1787126" id="Fill-16" fill="#727272" mask="url(#mask-6)"></path>
                <polygon id="Fill-17" fill="#727272" mask="url(#mask-6)" points="62.0786334 51.4717335 49.7097248 35.6597393 51.0426102 34.6170136 63.4115187 50.4290078"></polygon>
                <path d="M88.5540943,53.3419974 L83.5902308,53.3419974 L83.5902308,51.6496839 L88.5540943,51.6496839 C92.7909942,51.6496839 96.2379202,48.2027579 96.2379202,43.9658581 L96.2379202,9.37612511 C96.2379202,5.13922525 92.7909942,1.69229927 88.5540943,1.69229927 L41.6392612,1.69229927 C37.4023614,1.69229927 33.9555776,5.13922525 33.9555776,9.37612511 L33.9555776,33.4730308 L32.2631219,33.4730308 L32.2631219,9.37612511 C32.2631219,4.20616284 36.469299,-1.42235123e-05 41.6392612,-1.42235123e-05 L88.5540943,-1.42235123e-05 C93.7241988,-1.42235123e-05 97.9302337,4.20616284 97.9302337,9.37612511 L97.9302337,43.9658581 C97.9302337,49.1358203 93.7241988,53.3419974 88.5540943,53.3419974" id="Fill-18" fill="#727272" mask="url(#mask-6)"></path>
                <polygon id="Fill-19" fill="#727272" mask="url(#mask-6)" points="39.5568679 22.5971785 41.2490392 22.5971785 41.2490392 13.2557446 39.5568679 13.2557446"></polygon>
                <polygon id="Fill-20" fill="#727272" mask="url(#mask-6)" points="45.4479623 22.5971785 47.1401335 22.5971785 47.1401335 13.2557446 45.4479623 13.2557446"></polygon>
                <polygon id="Fill-21" fill="#727272" mask="url(#mask-6)" points="51.1321045 22.5971785 52.8242758 22.5971785 52.8242758 13.2557446 51.1321045 13.2557446"></polygon>
                <path d="M69.3184581,62.6741861 L67.6262868,62.6741861 C67.6262868,61.5419945 67.3012795,60.4868943 66.711146,59.7030366 C66.1749196,58.9908653 65.4846525,58.5987231 64.7672186,58.5987231 C64.0496424,58.5987231 63.3593753,58.9908653 62.8231489,59.7030366 C62.2331576,60.4868943 61.9080081,61.5419945 61.9080081,62.6741861 L60.2158369,62.6741861 C60.2158369,61.1771614 60.6616017,59.7604996 61.4712041,58.685202 C62.3347135,57.538218 63.5053086,56.9064096 64.7672186,56.9064096 C66.0291286,56.9064096 67.1997237,57.538218 68.0630909,58.685202 C68.8726932,59.7604996 69.3184581,61.1771614 69.3184581,62.6741861" id="Fill-22" fill="#727272" mask="url(#mask-6)"></path>
                <path d="M79.6660633,62.6741861 L77.973892,62.6741861 C77.973892,61.5419945 77.6487425,60.4868943 77.0587512,59.7030366 C76.5225248,58.9908653 75.8322578,58.5987231 75.1146816,58.5987231 C74.3972476,58.5987231 73.7069806,58.9908653 73.1707541,59.7030366 C72.5807628,60.4868943 72.2556134,61.5419945 72.2556134,62.6741861 L70.5634421,62.6741861 C70.5634421,61.1771614 71.009207,59.7604996 71.8188093,58.685202 C72.6823187,57.538218 73.8529138,56.9064096 75.1146816,56.9064096 C76.3765916,56.9064096 77.5473289,57.538218 78.4106961,58.685202 C79.2201562,59.7604996 79.6660633,61.1771614 79.6660633,62.6741861" id="Fill-23" fill="#727272" mask="url(#mask-6)"></path>
                <path d="M89.98131,62.6741861 L88.2889965,62.6741861 C88.2889965,61.5419945 87.9639893,60.4868943 87.3738557,59.7030366 C86.8377716,58.9908653 86.1475045,58.5987231 85.4299283,58.5987231 C84.7124943,58.5987231 84.0222273,58.9908653 83.4860009,59.7030366 C82.8960096,60.4868943 82.5708601,61.5419945 82.5708601,62.6741861 L80.8786888,62.6741861 C80.8786888,61.1771614 81.3244537,59.7604996 82.134056,58.685202 C82.9975655,57.538218 84.1681605,56.9064096 85.4299283,56.9064096 C86.6918383,56.9064096 87.8624334,57.538218 88.7259428,58.685202 C89.5354029,59.7604996 89.98131,61.1771614 89.98131,62.6741861" id="Fill-24" fill="#727272" mask="url(#mask-6)"></path>
            </g>
        </g>
    </g>
</svg>