<?xml version="1.0" encoding="UTF-8"?>
<svg width="97px" height="97px" viewBox="0 0 97 97" version="1.1" xmlns="http://www.w3.org/2000/svg" xmlns:xlink="http://www.w3.org/1999/xlink">
    <!-- Generator: Sketch 51 (57462) - http://www.bohemiancoding.com/sketch -->
    <title>品牌建设icon_slice</title>
    <desc>Created with Sketch.</desc>
    <defs>
        <polygon id="path-1" points="0.140438835 0.122983725 21.7164379 0.122983725 21.7164379 43.662015 0.140438835 43.662015"></polygon>
        <polygon id="path-3" points="0.136985595 0.055131745 48.6228158 0.055131745 48.6228158 61.7268373 0.136985595 61.7268373"></polygon>
    </defs>
    <g id="Page-1" stroke="none" stroke-width="1" fill="none" fill-rule="evenodd">
        <g id="Artboard" transform="translate(-139.000000, -44.000000)">
            <g id="品牌建设icon" transform="translate(139.000000, 44.000000)">
                <path d="M10.4714504,42.2946795 C10.6264159,41.9321426 10.9648856,41.6979652 11.3337491,41.6979652 L21.6375264,41.6979652 C21.7083025,41.6979652 21.7563904,41.772052 21.7294212,41.8396777 L13.399242,62.7722031 C13.3839738,62.8108259 13.3475869,62.8359522 13.3073472,62.8359522 L1.85017587,62.8359522 C1.77997051,62.8359522 1.73102653,62.7615783 1.75913722,62.6952448 C1.7594226,62.694814 1.7595653,62.6943833 1.75985068,62.6939526 L10.4714504,42.2946795 Z M47.5283193,42.2946795 L56.2402044,62.6939526 C56.2404898,62.6943833 56.2406325,62.694814 56.2407752,62.6952448 C56.2690285,62.7615783 56.2199419,62.8359522 56.1498792,62.8359522 L44.6927079,62.8359522 C44.6524682,62.8359522 44.6160813,62.8108259 44.6008131,62.7722031 L36.2706339,41.8396777 C36.2436647,41.772052 36.2917525,41.6979652 36.362386,41.6979652 L46.6661633,41.6979652 C47.0351695,41.6979652 47.3736392,41.9321426 47.5283193,42.2946795 Z M44.6534671,64.5337738 L55.5043324,64.5337738 C55.5900914,64.5337738 55.6356107,64.6385865 55.5783905,64.7047764 L31.9268916,92.0706459 C31.8501223,92.1593777 31.7131363,92.0647592 31.7633645,91.9575057 L44.5639981,64.5917797 C44.5805505,64.5563157 44.6152251,64.5337738 44.6534671,64.5337738 Z M42.6969923,64.6810859 L29.0895679,93.7717699 C29.0533237,93.8491589 28.9467314,93.8491589 28.9106299,93.7717699 L15.3030628,64.6810859 C15.2712421,64.6128858 15.3193299,64.5337738 15.3925318,64.5337738 L42.6075232,64.5337738 C42.6808679,64.5337738 42.7289557,64.6128858 42.6969923,64.6810859 Z M23.6059875,41.6979652 L34.3940676,41.6979652 C34.4425835,41.6979652 34.4832512,41.7341471 34.4918128,41.7835383 C34.5018014,41.8418314 34.5179258,41.8999809 34.5406141,41.9569817 L42.7930252,62.6942397 C42.8198516,62.7617218 42.7717638,62.8359522 42.7009877,62.8359522 L15.2990674,62.8359522 C15.2282913,62.8359522 15.1802035,62.7617218 15.2071726,62.6942397 L23.4595837,41.9569817 C23.482272,41.8999809 23.4982537,41.8418314 23.5082422,41.7835383 C23.5168039,41.7341471 23.5573289,41.6979652 23.6059875,41.6979652 Z M13.436057,64.5917797 L26.2365479,91.9573621 C26.2867761,92.0646156 26.14979,92.1592341 26.0730208,92.0705023 L2.42166457,64.7047764 C2.36444435,64.6385865 2.40996368,64.5337738 2.49572266,64.5337738 L13.346588,64.5337738 C13.3848299,64.5337738 13.4195045,64.5563157 13.436057,64.5917797 Z M57.7437691,62.0085064 L49.0318839,41.6092334 C48.6145045,40.6317476 47.6858532,40 46.6661633,40 L11.3337491,40 C10.3142019,40 9.38569324,40.631604 8.96817116,41.6092334 L0.256428709,62.0085064 C-0.219455145,63.1225359 -0.0222523007,64.4262331 0.758853612,65.3299193 L27.5466197,96.3244608 C27.9176237,96.753762 28.4474458,97 29.0000989,97 C29.552752,97 30.0825741,96.753762 30.4534353,96.3246044 L57.2413442,65.3299193 C58.0221647,64.4262331 58.2193675,63.1225359 57.7437691,62.0085064 Z" id="Fill-1" fill="#727272"></path>
                <g id="Group-5" transform="translate(75.000000, 18.000000)">
                    <mask id="mask-2" fill="white">
                        <use xlink:href="#path-1"></use>
                    </mask>
                    <g id="Clip-4"></g>
                    <path d="M21.7165234,43.662015 L20.021169,43.662015 L20.021169,17.7364018 C20.021169,17.0403348 19.6740616,16.3761856 19.0687611,15.9142307 L0.140438835,1.47066078 L1.16893672,0.122983725 L20.097259,14.5665537 C21.1261844,15.3518199 21.7165234,16.5071346 21.7165234,17.7364018 L21.7165234,43.662015 Z" id="Fill-3" fill="#727272" mask="url(#mask-2)"></path>
                </g>
                <g id="Group-8" transform="translate(45.000000, 0.000000)">
                    <mask id="mask-4" fill="white">
                        <use xlink:href="#path-3"></use>
                    </mask>
                    <g id="Clip-7"></g>
                    <path d="M28.6509143,12.0420519 C28.6509143,12.9836964 27.8302316,13.7471574 26.8179036,13.7471574 L21.9418977,13.7471574 C20.9297129,13.7471574 20.1088871,12.9836964 20.1088871,12.0420519 L20.1088871,7.50632917 C20.1088871,6.56468465 20.9297129,5.80136575 21.9418977,5.80136575 L26.8179036,5.80136575 C27.8302316,5.80136575 28.6509143,6.56468465 28.6509143,7.50647126 L28.6509143,12.0420519 Z M28.6509143,25.2492309 C28.6509143,26.1908754 27.8302316,26.9543364 26.8179036,26.9543364 L21.9418977,26.9543364 C20.9297129,26.9543364 20.1088871,26.1908754 20.1088871,25.2492309 L20.1088871,20.7135081 C20.1088871,19.7718636 20.9297129,19.0085447 21.9418977,19.0085447 L26.8179036,19.0085447 C27.8302316,19.0085447 28.6509143,19.7718636 28.6509143,20.7135081 L28.6509143,25.2492309 Z M28.6509143,38.4564098 C28.6509143,39.3980543 27.8302316,40.1613732 26.8179036,40.1613732 L21.9418977,40.1613732 C20.9297129,40.1613732 20.1088871,39.3980543 20.1088871,38.4564098 L20.1088871,33.9206871 C20.1088871,32.9790425 20.9297129,32.2157236 21.9418977,32.2157236 L26.8179036,32.2157236 C27.8302316,32.2157236 28.6509143,32.9790425 28.6509143,33.9206871 L28.6509143,38.4564098 Z M14.6829923,12.0420519 C14.6829923,12.9836964 13.8624527,13.7471574 12.8501247,13.7471574 L7.97411883,13.7471574 C6.96193397,13.7471574 6.14125128,12.9836964 6.14125128,12.0420519 L6.14125128,7.50632917 C6.14125128,6.56468465 6.96193397,5.80136575 7.97411883,5.80136575 L12.8501247,5.80136575 C13.8624527,5.80136575 14.6829923,6.56468465 14.6829923,7.50647126 L14.6829923,12.0420519 Z M14.6829923,25.2492309 C14.6829923,26.1908754 13.8624527,26.9543364 12.8501247,26.9543364 L7.97411883,26.9543364 C6.96193397,26.9543364 6.14125128,26.1908754 6.14125128,25.2492309 L6.14125128,20.7135081 C6.14125128,19.7718636 6.96193397,19.0085447 7.97411883,19.0085447 L12.8501247,19.0085447 C13.8624527,19.0085447 14.6829923,19.7718636 14.6829923,20.7135081 L14.6829923,25.2492309 Z M14.6829923,38.4564098 C14.6829923,39.3980543 13.8624527,40.1613732 12.8501247,40.1613732 L7.97411883,40.1613732 C6.96193397,40.1613732 6.14125128,39.3980543 6.14125128,38.4564098 L6.14125128,33.9206871 C6.14125128,32.9790425 6.96193397,32.2157236 7.97411883,32.2157236 L12.8501247,32.2157236 C13.8624527,32.2157236 14.6829923,32.9790425 14.6829923,33.9206871 L14.6829923,38.4564098 Z M48.0314204,33.8021822 L32.6917818,21.9617874 L32.6917818,1.57696683 C32.6917818,0.736491908 31.9592646,0.0550180713 31.0558552,0.0550180713 L1.77305532,0.0550180713 C0.86950286,0.0550180713 0.136985595,0.736491908 0.136985595,1.57696683 L0.136985595,37.4565075 C0.136985595,38.2014965 0.786346836,38.8055302 1.58727818,38.8055302 C3.30192391,38.8055302 4.83723315,39.7929284 5.44308418,41.2850378 L12.7339067,59.2473297 C13.3394715,60.7394391 14.8750669,61.7268373 16.5895696,61.7268373 L33.2154787,61.7268373 L33.2154787,50.7954059 C33.2154787,48.0375398 35.6188452,45.8018623 38.5834076,45.8018623 C41.5481131,45.8018623 43.9514796,48.0375398 43.9514796,50.7954059 L43.9514796,61.7268373 L46.986746,61.7268373 C47.8902985,61.7268373 48.6228158,61.0455056 48.6228158,60.2050306 L48.6228158,34.9733055 C48.6228158,34.5206 48.4059804,34.0913397 48.0314204,33.8021822 Z" id="Fill-6" fill="#727272" mask="url(#mask-4)"></path>
                </g>
            </g>
        </g>
    </g>
</svg>