<?xml version="1.0" encoding="UTF-8"?>
<svg width="80px" height="80px" viewBox="0 0 80 80" version="1.1" xmlns="http://www.w3.org/2000/svg" xmlns:xlink="http://www.w3.org/1999/xlink">
    <!-- Generator: Sketch 52.2 (67145) - http://www.bohemiancoding.com/sketch -->
    <title>品牌建设icon按下_slice</title>
    <desc>Created with Sketch.</desc>
    <defs>
        <polygon id="path-1" points="0.115952941 0.101840708 17.9301176 0.101840708 17.9301176 36.155764 0.115952941 36.155764"></polygon>
        <polygon id="path-3" points="0.1126 0.0457817109 39.9671882 0.0457817109 39.9671882 51.2583127 0.1126 51.2583127"></polygon>
    </defs>
    <g id="Page-1" stroke="none" stroke-width="1" fill="none" fill-rule="evenodd">
        <g id="画板" transform="translate(-139.000000, -35.000000)">
            <g id="品牌建设icon按下" transform="translate(139.000000, 35.000000)">
                <path d="M8.63342353,34.9970147 C8.76118824,34.6990796 9.04024706,34.5066313 9.34436471,34.5066313 L17.8395412,34.5066313 C17.8978941,34.5066313 17.9375412,34.5675162 17.9153059,34.6230914 L11.0473059,51.8255693 C11.0347176,51.8573097 11.0047176,51.8779587 10.9715412,51.8779587 L1.52542353,51.8779587 C1.46754118,51.8779587 1.42718824,51.8168378 1.45036471,51.7623245 C1.4506,51.7619705 1.45071765,51.7616165 1.45095294,51.7612625 L8.63342353,34.9970147 Z M39.1857765,34.9970147 L46.3684824,51.7612625 C46.3687176,51.7616165 46.3688353,51.7619705 46.3689529,51.7623245 C46.3922471,51.8168378 46.3517765,51.8779587 46.2940118,51.8779587 L36.8478941,51.8779587 C36.8147176,51.8779587 36.7847176,51.8573097 36.7721294,51.8255693 L29.9041294,34.6230914 C29.8818941,34.5675162 29.9215412,34.5066313 29.9797765,34.5066313 L38.4749529,34.5066313 C38.7791882,34.5066313 39.0582471,34.6990796 39.1857765,34.9970147 Z M36.8155412,53.2732389 L45.7617765,53.2732389 C45.8324824,53.2732389 45.8700118,53.3593746 45.8228353,53.4137699 L26.3228353,75.9032094 C26.2595412,75.9761298 26.1466,75.8983717 26.1880118,75.8102301 L36.7417765,53.3209086 C36.7554235,53.291764 36.7840118,53.2732389 36.8155412,53.2732389 Z M35.2024824,53.3943009 L23.9835412,77.3012035 C23.9536588,77.3648024 23.8657765,77.3648024 23.8360118,77.3012035 L12.6169529,53.3943009 C12.5907176,53.3382537 12.6303647,53.2732389 12.6907176,53.2732389 L35.1287176,53.2732389 C35.1891882,53.2732389 35.2288353,53.3382537 35.2024824,53.3943009 Z M19.4624824,34.5066313 L28.3569529,34.5066313 C28.3969529,34.5066313 28.4304824,34.5363658 28.4375412,34.5769558 C28.4457765,34.6248614 28.4590706,34.672649 28.4777765,34.7194926 L35.2816588,51.7614985 C35.3037765,51.8169558 35.2641294,51.8779587 35.2057765,51.8779587 L12.6136588,51.8779587 C12.5553059,51.8779587 12.5156588,51.8169558 12.5378941,51.7614985 L19.3417765,34.7194926 C19.3604824,34.672649 19.3736588,34.6248614 19.3818941,34.5769558 C19.3889529,34.5363658 19.4223647,34.5066313 19.4624824,34.5066313 Z M11.0776588,53.3209086 L21.6313059,75.8101121 C21.6727176,75.8982537 21.5597765,75.9760118 21.4964824,75.9030914 L1.9966,53.4137699 C1.94942353,53.3593746 1.98695294,53.2732389 2.05765882,53.2732389 L11.0038941,53.2732389 C11.0354235,53.2732389 11.0640118,53.291764 11.0776588,53.3209086 Z M47.6081294,51.1979587 L40.4254235,34.4337109 C40.0813059,33.6304071 39.3156588,33.111233 38.4749529,33.111233 L9.34436471,33.111233 C8.50377647,33.111233 7.73824706,33.6302891 7.39401176,34.4337109 L0.211423529,51.1979587 C-0.180929412,52.1134749 -0.0183411765,53.1848614 0.625658824,53.9275162 L22.7114235,79.3990206 C23.0173059,79.751823 23.4541294,79.9541829 23.9097765,79.9541829 C24.3654235,79.9541829 24.8022471,79.751823 25.1080118,79.3991386 L47.1938941,53.9275162 C47.8376588,53.1848614 48.0002471,52.1134749 47.6081294,51.1979587 Z" id="Fill-1" fill="#009FDE"></path>
                <g id="Group-5" transform="translate(62.000000, 14.703481)">
                    <mask id="mask-2" fill="white">
                        <use xlink:href="#path-1"></use>
                    </mask>
                    <g id="Clip-4"></g>
                    <path d="M17.9301882,36.155764 L16.5304235,36.155764 L16.5304235,14.6872094 C16.5304235,14.1108083 16.2438353,13.5608378 15.7440706,13.1783009 L0.115952941,1.21782891 L0.965129412,0.101840708 L16.5932471,12.0623127 C17.4427765,12.7125782 17.9301882,13.6692743 17.9301882,14.6872094 L17.9301882,36.155764 Z" id="Fill-3" fill="#009FDE" mask="url(#mask-2)"></path>
                </g>
                <g id="Group-8" transform="translate(37.176471, 0.072212)">
                    <mask id="mask-4" fill="white">
                        <use xlink:href="#path-3"></use>
                    </mask>
                    <g id="Clip-7"></g>
                    <path d="M23.5506,9.99978761 C23.5506,10.7817345 22.8760118,11.4157168 22.0438941,11.4157168 L18.0358941,11.4157168 C17.2038941,11.4157168 16.5291882,10.7817345 16.5291882,9.99978761 L16.5291882,6.23329794 C16.5291882,5.45135103 17.2038941,4.81748673 18.0358941,4.81748673 L22.0438941,4.81748673 C22.8760118,4.81748673 23.5506,5.45135103 23.5506,6.23341593 L23.5506,9.99978761 Z M23.5506,20.9671032 C23.5506,21.7490501 22.8760118,22.3830324 22.0438941,22.3830324 L18.0358941,22.3830324 C17.2038941,22.3830324 16.5291882,21.7490501 16.5291882,20.9671032 L16.5291882,17.2006136 C16.5291882,16.4186667 17.2038941,15.7848024 18.0358941,15.7848024 L22.0438941,15.7848024 C22.8760118,15.7848024 23.5506,16.4186667 23.5506,17.2006136 L23.5506,20.9671032 Z M23.5506,31.9344189 C23.5506,32.7163658 22.8760118,33.3502301 22.0438941,33.3502301 L18.0358941,33.3502301 C17.2038941,33.3502301 16.5291882,32.7163658 16.5291882,31.9344189 L16.5291882,28.1679292 C16.5291882,27.3859823 17.2038941,26.752118 18.0358941,26.752118 L22.0438941,26.752118 C22.8760118,26.752118 23.5506,27.3859823 23.5506,28.1679292 L23.5506,31.9344189 Z M12.0691882,9.99978761 C12.0691882,10.7817345 11.3947176,11.4157168 10.5626,11.4157168 L6.5546,11.4157168 C5.7226,11.4157168 5.04801176,10.7817345 5.04801176,9.99978761 L5.04801176,6.23329794 C5.04801176,5.45135103 5.7226,4.81748673 6.5546,4.81748673 L10.5626,4.81748673 C11.3947176,4.81748673 12.0691882,5.45135103 12.0691882,6.23341593 L12.0691882,9.99978761 Z M12.0691882,20.9671032 C12.0691882,21.7490501 11.3947176,22.3830324 10.5626,22.3830324 L6.5546,22.3830324 C5.7226,22.3830324 5.04801176,21.7490501 5.04801176,20.9671032 L5.04801176,17.2006136 C5.04801176,16.4186667 5.7226,15.7848024 6.5546,15.7848024 L10.5626,15.7848024 C11.3947176,15.7848024 12.0691882,16.4186667 12.0691882,17.2006136 L12.0691882,20.9671032 Z M12.0691882,31.9344189 C12.0691882,32.7163658 11.3947176,33.3502301 10.5626,33.3502301 L6.5546,33.3502301 C5.7226,33.3502301 5.04801176,32.7163658 5.04801176,31.9344189 L5.04801176,28.1679292 C5.04801176,27.3859823 5.7226,26.752118 6.5546,26.752118 L10.5626,26.752118 C11.3947176,26.752118 12.0691882,27.3859823 12.0691882,28.1679292 L12.0691882,31.9344189 Z M39.4810706,28.0695221 L26.8721294,18.2371917 L26.8721294,1.30952212 C26.8721294,0.611587021 26.2700118,0.0456873156 25.5274235,0.0456873156 L1.45742353,0.0456873156 C0.714717647,0.0456873156 0.1126,0.611587021 0.1126,1.30952212 L0.1126,31.1040944 C0.1126,31.7227375 0.646364706,32.2243304 1.30471765,32.2243304 C2.71412941,32.2243304 3.97612941,33.0442714 4.47412941,34.2833274 L10.4670706,49.1993156 C10.9648353,50.4383717 12.2270706,51.2583127 13.6363647,51.2583127 L27.3026,51.2583127 L27.3026,42.1807906 C27.3026,39.8906431 29.2781294,38.0341239 31.7149529,38.0341239 C34.1518941,38.0341239 36.1274235,39.8906431 36.1274235,42.1807906 L36.1274235,51.2583127 L38.6223647,51.2583127 C39.3650706,51.2583127 39.9671882,50.692531 39.9671882,49.9945959 L39.9671882,29.0420295 C39.9671882,28.6661003 39.7889529,28.3096401 39.4810706,28.0695221 Z" id="Fill-6" fill="#009FDE" mask="url(#mask-4)"></path>
                </g>
            </g>
        </g>
    </g>
</svg>