<?xml version="1.0" encoding="UTF-8"?>
<svg width="96px" height="97px" viewBox="0 0 96 97" version="1.1" xmlns="http://www.w3.org/2000/svg" xmlns:xlink="http://www.w3.org/1999/xlink">
    <!-- Generator: Sketch 51 (57462) - http://www.bohemiancoding.com/sketch -->
    <title>产业导师_icon 按下_slice</title>
    <desc>Created with Sketch.</desc>
    <defs>
        <polygon id="path-1" points="0.0362385602 0.0839493469 56.413993 0.0839493469 56.413993 38.2508448 0.0362385602 38.2508448"></polygon>
    </defs>
    <g id="Page-1" stroke="none" stroke-width="1" fill="none" fill-rule="evenodd">
        <g id="Artboard" transform="translate(-139.000000, -43.000000)">
            <g id="产业导师-icon-按下" transform="translate(139.000000, 43.000000)">
                <polygon id="Fill-1" fill="#009FDE" points="0 42.045009 0 96.3529016 1.6431059 96.3529016 1.6431059 42.9664386 24.245548 28.3589988 35.473024 36.3099016 35.473024 57.8657231 37.116268 57.8657231 37.116268 35.4340859 24.2868397 26.3488885"></polygon>
                <polygon id="Fill-2" fill="#009FDE" points="23.44471 96.3529579 25.0876778 96.3529579 25.0876778 27.3538592 23.44471 27.3538592"></polygon>
                <polygon id="Fill-3" fill="#009FDE" points="28.9834186 61.1077052 28.9834186 96.3529157 30.6263864 96.3529157 30.6263864 62.0291348 53.2286904 47.4216951 64.4563045 55.3725978 64.4563045 96.3529157 66.0995485 96.3529157 66.0995485 54.4967821 53.2701202 45.4115848"></polygon>
                <polygon id="Fill-4" fill="#009FDE" points="52.4278938 96.3529579 54.0708616 96.3529579 54.0708616 46.4165414 52.4278938 46.4165414"></polygon>
                <g id="Group-36" transform="translate(3.176285, 0.056877)">
                    <path d="M65.9618773,76.7926897 L65.8192207,75.12398 C71.7479633,74.597308 77.2427978,71.8399176 81.2918703,67.3596157 C85.3645578,62.8529872 87.6074291,56.9941309 87.6074291,50.8621541 C87.6074291,47.3200351 86.8784027,43.9050438 85.4405124,40.7122093 C84.1334022,37.8100932 82.3109053,35.2375518 80.0185944,33.0577971 L63.7206632,42.933636 L63.2968363,42.68107 L47.4155508,33.0577971 C45.2690728,35.0988798 43.5286069,37.4941745 42.2394496,40.1835663 C40.8211694,43.1419959 40.0197789,46.3172325 39.857236,49.6210046 C39.8507454,49.7519335 39.8453595,49.8825808 39.8409403,50.0129466 L38.1988011,49.9552253 C38.2034965,49.8159901 38.2092967,49.6766142 38.2162016,49.5369567 C38.3899306,46.0058189 39.2469751,42.611382 40.7631677,39.448112 C42.2333732,36.3811382 44.2525236,33.6724589 46.7644124,31.397112 L47.2175163,30.9868682 L47.7352507,31.3027869 L63.7170726,40.9871599 L79.6958563,31.3046171 L80.2090334,30.9878537 L80.6668327,31.3945779 C83.3411263,33.8166215 85.4485222,36.7156403 86.9337806,40.0133588 C88.4711024,43.4269422 89.2506731,47.0770424 89.2506731,50.8621541 C89.2506731,57.4157782 86.8532687,63.6776984 82.5002395,68.4944734 C78.173173,73.2826694 72.2996701,76.2296955 65.9618773,76.7926897" id="Fill-5" fill="#009FDE"></path>
                    <g id="Group-9" transform="translate(35.491529, 0.000000)">
                        <mask id="mask-2" fill="white">
                            <use xlink:href="#path-1"></use>
                        </mask>
                        <g id="Clip-8"></g>
                        <path d="M28.2255709,1.76082453 C27.7956676,1.76082453 27.3654882,1.88246168 26.9821245,2.12587678 L2.78863989,17.4803151 C2.08557617,17.9265996 1.67086387,18.6969682 1.67928793,19.5412483 C1.68798818,20.3853877 2.11802952,21.1470277 2.82979349,21.5783891 L27.0234162,36.2386228 C27.7648715,36.6878637 28.6861322,36.6880045 29.4277256,36.2386228 L51.6849194,22.7516808 L51.6849194,33.3632556 C51.6849194,33.6521438 51.9155453,33.8871119 52.1989251,33.8871119 L53.6761737,33.8871119 C53.9595535,33.8871119 54.1900413,33.6521438 54.1900413,33.3632556 L54.1900413,21.4813891 L54.1712598,21.148154 L54.3387743,20.9085401 C54.7127473,20.3737026 54.8531943,19.6907607 54.7246239,19.0345676 C54.5974344,18.3862585 54.220147,17.8342454 53.6625019,17.4803151 L29.4690173,2.12587678 C29.0856535,1.88246168 28.6554741,1.76082453 28.2255709,1.76082453 M28.2255709,38.2508448 C27.519469,38.2508448 26.8135052,38.0600829 26.1839103,37.6784181 L1.99042573,23.0183253 C0.781227944,22.2855459 0.0508205556,20.9921656 0.0364582247,19.5584239 C0.0219577944,18.1245415 0.726126308,16.8162382 1.92027127,16.0583993 L26.1137558,0.703960958 C27.4164469,-0.12272119 29.0346949,-0.12272119 30.337524,0.703960958 L54.5308705,16.0583993 C55.4778176,16.6592643 56.1187367,17.5995589 56.3358288,18.7061192 C56.5342776,19.7179319 56.3510197,20.7708536 55.8331472,21.6389261 L55.8331472,33.3632556 C55.8331472,34.5756852 54.8654852,35.5621569 53.6761737,35.5621569 L52.1989251,35.5621569 C51.0094755,35.5621569 50.0419516,34.5756852 50.0419516,33.3632556 L50.0419516,25.6958913 L30.2672315,37.6784181 C29.6377747,38.0599421 28.9313966,38.2508448 28.2255709,38.2508448" id="Fill-7" fill="#009FDE" mask="url(#mask-2)"></path>
                    </g>
                    <path d="M6.50795883,47.7537476 L1.47037125,51.0551264 C0.850443331,51.4614283 0.0352429505,51.0076823 0.0352429505,50.2563194 L0.0352429505,45.4793862 C0.0352429505,45.1562875 0.196404876,44.8552919 0.245015842,44.8234747 L5.28260342,41.5220959 C6.12045209,40.9730393 6.93579057,41.4267853 6.93579057,42.1780074 L6.93579057,46.9549406 C6.93579057,47.2780393 6.77462864,47.579035 6.50795883,47.7537476" id="Fill-10" fill="#009FDE"></path>
                    <path d="M6.50795883,58.0617504 L1.47037125,61.3631292 C0.850443331,61.7694311 0.0352429505,61.3156851 0.0352429505,60.5643222 L0.0352429505,55.787389 C0.0352429505,55.4642903 0.196404876,55.1634354 0.245015842,55.1314775 L5.28260342,51.8300987 C6.12045209,51.2810421 6.93579057,51.7347881 6.93579057,52.4860102 L6.93579057,57.2629434 C6.93579057,57.5860421 6.77462864,57.8870377 6.50795883,58.0617504" id="Fill-12" fill="#009FDE"></path>
                    <path d="M6.50795883,68.369739 L1.47037125,71.6711179 C0.850443331,72.0774197 0.0352429505,71.6236737 0.0352429505,70.8723109 L0.0352429505,66.0953776 C0.0352429505,65.772279 0.196404876,65.4714241 0.245015842,65.4394662 L5.28260342,62.1380874 C6.12045209,61.5890308 6.93579057,62.0427768 6.93579057,62.7939988 L6.93579057,67.5709321 C6.93579057,67.8940308 6.77462864,68.1950264 6.50795883,68.369739" id="Fill-14" fill="#009FDE"></path>
                    <path d="M6.50795883,78.6777277 L1.47037125,81.9791065 C0.850443331,82.3854084 0.0352429505,81.9316624 0.0352429505,81.1802996 L0.0352429505,76.4033663 C0.0352429505,76.0802676 0.196404876,75.7794128 0.245015842,75.7474549 L5.28260342,72.4460761 C6.12045209,71.8970194 6.93579057,72.3507655 6.93579057,73.1019875 L6.93579057,77.8789208 C6.93579057,78.2020194 6.77462864,78.5030151 6.50795883,78.6777277" id="Fill-16" fill="#009FDE"></path>
                    <path d="M15.6440999,42.5997533 L10.6065123,45.9011321 C9.98658443,46.307434 9.17138405,45.853688 9.17138405,45.1023251 L9.17138405,40.3253919 C9.17138405,40.0022932 9.33254598,39.7014383 9.38115694,39.6694804 L14.4187445,36.3681016 C15.2565932,35.819045 16.0719317,36.272791 16.0719317,37.0240131 L16.0719317,41.8009463 C16.0719317,42.124045 15.9107697,42.4250406 15.6440999,42.5997533" id="Fill-18" fill="#009FDE"></path>
                    <path d="M15.6440999,52.9077419 L10.6065123,56.2091208 C9.98658443,56.6154226 9.17138405,56.1616766 9.17138405,55.4103138 L9.17138405,50.6333806 C9.17138405,50.3102819 9.33254598,50.009427 9.38115694,49.9774691 L14.4187445,46.6760903 C15.2565932,46.1270337 16.0719317,46.5807797 16.0719317,47.3320017 L16.0719317,52.108935 C16.0719317,52.4320337 15.9107697,52.7330293 15.6440999,52.9077419" id="Fill-20" fill="#009FDE"></path>
                    <path d="M15.6440999,63.2157447 L10.6065123,66.5171235 C9.98658443,66.9234254 9.17138405,66.4696794 9.17138405,65.7183165 L9.17138405,60.9413833 C9.17138405,60.6182846 9.33254598,60.317289 9.38115694,60.2854718 L14.4187445,56.984093 C15.2565932,56.4348956 16.0719317,56.8887824 16.0719317,57.6400045 L16.0719317,62.4169377 C16.0719317,62.7400364 15.9107697,63.0410321 15.6440999,63.2157447" id="Fill-22" fill="#009FDE"></path>
                    <path d="M15.6440999,73.5237475 L10.6065123,76.8251263 C9.98658443,77.2314282 9.17138405,76.7776821 9.17138405,76.0263193 L9.17138405,71.2493861 C9.17138405,70.9262874 9.33254598,70.6252917 9.38115694,70.5934746 L14.4187445,67.2920958 C15.2565932,66.7430392 16.0719317,67.1967852 16.0719317,67.9480073 L16.0719317,72.7249405 C16.0719317,73.0480392 15.9107697,73.3490348 15.6440999,73.5237475" id="Fill-24" fill="#009FDE"></path>
                    <path d="M36.1409277,68.1797514 L31.1033401,71.4811302 C30.4834122,71.8874321 29.6680737,71.4336861 29.6680737,70.6823232 L29.6680737,65.90539 C29.6680737,65.5822913 29.8293737,65.2812956 29.8779847,65.2494785 L34.9155723,61.9480997 C35.7534209,61.3990431 36.5687594,61.8527891 36.5687594,62.6040112 L36.5687594,67.3809444 C36.5687594,67.7040431 36.4075975,68.0050388 36.1409277,68.1797514" id="Fill-26" fill="#009FDE"></path>
                    <path d="M36.1409277,78.4877401 L31.1033401,81.7891189 C30.4834122,82.1954208 29.6680737,81.7416747 29.6680737,80.9903119 L29.6680737,76.2133787 C29.6680737,75.89028 29.8293737,75.5894251 29.8779847,75.5574672 L34.9155723,72.2560884 C35.7534209,71.7070318 36.5687594,72.1607778 36.5687594,72.9119999 L36.5687594,77.6889331 C36.5687594,78.0120318 36.4075975,78.3130274 36.1409277,78.4877401" id="Fill-28" fill="#009FDE"></path>
                    <path d="M36.1409277,88.7957428 L31.1033401,92.0971216 C30.4834122,92.5034235 29.6680737,92.0496775 29.6680737,91.2983147 L29.6680737,86.5213814 C29.6680737,86.1982827 29.8293737,85.8974279 29.8779847,85.86547 L34.9155723,82.5640911 C35.7534209,82.0150345 36.5687594,82.4687806 36.5687594,83.2200026 L36.5687594,87.9969358 C36.5687594,88.3200345 36.4075975,88.6210302 36.1409277,88.7957428" id="Fill-30" fill="#009FDE"></path>
                    <polygon id="Fill-32" fill="#009FDE" points="56.0930364 28.7922186 41.7989265 19.8839864 42.6558329 18.4548906 56.9499428 27.3631228"></polygon>
                    <polygon id="Fill-34" fill="#009FDE" points="63.1362406 33.2110261 58.1210251 30.0854862 58.9780696 28.6563904 63.993147 31.7819303"></polygon>
                </g>
            </g>
        </g>
    </g>
</svg>