<?xml version="1.0" encoding="UTF-8"?>
<svg width="97px" height="31px" viewBox="0 0 97 31" version="1.1" xmlns="http://www.w3.org/2000/svg" xmlns:xlink="http://www.w3.org/1999/xlink">
    <!-- Generator: Sketch 51 (57462) - http://www.bohemiancoding.com/sketch -->
    <title>标签_slice</title>
    <desc>Created with Sketch.</desc>
    <defs></defs>
    <g id="Symbols" stroke="none" stroke-width="1" fill="none" fill-rule="evenodd">
        <g id="Artboard" fill="#79C0DD">
            <path d="M94.8931956,-5.32907052e-14 C95.9977651,-5.30877991e-14 96.8931956,0.8954305 96.8931956,2 L96.8931956,29 C96.8931956,30.1045695 95.9977651,31 94.8931956,31 L15.3838643,31 C14.8504368,31 14.339112,30.7869072 13.9635547,30.4080912 L0.579690422,16.9080912 C-0.193230141,16.1284637 -0.193230141,14.8715363 0.579690422,14.0919088 L13.9635547,0.591908844 C14.339112,0.213092758 14.8504368,-2.62992524e-14 15.3838643,-2.62012634e-14 L94.8931956,-5.22467971e-14 Z M8,19 C9.65685425,19 11,17.6568542 11,16 C11,14.3431458 9.65685425,13 8,13 C6.34314575,13 5,14.3431458 5,16 C5,17.6568542 6.34314575,19 8,19 Z" id="标签"></path>
        </g>
    </g>
</svg>